<svg width="26" height="30" viewBox="0 0 26 30" fill="none" xmlns="http://www.w3.org/2000/svg">
<g clip-path="url(#clip0_593_585)">
<path d="M25.3135 0C25.5443 0.160445 25.6015 0.385067 25.5999 0.657431C25.5913 2.00517 25.596 3.3529 25.596 4.69985C25.596 5.24067 25.4645 5.37059 24.9159 5.37059C17.0635 5.37059 9.21108 5.37059 1.35791 5.37059H0.926665V24.8509C1.04172 24.8509 1.14737 24.8509 1.25303 24.8509C2.28849 24.8509 3.32394 24.8493 4.35861 24.8517C4.7155 24.8525 4.92134 25.027 4.91743 25.3103C4.91352 25.5827 4.71864 25.7517 4.37348 25.7533C3.10402 25.758 1.83376 25.758 0.564295 25.7533C0.157314 25.7517 0.00391328 25.5882 0.00391328 25.1741C0.00313063 16.9719 0.00391328 8.76966 0 0.566643C0 0.316193 0.102528 0.143226 0.2888 0H25.3135ZM0.914925 4.44705H24.6756V0.918056H0.914925V4.44705Z" fill="#555555"/>
<path d="M19.2831 23.5047C19.2784 27.0963 16.3622 30.0101 12.7815 30.0007C9.2001 29.9914 6.30193 27.0642 6.31523 23.471C6.32854 19.8755 9.23767 16.9828 12.8301 16.9922C16.3943 17.0024 19.2878 19.9217 19.2831 23.5047ZM7.20433 23.4867C7.20042 26.5688 9.69944 29.0897 12.7753 29.1069C15.8519 29.1242 18.3908 26.5923 18.394 23.5039C18.3971 20.4116 15.873 17.879 12.7917 17.8837C9.71979 17.8884 7.20746 20.4069 7.20355 23.4867H7.20433Z" fill="#29913C"/>
<path d="M10.9024 11.7765C10.9024 12.909 10.9032 14.0415 10.9024 15.174C10.9024 15.6045 10.7521 15.7539 10.3209 15.7539C8.15294 15.7555 5.98577 15.7555 3.81781 15.7539C3.38891 15.7539 3.22847 15.5974 3.22847 15.1748C3.2269 12.9098 3.2269 10.6448 3.22847 8.38054C3.22847 7.9579 3.3897 7.79903 3.81703 7.79903C5.98498 7.79746 8.15216 7.79746 10.3201 7.79903C10.7514 7.79903 10.9016 7.95086 10.9024 8.37976C10.904 9.51226 10.9024 10.6448 10.9024 11.7773V11.7765ZM4.15044 8.71786V14.8382H10.0016V8.71786H4.15044Z" fill="#29913C"/>
<path d="M24.6929 24.8517C24.6929 24.6756 24.6929 24.5402 24.6929 24.4048C24.6929 19.5907 24.6929 14.7765 24.6929 9.96164C24.6929 9.84502 24.6897 9.72606 24.7054 9.61101C24.7398 9.36291 24.8964 9.22046 25.1398 9.21733C25.3847 9.2142 25.5373 9.36369 25.5827 9.60475C25.6007 9.69945 25.5945 9.79885 25.5945 9.89668C25.5945 14.955 25.5945 20.0133 25.5945 25.0724C25.5945 25.6343 25.4708 25.7564 24.9011 25.7564C23.7192 25.7564 22.5374 25.7564 21.3556 25.7564C21.268 25.7564 21.1787 25.758 21.0926 25.7463C20.8352 25.711 20.6731 25.5357 20.6833 25.297C20.6943 25.0301 20.8539 24.8861 21.1067 24.8587C21.2907 24.8392 21.4777 24.8525 21.6632 24.8525C22.658 24.8525 23.6527 24.8525 24.6929 24.8525V24.8517Z" fill="#555555"/>
<path d="M17.9901 7.79763C19.2385 7.79763 20.4876 7.79607 21.7359 7.79998C21.8604 7.79998 22.0255 7.78981 22.0991 7.86025C22.2188 7.9753 22.3566 8.16235 22.3401 8.30166C22.3237 8.44019 22.1382 8.57324 22.0012 8.67499C21.9363 8.72351 21.8126 8.6969 21.7148 8.6969C19.2275 8.69769 16.7394 8.6969 14.2522 8.6969C14.1645 8.6969 14.0761 8.69847 13.9892 8.68673C13.7544 8.65542 13.6159 8.5122 13.5986 8.2821C13.5799 8.03478 13.716 7.87512 13.9532 7.81485C14.0455 7.79137 14.1465 7.79763 14.2436 7.79763C15.4919 7.79685 16.741 7.79763 17.9893 7.79763H17.9901Z" fill="#555555"/>
<path d="M17.9675 15.7551C16.7191 15.7551 15.47 15.7558 14.2217 15.7535C14.1066 15.7535 13.954 15.7692 13.8843 15.7058C13.7615 15.5923 13.6308 15.4318 13.6089 15.2761C13.5799 15.0687 13.7333 14.9153 13.954 14.8746C14.0487 14.8574 14.1481 14.8589 14.2452 14.8589C16.7324 14.8589 19.2197 14.8589 21.7078 14.8589C21.7273 14.8589 21.7469 14.8589 21.7665 14.8589C22.1531 14.8628 22.3652 15.0202 22.3668 15.3027C22.3683 15.586 22.1492 15.7551 21.772 15.7558C20.7381 15.7574 19.7042 15.7558 18.6703 15.7558C18.4363 15.7558 18.2023 15.7558 17.9683 15.7558L17.9675 15.7551Z" fill="#555555"/>
<path d="M16.5509 11.3237C17.3124 11.3237 18.0739 11.3237 18.8354 11.3237C18.9231 11.3237 19.0123 11.3213 19.0976 11.337C19.341 11.3824 19.4835 11.5342 19.4811 11.7807C19.4788 12.0273 19.3324 12.176 19.0898 12.219C19.0139 12.2323 18.9341 12.2308 18.8566 12.2308C17.314 12.2308 15.7721 12.2315 14.2295 12.23C14.1231 12.23 13.9845 12.248 13.918 12.1908C13.7889 12.0813 13.6441 11.9373 13.6089 11.7839C13.5611 11.5772 13.7059 11.4129 13.9196 11.355C14.0213 11.3276 14.1317 11.3244 14.2381 11.3244C15.009 11.3221 15.7807 11.3229 16.5516 11.3229L16.5509 11.3237Z" fill="#555555"/>
<path d="M20.4359 19.0913C19.9773 19.0913 19.5186 19.0952 19.06 19.0897C18.7258 19.0858 18.5215 18.9097 18.5192 18.6405C18.5168 18.3712 18.7195 18.1881 19.0537 18.1865C19.9906 18.1811 20.9274 18.1803 21.8643 18.1865C22.2024 18.1889 22.3926 18.3697 22.3855 18.6491C22.3785 18.9254 22.1867 19.0866 21.8408 19.0897C21.372 19.0944 20.9039 19.0913 20.4351 19.0913H20.4359Z" fill="#555555"/>
<path d="M5.15379 18.1843C5.61242 18.1843 6.07106 18.1796 6.5297 18.1859C6.87015 18.1898 7.07286 18.3588 7.0799 18.6257C7.08695 18.9028 6.87328 19.0883 6.52344 19.0898C5.60616 19.0938 4.68889 19.093 3.77162 19.0898C3.40846 19.0883 3.2128 18.9224 3.21436 18.6336C3.21593 18.3455 3.40768 18.1882 3.77866 18.1851C4.2373 18.1804 4.69593 18.1843 5.15457 18.1843H5.15379Z" fill="#555555"/>
<path d="M21.4151 12.2261C21.2499 12.2261 21.0825 12.2409 20.9189 12.2229C20.6661 12.1955 20.5064 12.0562 20.497 11.787C20.4884 11.5342 20.652 11.3471 20.9291 11.3323C21.2593 11.3143 21.592 11.3158 21.9222 11.3323C22.1899 11.3456 22.3707 11.5467 22.3668 11.7831C22.3637 12.0194 22.1813 12.2049 21.9113 12.2268C21.7469 12.2401 21.5802 12.2292 21.4151 12.2292C21.4151 12.2284 21.4151 12.2276 21.4151 12.2268V12.2261Z" fill="#555555"/>
<path d="M21.5809 22.4103C21.4346 22.4103 21.2867 22.4276 21.1434 22.4064C20.8977 22.3697 20.7607 22.2037 20.7638 21.9611C20.767 21.7318 20.9024 21.5596 21.1333 21.5377C21.4228 21.5103 21.7187 21.5072 22.0083 21.5353C22.2485 21.5588 22.3894 21.7271 22.3839 21.9791C22.3785 22.2311 22.2313 22.3759 21.9895 22.4096C21.8557 22.4283 21.7171 22.4127 21.5809 22.4127V22.4096V22.4103Z" fill="#555555"/>
<path d="M4.02283 22.4089C3.87726 22.4089 3.72856 22.4269 3.58533 22.405C3.35601 22.3698 3.22218 22.2242 3.21435 21.9863C3.20652 21.7491 3.32627 21.5707 3.55559 21.5472C3.86317 21.5151 4.17858 21.5151 4.48617 21.5457C4.71705 21.5691 4.83914 21.7546 4.8321 21.9847C4.82506 22.214 4.69201 22.3714 4.45956 22.4058C4.31633 22.4269 4.16841 22.4097 4.02205 22.4097L4.02283 22.4089Z" fill="#555555"/>
<path d="M24.5034 7.35681C24.5128 7.04453 24.7891 6.78625 25.1006 6.79878C25.4129 6.81052 25.6719 7.09306 25.6531 7.40064C25.6351 7.70353 25.3722 7.95006 25.0716 7.94615C24.7601 7.94145 24.494 7.66674 24.5034 7.35681Z" fill="#555555"/>
<path d="M9.98749 2.31124C11.1779 2.31124 12.3683 2.31124 13.558 2.31124C13.6362 2.31124 13.7145 2.30968 13.792 2.31124C14.1434 2.3222 14.3563 2.50221 14.3469 2.77614C14.3375 3.04303 14.1317 3.21365 13.7943 3.21443C11.2671 3.21599 8.74072 3.21678 6.21352 3.21443C5.87463 3.21443 5.67975 3.04224 5.67896 2.76518C5.6774 2.48891 5.86759 2.31594 6.21117 2.31437C7.46968 2.30889 8.72819 2.31203 9.98671 2.31203L9.98749 2.31124Z" fill="#555555"/>
<path d="M21.5833 3.26282V2.26807H22.5819V3.26282H21.5833Z" fill="#29913C"/>
<path d="M16.4741 3.26234V2.26367H17.4556V3.26234H16.4741Z" fill="#29913C"/>
<path d="M19.042 2.25781H20.0187V3.2604H19.042V2.25781Z" fill="#29913C"/>
<path d="M12.3558 22.2994C12.3558 21.919 12.3511 21.5386 12.3573 21.1583C12.362 20.857 12.5279 20.6801 12.7901 20.6754C13.0648 20.6707 13.2394 20.8538 13.2417 21.17C13.2472 21.775 13.2519 22.38 13.2386 22.9842C13.2339 23.1854 13.3012 23.2973 13.4703 23.4029C14.0737 23.7802 14.6677 24.1731 15.2602 24.566C15.5537 24.7608 15.6046 25.0543 15.3925 25.2837C15.2297 25.459 15.0301 25.4793 14.8352 25.3541C14.0729 24.8642 13.3098 24.3734 12.5624 23.86C12.4497 23.7825 12.3745 23.5869 12.3636 23.4397C12.3362 23.0609 12.3542 22.6798 12.3542 22.2986L12.3558 22.2994Z" fill="#29913C"/>
</g>
<defs>
<clipPath id="clip0_593_585">
<rect width="25.6539" height="30" fill="white"/>
</clipPath>
</defs>
</svg>
