<svg width="94" height="100" viewBox="0 0 94 100" fill="none" xmlns="http://www.w3.org/2000/svg">
<g clip-path="url(#clip0_512_554)">
<path d="M54.0147 0C55.6995 0.651651 56.9383 1.88255 58.1848 3.13301C66.5213 11.4929 74.8851 19.8274 83.2235 28.1854C86.2469 31.2166 86.2117 35.195 83.1883 38.2537C83.0278 38.4161 82.8654 38.5765 82.7049 38.739C79.6599 41.7839 76.617 44.8269 73.574 47.8719C73.3235 48.1223 73.0847 48.3826 72.6523 48.8366C73.2178 48.8366 73.5563 48.8366 73.8949 48.8366C77.9711 48.8366 82.0493 48.8288 86.1256 48.8386C90.7028 48.8503 93.4405 51.5724 93.4464 56.1359C93.4581 64.5173 93.4503 72.9007 93.4464 81.2822C93.4464 81.5757 93.4503 81.8712 93.4053 82.1608C93.2761 82.9945 92.7654 83.4387 91.9298 83.4171C91.1392 83.3976 90.6636 82.9475 90.5521 82.1608C90.5071 81.8399 90.513 81.5111 90.513 81.1843C90.511 78.7382 90.513 76.292 90.513 73.8459C90.513 73.4956 90.513 73.1473 90.513 72.75H18.8157C18.8157 73.1649 18.8157 73.5152 18.8157 73.8655C18.8157 80.1276 18.8157 86.3897 18.8157 92.6518C18.8157 95.5774 20.2873 97.0607 23.1875 97.0607C44.191 97.0607 65.1945 97.0607 86.1999 97.0607C89.014 97.0607 90.4895 95.6009 90.509 92.7966C90.5188 91.2957 90.5032 89.7967 90.5149 88.2957C90.5247 87.0511 91.0511 86.3995 92.0002 86.4132C92.9141 86.4249 93.4327 87.059 93.4444 88.239C93.4601 89.8691 93.4816 91.5011 93.4405 93.1312C93.3368 97.2505 90.5071 99.9922 86.3721 99.9961C78.3155 100.004 70.2609 99.998 62.2043 99.998C49.2241 99.998 36.242 99.998 23.2618 99.998C18.6592 99.998 15.8823 97.231 15.8823 92.642C15.8804 80.4759 15.8804 68.3118 15.8823 56.1457C15.8823 51.6546 18.6553 48.6566 23.1072 48.9129C26.1189 49.0871 28.2109 48.1674 30.1952 45.9443C33.1227 42.6645 36.3731 39.6724 39.4885 36.5629C39.741 36.3104 39.9934 36.0345 40.2967 35.8623C40.9445 35.4944 41.5746 35.6177 42.0677 36.1598C42.5315 36.6686 42.6137 37.2752 42.2321 37.8701C42.0423 38.1675 41.7722 38.418 41.5198 38.6705C38.4553 41.7409 35.3868 44.8073 32.3204 47.8758C32.0699 48.1263 31.8311 48.3865 31.3967 48.8386C31.9642 48.8386 32.3027 48.8386 32.6413 48.8386C44.2516 48.8386 55.8639 48.8327 67.4743 48.8542C68.1885 48.8542 68.6797 48.639 69.1787 48.136C73.1023 44.1733 77.0573 40.2399 80.9985 36.2948C83.0611 34.2302 83.0532 32.1696 80.975 30.0914C72.3979 21.5103 63.8207 12.9293 55.2416 4.35216C53.0695 2.18 51.0636 2.17804 48.9032 4.33455C47.3572 5.87855 45.825 7.43821 44.2595 8.96264C43.4415 9.75715 42.3436 9.63582 41.8583 8.74542C41.5002 8.0879 41.6255 7.46952 42.1362 6.95681C44.0031 5.08796 45.8465 3.19368 47.7799 1.39723C48.4277 0.792548 49.32 0.457917 50.1008 0C51.4061 0 52.7094 0 54.0147 0ZM18.8627 60.5957H90.4777C90.4777 58.7523 90.5071 56.993 90.466 55.2357C90.4406 54.1301 89.8907 53.2514 89.0374 52.5626C88.1392 51.8385 87.0786 51.7681 85.9847 51.77C65.1123 51.7759 44.2399 51.7739 23.3655 51.7759C23.0387 51.7759 22.7119 51.7759 22.3871 51.8013C20.5339 51.9442 19.0506 53.1868 18.896 55.0322C18.7414 56.8678 18.8627 58.7268 18.8627 60.5976V60.5957ZM18.8686 69.6601H90.4543V63.7013H18.8686V69.6601Z" fill="#555555"/>
<path d="M0 51.8463C0.0332675 50.1985 0.565547 48.7269 1.65163 47.4687C1.92756 47.1477 2.23088 46.8503 2.53028 46.5489C14.1269 34.9523 25.7236 23.3556 37.3202 11.759C37.5727 11.5065 37.8173 11.2326 38.1069 11.0291C38.7488 10.5751 39.4141 10.6044 39.9757 11.1484C40.5374 11.6924 40.5882 12.3578 40.1519 13.0114C39.9542 13.3049 39.6842 13.5535 39.4317 13.8059C27.8135 25.426 16.1934 37.0462 4.5733 48.6643C2.3659 50.8698 2.36395 52.8502 4.57917 55.0654C7.22882 57.717 9.88239 60.3686 12.532 63.0202C12.763 63.2511 13.0076 63.4722 13.1993 63.7325C13.669 64.3666 13.6592 65.0319 13.1289 65.6033C12.5653 66.21 11.8569 66.2922 11.1974 65.7775C10.6612 65.3587 10.1994 64.8421 9.71605 64.3587C7.20142 61.848 4.69658 59.3256 2.17413 56.8227C0.790591 55.4489 0.0352244 53.8149 0 51.8463H0Z" fill="#555555"/>
<path d="M57.0342 93.546C54.1008 93.546 51.1674 93.548 48.234 93.546C46.1186 93.5441 45.3789 92.7926 45.375 90.6478C45.373 89.1156 45.3652 87.5833 45.3769 86.0511C45.3906 84.2703 46.2067 83.4601 48.0501 83.4523C52.2222 83.4366 56.3943 83.4464 60.5665 83.4464C62.3923 83.4464 64.2181 83.4308 66.0419 83.4523C67.8383 83.4738 68.6661 84.3192 68.6778 86.1098C68.6876 87.7399 68.6935 89.37 68.6778 90.9981C68.6602 92.6458 67.7796 93.5323 66.1319 93.5401C63.1007 93.5538 60.0694 93.5441 57.0382 93.5441L57.0342 93.546ZM65.717 86.4522H48.3867V90.5304H65.717V86.4522Z" fill="#ED1C24"/>
<path d="M45.8524 26.663C43.8778 26.6004 42.0149 25.4928 40.966 23.26C39.9386 21.0682 40.1401 18.8608 41.7448 17.035C43.3984 15.1544 45.1831 13.3678 47.0656 11.7162C49.3885 9.67706 52.8914 9.96668 55.0361 12.1839C57.175 14.3952 57.3179 17.8961 55.2396 20.1759C53.6369 21.9312 51.9149 23.5809 50.1986 25.2286C49.1693 26.2169 47.821 26.6552 45.8543 26.663H45.8524ZM46.3983 23.8744C47.0089 23.6044 47.7447 23.4713 48.2085 23.0427C49.8797 21.4929 51.5059 19.8843 53.0577 18.2151C54.1183 17.0761 53.9853 15.3149 52.9168 14.2171C51.8444 13.1154 50.0636 12.9255 48.9306 13.9686C47.23 15.536 45.598 17.1838 44.0226 18.8745C43.1733 19.7865 43.1049 20.9469 43.6587 22.0721C44.1949 23.1602 45.1068 23.712 46.4003 23.8744H46.3983Z" fill="#ED1C24"/>
<path d="M78.8694 93.5459C77.4683 93.5459 76.0652 93.5596 74.664 93.542C73.0613 93.5224 72.2061 92.6594 72.1924 91.045C72.1768 89.317 72.1729 87.5891 72.1924 85.8611C72.2101 84.3915 73.0065 83.4991 74.4664 83.4737C77.3998 83.4228 80.3351 83.4228 83.2686 83.4737C84.7265 83.4991 85.5249 84.3935 85.5425 85.8611C85.564 87.6224 85.564 89.3816 85.5425 91.1428C85.5229 92.6379 84.656 93.4931 83.1707 93.544C83.1061 93.5459 83.0396 93.544 82.975 93.544C81.6052 93.544 80.2373 93.544 78.8675 93.544L78.8694 93.5459ZM82.5641 86.4423H75.1846V90.5616H82.5641V86.4423Z" fill="#ED1C24"/>
<path d="M33.6567 28.5962C35.0442 28.6138 35.7487 29.829 35.189 30.7821C35.0109 31.0834 34.737 31.3339 34.4845 31.5863C27.4103 38.6645 20.3341 45.7407 13.256 52.8169C13.0485 53.0243 12.8509 53.2493 12.6161 53.4176C11.937 53.901 11.2521 53.8697 10.6768 53.2669C10.1347 52.6994 10.1269 52.04 10.575 51.3961C10.7042 51.2102 10.8764 51.0556 11.0388 50.8952C18.2069 43.7251 25.3731 36.5549 32.5511 29.3966C32.9229 29.0248 33.4141 28.7704 33.6567 28.5962V28.5962Z" fill="#ED1C24"/>
<path d="M34.481 93.5462C33.0133 93.5462 31.5456 93.556 30.0779 93.5423C28.9821 93.5325 28.3656 93.0081 28.348 92.1098C28.3304 91.1725 28.9664 90.6167 30.1112 90.6128C33.0133 90.605 35.9173 90.605 38.8194 90.6128C39.9525 90.6167 40.6257 91.1862 40.6139 92.0942C40.6022 92.9963 39.9349 93.5345 38.7842 93.5423C37.3498 93.5521 35.9134 93.5442 34.479 93.5442L34.481 93.5462Z" fill="#ED1C24"/>
</g>
<defs>
<clipPath id="clip0_512_554">
<rect width="93.462" height="100" fill="white"/>
</clipPath>
</defs>
</svg>
