<svg width="300" height="384" viewBox="0 0 300 384" fill="none" xmlns="http://www.w3.org/2000/svg">
<g clip-path="url(#clip0_501_609)">
<path d="M170.77 0C178.12 2.09 183.39 7.06 188.59 12.34C202.6 26.56 216.7 40.7 230.94 54.69C236.82 60.47 239.59 67.19 239.57 75.41C239.48 115.21 239.53 155.01 239.51 194.81C239.51 196.41 239.46 198.1 238.97 199.59C238.07 202.3 235.91 203.44 233.1 203.1C230.43 202.77 228.81 201.17 228.42 198.51C228.23 197.16 228.3 195.77 228.3 194.4C228.3 155.1 228.3 115.8 228.3 76.5V71.38C226.55 71.3 225.23 71.19 223.91 71.19C211.56 71.18 199.2 71.21 186.85 71.18C175.61 71.15 168.37 64.03 168.28 52.72C168.17 40.37 168.25 28.02 168.25 15.67C168.25 14.33 168.25 12.99 168.25 11.45H11.57V288.15H15.89C53.45 288.15 91.01 288.15 128.57 288.15C129.82 288.15 131.08 288.08 132.31 288.21C135.15 288.51 136.88 290.13 137.22 292.97C137.58 295.98 136.23 298.11 133.33 298.96C131.93 299.37 130.38 299.36 128.89 299.36C90.71 299.38 52.52 299.38 14.34 299.37C4.40997 299.37 0.0799698 294.97 0.0799698 284.92C0.0799698 194.85 0.12997 104.77 -3.01863e-05 14.69C-0.0100302 7.58 2.40997 2.69 9.01997 0H170.77ZM179.59 20.12C179.59 31.77 179.46 43.06 179.66 54.35C179.73 58.06 182.41 59.92 186.68 59.94C196.89 59.98 207.1 59.96 217.32 59.94C217.98 59.94 218.64 59.73 219.17 59.64C206.04 46.53 193.02 33.54 179.59 20.13V20.12Z" fill="#555555"/>
<path d="M286.54 263.35H281.53C246.72 263.35 211.9 263.35 177.09 263.35C169.56 263.35 168.24 262 168.23 254.35C168.23 244.12 168.21 233.89 168.23 223.66C168.25 217.71 169.84 216.13 175.81 216.12C194.03 216.1 212.24 216.12 230.46 216.12C238.18 216.12 239.4 217.31 239.51 224.91C239.52 225.77 239.61 226.63 239.68 227.92C241.06 227.98 242.38 228.09 243.69 228.09C255.17 228.1 266.65 228.09 278.13 228.09C286.27 228.09 287.5 229.31 287.5 237.3C287.5 242.03 287.5 246.77 287.5 252.13C289.64 252.13 291.58 252.05 293.51 252.15C297.84 252.37 300.18 255.26 299.15 259.43C293.98 280.35 288.83 301.27 283.45 322.13C281.26 330.61 274.48 335.33 265.3 335.33C237.23 335.36 209.15 335.39 181.08 335.26C178.14 335.25 176.53 336.04 175.45 338.76C174.27 341.74 172.67 344.55 170.93 348.09C172.73 348.09 174.03 348.09 175.32 348.09C208.64 348.09 241.95 348.06 275.27 348.11C286.91 348.13 295.33 358.03 293.12 368.86C291.14 378.57 281.93 384.93 272.61 383C262.76 380.97 256.72 371.94 258.59 362.05C258.73 361.32 258.93 360.61 259.17 359.59H179.18C179.18 362.34 179.44 365.17 179.13 367.93C178.18 376.34 171.2 382.8 162.85 383.27C154.48 383.74 146.68 378.05 144.7 370.04C142.68 361.83 146.6 353.03 154.36 349.87C157.47 348.6 159.23 346.79 160.4 343.92C160.96 342.54 161.66 341.21 162.42 339.92C165.08 335.37 167.04 331.43 162.22 326.37C159.61 323.63 159.23 318.6 158.2 314.52C152.53 292.06 146.98 269.57 141.38 247.09C139.67 240.24 138.47 239.32 131.31 239.31C127.82 239.31 124.32 239.37 120.83 239.29C116.71 239.19 114.25 237.06 114.21 233.72C114.16 230.35 116.58 228.19 120.7 228.11C124.82 228.03 128.94 228.06 133.05 228.09C143.25 228.18 149.42 232.98 151.89 242.82C157.95 266.98 163.97 291.15 169.99 315.33C171.98 323.34 172.93 324.11 181.18 324.11C208.76 324.11 236.33 324.11 263.91 324.11C270.17 324.11 271.8 322.82 273.3 316.83C277.39 300.39 281.49 283.96 285.57 267.52C285.87 266.32 286.12 265.11 286.53 263.34L286.54 263.35ZM228.02 251.92V227.66H179.74V251.92H228.02ZM239.69 251.8H276.05V239.57H239.69V251.8ZM275.72 372.06C279.16 372.14 282.22 369.17 282.24 365.74C282.26 362.45 279.48 359.54 276.16 359.37C272.61 359.19 269.66 361.92 269.55 365.48C269.44 369.05 272.19 371.99 275.72 372.06ZM168.13 365.68C168.13 362.15 165.21 359.31 161.68 359.37C158.27 359.43 155.58 362.11 155.5 365.54C155.41 369.11 158.19 372.02 161.72 372.06C165.22 372.1 168.14 369.2 168.13 365.68Z" fill="#29913C"/>
<path d="M158.59 131.21C146.63 131.21 134.66 131.21 122.7 131.21C121.46 131.21 120.19 131.25 118.97 131.08C116.11 130.68 114.51 128.86 114.29 126.08C114.07 123.29 115.39 121.2 118.15 120.42C119.56 120.02 121.1 120 122.58 120C146.76 119.98 170.93 119.98 195.11 119.99C196.11 119.99 197.11 119.94 198.1 120.06C201.34 120.48 203.49 122.82 203.42 125.77C203.35 128.79 201.19 130.93 197.86 131.16C196.12 131.28 194.37 131.21 192.63 131.21C181.29 131.21 169.95 131.21 158.61 131.21H158.59Z" fill="#555555"/>
<path d="M158.81 185.25C146.72 185.25 134.64 185.25 122.55 185.25C121.31 185.25 120.05 185.25 118.83 185.06C115.96 184.6 114.4 182.71 114.28 179.94C114.15 177 115.64 174.91 118.65 174.3C119.98 174.03 121.37 174.04 122.74 174.04C146.79 174.03 170.84 174.03 194.88 174.04C195.75 174.04 196.63 174.01 197.5 174.08C201.08 174.37 203.35 176.5 203.41 179.58C203.47 182.8 201.1 185.19 197.31 185.22C184.48 185.31 171.64 185.25 158.81 185.25V185.27V185.25Z" fill="#555555"/>
<path d="M59.6 75.9101C66.21 69.2801 72.33 63.0601 78.56 56.9601C79.76 55.7801 81.45 54.2101 82.82 54.3001C84.78 54.4301 87.21 55.4501 88.42 56.9301C90.28 59.2001 89.42 61.9101 87.36 63.9901C81.65 69.7501 75.9 75.4701 70.17 81.2101C68.14 83.2401 66.17 85.3401 64.06 87.2701C61.14 89.9401 58.31 89.9601 55.45 87.2101C51.58 83.4901 47.78 79.7001 44.08 75.8201C41.53 73.1501 41.5 70.1401 43.72 67.8001C46.03 65.3601 49.23 65.3501 52 68.0101C54.52 70.4201 56.85 73.0301 59.6 75.9101V75.9101Z" fill="#29913C"/>
<path d="M59.65 130.03C66.3 123.31 72.36 117.03 78.62 110.97C80.04 109.6 82.23 108.18 83.98 108.27C85.68 108.36 88.28 110.1 88.68 111.6C89.19 113.49 88.55 116.5 87.22 117.94C81.41 124.27 75.17 130.22 69.08 136.3C67.32 138.06 65.62 139.9 63.74 141.54C61.13 143.82 58.19 143.82 55.7 141.44C51.73 137.65 47.85 133.76 44.05 129.81C41.51 127.16 41.49 124.15 43.74 121.81C46.05 119.4 49.27 119.4 52.03 122.06C54.54 124.48 56.85 127.1 59.64 130.05L59.65 130.03Z" fill="#29913C"/>
<path d="M59.51 184.12C66.33 177.26 72.45 171.06 78.62 164.9C81.95 161.57 85.22 161.2 87.73 163.75C90.18 166.24 89.75 169.63 86.5 172.89C79.29 180.13 72.06 187.36 64.81 194.56C61.23 198.11 58.4 198.12 54.87 194.65C51.31 191.16 47.76 187.65 44.3 184.07C41.57 181.24 41.44 178.21 43.78 175.79C46.03 173.46 49.33 173.55 52.11 176.07C53.4 177.24 54.63 178.48 55.81 179.77C56.99 181.05 58.08 182.42 59.52 184.13L59.51 184.12Z" fill="#29913C"/>
<path d="M59.57 238C66.3 231.25 72.44 225.08 78.61 218.93C81.86 215.69 85.28 215.28 87.73 217.76C90.18 220.23 89.74 223.63 86.49 226.89C79.37 234.04 72.23 241.18 65.07 248.3C61.11 252.24 58.49 252.27 54.61 248.43C51.24 245.1 47.88 241.77 44.57 238.38C41.59 235.33 41.34 232.36 43.75 229.84C46.13 227.34 49.57 227.57 52.6 230.58C54.89 232.86 57.04 235.29 59.57 238V238Z" fill="#29913C"/>
<path d="M134.75 77.1998C130.01 77.1998 125.27 77.2498 120.54 77.1798C116.68 77.1198 114.32 75.0298 114.23 71.7698C114.14 68.4098 116.64 66.0298 120.62 65.9998C130.09 65.9298 139.57 65.9298 149.04 65.9998C152.87 66.0298 155.25 68.2298 155.32 71.4698C155.4 74.9098 153.02 77.1198 148.95 77.1798C144.21 77.2498 139.48 77.1998 134.74 77.1998H134.75Z" fill="#555555"/>
</g>
<defs>
<clipPath id="clip0_501_609">
<rect width="299.42" height="383.36" fill="white"/>
</clipPath>
</defs>
</svg>
