<svg width="50" height="50" viewBox="0 0 50 50" fill="none" xmlns="http://www.w3.org/2000/svg">
<g clip-path="url(#clip0_562_601)">
<path d="M33.7222 10.6883C33.3975 11.4784 33.9113 11.766 34.5123 12.1215C40.266 15.5436 43.5459 20.575 44.2471 27.2513C44.294 27.6972 44.4491 27.9557 44.8498 28.1836C48.0312 29.9964 49.6712 33.5446 49.0701 37.2317C48.5046 40.6926 45.6868 43.5751 42.1645 44.2343C40.72 44.5041 39.269 44.4524 37.8634 43.9742C37.4804 43.8449 37.2187 43.8724 36.8891 44.1309C30.313 49.2916 21.1695 49.66 14.2687 44.9436C13.17 44.1923 12.3056 43.9402 10.9419 44.1907C5.4791 45.1957 0.612499 40.9043 0.832239 35.3833C0.958267 32.2164 2.4609 29.788 5.20928 28.1739C5.55504 27.9703 5.71823 27.7522 5.76024 27.3401C6.45986 20.4668 9.84968 15.3384 15.836 11.9179C16.2205 11.6982 16.3611 11.5091 16.3272 11.0454C16.0008 6.35977 19.5053 2.33174 24.2928 1.85509C28.7942 1.40754 33.0064 4.80059 33.5913 9.34728C33.6479 9.78514 33.6786 10.2279 33.7222 10.6883V10.6883ZM33.1809 13.6161C31.5539 17.1965 28.8298 19.2647 24.8405 19.2017C20.9789 19.1419 18.3856 17.0366 16.8248 13.5805C12.4542 15.2318 7.35659 22.8161 7.73952 27.1123C12.0309 26.626 15.4741 27.9735 17.3532 32.0306C19.3179 36.2752 17.9704 39.8443 14.6258 42.8286C20.5346 47.49 29.6473 47.5143 35.443 42.7769C33.9145 41.6621 32.8352 40.2208 32.2341 38.4322C31.6298 36.6355 31.52 34.7968 32.1986 33.034C33.9662 28.4421 37.4303 26.5807 42.2501 27.0929C41.9043 21.7739 38.214 16.0219 33.1842 13.6161H33.1809ZM25.0247 3.73743C21.2649 3.7245 18.2289 6.7427 18.2047 10.5171C18.1804 14.2462 21.197 17.2789 24.9504 17.2951C28.6569 17.3113 31.7607 14.2866 31.7817 10.6415C31.8027 6.82026 28.7991 3.75036 25.0247 3.73743V3.73743ZM9.4522 42.4715C13.1636 42.4974 16.2528 39.4566 16.2771 35.7517C16.3029 32.0161 13.2977 28.93 9.60247 28.8961C5.82164 28.8622 2.73881 31.8691 2.72104 35.6095C2.70326 39.3984 5.69076 42.4441 9.4522 42.4699V42.4715ZM33.7093 35.6709C33.7028 39.3483 36.7436 42.4699 40.3338 42.4699C44.1696 42.4699 47.2249 39.476 47.2492 35.6984C47.2718 31.9612 44.2471 28.9026 40.5229 28.8961C36.7323 28.8896 33.7174 31.8868 33.7109 35.6709H33.7093Z" fill="#455A64"/>
</g>
<defs>
<clipPath id="clip0_562_601">
<rect width="50" height="50" fill="white"/>
</clipPath>
</defs>
</svg>
