<svg width="512" height="512" viewBox="0 0 512 512" fill="none" xmlns="http://www.w3.org/2000/svg">
<g clip-path="url(#clip0_417_558)">
<path d="M384 0H298.667V21.3333C298.667 32.6492 294.171 43.5017 286.17 51.5032C278.168 59.5048 267.316 64 256 64C244.684 64 233.832 59.5048 225.83 51.5032C217.829 43.5017 213.333 32.6492 213.333 21.3333V0H128C111.026 0 94.7475 6.74284 82.7452 18.7452C70.7428 30.7475 64 47.0261 64 64V512H213.333V490.667C213.333 479.351 217.829 468.498 225.83 460.497C233.832 452.495 244.684 448 256 448C267.316 448 278.168 452.495 286.17 460.497C294.171 468.498 298.667 479.351 298.667 490.667V512H448V64C448 47.0261 441.257 30.7475 429.255 18.7452C417.253 6.74284 400.974 0 384 0V0ZM338.645 469.333C333.931 450.997 323.252 434.749 308.29 423.147C293.328 411.546 274.933 405.249 256 405.249C237.067 405.249 218.672 411.546 203.71 423.147C188.748 434.749 178.069 450.997 173.355 469.333H106.667V362.667H170.667V320H106.667V64C106.667 58.342 108.914 52.9158 112.915 48.9151C116.916 44.9143 122.342 42.6667 128 42.6667H173.355C178.069 61.0032 188.748 77.2512 203.71 88.8528C218.672 100.454 237.067 106.751 256 106.751C274.933 106.751 293.328 100.454 308.29 88.8528C323.252 77.2512 333.931 61.0032 338.645 42.6667H384C389.658 42.6667 395.084 44.9143 399.085 48.9151C403.086 52.9158 405.333 58.342 405.333 64V320H341.333V362.667H405.333V469.333H338.645Z" fill="#455A64"/>
<path d="M298.667 320H213.333V362.667H298.667V320Z" fill="#29913C"/>
</g>
<defs>
<clipPath id="clip0_417_558">
<rect width="512" height="512" fill="white"/>
</clipPath>
</defs>
</svg>
