<svg width="50" height="50" viewBox="0 0 50 50" fill="none" xmlns="http://www.w3.org/2000/svg">
<g clip-path="url(#clip0_562_596)">
<path d="M25.2516 48.9997C12.1392 49.0684 1.27476 38.3147 1.20034 25.1984C1.12591 11.897 11.8243 1.04595 25.0589 1.00015C38.3412 0.954345 49.1426 11.7023 49.196 25.019C49.2495 38.1715 38.5072 48.9291 25.2516 48.9997V48.9997ZM15.5475 44.4081C15.5895 44.3547 15.6487 44.3051 15.6697 44.2421C16.0971 42.9826 16.5208 41.7211 16.9406 40.4578C17.5208 38.7192 17.5399 38.704 19.349 38.704C23.4673 38.704 27.5856 38.704 31.7039 38.704C32.6313 38.704 32.929 38.9043 33.2267 39.7784C33.7458 41.307 34.2554 42.8394 34.7725 44.3757C42.0663 41.0455 48.3926 32.1105 46.6045 21.3129C44.8946 10.9943 36.2191 3.78829 26.4157 3.25394C15.5819 2.66234 6.16975 10.0287 3.93695 20.3702C1.71942 30.6449 7.19264 40.4311 15.5475 44.4081V44.4081ZM17.7116 45.3508C22.7478 47.1524 27.6714 47.1505 32.6638 45.347C32.1962 43.9463 31.7745 42.6371 31.3107 41.3433C31.2554 41.1868 30.9691 41.0169 30.7897 41.0169C27.057 40.9978 23.3223 40.9978 19.5895 41.0169C19.4101 41.0169 19.1238 41.1868 19.0666 41.3433C18.6028 42.6371 18.1811 43.9463 17.7116 45.3528V45.3508Z" fill="#455A64"/>
<path d="M25.1929 35.263C20.5269 35.263 15.8609 35.2515 11.195 35.2744C10.4163 35.2782 9.91825 35.0206 9.51558 34.3412C3.04427 23.4387 9.28276 9.49608 21.7368 7.04572C32.252 4.97895 42.3549 12.559 43.3683 23.2192C43.75 27.2325 42.8263 30.9042 40.8798 34.3775C40.5095 35.0359 40.0172 35.2973 39.2615 35.2954C34.5726 35.2725 29.8818 35.284 25.1929 35.284C25.1929 35.2763 25.1929 35.2687 25.1929 35.263V35.263ZM32.0039 32.9882H37.3912C39.1431 32.9882 39.1546 32.992 39.8531 31.3546C40.5534 29.7115 41.0343 28.0111 41.1088 26.139C40.4008 26.139 39.7615 26.1467 39.1241 26.139C38.2863 26.1276 37.771 25.6867 37.771 24.9959C37.771 24.3299 38.3111 23.8795 39.1431 23.8681C39.7996 23.8585 40.458 23.8681 41.1565 23.8681C40.8645 20.2689 39.584 17.204 37.2233 14.4369C36.708 14.9941 36.2729 15.4998 35.7997 15.9655C35.2291 16.5284 34.5688 16.5494 34.0993 16.0666C33.6337 15.5857 33.6699 14.9388 34.2443 14.3663C34.7157 13.8987 35.2271 13.4712 35.771 12.9808C32.9734 10.5991 29.9104 9.31096 26.4276 9.03997C26.3818 9.12967 26.3417 9.17165 26.3417 9.21364C26.3322 9.83195 26.3322 10.4503 26.3188 11.0686C26.3017 11.8663 25.8742 12.3758 25.2196 12.393C24.5383 12.4102 24.0841 11.8835 24.0727 11.0476C24.0631 10.3892 24.0727 9.7289 24.0727 9.0228C20.4792 9.32623 17.4105 10.5953 14.6243 12.9865C14.9487 13.2499 15.2178 13.4502 15.464 13.6735C15.7102 13.8968 15.943 14.1373 16.1701 14.3796C16.7178 14.9655 16.7541 15.6143 16.2751 16.0838C15.796 16.5533 15.1491 16.5189 14.5747 15.9464C14.1052 15.4769 13.6758 14.9655 13.1816 14.4216C10.8037 17.2097 9.51939 20.2746 9.24459 23.7574C9.33237 23.8051 9.37436 23.8452 9.41443 23.8452C10.0327 23.8547 10.6511 23.8566 11.2694 23.8681C12.0709 23.8852 12.5766 24.307 12.5957 24.9635C12.6148 25.6448 12.0881 26.1047 11.256 26.118C10.5957 26.1276 9.93542 26.1199 9.23696 26.1199C9.3381 28.0054 9.79993 29.7134 10.5003 31.3623C11.2045 33.0168 11.2102 33.0149 13.0232 33.0149H14.5232C15.8285 33.0149 17.1338 33.0149 18.4239 33.0149C18.4926 32.7859 18.5422 32.6275 18.5861 32.4672C19.5651 28.8566 22.9143 26.7268 26.5593 27.473C27.1929 27.6028 27.5555 27.4692 27.9849 27.0474C29.7635 25.2917 31.5726 23.5665 33.376 21.8376C34.0153 21.2269 34.6432 21.1849 35.1317 21.6887C35.6241 22.1963 35.5649 22.8242 34.9409 23.4368C34.1775 24.1887 33.3856 24.91 32.6298 25.6715C31.5974 26.7115 30.5898 27.7764 29.5726 28.8298C31.1031 30.4157 31.2921 30.7363 32.002 32.9939L32.0039 32.9882ZM29.4944 32.9634C29.2196 30.9939 27.0555 29.4253 24.8475 29.5531C22.8952 29.6657 20.9353 31.3584 20.8933 32.9634H29.4944Z" fill="#455A64"/>
</g>
<defs>
<clipPath id="clip0_562_596">
<rect width="50" height="50" fill="white"/>
</clipPath>
</defs>
</svg>
