<svg width="50" height="50" viewBox="0 0 50 50" fill="none" xmlns="http://www.w3.org/2000/svg">
<path d="M25.1865 44.1959C23.5003 44.1567 22.3107 43.5848 21.2993 42.5684C18.3401 39.5897 15.363 36.6289 12.3941 33.6599C8.63425 29.8969 4.87118 26.1354 1.10974 22.374C0.279672 21.5439 0.28294 21.1877 1.12444 20.3462C5.80745 15.6616 10.4937 10.9786 15.1784 6.29555C15.9496 5.52431 16.3418 5.52595 17.1195 6.30372C18.7356 7.91647 20.3581 9.52104 21.9545 11.1534C22.2846 11.49 22.6179 11.6142 23.0771 11.6044C24.381 11.5782 25.6865 11.6158 26.9905 11.5799C27.2764 11.5717 27.6277 11.4344 27.8303 11.2351C29.5084 9.59784 31.1571 7.93117 32.8156 6.27595C33.5591 5.53412 33.9659 5.53248 34.7143 6.28085C39.4284 10.9933 44.1424 15.7057 48.8548 20.4181C49.6016 21.1648 49.5967 21.6093 48.832 22.3723C44.7911 26.4018 40.7486 30.4295 36.7094 34.4589C33.997 37.1648 31.2927 39.8789 28.5803 42.5848C27.4905 43.673 26.2813 44.2008 25.1865 44.1942V44.1959ZM20.2029 12.1011C15.7307 16.5733 11.3156 20.9867 6.88752 25.4148C6.90222 25.4312 6.98229 25.5227 7.06725 25.6076C12.2846 30.825 17.5019 36.0439 22.7208 41.2596C22.8352 41.374 22.9545 41.4884 23.082 41.5897C24.4496 42.6795 26.4267 42.3756 27.4414 40.8936C27.296 40.7416 27.149 40.5782 26.9921 40.4214C25.2192 38.6485 23.4463 36.8756 21.6735 35.1027C21.5297 34.9589 21.3761 34.8201 21.2601 34.6534C20.9643 34.2269 20.997 33.7988 21.3597 33.4344C21.7241 33.0701 22.1522 33.039 22.5787 33.3331C22.7437 33.4475 22.8842 33.6011 23.028 33.7449C24.8173 35.5308 26.6032 37.3184 28.3924 39.1044C28.5444 39.2563 28.7078 39.3969 28.7699 39.454C29.479 38.74 30.1342 38.0831 30.8842 37.3266C30.765 37.2416 30.5607 37.1338 30.4022 36.9769C28.4659 35.0505 26.5346 33.1191 24.6048 31.1861C24.4463 31.0276 24.2764 30.8723 24.1588 30.6861C23.8957 30.271 23.9512 29.8593 24.2944 29.5178C24.6375 29.1746 25.0476 29.1272 25.4643 29.3854C25.6179 29.4802 25.747 29.6174 25.8777 29.7449C27.845 31.6975 29.8107 33.6518 31.778 35.6044C31.9333 35.7596 32.0967 35.9067 32.2045 36.0096C32.8842 35.3217 33.5346 34.6665 34.3009 33.8903C32.4708 32.106 30.5885 30.2727 28.7094 28.4377C28.5346 28.2678 28.3532 28.1011 28.1947 27.9148C27.8222 27.4737 27.8254 26.9737 28.1898 26.5929C28.5689 26.1959 29.0934 26.1893 29.5591 26.5782C29.6522 26.6567 29.7339 26.7482 29.8205 26.8348C31.6277 28.6305 33.4349 30.4263 35.2437 32.2204C35.3957 32.3707 35.5591 32.5112 35.6359 32.5815C36.5003 31.7286 37.3075 30.9312 38.2307 30.0194C35.1604 26.9459 32.0575 23.8397 28.9137 20.6926C27.7584 21.856 26.7323 22.9018 25.6931 23.9328C24.6522 24.9655 23.4006 25.3266 21.9905 24.9393C19.2388 24.1844 18.3532 20.8168 20.3646 18.7318C21.8793 17.1632 23.4431 15.642 24.9839 14.0978C25.1359 13.9459 25.2748 13.7841 25.5166 13.5194C24.9267 13.5194 24.461 13.4737 24.0084 13.5276C22.4627 13.7106 21.0983 13.4573 20.149 12.075C20.1391 12.0603 20.113 12.057 20.198 12.0978L20.2029 12.1011ZM43.0427 25.2204C38.6326 20.8593 34.2061 16.4818 29.7519 12.0766C29.6473 12.1763 29.4839 12.3266 29.3271 12.4818C26.9055 14.9018 24.4856 17.3217 22.064 19.7433C21.9349 19.8724 21.7993 19.9982 21.6784 20.1354C21.1653 20.7286 21.082 21.5848 21.4659 22.2416C21.8728 22.9377 22.6686 23.3086 23.4561 23.0668C23.8254 22.9524 24.1898 22.7057 24.4692 22.4312C26.3156 20.6174 28.1359 18.7776 29.9692 16.9524C30.5117 16.4132 31.0313 16.3609 31.4692 16.7776C31.9218 17.209 31.8695 17.7547 31.3156 18.3217C30.9659 18.6795 30.6097 19.0325 30.3499 19.2939C33.4774 22.4769 36.5427 25.5962 39.5705 28.6795C40.7307 27.5243 41.8646 26.3936 43.0427 25.2204V25.2204ZM16.2437 8.21712C11.8124 12.6485 7.39569 17.0635 3.04928 21.4099C3.79765 22.1599 4.61464 22.9753 5.33686 23.6991C9.71268 19.3233 14.1293 14.9083 18.5313 10.508C17.7911 9.76614 16.9856 8.96059 16.2454 8.21712H16.2437ZM33.7715 8.24817C32.9986 9.02431 32.1735 9.85111 31.448 10.5799C35.7715 14.9573 40.1457 19.3854 44.4594 23.7531C45.2878 22.9263 46.0999 22.1142 46.9398 21.2743C42.5607 16.9442 38.1359 12.5668 33.7699 8.2498L33.7715 8.24817Z" fill="#455A64"/>
</svg>
