<svg width="220" height="326" viewBox="0 0 220 326" fill="none" xmlns="http://www.w3.org/2000/svg">
<path d="M210.469 78.2824C210.469 78.2824 210.025 78.1675 209.235 78.0066C208.12 77.7841 206.974 77.753 205.848 77.9146C204.184 78.1512 202.615 78.8374 201.312 79.8993C199.722 81.2032 198.601 82.9893 198.116 84.9875V85.0488L197.925 85.8151L197.634 85.1024C196.855 83.2033 195.519 81.5844 193.802 80.4587C192.402 79.5407 190.79 78.9948 189.12 78.8725C187.565 78.7902 186.008 78.9875 184.522 79.4549C184.881 79.2257 185.275 79.055 185.687 78.9491C186.801 78.5987 187.969 78.4508 189.136 78.5123C190.88 78.5889 192.575 79.117 194.055 80.0449C195.871 81.2034 197.284 82.895 198.101 84.8878H197.618V84.8265C198.117 82.7087 199.312 80.8196 201.013 79.4625C202.387 78.3635 204.046 77.6778 205.795 77.4855C206.96 77.3457 208.141 77.4316 209.274 77.7384C209.7 77.8496 210.105 78.0336 210.469 78.2824V78.2824Z" fill="#E0E0E0"/>
<path d="M131.378 72.9215C131.976 68.6073 125.884 65.0594 121.309 64.6916C119.125 64.5153 116.857 64.8448 114.788 64.1245C110.313 62.5919 108.519 56.7758 104.152 54.929C100.88 53.5497 97.117 54.7758 93.9522 56.3697C90.7875 57.9635 87.6534 59.9712 84.1131 60.2011C81.0479 60.3927 77.6916 59.2509 75.0019 60.7605C72.9943 61.8793 71.9368 64.1935 70.09 65.5575C68.2433 66.9215 65.9214 67.1743 63.6762 67.2969C61.431 67.4195 59.0784 67.4425 57.0554 68.3774C55.0324 69.3123 53.3236 71.4426 53.7451 73.6801L131.378 72.9215Z" fill="#EBEBEB"/>
<path d="M63.3967 50.8531C63.8642 47.4585 59.0749 44.6692 55.481 44.378C53.7645 44.2401 51.979 44.5006 50.3545 43.9335C46.8372 42.7075 45.4273 38.1557 41.9943 36.7074C39.4272 35.6346 36.4693 36.5925 33.9789 37.8415C31.4885 39.0906 29.021 40.6768 26.2394 40.8531C23.8179 41.0063 21.1972 40.0868 19.0746 41.2898C17.496 42.1711 16.6684 43.9948 15.2431 45.06C13.8178 46.1251 11.9404 46.3627 10.1703 46.4316C8.40018 46.5006 6.58408 46.5466 4.97487 47.2822C3.36567 48.0179 2.03998 49.719 2.36949 51.4508L63.3967 50.8531Z" fill="#F9F9F9"/>
<path d="M135.596 9.89348C135.91 7.59461 132.668 5.70954 130.232 5.51031C129.067 5.41835 127.864 5.5946 126.76 5.21145C124.377 4.3762 123.427 1.30338 121.097 0.314869C119.358 -0.413106 117.358 0.23824 115.672 1.08116C113.986 1.92408 112.316 2.99688 110.431 3.11949C108.798 3.2191 107.013 2.61374 105.58 3.41068C104.515 4.00838 103.956 5.24211 102.967 5.97008C101.943 6.59993 100.759 6.91935 99.557 6.88963C98.3562 6.86457 97.161 7.06202 96.0321 7.47201C95.4738 7.68953 95.0006 8.08151 94.6831 8.58961C94.3655 9.09772 94.2205 9.69479 94.2696 10.292L135.596 9.89348Z" fill="#F9F9F9"/>
<path d="M91.4412 94.2108C91.4412 94.2644 90.5676 93.9119 88.9431 93.5518C86.648 93.0485 84.2821 92.9551 81.9545 93.2759C78.4986 93.7324 75.2378 95.1412 72.5368 97.3449C69.2243 100.039 66.8876 103.746 65.8854 107.897C65.8854 107.935 65.8854 107.973 65.8854 108.012L65.6938 108.778L65.4027 108.058C63.7697 104.129 60.9827 100.789 57.4103 98.479C54.5015 96.5863 51.1563 95.4704 47.6937 95.2376C45.3603 95.0716 43.0155 95.2865 40.7511 95.8736C39.1496 96.2951 38.299 96.6399 38.2837 96.6399C38.4729 96.5234 38.6731 96.4259 38.8814 96.3487C39.4777 96.0721 40.0921 95.8366 40.7205 95.6437C42.9992 94.9889 45.3734 94.7297 47.7397 94.8775C51.2822 95.0673 54.7148 96.1736 57.7015 98.0882C61.3664 100.444 64.2203 103.868 65.8778 107.897L65.395 107.943V107.82C66.4202 103.562 68.8264 99.7625 72.238 97.0154C75.0173 94.7836 78.3685 93.3789 81.9085 92.9617C84.275 92.6678 86.6754 92.8132 88.989 93.3909C89.615 93.5446 90.2295 93.7417 90.8281 93.9809C91.0399 94.0361 91.2453 94.1132 91.4412 94.2108V94.2108Z" fill="#263238"/>
<path d="M136.819 93.7116C136.819 93.7116 136.328 93.5736 135.432 93.3821C134.17 93.1286 132.874 93.0923 131.6 93.2748C129.72 93.5332 127.948 94.3077 126.481 95.5123C124.682 96.9829 123.412 99.0009 122.864 101.26V101.321L122.673 102.087L122.382 101.367C121.502 99.2239 119.992 97.3987 118.052 96.133C116.468 95.0954 114.646 94.4783 112.757 94.3399C111.471 94.2356 110.177 94.3417 108.926 94.6541C108.044 94.8687 107.569 95.0602 107.554 95.0219C107.539 94.9836 107.661 94.9453 107.884 94.838C108.203 94.689 108.534 94.5635 108.872 94.4625C110.438 93.9835 112.09 93.8492 113.713 94.0688C115.336 94.2884 116.892 94.8566 118.274 95.7346C120.315 97.0408 121.904 98.9429 122.826 101.183H122.343V101.114C122.919 98.7441 124.267 96.6333 126.175 95.1139C127.719 93.8841 129.578 93.1116 131.539 92.884C132.85 92.7331 134.178 92.8266 135.455 93.1598C135.8 93.2492 136.138 93.3644 136.466 93.5047C136.711 93.6349 136.826 93.6886 136.819 93.7116Z" fill="#263238"/>
<path d="M154.39 62.0273C154.39 62.0273 153.915 62.5791 153.049 63.5599C151.834 64.9421 150.737 66.4237 149.769 67.9891C146.552 73.1587 144.865 79.134 144.903 85.2229C144.899 85.2944 144.899 85.366 144.903 85.4375H144.397C143.903 82.1683 142.837 79.0116 141.248 76.1117C139.076 72.1281 136.01 68.7024 132.29 66.104C131.722 65.7491 131.172 65.3654 130.643 64.9546C130.807 65.0132 130.963 65.0904 131.11 65.1845C131.409 65.353 131.876 65.5753 132.405 65.9507C133.956 66.9426 135.397 68.0959 136.704 69.3914C141.096 73.694 143.973 79.306 144.903 85.3838H144.397V85.1693C144.353 78.988 146.116 72.9286 149.47 67.7362C150.472 66.1714 151.624 64.7084 152.911 63.3683C153.355 62.8779 153.746 62.5484 153.991 62.3109C154.117 62.2067 154.25 62.1119 154.39 62.0273V62.0273Z" fill="#263238"/>
<path d="M129.447 210.694C129.916 210.466 130.363 210.194 130.781 209.881C131.585 209.345 132.681 208.594 133.846 207.743L134.451 207.314L134.229 207.261C134.873 208.387 135.447 209.376 135.876 210.073C136.091 210.465 136.348 210.833 136.643 211.169C136.505 210.749 136.317 210.348 136.083 209.973C135.708 209.245 135.156 208.234 134.551 207.107L134.459 206.954L134.321 207.054L133.708 207.483C132.512 208.333 131.409 209.115 130.643 209.697C130.209 209.985 129.809 210.319 129.447 210.694Z" fill="#263238"/>
<path d="M217.73 295.375C218.699 281.532 208.262 269.524 194.419 268.555C180.576 267.586 168.568 278.023 167.599 291.866C166.63 305.709 177.067 317.717 190.91 318.686C204.753 319.655 216.761 309.218 217.73 295.375Z" fill="#263238"/>
<path d="M166.514 293.153V293.222C166.485 299.827 169.063 306.176 173.69 310.889C178.316 315.603 184.615 318.301 191.219 318.395C197.823 318.49 204.197 315.975 208.957 311.396C213.716 306.817 216.476 300.545 216.637 293.943C216.637 293.943 216.637 293.897 216.637 293.881L166.514 293.153Z" fill="#263238"/>
<path d="M173.975 293.333C173.92 296.821 174.9 300.247 176.792 303.177C178.685 306.107 181.404 308.41 184.607 309.794C187.809 311.177 191.349 311.58 194.78 310.95C198.211 310.32 201.378 308.686 203.88 306.255C206.382 303.824 208.106 300.706 208.834 297.294C209.562 293.883 209.262 290.332 207.971 287.092C206.68 283.851 204.456 281.066 201.581 279.091C198.707 277.115 195.31 276.036 191.822 275.992C187.158 275.932 182.661 277.724 179.316 280.975C175.97 284.225 174.05 288.669 173.975 293.333V293.333Z" fill="#FAFAFA"/>
<path d="M191.824 275.992C187.16 275.932 182.663 277.724 179.317 280.975C175.972 284.225 174.052 288.669 173.977 293.333L209.165 293.839C209.224 289.175 207.433 284.677 204.182 281.332C200.932 277.987 196.488 276.066 191.824 275.992Z" fill="#E0E0E0"/>
<path d="M180.848 293.432C180.816 295.554 181.415 297.638 182.568 299.42C183.721 301.202 185.376 302.602 187.325 303.442C189.274 304.283 191.428 304.527 193.515 304.143C195.603 303.759 197.529 302.764 199.051 301.285C200.573 299.806 201.623 297.909 202.066 295.833C202.509 293.758 202.327 291.597 201.543 289.625C200.758 287.653 199.406 285.959 197.658 284.755C195.91 283.552 193.844 282.894 191.722 282.865C188.879 282.826 186.137 283.917 184.098 285.898C182.059 287.88 180.89 290.589 180.848 293.432V293.432Z" fill="#263238"/>
<path d="M179.677 256.833C179.677 256.833 205.34 249.07 215.961 276.948L162.259 293.584L179.677 256.833Z" fill="#455A64"/>
<path d="M11.859 293.223C11.7883 298.18 13.1891 303.047 15.8843 307.208C18.5795 311.369 22.4481 314.637 27.0008 316.599C31.5535 318.562 36.5859 319.13 41.4615 318.232C46.337 317.334 50.8368 315.01 54.3918 311.555C57.9469 308.1 60.3974 303.668 61.4335 298.82C62.4697 293.972 62.0449 288.925 60.2129 284.319C58.3809 279.712 55.224 275.752 51.1414 272.94C47.0588 270.127 42.2339 268.588 37.2768 268.518C33.9855 268.471 30.717 269.072 27.6581 270.288C24.5992 271.504 21.8099 273.31 19.4495 275.605C17.089 277.899 15.2038 280.636 13.9014 283.659C12.599 286.682 11.905 289.932 11.859 293.223V293.223Z" fill="#263238"/>
<path d="M11.8606 293.153V293.222C11.8315 299.827 14.4102 306.176 19.0362 310.889C23.6622 315.603 29.9617 318.301 36.5655 318.395C43.1693 318.49 49.5437 315.975 54.3033 311.396C59.0628 306.817 61.8229 300.545 61.9836 293.943C61.9836 293.943 61.9836 293.897 61.9836 293.881L11.8606 293.153Z" fill="#263238"/>
<path d="M19.3226 293.333C19.2667 296.821 20.2476 300.248 22.1411 303.179C24.0346 306.11 26.7554 308.413 29.9588 309.796C33.1623 311.179 36.7042 311.58 40.1358 310.948C43.5674 310.317 46.7343 308.68 49.2352 306.247C51.7361 303.814 53.4586 300.693 54.1842 297.28C54.9099 293.867 54.6062 290.316 53.3116 287.076C52.0169 283.835 49.7897 281.052 46.9119 279.079C44.0342 277.106 40.6355 276.031 37.1465 275.991C32.4864 275.938 27.995 277.733 24.6547 280.982C21.3144 284.232 19.3972 288.673 19.3226 293.333V293.333Z" fill="#FAFAFA"/>
<path d="M37.1481 275.992C32.4842 275.932 27.9868 277.724 24.6415 280.975C21.2963 284.225 19.3759 288.669 19.3013 293.333L54.4893 293.839C54.5487 289.175 52.7568 284.677 49.5064 281.332C46.2559 277.987 41.8119 276.066 37.1481 275.992Z" fill="#E0E0E0"/>
<path d="M26.1989 293.432C26.1673 295.554 26.7658 297.638 27.9188 299.42C29.0718 301.202 30.7273 302.602 32.6761 303.442C34.6248 304.283 36.7792 304.527 38.8665 304.143C40.9539 303.759 42.8804 302.764 44.4025 301.285C45.9245 299.806 46.9736 297.909 47.4171 295.833C47.8605 293.758 47.6784 291.597 46.8937 289.625C46.109 287.653 44.757 285.959 43.0088 284.755C41.2606 283.552 39.1948 282.894 37.0726 282.865C34.2299 282.826 31.488 283.917 29.4491 285.898C27.4103 287.88 26.2413 290.589 26.1989 293.432V293.432Z" fill="#263238"/>
<path d="M72.5744 283.523C72.3981 283.592 59.3712 281.485 59.3712 281.485C58.6659 282.407 57.7675 283.164 56.7391 283.703C55.7106 284.241 54.5769 284.549 53.4172 284.604C47.7849 284.872 42.2677 285.125 37.4937 285.37C35.3646 285.467 33.3605 286.403 31.9179 287.971C30.4754 289.54 29.7114 291.616 29.7925 293.745V293.745C29.8792 295.775 30.7253 297.698 32.1631 299.133C33.6009 300.568 35.5253 301.41 37.555 301.493L65.31 302.581C69.9077 302.765 75.9461 299.991 78.7967 296.45L72.5744 283.523Z" fill="#455A64"/>
<path d="M4.38124 272.428C4.38124 272.428 3.18583 248.007 26.1438 242.911V239.784H106.558V247.248C106.558 247.248 94.7574 261.463 98.6118 273.263C102.466 285.064 103.669 286.29 103.669 286.29H149.44C153.048 281.211 155.06 275.17 155.218 268.942C155.463 258.589 151.156 240.872 147.945 229.554C145.026 219.255 143.179 210.65 143.179 210.65L156.903 206.052C156.903 206.052 182.314 239.271 183.348 241.141C184.383 243.01 187.946 247.363 187.088 256.911C186.229 266.459 163.425 295.93 157.409 299.256C151.394 302.582 145.961 302.789 140.597 303.624C135.907 304.344 101.263 303.861 92.198 303.723C89.0469 303.706 85.9574 302.849 83.2477 301.241C80.535 299.601 78.4967 296.88 76.2515 292.413L71.4775 283.072L4.38124 272.428Z" fill="#455A64"/>
<path d="M10.5343 270.755L0.40399 286.595C0.113771 287.037 -0.0264213 287.561 0.00410995 288.09C0.0346413 288.618 0.234279 289.123 0.573546 289.529C0.912813 289.935 1.37373 290.222 1.88823 290.346C2.40273 290.47 2.94355 290.426 3.43083 290.219C4.69101 289.662 5.84085 288.884 6.82549 287.92C11.4615 283.506 19.7221 271.897 19.7221 271.897L10.5343 270.755Z" fill="#455A64"/>
<path d="M83.1709 273.585C83.1822 273.507 83.2002 273.431 83.2245 273.356C83.2756 273.197 83.3446 272.975 83.4314 272.689C83.6752 271.833 83.852 270.959 83.9602 270.076C84.3131 266.803 83.7839 263.496 82.4276 260.497C81.5063 258.432 80.2448 256.536 78.6958 254.888C76.9124 253.009 74.8435 251.424 72.5655 250.191C70.04 248.827 67.3372 247.821 64.5347 247.202C61.5137 246.549 58.43 246.23 55.3393 246.252C52.2627 246.276 49.191 246.501 46.1438 246.926C43.1783 247.332 40.3277 247.823 37.6457 248.459C32.8782 249.468 28.2832 251.166 24.0057 253.501C21.1343 255.096 18.5093 257.099 16.2126 259.447C15.4003 260.283 14.8256 260.98 14.4348 261.455L13.998 261.999C13.9524 262.062 13.9011 262.121 13.8447 262.175C14.526 261.172 15.2954 260.23 16.1436 259.363C18.4189 256.968 21.0407 254.927 23.9214 253.309C28.2038 250.928 32.816 249.195 37.6073 248.168C40.297 247.547 43.1476 247.049 46.1208 246.635C49.1927 246.199 52.2903 245.969 55.3929 245.945C58.4997 245.923 61.5992 246.247 64.6344 246.911C67.4648 247.555 70.193 248.587 72.7417 249.976C75.0504 251.229 77.1455 252.84 78.9486 254.75C80.5125 256.424 81.7797 258.352 82.6958 260.451C84.0556 263.487 84.5667 266.834 84.1747 270.137C84.0527 271.026 83.8553 271.903 83.5847 272.758L83.3471 273.417C83.2917 273.476 83.2329 273.533 83.1709 273.585V273.585Z" fill="#263238"/>
<path d="M78.5271 268.105C78.4888 268.105 78.6574 267.714 78.8336 267.017C79.06 266.01 79.0887 264.969 78.9179 263.952C78.6833 262.456 78.1796 261.015 77.4313 259.699C77.0049 258.912 76.5073 258.165 75.9447 257.469C75.3462 256.721 74.6707 256.038 73.9294 255.431C72.4922 254.253 70.8786 253.309 69.1477 252.634C67.7284 252.087 66.2573 251.687 64.7569 251.438C63.742 251.268 62.7189 251.15 61.6917 251.086C61.3122 251.083 60.9334 251.055 60.5576 251.002C60.6568 250.988 60.7573 250.988 60.8565 251.002C61.048 251.002 61.3316 251.002 61.6994 251.002C62.7256 251.017 63.7496 251.102 64.7645 251.255C66.2874 251.476 67.7824 251.859 69.2243 252.396C70.9927 253.071 72.6409 254.025 74.1056 255.224C74.8572 255.853 75.5381 256.562 76.1363 257.339C76.7153 258.057 77.2282 258.827 77.6688 259.638C78.4235 260.99 78.9198 262.471 79.1325 264.006C79.2813 265.043 79.2135 266.099 78.9332 267.109C78.8621 267.374 78.7646 267.63 78.642 267.875C78.6102 267.955 78.5718 268.032 78.5271 268.105V268.105Z" fill="#F5F5F5"/>
<g opacity="0.4">
<path d="M62.7861 246.704C67.1165 247.501 71.2372 249.178 74.8935 251.631C78.5709 254.075 81.4048 257.594 83.0085 261.708C84.61 265.838 84.3725 271.309 82.679 274.734L88.3649 275.202C90.2806 268.826 88.1963 260.995 83.5985 255.999C80.9661 253.088 77.7557 250.758 74.1722 249.157C70.5886 247.557 66.7108 246.721 62.7861 246.704" fill="black"/>
</g>
<path d="M106.52 242.625C106.52 242.717 88.4436 242.786 66.1523 242.786C43.8609 242.786 25.7842 242.717 25.7842 242.625C25.7842 242.533 43.8609 242.464 66.1523 242.464C88.4436 242.464 106.52 242.541 106.52 242.625Z" fill="#263238"/>
<path d="M106.559 239.783C107.375 238.744 107.88 237.496 108.015 236.182C108.138 234.159 107.249 231.63 105.05 231.63H77.2794C76.2091 231.63 75.1492 231.841 74.1605 232.251C73.1717 232.661 72.2734 233.261 71.5169 234.018C70.7604 234.776 70.1606 235.674 69.7516 236.664C69.3427 237.653 69.1328 238.713 69.1338 239.783H106.559Z" fill="#455A64"/>
<path d="M143.179 210.633L138.344 200.563C137.698 199.182 137.591 197.609 138.043 196.152C138.495 194.696 139.474 193.46 140.788 192.686L155.225 184.073C155.98 183.621 156.843 183.383 157.723 183.383H160.842L162.099 203.736L157.279 205.621L160.344 210.571L143.179 210.633Z" fill="#455A64"/>
<path d="M160.888 184.12C160.888 184.12 165.83 185.254 166.451 192.871C167.072 200.488 162.098 202.833 162.098 202.833L160.888 184.12Z" fill="white"/>
<path d="M160.886 184.121C160.92 184.253 160.938 184.39 160.94 184.527L161.032 185.623C161.116 186.619 161.216 187.967 161.346 189.623C161.607 192.994 161.951 197.63 162.289 202.849L162.005 202.68C162.536 202.389 163.024 202.026 163.453 201.6C164.433 200.652 165.178 199.49 165.63 198.205C166.057 197.006 166.288 195.746 166.312 194.473C166.392 192.303 165.975 190.144 165.093 188.159C164.476 186.833 163.516 185.695 162.312 184.864C161.861 184.566 161.384 184.309 160.886 184.098C161.028 184.107 161.168 184.138 161.3 184.19C161.682 184.326 162.049 184.5 162.396 184.711C163.67 185.512 164.693 186.657 165.346 188.013C166.289 190.027 166.746 192.235 166.679 194.458C166.666 195.764 166.435 197.059 165.997 198.289C165.517 199.634 164.73 200.849 163.699 201.837C163.243 202.289 162.728 202.676 162.166 202.987L161.898 203.125V202.818C161.561 197.508 161.3 192.78 161.132 189.416C161.055 187.784 160.986 186.45 160.94 185.462L160.894 184.412C160.884 184.315 160.881 184.218 160.886 184.121V184.121Z" fill="#263238"/>
<path d="M143.104 196.862C143.104 196.862 129.946 203.1 128.337 204.088C127.226 204.801 126.268 206.043 127.142 208.234C128.636 211.958 134.805 208.456 134.805 208.456L147.065 202.326C147.065 202.326 151.77 200.096 150.031 197.322C148.054 194.242 143.104 196.862 143.104 196.862Z" fill="#263238"/>
<path d="M141.439 188.694C143.593 188.694 145.339 185.616 145.339 181.82C145.339 178.024 143.593 174.946 141.439 174.946C139.285 174.946 137.539 178.024 137.539 181.82C137.539 185.616 139.285 188.694 141.439 188.694Z" fill="#263238"/>
<path d="M142.075 186.55L144.22 193.975C144.612 193.779 144.924 193.454 145.106 193.055C145.287 192.657 145.326 192.208 145.216 191.784C144.68 189.24 144.374 187.431 143.784 185.201C143.715 184.979 142.075 186.55 142.075 186.55" fill="#263238"/>
<g opacity="0.3">
<path d="M99.6698 276.434C99.4553 275.821 99.2407 275.201 99.0338 274.557C98.8269 273.913 98.62 273.339 98.4591 272.741C98.2083 271.824 98.0289 270.889 97.9227 269.944C94.3058 284.664 99.8231 295.032 109.31 295.76C123.157 296.825 140.046 297.599 146.858 295.806C159.31 292.542 163.877 282.159 164.965 280.48C166.053 278.802 175.962 260.664 169.893 243.239C163.824 225.813 153.249 207.3 153.241 207.3L143.164 210.664C143.164 210.664 145.011 219.269 147.931 229.568C151.141 240.886 155.448 258.603 155.203 268.955C155.045 275.184 153.033 281.225 149.425 286.304H103.67C103.67 286.304 102.689 285.323 99.6698 276.465" fill="black"/>
</g>
<path d="M2.5499 268.597L2.87174 265.103L86.3972 274.728C87.514 274.86 88.592 275.218 89.5652 275.782C90.5384 276.345 91.3864 277.101 92.0572 278.003C92.728 278.906 93.2075 279.936 93.4662 281.03C93.725 282.125 93.7576 283.26 93.562 284.368L93.1866 286.482L6.7415 273.915C5.49476 273.734 4.36503 273.082 3.58517 272.092C2.80531 271.103 2.43476 269.852 2.5499 268.597V268.597Z" fill="#455A64"/>
<g opacity="0.3">
<path d="M2.5499 268.597L2.87174 265.103L86.3972 274.728C87.514 274.86 88.592 275.218 89.5652 275.782C90.5384 276.345 91.3864 277.101 92.0572 278.003C92.728 278.906 93.2075 279.936 93.4662 281.03C93.725 282.125 93.7576 283.26 93.562 284.368L93.1866 286.482L6.7415 273.915C5.49476 273.734 4.36503 273.082 3.58517 272.092C2.80531 271.103 2.43476 269.852 2.5499 268.597V268.597Z" fill="black"/>
</g>
<g opacity="0.3">
<path d="M164.98 291.966C164.98 291.966 183.371 271.744 187.164 255.836C189.07 255.826 190.974 255.967 192.858 256.257C192.858 256.257 181.976 285.821 164.98 291.966Z" fill="black"/>
</g>
<path d="M186.895 248.71C186.945 248.878 186.978 249.05 186.994 249.224C187.04 249.561 187.14 250.051 187.209 250.703C187.377 252.531 187.328 254.373 187.063 256.189C186.638 258.887 185.82 261.507 184.634 263.967C183.18 266.957 181.555 269.861 179.768 272.665C176.564 277.79 172.964 282.658 169.002 287.224C167.508 288.994 166.274 290.404 165.408 291.37L164.42 292.481C164.308 292.617 164.185 292.742 164.052 292.856C164.144 292.709 164.249 292.571 164.366 292.443L165.316 291.293L168.833 287.079C172.731 282.487 176.293 277.622 179.492 272.519C181.272 269.722 182.902 266.831 184.374 263.86C185.554 261.435 186.385 258.855 186.841 256.197C187.128 254.396 187.208 252.568 187.079 250.749C187.04 250.105 186.956 249.607 186.933 249.27C186.904 249.085 186.892 248.898 186.895 248.71V248.71Z" fill="#263238"/>
<path d="M155.103 291.82C153.07 290.126 151.176 288.271 149.44 286.272C150.491 287.079 151.475 287.968 152.383 288.931C153.367 289.819 154.277 290.785 155.103 291.82V291.82Z" fill="#263238"/>
<path d="M100.529 291.202C100.822 290.256 101.278 289.369 101.877 288.581C102.393 287.738 103.046 286.987 103.809 286.359C103.885 286.42 103.042 287.432 102.146 288.757C101.249 290.083 100.613 291.24 100.529 291.202Z" fill="#263238"/>
<path d="M65.1939 302.881C66.1984 301.963 67.045 300.886 67.6997 299.693C68.3874 298.39 68.8069 296.962 68.9334 295.494C69.1203 293.704 68.8083 291.898 68.032 290.275C67.2556 288.652 66.0453 287.276 64.5349 286.298C63.3162 285.47 61.9426 284.896 60.4965 284.612C59.1578 284.368 57.7876 284.35 56.4429 284.559C56.4429 284.559 56.5348 284.52 56.7187 284.474C56.9701 284.405 57.2262 284.353 57.485 284.321C58.4886 284.182 59.508 284.206 60.5042 284.39C61.9884 284.652 63.4024 285.218 64.6575 286.053C66.2301 287.048 67.4896 288.467 68.2909 290.147C69.0921 291.827 69.4025 293.699 69.1863 295.547C69.0451 297.049 68.5936 298.505 67.8606 299.823C67.3762 300.711 66.7556 301.518 66.0215 302.214C65.7686 302.467 65.5311 302.62 65.3931 302.743C65.3323 302.796 65.2654 302.842 65.1939 302.881Z" fill="#263238"/>
<path d="M34.6862 296.472C34.4791 295.505 34.3789 294.518 34.3874 293.529C34.2856 292.544 34.2856 291.55 34.3874 290.564C34.5948 291.533 34.695 292.523 34.6862 293.514C34.7923 294.497 34.7923 295.489 34.6862 296.472V296.472Z" fill="#263238"/>
<path d="M36.9021 296.48C36.6212 295.521 36.4415 294.534 36.3657 293.538C36.1899 292.554 36.1154 291.555 36.1435 290.557C36.4296 291.515 36.6095 292.502 36.6799 293.499C36.8649 294.481 36.9394 295.481 36.9021 296.48Z" fill="#263238"/>
<path d="M71.3554 239.784C71.3554 239.868 61.202 239.945 48.6732 239.945C36.1444 239.945 25.9834 239.868 25.9834 239.784C25.9834 239.7 36.1444 239.623 48.6732 239.623C61.202 239.623 71.3554 239.692 71.3554 239.784Z" fill="#263238"/>
<path d="M18.1736 310.604C18.0744 310.525 17.9844 310.435 17.9054 310.335C17.7445 310.152 17.4839 309.883 17.1928 309.508C16.3337 308.469 15.5647 307.359 14.8939 306.19C12.6775 302.316 11.5198 297.927 11.5373 293.464C11.5548 289.001 12.7468 284.621 14.9935 280.764C15.6633 279.599 16.4324 278.494 17.2924 277.462C17.5836 277.086 17.8518 276.826 18.0127 276.642C18.0953 276.543 18.1877 276.453 18.2886 276.374C18.2242 276.482 18.1498 276.585 18.0663 276.68C17.9131 276.879 17.6679 277.155 17.392 277.538C16.5767 278.591 15.844 279.706 15.2004 280.872C13.0331 284.714 11.8854 289.048 11.8667 293.459C11.8479 297.871 12.9586 302.214 15.0931 306.075C15.7313 307.246 16.4561 308.368 17.2617 309.431C17.5299 309.822 17.7751 310.09 17.9207 310.297C18.0171 310.389 18.102 310.492 18.1736 310.604V310.604Z" fill="#455A64"/>
<path d="M103.813 300.643C103.813 300.643 104.518 317.034 104.534 317.823L108.013 320.459L116.358 318.383L115.591 300.268L103.813 300.643Z" fill="#FFBE9D"/>
<path d="M126.804 156.424L135.532 161.091L150.129 150.447L154.375 157.773C154.375 157.773 145.486 166.348 142.329 169.267C139.172 172.187 137.103 173.742 134.796 173.29C132.489 172.838 119.646 165.704 119.646 165.704C119.646 165.704 123.386 156.578 126.804 156.424Z" fill="#FFBE9D"/>
<path d="M135.577 164.344C135.577 164.344 135.631 164.397 135.662 164.489V164.566H135.47V164.497V164.267C135.417 163.83 135.389 163.39 135.386 162.949C135.314 162.319 135.368 161.681 135.547 161.072C135.762 161.67 135.843 162.308 135.784 162.942C135.784 163.455 135.784 163.922 135.746 164.267V164.497V164.566C135.348 164.566 135.631 164.566 135.547 164.566V164.482C135.524 164.397 135.554 164.344 135.577 164.344Z" fill="#EB996E"/>
<path d="M151.945 159.767C152.236 159.859 154.956 156.924 154.956 156.924C154.956 156.924 160.052 156.832 161.27 156.158C162.489 155.483 164.336 152.97 164.336 152.97L161.876 145.476C159.601 145.625 157.336 145.906 155.094 146.319C153.47 146.771 149.585 150.84 149.585 150.84L147.914 153.437C147.914 153.437 147.393 158.365 151.945 159.767Z" fill="#FFBE9D"/>
<path d="M160.56 156.581C161.184 156.537 161.806 156.457 162.422 156.344C163.648 156.137 164.912 156.03 164.874 154.811C164.877 154.609 164.837 154.409 164.757 154.224C164.676 154.039 164.556 153.873 164.406 153.738C164.406 153.738 165.311 153.363 165.303 152.681C165.301 152.483 165.252 152.287 165.16 152.112C165.068 151.936 164.936 151.784 164.774 151.669C164.774 151.669 166.023 151.095 166.061 150.083C166.066 149.709 165.967 149.341 165.775 149.021C165.583 148.7 165.305 148.439 164.973 148.267C164.973 148.267 168.805 147.171 169.111 147.049C170.199 146.604 172.276 145.616 171.41 144.803C171.096 144.505 170.973 144.175 168.782 144.443C166.789 144.681 163.655 145.416 163.655 145.416C163.655 145.416 160.973 145.547 159.563 145.692C157.816 145.852 156.085 146.163 154.391 146.62C152.582 147.455 151.004 149.83 151.004 149.83L154.981 156.926L160.56 156.581Z" fill="#FFBE9D"/>
<path d="M164.107 153.705C163.749 153.657 163.387 153.636 163.026 153.644H161.854C161.622 153.626 161.389 153.626 161.156 153.644C160.891 153.678 160.644 153.796 160.451 153.981C160.346 154.075 160.269 154.197 160.229 154.332C160.188 154.467 160.186 154.611 160.222 154.748C160.3 154.987 160.467 155.187 160.689 155.307C160.87 155.419 161.063 155.511 161.264 155.583L161.77 155.774C162.091 155.889 162.344 155.966 162.536 156.012C162.727 156.058 162.819 156.081 162.819 156.066C162.819 156.05 162.436 155.912 161.823 155.667C161.463 155.531 161.115 155.367 160.781 155.177C160.596 155.073 160.457 154.903 160.39 154.702C160.365 154.595 160.37 154.484 160.403 154.38C160.437 154.276 160.499 154.183 160.582 154.112C160.749 153.953 160.96 153.849 161.187 153.813C161.412 153.794 161.637 153.794 161.861 153.813H163.034C163.394 153.805 163.752 153.77 164.107 153.705V153.705Z" fill="#EB996E"/>
<path d="M159.923 148.472C160.322 148.302 160.674 148.039 160.95 147.705C161.273 147.418 161.518 147.055 161.663 146.648C161.625 146.648 161.31 147.092 160.828 147.59C160.345 148.089 159.893 148.433 159.923 148.472Z" fill="#EB996E"/>
<path d="M156.689 146.701C157.704 146.945 158.628 147.477 159.348 148.233C160.06 148.987 160.655 149.845 161.11 150.777C161.494 151.544 161.823 152.425 161.402 153.138C161.145 153.486 160.769 153.729 160.345 153.819C159.922 153.91 159.48 153.842 159.103 153.628C158.367 153.185 157.789 152.523 157.448 151.735C157.11 150.95 156.677 150.209 156.16 149.528" fill="#FFBE9D"/>
<path d="M156.212 149.52C156.212 149.52 156.35 149.697 156.573 150.049C156.853 150.547 157.109 151.058 157.339 151.582C157.512 151.951 157.717 152.305 157.952 152.639C158.22 153.032 158.571 153.361 158.979 153.605C159.443 153.869 159.991 153.949 160.511 153.827C160.798 153.762 161.063 153.622 161.278 153.421C161.484 153.212 161.621 152.944 161.668 152.655C161.722 152.085 161.608 151.512 161.339 151.007C161.108 150.544 160.853 150.093 160.573 149.658C160.113 148.914 159.533 148.251 158.856 147.697C158.398 147.325 157.88 147.035 157.324 146.838C157.172 146.783 157.015 146.742 156.856 146.716C156.749 146.716 156.695 146.716 156.695 146.716C156.695 146.716 156.917 146.777 157.301 146.923C157.839 147.141 158.34 147.44 158.787 147.812C159.445 148.368 160.006 149.028 160.45 149.766C160.716 150.197 160.959 150.642 161.178 151.099C161.43 151.568 161.54 152.101 161.492 152.632C161.453 152.891 161.335 153.131 161.155 153.321C160.968 153.498 160.738 153.622 160.488 153.681C160.006 153.803 159.496 153.734 159.063 153.49C158.673 153.258 158.337 152.948 158.074 152.578C157.84 152.253 157.633 151.909 157.454 151.551C157.202 151.023 156.918 150.511 156.603 150.019C156.488 149.85 156.381 149.727 156.312 149.643C156.243 149.559 156.212 149.513 156.212 149.52Z" fill="#EB996E"/>
<path d="M163.99 153.705C162.418 153.706 160.848 153.788 159.285 153.95C158.838 154.032 158.377 153.993 157.951 153.835C157.622 153.674 157.499 152.847 157.415 152.494L163.178 151.598" fill="#FFBE9D"/>
<path d="M163.179 151.598C163.03 151.597 162.882 151.609 162.735 151.636L161.509 151.805L157.402 152.41H157.317V152.502C157.379 152.762 157.432 153.054 157.524 153.337C157.561 153.456 157.613 153.569 157.678 153.674C157.709 153.728 157.748 153.777 157.792 153.82C157.842 153.865 157.899 153.901 157.961 153.927C158.178 154.012 158.41 154.054 158.643 154.05C159.095 154.05 159.509 153.989 159.907 153.958C160.674 153.889 161.44 153.828 162.022 153.789C162.605 153.751 163.111 153.736 163.455 153.72C163.629 153.733 163.803 153.733 163.976 153.72C163.804 153.692 163.63 153.679 163.455 153.682C163.111 153.682 162.62 153.682 162.015 153.682C161.409 153.682 160.689 153.751 159.892 153.812C159.494 153.812 159.072 153.897 158.651 153.889C158.438 153.894 158.227 153.855 158.03 153.774C157.846 153.713 157.762 153.498 157.685 153.291C157.609 153.084 157.547 152.739 157.486 152.471L157.417 152.571C159.042 152.318 160.482 152.08 161.509 151.904L162.727 151.69C162.88 151.671 163.032 151.641 163.179 151.598V151.598Z" fill="#EB996E"/>
<path d="M164.859 151.276L158.859 152.425C158.438 152.531 158.003 152.565 157.571 152.525C157.356 152.503 157.15 152.429 156.971 152.309C156.792 152.188 156.646 152.026 156.544 151.835C156.456 151.554 156.463 151.251 156.564 150.974C156.665 150.697 156.855 150.461 157.104 150.303C157.617 149.997 158.189 149.804 158.782 149.735C160.606 149.377 162.399 148.877 164.146 148.241" fill="#FFBE9D"/>
<path d="M164.129 148.219C164.068 148.227 164.009 148.242 163.953 148.265L163.454 148.426C163.025 148.556 162.405 148.755 161.631 148.962C160.857 149.169 159.922 149.407 158.88 149.613C158.317 149.687 157.769 149.847 157.255 150.088C156.979 150.233 156.749 150.45 156.589 150.717C156.411 150.994 156.34 151.326 156.389 151.652C156.427 151.813 156.498 151.965 156.598 152.097C156.699 152.229 156.826 152.339 156.972 152.418C157.244 152.567 157.55 152.643 157.861 152.64C158.421 152.599 158.977 152.515 159.523 152.387L162.305 151.836L164.175 151.452L164.681 151.338L164.857 151.284C164.796 151.275 164.734 151.275 164.673 151.284L164.159 151.368L162.282 151.698L159.493 152.219C158.956 152.342 158.41 152.421 157.861 152.456C157.58 152.461 157.302 152.392 157.056 152.257C156.931 152.19 156.823 152.097 156.737 151.985C156.651 151.873 156.59 151.743 156.558 151.606C156.516 151.323 156.579 151.034 156.734 150.793C156.879 150.555 157.086 150.359 157.332 150.226C157.831 149.991 158.363 149.833 158.91 149.759C159.953 149.544 160.887 149.299 161.661 149.077C162.435 148.855 163.056 148.633 163.477 148.479L163.96 148.288L164.129 148.219Z" fill="#EB996E"/>
<path d="M152.856 152.748C152.856 152.748 152.941 152.924 153.171 153.131C153.479 153.388 153.84 153.574 154.228 153.675C154.615 153.78 155.022 153.796 155.416 153.721C155.715 153.659 155.883 153.575 155.876 153.552C155.344 153.637 154.801 153.624 154.274 153.514C153.756 153.353 153.275 153.093 152.856 152.748V152.748Z" fill="#EB996E"/>
<path d="M120.391 195.199C120.391 195.199 134.95 197.888 135.962 198.164C136.973 198.44 141.134 200.402 141.326 201.659C141.437 203.312 141.437 204.971 141.326 206.624C141.326 206.624 140.559 207.229 140.115 206.019C139.807 204.842 139.676 203.625 139.724 202.41L137.425 201.521L138.682 203.758L138.889 209C138.889 209 137.28 208.854 136.965 207.597C136.768 206.727 136.665 205.838 136.659 204.946L134.973 203.521L136.237 205.229L136.659 209C136.659 209 135.433 209.398 135.042 208.563C134.762 207.474 134.623 206.354 134.628 205.229L129.877 203.567L126.735 205.321L123.326 203.452C122.849 203.188 122.435 202.823 122.115 202.382C121.794 201.941 121.575 201.435 121.471 200.9L120.391 195.199Z" fill="#FFBE9D"/>
<path d="M91.3165 122.862L91.7993 148.265C91.8372 150.263 92.6303 152.173 94.0193 153.611C95.4083 155.048 97.29 155.906 99.2859 156.012V156.012C100.366 156.068 101.446 155.901 102.459 155.523C103.472 155.145 104.397 154.563 105.176 153.813C105.955 153.063 106.572 152.162 106.989 151.164C107.406 150.166 107.614 149.093 107.6 148.012C107.6 145.591 107.524 143.614 107.524 143.614C107.524 143.614 113.7 142.978 114.098 136.855C114.321 133.315 114.098 125.253 113.922 119.077C113.855 117.056 113.029 115.134 111.609 113.694C110.189 112.254 108.279 111.402 106.259 111.307L102.558 111.115C101.043 111.131 99.5468 111.449 98.1567 112.051C96.7667 112.653 95.5111 113.527 94.4637 114.622C93.4164 115.716 92.5984 117.009 92.0579 118.424C91.5175 119.839 91.2654 121.348 91.3165 122.862Z" fill="#FFBE9D"/>
<path d="M107.523 143.552C104.694 143.395 101.969 142.432 99.6685 140.778C99.6685 140.778 101.408 145.376 107.554 145.1L107.523 143.552Z" fill="#EB996E"/>
<path d="M112.466 124.833C112.359 124.948 111.7 124.419 110.772 124.373C109.845 124.327 109.117 124.764 109.025 124.641C108.933 124.519 109.094 124.388 109.408 124.182C109.832 123.924 110.324 123.801 110.818 123.829C111.309 123.853 111.779 124.033 112.159 124.342C112.435 124.572 112.527 124.787 112.466 124.833Z" fill="#263238"/>
<path d="M103.4 126.848C103.392 127.077 103.294 127.293 103.128 127.451C102.962 127.609 102.74 127.695 102.511 127.691C102.399 127.693 102.288 127.673 102.184 127.632C102.08 127.591 101.985 127.53 101.905 127.452C101.825 127.375 101.76 127.282 101.716 127.18C101.671 127.077 101.647 126.967 101.645 126.855C101.653 126.626 101.751 126.41 101.917 126.252C102.083 126.094 102.305 126.008 102.534 126.013C102.646 126.009 102.757 126.029 102.862 126.069C102.966 126.11 103.062 126.171 103.142 126.248C103.223 126.326 103.287 126.419 103.331 126.522C103.376 126.625 103.399 126.736 103.4 126.848Z" fill="#263238"/>
<path d="M111.976 126.848C111.968 127.077 111.87 127.293 111.704 127.451C111.538 127.609 111.316 127.695 111.087 127.691C110.975 127.694 110.864 127.674 110.759 127.634C110.655 127.593 110.559 127.533 110.479 127.455C110.398 127.377 110.334 127.284 110.29 127.181C110.245 127.078 110.222 126.967 110.221 126.855C110.229 126.626 110.327 126.41 110.493 126.252C110.659 126.094 110.881 126.008 111.11 126.013C111.222 126.009 111.334 126.029 111.438 126.069C111.542 126.11 111.638 126.171 111.718 126.248C111.799 126.326 111.863 126.419 111.907 126.522C111.952 126.625 111.975 126.736 111.976 126.848Z" fill="#263238"/>
<path d="M103.37 124.495C103.255 124.603 102.603 124.074 101.676 124.028C100.749 123.982 100.021 124.419 99.9214 124.296C99.8218 124.174 99.998 124.043 100.312 123.844C100.733 123.58 101.226 123.454 101.722 123.484C102.213 123.508 102.682 123.687 103.063 123.997C103.339 124.235 103.423 124.442 103.37 124.495Z" fill="#263238"/>
<path d="M106.343 131.988C106.844 131.859 107.359 131.792 107.876 131.789C108.113 131.789 108.351 131.743 108.397 131.582C108.427 131.335 108.384 131.085 108.274 130.862L107.646 128.992C107.067 127.406 106.616 125.776 106.297 124.118C107.003 125.653 107.585 127.242 108.037 128.869C108.244 129.528 108.435 130.149 108.627 130.747C108.763 131.045 108.787 131.382 108.696 131.697C108.657 131.781 108.6 131.855 108.528 131.913C108.456 131.972 108.372 132.013 108.282 132.034C108.147 132.052 108.011 132.052 107.876 132.034C107.365 132.081 106.85 132.066 106.343 131.988V131.988Z" fill="#263238"/>
<path d="M103.533 132.495C103.693 132.495 103.64 133.522 104.475 134.288C105.31 135.055 106.406 135.001 106.406 135.147C106.406 135.292 106.153 135.331 105.693 135.323C105.094 135.298 104.522 135.065 104.077 134.664C103.65 134.263 103.393 133.715 103.356 133.131C103.341 132.733 103.464 132.488 103.533 132.495Z" fill="#263238"/>
<path d="M103.483 121.079C103.376 121.324 102.449 121.156 101.33 121.232C100.211 121.309 99.3148 121.562 99.1769 121.324C99.1156 121.217 99.2842 120.98 99.6596 120.75C100.154 120.467 100.708 120.304 101.277 120.275C101.845 120.235 102.415 120.333 102.939 120.558C103.338 120.742 103.529 120.957 103.483 121.079Z" fill="#263238"/>
<path d="M112.18 121.429C112.004 121.636 111.368 121.376 110.587 121.33C109.805 121.284 109.138 121.399 109 121.161C108.939 121.054 109.054 120.847 109.353 120.655C109.752 120.432 110.209 120.334 110.665 120.372C111.121 120.41 111.555 120.583 111.912 120.87C112.18 121.1 112.242 121.33 112.18 121.429Z" fill="#263238"/>
<path d="M93.1477 127.538C93.048 127.484 89.002 126.074 88.9177 130.266C88.8334 134.458 93.0864 133.684 93.0864 133.592C93.0864 133.5 93.1477 127.538 93.1477 127.538Z" fill="#FFBE9D"/>
<path d="M91.8235 131.945C91.8235 131.945 91.7545 131.999 91.6242 132.053C91.449 132.119 91.2554 132.119 91.0802 132.053C90.8202 131.87 90.6126 131.623 90.4782 131.335C90.3437 131.047 90.2871 130.729 90.3139 130.413C90.3124 130.053 90.3882 129.698 90.5361 129.371C90.5788 129.24 90.6528 129.121 90.7516 129.025C90.8503 128.929 90.971 128.858 91.1031 128.819C91.1865 128.799 91.2742 128.809 91.3512 128.846C91.4281 128.884 91.4895 128.948 91.5246 129.026C91.5783 129.148 91.5246 129.233 91.5782 129.24C91.6319 129.248 91.6702 129.171 91.6395 128.995C91.6156 128.891 91.5593 128.797 91.4786 128.727C91.3624 128.639 91.2175 128.598 91.0725 128.612C90.9021 128.646 90.7429 128.722 90.6091 128.833C90.4754 128.944 90.3713 129.087 90.3062 129.248C90.1173 129.607 90.0224 130.007 90.0303 130.413C90.0021 130.786 90.0844 131.16 90.267 131.487C90.4496 131.814 90.7244 132.08 91.0572 132.252C91.1702 132.284 91.2888 132.292 91.4051 132.275C91.5213 132.258 91.6326 132.216 91.7315 132.152C91.8158 132.06 91.8388 131.953 91.8235 131.945Z" fill="#EB996E"/>
<path d="M90.8246 127.268C91.224 127.264 91.617 127.368 91.9622 127.569C92.3074 127.77 92.5921 128.061 92.7863 128.41C93.0238 129.023 93.0545 129.705 93.292 130.318C93.3839 130.634 93.5784 130.91 93.8449 131.103C94.1113 131.296 94.4345 131.394 94.7633 131.383C94.9845 131.326 95.1868 131.212 95.3496 131.052C95.5125 130.892 95.6301 130.691 95.6905 130.471C95.8031 130.031 95.8317 129.573 95.7748 129.122C95.6215 127.153 95.315 125.191 95.338 123.214C95.2802 121.226 95.8135 119.266 96.8706 117.582C97.4084 116.75 98.1607 116.079 99.0481 115.639C99.9356 115.2 100.925 115.008 101.913 115.084C103.208 115.252 104.365 115.996 105.652 116.249C106.412 116.384 107.192 116.346 107.935 116.138C108.678 115.929 109.365 115.556 109.943 115.045C110.097 114.915 110.771 114.517 110.771 114.517C110.777 114.05 110.647 113.592 110.396 113.199C107.951 110.693 103.361 109.789 99.9281 110.471C98.1833 110.803 96.5321 111.513 95.0895 112.549C93.647 113.585 92.4478 114.924 91.5755 116.471C89.951 119.574 90.1579 124.019 90.8092 127.268" fill="#263238"/>
<path d="M108.88 113.845C106.581 113.93 102.129 114.788 100.298 116.213C100.083 116.382 99.8455 116.658 99.9911 116.895C100.137 117.133 100.351 117.079 100.558 117.071C102.684 117.18 104.795 117.501 106.857 118.029C108.17 118.493 109.558 118.704 110.949 118.65C111.644 118.612 112.317 118.394 112.903 118.018C113.488 117.642 113.966 117.121 114.29 116.504L114.88 116.727C114.209 115.774 113.305 115.01 112.255 114.505C111.205 114.001 110.043 113.774 108.88 113.845Z" fill="#263238"/>
<path d="M113.685 116.664C112.435 115.488 110.833 114.755 109.126 114.579C103.823 114.097 95.1182 115.69 90.5052 124.802C90.0027 123.225 89.6889 121.594 89.5703 119.943C89.5703 118.694 90.3366 111.269 97.9995 108.97C98.0148 108.97 109.555 104.625 113.685 116.664Z" fill="#455A64"/>
<g opacity="0.3">
<path d="M113.685 116.664C112.356 115.244 110.525 114.4 108.582 114.311C103.831 114.081 94.85 116.212 90.5052 124.802C90.0027 123.225 89.6889 121.594 89.5703 119.943C89.5703 118.694 90.3366 111.269 97.9995 108.97C98.0148 108.97 109.555 104.625 113.685 116.664Z" fill="black"/>
</g>
<path d="M91.2228 123.508C93.5216 119.677 96.9699 117.033 100.686 114.734C104.403 112.435 110.526 110.19 114.748 109.086C115.998 108.683 117.32 108.553 118.625 108.703C119.275 108.788 119.888 109.055 120.394 109.472C120.9 109.89 121.277 110.441 121.484 111.063C121.882 112.657 119.047 115.094 117.713 116.052C116.479 116.874 115.2 117.626 113.882 118.305C113.882 118.305 113.729 115.454 109.008 114.834C102.579 113.991 91.0235 123.669 91.2228 123.508Z" fill="#455A64"/>
<path d="M99.9839 111.742C101.384 111.084 102.847 110.57 104.352 110.21C105.872 109.975 107.412 109.89 108.949 109.957C108.517 109.8 108.061 109.717 107.601 109.712C106.489 109.623 105.37 109.685 104.275 109.896C103.184 110.109 102.127 110.47 101.133 110.968C100.711 111.164 100.323 111.425 99.9839 111.742V111.742Z" fill="white"/>
<path d="M116.464 317.363L116.51 318.084C116.51 318.084 129.537 322.428 129.836 324.735L104.579 325.701L104.426 317.631C106.342 318.421 108.401 318.804 110.473 318.758C112.545 318.712 114.585 318.237 116.464 317.363V317.363Z" fill="#455A64"/>
<g opacity="0.6">
<path d="M104.581 325.699L104.542 323.76L128.742 323.538C128.742 323.538 129.891 323.967 129.815 324.733L104.581 325.699Z" fill="white"/>
</g>
<path d="M116.602 318.145C116.602 318.26 115.997 318.336 115.415 318.742C114.832 319.149 114.541 319.654 114.419 319.616C114.296 319.578 114.419 318.85 115.185 318.405C115.951 317.961 116.625 318.037 116.602 318.145Z" fill="#263238"/>
<path d="M119.318 319.095C119.356 319.21 118.835 319.425 118.444 319.946C118.053 320.467 117.969 320.996 117.846 320.996C117.724 320.996 117.601 320.329 118.099 319.693C118.597 319.057 119.31 318.98 119.318 319.095Z" fill="#263238"/>
<path d="M121.009 322.099C120.894 322.099 120.687 321.539 120.963 320.88C121.239 320.221 121.806 319.945 121.86 320.037C121.913 320.129 121.584 320.497 121.362 321.041C121.139 321.585 121.132 322.099 121.009 322.099Z" fill="#263238"/>
<path d="M118.489 260.954L114.213 246.701L108.519 228.555L108.833 219.214L99.3008 212.647C93.0709 212.754 74.9175 211.682 74.9175 211.682C74.9175 211.682 75.3849 221.153 76.3198 227.973C76.5093 229.326 77.0104 230.617 77.7834 231.743L86.1436 243.935L100.519 270.755C100.519 270.755 101.477 280.333 101.876 288.609C102.32 297.881 103.814 314.663 103.814 314.663L118.604 315.016L119.531 277.866C119.906 272.287 120.32 266.241 118.489 260.954Z" fill="#263238"/>
<path d="M127.647 260.503C129.349 261.883 130.874 280.634 128.069 279.27L131.402 282.419L140.322 280.887L141.556 261.185L127.647 260.503Z" fill="#FFBE9D"/>
<path d="M102.437 204.466C102.437 204.466 139.387 214.52 143.218 222.474C144.762 225.079 145.484 228.089 145.287 231.11C145.065 236.474 142.015 275.042 142.015 275.042L128.061 274.122L126.72 259.892L126.49 238.352L127.464 235.9C126.396 236.146 125.284 236.133 124.222 235.861C122.636 235.394 98.5591 228.106 98.5591 228.106L89.1567 213.286L102.437 204.466Z" fill="#263238"/>
<path d="M140.536 279.808V280.574C140.536 280.574 153.624 286.421 153.624 288.942L127.256 287.838L127.977 279.08C129.895 280.095 132.01 280.686 134.177 280.812C136.344 280.938 138.513 280.595 140.536 279.808V279.808Z" fill="#455A64"/>
<g opacity="0.6">
<path d="M127.279 287.839L127.447 285.731L152.666 287.563C152.666 287.563 153.815 288.122 153.647 288.942L127.279 287.839Z" fill="white"/>
</g>
<path d="M140.597 280.674C140.597 280.804 139.938 280.835 139.287 281.218C138.636 281.601 138.276 282.138 138.161 282.076C138.046 282.015 138.268 281.31 139.065 280.835C139.862 280.36 140.636 280.551 140.597 280.674Z" fill="#263238"/>
<path d="M143.317 281.929C143.317 282.059 142.781 282.25 142.313 282.779C141.846 283.308 141.708 283.875 141.547 283.867C141.386 283.86 141.371 283.101 141.953 282.48C142.535 281.86 143.325 281.806 143.317 281.929Z" fill="#263238"/>
<path d="M144.748 285.315C144.633 285.315 144.48 284.687 144.84 283.997C145.2 283.307 145.813 283.047 145.867 283.154C145.921 283.261 145.53 283.629 145.239 284.196C144.947 284.763 144.878 285.315 144.748 285.315Z" fill="#263238"/>
<path d="M133.363 228.74C132.92 228.944 132.512 229.216 132.152 229.544C131.239 230.286 130.418 231.135 129.707 232.073C128.996 233.019 128.404 234.048 127.945 235.138C127.724 235.574 127.574 236.042 127.5 236.525C128.203 235.048 129.028 233.634 129.968 232.295C130.996 231.015 132.132 229.826 133.363 228.74V228.74Z" fill="#455A64"/>
<path d="M130.367 225.812C130.023 226.233 129.739 226.7 129.524 227.199C128.356 229.55 127.691 232.118 127.57 234.74C127.522 235.279 127.545 235.823 127.639 236.357C127.73 235.827 127.784 235.292 127.8 234.755C127.92 233.463 128.14 232.182 128.459 230.924C128.781 229.674 129.201 228.452 129.716 227.268C129.962 226.797 130.18 226.31 130.367 225.812Z" fill="#455A64"/>
<path d="M105.615 220.344C105.715 220.344 107.385 224.942 109.339 230.613C111.293 236.283 112.795 240.973 112.688 241.011C112.581 241.049 110.918 236.452 108.964 230.743C107.01 225.034 105.508 220.383 105.615 220.344Z" fill="#455A64"/>
<path d="M111.247 152.534L117.278 150.113L133.01 158.657L126.588 173.354L112.741 166.481L111.247 152.534Z" fill="#29913C"/>
<path d="M117.277 150.111L107.714 146.494C107.714 146.494 105.622 150.916 101.047 149.559C96.4727 148.203 91.4305 144.126 91.4305 144.126C91.4305 144.126 82.7331 147.575 80.0817 149.146C77.4304 150.717 75.9974 191.475 75.9974 191.475L75.2771 207.246L74.848 210.219C74.665 211.642 74.5703 213.075 74.5645 214.51C90.7715 218.15 106.795 214.296 115.385 209.529C115.385 209.529 116.519 208.64 116.028 206.61C115.538 204.579 114.496 204.227 114.496 204.227L114.71 186.403L116.304 168.173L117.277 150.111Z" fill="#29913C"/>
<path d="M125.839 196.213L104.322 187.308L90.9886 157.783L79.1265 162.764C79.1265 162.764 91.8622 194.78 96.8048 197.439C101.747 200.098 122.131 201.324 122.131 201.324L125.839 196.213Z" fill="#FFBE9D"/>
<path d="M80.0577 149.146C80.0577 149.146 75.5749 151.391 75.5825 159.974C75.5825 167.43 77.7818 179.315 77.7818 179.315L98.9007 171.966L92.3719 156.794C90.8393 153.177 87.437 146.525 80.0577 149.146Z" fill="#29913C"/>
<path d="M80.2202 178.473C80.3338 178.413 80.4517 178.362 80.5727 178.32L81.6072 177.921L85.4923 176.511L98.864 171.783L98.7491 172.028C98.0824 170.021 97.3544 167.875 96.5575 165.691C95.3008 162.25 93.9904 159.024 92.6494 156.151C92.057 154.783 91.336 153.474 90.4961 152.243C89.7864 151.165 88.7989 150.3 87.6379 149.737C85.9225 148.959 84.0347 148.64 82.1589 148.81C81.6537 148.868 81.1602 149.002 80.6953 149.208C80.5438 149.307 80.385 149.394 80.2202 149.469C80.2202 149.469 80.2202 149.43 80.3275 149.377C80.4283 149.286 80.5388 149.206 80.657 149.139C81.1175 148.892 81.6183 148.729 82.1359 148.656C84.0479 148.421 85.9881 148.704 87.7528 149.476C88.9703 150.048 90.0108 150.937 90.7644 152.051C91.63 153.291 92.3718 154.613 92.9789 155.998C94.3506 158.871 95.6686 162.128 96.933 165.553C97.6993 167.745 98.4656 169.89 99.1092 171.906L99.1705 172.09L98.9943 172.151L85.5766 176.749L81.6532 178.051L80.5957 178.388C80.4749 178.433 80.3486 178.462 80.2202 178.473Z" fill="#263238"/>
<path d="M113.533 204.857C113.205 205.164 112.854 205.446 112.483 205.7C112.138 205.96 111.717 206.275 111.188 206.596C110.659 206.918 110.084 207.324 109.402 207.685C108.72 208.045 107.977 208.451 107.142 208.849C106.307 209.248 105.418 209.616 104.46 209.991C102.366 210.753 100.213 211.34 98.023 211.746C95.8274 212.111 93.605 212.29 91.3793 212.282C90.3525 212.282 89.3716 212.236 88.4674 212.121C87.6246 212.058 86.7856 211.95 85.954 211.8C85.1877 211.692 84.5057 211.516 83.9003 211.386C83.2949 211.255 82.7892 211.11 82.3677 210.98C81.9317 210.872 81.506 210.726 81.0957 210.543C81.5387 210.606 81.9767 210.7 82.4061 210.826C82.8275 210.934 83.3333 211.064 83.9386 211.164C84.544 211.263 85.2183 211.432 85.9846 211.516C86.7509 211.6 87.5862 211.746 88.4904 211.792C89.3946 211.838 90.3525 211.891 91.3716 211.914C93.575 211.904 95.7738 211.715 97.9464 211.347C100.116 210.953 102.251 210.384 104.33 209.646C105.272 209.271 106.184 208.941 106.996 208.55C107.809 208.16 108.575 207.784 109.295 207.439C110.015 207.094 110.567 206.719 111.096 206.405C111.552 206.149 111.994 205.87 112.422 205.57C112.773 205.303 113.144 205.065 113.533 204.857Z" fill="#263238"/>
<path d="M113.622 167.329H107.714V170.126H113.622V167.329Z" fill="white"/>
<path d="M116.971 158.647C117.085 158.647 116.863 162.969 116.488 168.272C116.112 173.575 115.721 177.881 115.607 177.874C115.492 177.866 115.714 173.552 116.089 168.249C116.465 162.946 116.84 158.64 116.971 158.647Z" fill="#263238"/>
<path d="M66.151 178.472H10.3345V190.663H66.151V178.472Z" fill="#29913C"/>
<path d="M69.9135 190.794H6.61035V239.615H69.9135V190.794Z" fill="#29913C"/>
<path d="M54.0512 239.276C53.9822 239.276 53.9209 228.395 53.9209 214.969C53.9209 201.544 53.9822 190.663 54.0512 190.663C54.1201 190.663 54.1738 201.544 54.1738 214.969C54.1738 228.395 54.1201 239.276 54.0512 239.276Z" fill="#263238"/>
<path d="M67.7087 228.511H59.6934V236.526H67.7087V228.511Z" fill="#F5F5F5"/>
<path opacity="0.3" d="M33.0696 190.794H25.8818V201.216H33.0696V190.794Z" fill="white"/>
<path opacity="0.3" d="M33.1072 229.202H25.9194V239.624H33.1072V229.202Z" fill="white"/>
<path opacity="0.3" d="M69.9149 190.663H54.0527V239.751H69.9149V190.663Z" fill="black"/>
<path d="M69.7005 190.794C69.7005 190.909 55.6008 190.994 38.2137 190.994C20.8266 190.994 6.71924 190.909 6.71924 190.794C6.71924 190.679 20.819 190.595 38.2137 190.595C55.6085 190.595 69.7005 190.687 69.7005 190.794Z" fill="#263238"/>
<path opacity="0.3" d="M66.152 178.472H50.5273V190.579H66.152V178.472Z" fill="black"/>
<path d="M50.4048 190.505C50.2078 188.548 50.1412 186.579 50.2055 184.612C50.1409 182.646 50.2075 180.677 50.4048 178.72C50.6067 180.677 50.6732 182.646 50.604 184.612C50.6729 186.579 50.6064 188.548 50.4048 190.505V190.505Z" fill="#263238"/>
<path d="M34.582 178.472H26.7275V182.165H34.582V178.472Z" fill="white"/>
<path d="M37.7217 178.708C37.7117 178.65 37.7117 178.59 37.7217 178.532L37.783 178.003C37.8366 177.551 37.9363 176.877 38.1202 176.011C38.6144 173.563 39.5519 171.226 40.8865 169.114C41.3442 168.418 41.8567 167.76 42.419 167.145C42.9899 166.44 43.6735 165.834 44.442 165.352C44.8775 165.09 45.3842 164.972 45.8903 165.015C46.1571 165.06 46.4083 165.172 46.6211 165.339C46.8339 165.506 47.0015 165.724 47.1087 165.973C47.4429 166.964 47.4669 168.033 47.1777 169.038C46.6122 171.18 45.4448 173.116 43.8137 174.616C42.0734 176.182 40.1608 177.544 38.1125 178.678L37.829 178.846L37.714 178.915L37.6067 178.839C35.7135 177.494 33.9208 176.014 32.2427 174.409C30.6693 172.905 29.3725 171.136 28.4113 169.183C28.1669 168.721 27.984 168.229 27.8672 167.72C27.7424 167.208 27.7881 166.67 27.9975 166.187C28.1011 165.94 28.2634 165.721 28.4703 165.55C28.6772 165.379 28.9226 165.261 29.1852 165.206C29.6937 165.154 30.2037 165.29 30.6182 165.589C30.9948 165.855 31.3394 166.164 31.645 166.509C31.9515 166.831 32.2351 167.16 32.5109 167.482C33.0359 168.107 33.527 168.759 33.9822 169.436C35.3734 171.472 36.441 173.71 37.147 176.072C37.3325 176.713 37.4834 177.362 37.5991 178.019L37.6757 178.532C37.6791 178.591 37.6791 178.65 37.6757 178.708C37.6757 178.708 37.6757 178.655 37.6221 178.54L37.5071 178.034C37.4075 177.59 37.2466 176.938 36.9861 176.118C36.2378 173.803 35.1562 171.609 33.7753 169.605C33.319 168.941 32.8279 168.301 32.304 167.689C32.0282 167.367 31.7446 167.045 31.4381 166.739C31.1464 166.413 30.8172 166.122 30.4573 165.873C30.1141 165.624 29.6915 165.509 29.2695 165.551C29.064 165.593 28.872 165.685 28.7103 165.819C28.5486 165.952 28.4222 166.124 28.3423 166.317C27.9515 167.145 28.3423 168.149 28.7638 169.03C29.7149 170.961 30.9959 172.712 32.5492 174.203C34.2107 175.79 35.9855 177.255 37.8596 178.586H37.6374L37.9209 178.417C39.9431 177.297 41.8325 175.953 43.5532 174.409C45.1367 172.972 46.2748 171.11 46.8329 169.045C47.1214 168.115 47.1214 167.118 46.8329 166.187C46.7482 165.988 46.6146 165.813 46.4445 165.679C46.2744 165.545 46.0733 165.456 45.8597 165.421C45.428 165.385 44.996 165.487 44.626 165.712C43.8857 166.174 43.2236 166.751 42.6643 167.421C42.1051 168.022 41.5927 168.665 41.1317 169.344C39.7911 171.413 38.8237 173.7 38.2734 176.103C38.0742 176.954 37.9516 177.636 37.8673 178.072L37.7753 178.586L37.7217 178.708Z" fill="#263238"/>
<path d="M37.8438 240.404C37.7365 240.404 37.6445 226.442 37.6445 209.224C37.6445 192.005 37.7365 178.036 37.8438 178.036C37.951 178.036 38.043 191.997 38.043 209.224C38.043 226.45 37.9587 240.404 37.8438 240.404Z" fill="#263238"/>
</svg>
