<svg width="384" height="344" viewBox="0 0 384 344" fill="none" xmlns="http://www.w3.org/2000/svg">
<g clip-path="url(#clip0_357_622)">
<path d="M383.33 306.37C381.3 309.73 379.83 313.65 377.13 316.33C371.6 321.79 364.64 322.98 357.4 320.01C349.71 316.86 345.71 310.83 345.61 302.54C345.46 290.19 345.56 277.83 345.55 265.48C345.55 264.17 345.55 262.86 345.55 260.85C310.05 313.77 261.77 343.04 198.36 343.03C134.95 343.02 86.62 313.82 51.32 261.15C51.22 262.47 51.08 263.48 51.08 264.49C51.06 277.34 51.17 290.2 51 303.05C50.88 312.55 43.58 320.42 34.47 321.34C24.82 322.32 16.2 316.45 13.95 307.13C13.38 304.75 13.39 302.18 13.39 299.7C13.36 239.92 13.35 180.14 13.42 120.36C13.42 117.45 12.83 115.38 10.49 113.29C3.53004 107.07 0.0400381 99.0801 0.0300381 89.7301C-0.0199619 66.5201 3.81265e-05 43.3001 0.0200381 20.0901C0.0200381 15.4401 2.11004 12.8201 5.69004 12.8501C9.24004 12.8801 11.24 15.4901 11.24 20.2001C11.25 36.1701 11.24 52.1501 11.24 68.1201C11.24 69.4701 11.24 70.8301 11.24 72.4301H26.33C26.41 71.0101 26.56 69.5801 26.56 68.1501C26.58 52.5501 26.56 36.9501 26.58 21.3501C26.58 19.9801 26.57 18.5801 26.84 17.2601C27.42 14.4601 29.32 12.9301 32.13 12.8901C34.95 12.8501 36.9 14.3301 37.53 17.1201C37.86 18.5601 37.83 20.0901 37.83 21.5801C37.85 36.9301 37.84 52.2801 37.84 67.6301C37.84 69.1201 37.84 70.6001 37.84 72.3801H53.17C53.17 71.2401 53.17 69.9401 53.17 68.6401C53.17 53.0401 53.17 37.4401 53.17 21.8401C53.17 20.9701 53.15 20.0901 53.17 19.2201C53.3 15.2301 55.57 12.7401 58.95 12.8501C62.18 12.9501 64.35 15.3601 64.37 19.1901C64.42 32.4201 64.39 45.6501 64.39 58.8801C64.39 60.2301 64.39 61.5801 64.39 63.7201C99.11 23.3101 142.14 1.03007 195.04 0.0300735C247.83 -0.969927 291.64 19.5101 327.66 58.3001C329.52 43.9801 335.67 32.5201 346.56 23.7601C354.98 16.9901 364.68 13.5101 375.45 12.8201C378.92 12.6001 381.53 13.5901 383.32 16.5801V164.1C381.28 166.39 379.15 168.5 375.69 167.11C372.26 165.73 371.94 162.8 372.08 159.65C372.12 158.78 372.08 157.9 372.08 157.03C372.08 114.48 372.08 71.9301 372.08 29.3801V24.5701C370.53 24.8501 369.32 24.9901 368.15 25.2901C350.32 29.9101 338.82 45.1901 338.71 64.6401C338.61 81.7301 338.66 98.8301 338.71 115.93C338.72 120.39 337.5 125.74 339.52 129.06C341.44 132.23 346.72 133.6 350.75 135.19C355.44 137.04 356.85 140.12 356.84 145.01C356.71 196.3 356.76 247.58 356.77 298.87C356.77 300.49 356.75 302.13 356.98 303.72C357.55 307.61 360.63 310.18 364.47 310.16C368.25 310.14 371.41 307.46 371.98 303.65C372.18 302.3 372.1 300.91 372.1 299.54C372.1 263.23 372.1 226.92 372.1 190.61C372.1 189.49 371.75 188.19 372.2 187.28C373.08 185.49 374.1 183.04 375.63 182.51C377.34 181.92 379.71 183.08 381.74 183.65C382.35 183.82 382.8 184.58 383.33 185.06V306.37V306.37ZM11.43 84.0801C10.49 93.3501 12.28 101.31 20.01 106.62C23.56 109.06 24.67 111.89 24.66 116.01C24.56 177.02 24.58 238.04 24.58 299.05C24.58 300.67 24.5 302.31 24.73 303.91C25.24 307.49 28.38 310.1 32.03 310.17C35.86 310.24 39.13 307.61 39.66 303.87C39.87 302.4 39.8 300.88 39.8 299.39C39.8 263.08 39.8 226.77 39.83 190.46C39.83 188.74 39.89 186.92 40.43 185.32C41.29 182.77 43.56 181.26 45.99 182.12C47.9 182.79 49.52 184.74 50.82 186.46C51.43 187.27 51.03 188.88 51.03 190.12C51.03 203.97 50.95 217.82 51.11 231.67C51.14 234.18 51.71 236.89 52.76 239.17C82.1 303.16 150.65 340.82 220.75 330.35C277.86 321.82 318.71 290.35 344.11 238.65C344.9 237.03 345.46 235.1 345.47 233.32C345.55 204.87 345.56 176.42 345.43 147.98C345.43 146.64 344.22 144.81 343.03 144.08C339.96 142.2 336.69 140.58 333.33 139.29C328.77 137.54 327.35 134.43 327.4 129.71C327.58 112.99 327.52 96.2701 327.4 79.5501C327.39 77.7101 326.82 75.5001 325.7 74.1101C287.72 26.7801 238.32 5.64007 178.16 12.5101C132.1 17.7701 95.51 40.6901 67.87 77.9401C65.37 81.3101 64.15 84.6501 64.31 88.9001C64.67 98.6701 60.99 106.99 53.74 113.49C51.62 115.39 50.99 117.23 51 119.89C51.09 133.74 51.07 147.59 51.01 161.44C50.99 165.08 48.89 167.36 45.77 167.54C42.58 167.72 40.14 165.29 39.84 161.64C39.81 161.27 39.82 160.89 39.82 160.52C39.82 145.17 39.86 129.83 39.79 114.48C39.77 111.14 41.13 108.93 43.87 107.06C52 101.51 54.02 93.4701 52.92 84.0901H11.43V84.0801Z" fill="#555555"/>
<path d="M88.71 171.6C88.97 117.08 128.61 71.2698 182.77 63.1998C243.94 54.0898 301.27 98.9398 307.09 160.62C310.18 193.35 300.34 221.87 278.24 246.15C276.97 247.54 275.04 249.11 273.38 249.14C271.62 249.18 268.89 247.87 268.3 246.44C267.56 244.66 267.91 241.72 268.98 240.06C271.26 236.53 274.46 233.61 277.02 230.23C320.78 172.31 286.83 86.8798 215.31 74.8898C160.69 65.7298 110.55 101.48 101.27 156.2C92.43 208.29 129.03 259.51 181.3 268.25C205.24 272.26 227.67 268.16 248.62 255.92C252.58 253.61 255.25 253.69 257.35 256.15C259.74 258.95 258.92 262.72 255.28 264.97C243.7 272.12 231.17 276.91 217.79 279.27C161.46 289.18 107.86 255.22 92.71 200.02C91.56 195.82 90.62 191.54 90.03 187.23C89.33 182.05 89.12 176.81 88.7 171.59L88.71 171.6Z" fill="#FE8502"/>
<path d="M171.83 107.76C178.7 111.39 184.47 108.2 190.69 106.18C201.7 102.59 213.55 107.41 219.99 117.31C221.19 119.15 222.38 119.96 224.65 120.14C238.44 121.24 248.34 131.05 249.72 144.93C249.95 147.25 250.58 148.64 252.62 149.97C264.7 157.79 268.23 173.24 261.19 185.91C260.41 187.31 260.1 189.43 260.51 190.97C263.51 202.29 259.17 213.62 249.34 219.45C239.78 225.12 227.76 223.55 219.37 215.54C215.77 212.1 212.33 208.44 208.47 205.31C203.12 200.97 199.5 201.52 195.69 207.18C192.85 211.41 190.49 215.97 187.89 220.36C185.99 223.58 184.19 226.86 182.1 229.96C177.05 237.46 170.86 240.14 162.47 237.18C147.21 231.81 136.67 221.39 132.28 205.55C130.35 198.6 132.65 192.62 138.76 188.63C143.97 185.23 149.47 182.28 154.81 179.08C157.8 177.29 160.85 175.56 163.65 173.49C168 170.26 168.73 166.86 165.39 162.59C161.88 158.09 157.69 154.12 153.79 149.92C142.7 137.97 145.75 118.69 160.13 111.37C163.69 109.56 167.86 108.94 171.8 107.75L171.83 107.76ZM236.31 212.46C236.49 212.14 236.67 211.83 236.84 211.51C246.87 211.55 253.42 201.25 248.73 192.25C246.64 188.24 247.23 185.52 249.94 182.19C256.83 173.73 253.61 161.92 243.57 157.74C238.33 155.56 237.68 154.45 238.45 149C239.88 138.84 230.99 129.95 220.85 131.41C215.43 132.19 214.32 131.54 212.14 126.31C207.95 116.25 196.02 113.01 187.71 119.96C184.39 122.74 181.64 123.25 177.66 121.17C169.12 116.7 159.21 122.41 158.4 131.95C158.03 136.32 159.71 139.89 162.7 143.07C167.3 147.97 172.19 152.71 176.02 158.17C181.31 165.7 180.31 173.01 173.76 179.42C170.94 182.17 167.6 184.48 164.23 186.57C158.73 189.98 152.93 192.92 147.4 196.28C142.6 199.2 141.98 201.37 144.23 206.55C147.35 213.75 152.55 219.22 159.08 223.42C167.62 228.9 170.37 228.24 175.44 219.66C179.3 213.12 182.73 206.27 187.07 200.07C194.9 188.88 204.53 187.64 215.15 196.16C219.32 199.5 222.77 203.73 226.93 207.08C229.71 209.31 233.16 210.7 236.3 212.47L236.31 212.46Z" fill="#FE8502"/>
</g>
<defs>
<clipPath id="clip0_357_622">
<rect width="383.33" height="343.02" fill="white"/>
</clipPath>
</defs>
</svg>
