<svg width="275" height="231" viewBox="0 0 275 231" fill="none" xmlns="http://www.w3.org/2000/svg">
<g clip-path="url(#clip0_594_678)">
<path d="M178.683 227.638L127.264 134.931C127.25 134.704 127.179 134.485 127.06 134.291C126.94 134.098 126.775 133.937 126.578 133.823C126.352 133.694 126.095 133.632 125.835 133.644H125.785C125.433 133.628 125.089 133.748 124.823 133.979C124.558 134.211 124.393 134.536 124.362 134.887L69.862 227.638C69.6788 227.956 69.6291 228.333 69.724 228.687C69.8189 229.041 70.0505 229.343 70.368 229.526C70.6855 229.709 71.0627 229.759 71.4168 229.664C71.7709 229.569 72.0727 229.338 72.256 229.02L125.77 137.941L176.286 229.02C176.377 229.177 176.498 229.315 176.642 229.426C176.786 229.536 176.95 229.617 177.125 229.664C177.301 229.711 177.483 229.723 177.663 229.699C177.843 229.676 178.017 229.617 178.174 229.526C178.331 229.435 178.469 229.315 178.579 229.171C178.69 229.027 178.771 228.862 178.818 228.687C178.865 228.512 178.877 228.329 178.853 228.149C178.83 227.969 178.771 227.795 178.68 227.638H178.683Z" fill="#3F3D56"/>
<path d="M117.288 211.732L123.1 210.398L120.72 187.346L112.142 189.314L117.288 211.732Z" fill="#FFB6B6"/>
<path d="M121.782 200.596L113.511 202.496L110.866 197.328L110.716 197.145C109.543 195.705 108.892 193.91 108.869 192.053L101.994 173.868L101.432 173.601C100.997 173.394 100.612 173.097 100.301 172.729C99.9899 172.362 99.7611 171.932 99.6297 171.469C99.4982 171.005 99.4671 170.519 99.5384 170.043C99.6096 169.567 99.7817 169.112 100.043 168.707L99.315 166.782L78.779 166.82L78.759 166.814L53.541 159.736L56.189 143.952L63.283 148.414C65.621 148.262 105.662 145.804 109.362 154.777C112.656 162.768 117.403 176.42 120.805 186.466C120.975 186.918 121.185 187.353 121.435 187.766C121.964 188.582 122.274 189.519 122.335 190.489C122.375 190.911 122.455 191.328 122.575 191.735C123.989 195.962 121.835 200.487 121.813 200.535L121.782 200.596Z" fill="#2F2E41"/>
<path d="M115.325 209.805L117.215 209.371L123.904 204.678L128.546 206.771C130.781 206.258 133.127 206.655 135.07 207.872C137.012 209.09 138.391 211.029 138.904 213.264L138.967 213.538L117.32 218.505L115.325 209.805Z" fill="#2F2E41"/>
<path d="M29.512 210.322C30.103 203.89 33.87 197.451 39.912 195.17C37.7141 201.841 37.9469 209.075 40.5689 215.591C41.5889 218.1 42.9859 220.785 42.1849 223.373C41.6035 224.975 40.429 226.293 38.904 227.055C37.3906 227.801 35.7879 228.351 34.135 228.69L33.82 228.968C31.016 223.149 28.921 216.754 29.512 210.322Z" fill="#F0F0F0"/>
<path d="M39.977 195.289C36.5473 199.39 34.4969 204.468 34.117 209.8C34.015 210.947 34.0943 212.102 34.352 213.224C34.6383 214.309 35.2097 215.297 36.007 216.086C36.7979 216.782 37.5014 217.57 38.102 218.435C38.3683 218.908 38.5317 219.431 38.5815 219.971C38.6313 220.511 38.5664 221.055 38.391 221.568C37.9217 222.822 37.2052 223.969 36.284 224.941C35.2288 225.997 34.4281 227.279 33.943 228.69C33.898 228.868 33.625 228.79 33.67 228.609C34.322 226.058 36.729 224.544 37.825 222.23C38.1099 221.709 38.2719 221.129 38.2986 220.536C38.3253 219.942 38.216 219.35 37.979 218.805C37.4192 217.892 36.7174 217.073 35.9 216.38C35.1107 215.622 34.5191 214.682 34.177 213.642C33.8635 212.538 33.7401 211.388 33.812 210.242C33.9333 207.658 34.46 205.11 35.373 202.689C36.3996 199.921 37.8921 197.349 39.786 195.084C39.9 194.941 40.094 195.149 39.977 195.289Z" fill="white"/>
<path d="M34.1389 208.075C33.2532 207.89 32.4621 207.396 31.9067 206.682C31.3514 205.968 31.0679 205.079 31.107 204.175C31.1076 204.137 31.1233 204.101 31.1505 204.075C31.1776 204.049 31.2142 204.035 31.252 204.035C31.2897 204.036 31.3257 204.052 31.352 204.079C31.3782 204.106 31.3926 204.142 31.392 204.18C31.3537 205.022 31.6176 205.85 32.1362 206.515C32.6548 207.179 33.3938 207.637 34.2199 207.804C34.3999 207.841 34.3199 208.113 34.1389 208.077V208.075Z" fill="white"/>
<path d="M35.587 215.754C37.1444 214.755 38.2681 213.206 38.734 211.415C38.78 211.238 39.0529 211.315 39.0069 211.496C38.5187 213.359 37.346 214.969 35.7229 216.005C35.5679 216.105 35.433 215.853 35.587 215.755V215.754Z" fill="white"/>
<path d="M36.6689 200.179C36.9969 200.322 37.3553 200.381 37.7119 200.352C38.0685 200.322 38.4121 200.204 38.7119 200.009C38.8649 199.909 39.0009 200.159 38.8479 200.259C38.5157 200.473 38.1362 200.603 37.7424 200.636C37.3486 200.67 36.9526 200.607 36.5889 200.452C36.5527 200.441 36.522 200.417 36.5034 200.384C36.4848 200.351 36.4796 200.312 36.4889 200.275C36.4939 200.257 36.5024 200.24 36.514 200.225C36.5256 200.21 36.5401 200.197 36.5565 200.188C36.573 200.179 36.5911 200.173 36.6099 200.171C36.6287 200.168 36.6477 200.17 36.6659 200.175L36.6689 200.179Z" fill="white"/>
<path d="M58.9029 206.013C58.8089 206.078 58.7149 206.144 58.6209 206.213C57.3615 207.1 56.1763 208.088 55.0769 209.168C54.9909 209.25 54.9039 209.335 54.8209 209.419C52.1997 212.047 50.0893 215.14 48.5969 218.539C48.0043 219.892 47.5156 221.288 47.1349 222.716C46.6089 224.687 46.1959 226.866 45.0829 228.501C44.9685 228.673 44.8436 228.837 44.7089 228.994L34.1839 229.332L34.1109 229.301L33.6909 229.334C33.7049 229.259 33.7219 229.182 33.7369 229.107C33.7449 229.063 33.7559 229.02 33.7639 228.976C33.7719 228.932 33.7769 228.918 33.7809 228.891C33.7809 228.881 33.7809 228.872 33.7869 228.864C33.7869 228.837 33.7969 228.813 33.8009 228.789C33.8929 228.356 33.9879 227.922 34.0859 227.489C34.8035 224.179 35.9113 220.966 37.3859 217.917C37.4309 217.827 37.4759 217.734 37.5259 217.643C38.2103 216.292 39.0039 214.999 39.8989 213.778C40.3911 213.111 40.9168 212.469 41.4739 211.855C42.9166 210.271 44.5995 208.924 46.4609 207.863C50.095 205.655 54.4509 204.962 58.5909 205.933C58.6969 205.955 58.7989 205.983 58.9029 206.013Z" fill="#F0F0F0"/>
<path d="M58.884 206.148C53.6763 207.357 48.982 210.177 45.468 214.206C44.6962 215.06 44.0638 216.03 43.594 217.081C43.1701 218.12 43.032 219.253 43.194 220.363C43.4068 221.394 43.4934 222.448 43.452 223.5C43.3801 224.037 43.1954 224.553 42.91 225.014C42.6246 225.475 42.245 225.871 41.796 226.175C40.6663 226.894 39.4036 227.378 38.083 227.599C36.6051 227.807 35.194 228.349 33.957 229.184C33.814 229.299 33.645 229.07 33.787 228.955C35.843 227.311 38.677 227.555 40.945 226.364C41.4864 226.119 41.9647 225.754 42.3434 225.296C42.7221 224.838 42.9912 224.3 43.13 223.722C43.2333 222.655 43.1658 221.578 42.9301 220.532C42.7563 219.451 42.85 218.344 43.203 217.308C43.6178 216.236 44.212 215.243 44.96 214.371C46.6103 212.381 48.5631 210.662 50.747 209.278C53.2326 207.686 55.9721 206.531 58.847 205.863C59.025 205.822 59.055 206.105 58.878 206.146L58.884 206.148Z" fill="white"/>
<path d="M46.5209 212.842C45.925 212.161 45.5907 211.29 45.5777 210.385C45.5647 209.48 45.8738 208.599 46.4499 207.901C46.5669 207.76 46.7909 207.935 46.6739 208.076C46.1354 208.726 45.847 209.547 45.8609 210.39C45.8748 211.234 46.1902 212.045 46.7499 212.676C46.8739 212.81 46.6449 212.979 46.5209 212.842Z" fill="white"/>
<path d="M43.058 219.845C44.903 219.985 46.7329 219.424 48.183 218.275C48.327 218.161 48.496 218.39 48.353 218.504C46.8417 219.697 44.9359 220.277 43.016 220.127C42.833 220.113 42.876 219.831 43.058 219.845Z" fill="white"/>
<path d="M53.297 208.061C53.4727 208.373 53.723 208.636 54.0255 208.827C54.3279 209.017 54.6731 209.13 55.03 209.155C55.213 209.167 55.17 209.449 54.988 209.437C54.5938 209.408 54.2127 209.283 53.878 209.073C53.5433 208.862 53.2652 208.573 53.068 208.231C53.0464 208.2 53.0376 208.162 53.0431 208.125C53.0487 208.088 53.0683 208.054 53.098 208.031C53.1131 208.02 53.1302 208.012 53.1484 208.007C53.1667 208.003 53.1856 208.002 53.2042 208.005C53.2228 208.007 53.2406 208.014 53.2567 208.023C53.2728 208.033 53.2868 208.046 53.298 208.061H53.297Z" fill="white"/>
<path d="M201.711 210.322C201.12 203.89 197.353 197.451 191.311 195.17C193.509 201.841 193.276 209.075 190.654 215.591C189.634 218.1 188.237 220.785 189.038 223.373C189.619 224.975 190.794 226.293 192.319 227.055C193.832 227.801 195.435 228.351 197.088 228.69L197.403 228.968C200.206 223.149 202.302 216.754 201.711 210.322Z" fill="#F0F0F0"/>
<path d="M191.245 195.289C194.675 199.39 196.725 204.467 197.105 209.8C197.207 210.947 197.128 212.102 196.87 213.224C196.584 214.309 196.012 215.297 195.215 216.086C194.424 216.781 193.721 217.57 193.12 218.435C192.854 218.907 192.69 219.431 192.641 219.971C192.591 220.511 192.656 221.055 192.831 221.568C193.3 222.822 194.017 223.969 194.938 224.941C195.993 225.996 196.794 227.279 197.279 228.69C197.324 228.868 197.597 228.79 197.552 228.609C196.9 226.058 194.493 224.544 193.396 222.23C193.111 221.709 192.949 221.129 192.922 220.535C192.896 219.942 193.005 219.35 193.242 218.805C193.802 217.891 194.505 217.073 195.323 216.38C196.112 215.622 196.704 214.682 197.046 213.642C197.36 212.538 197.483 211.388 197.411 210.242C197.29 207.658 196.763 205.109 195.85 202.689C194.823 199.921 193.331 197.349 191.437 195.084C191.32 194.944 191.125 195.152 191.237 195.291L191.245 195.289Z" fill="white"/>
<path d="M197.085 208.075C197.971 207.89 198.762 207.396 199.317 206.682C199.873 205.968 200.156 205.079 200.117 204.175C200.116 204.137 200.101 204.101 200.073 204.075C200.046 204.049 200.01 204.035 199.972 204.035C199.934 204.036 199.898 204.052 199.872 204.079C199.846 204.106 199.831 204.142 199.832 204.18C199.87 205.022 199.606 205.85 199.088 206.515C198.569 207.179 197.83 207.637 197.004 207.804C196.825 207.839 196.906 208.112 197.085 208.075Z" fill="white"/>
<path d="M195.636 215.754C194.079 214.755 192.955 213.206 192.489 211.415C192.443 211.238 192.17 211.315 192.216 211.496C192.704 213.359 193.877 214.969 195.5 216.005C195.655 216.102 195.79 215.852 195.636 215.754Z" fill="white"/>
<path d="M194.554 200.179C194.226 200.322 193.868 200.381 193.511 200.352C193.154 200.322 192.811 200.204 192.511 200.009C192.358 199.909 192.222 200.159 192.375 200.259C192.707 200.473 193.087 200.603 193.48 200.636C193.874 200.67 194.27 200.607 194.634 200.452C194.67 200.441 194.701 200.417 194.719 200.384C194.738 200.351 194.743 200.312 194.734 200.275C194.729 200.257 194.72 200.24 194.708 200.225C194.696 200.21 194.681 200.198 194.664 200.189C194.647 200.18 194.629 200.175 194.61 200.173C194.591 200.171 194.572 200.173 194.554 200.179V200.179Z" fill="white"/>
<path d="M172.318 206.013C172.412 206.078 172.506 206.144 172.6 206.213C173.859 207.1 175.045 208.089 176.144 209.168C176.23 209.25 176.317 209.335 176.4 209.419C179.021 212.048 181.132 215.14 182.624 218.539C183.217 219.892 183.705 221.289 184.086 222.716C184.612 224.687 185.025 226.866 186.138 228.501C186.252 228.673 186.377 228.837 186.512 228.994L197.037 229.332L197.11 229.301L197.53 229.334C197.515 229.259 197.499 229.182 197.484 229.107C197.476 229.063 197.465 229.02 197.457 228.976C197.449 228.932 197.444 228.918 197.44 228.891C197.44 228.881 197.44 228.872 197.434 228.864C197.434 228.837 197.424 228.813 197.42 228.789C197.328 228.356 197.233 227.922 197.135 227.489C196.417 224.179 195.31 220.966 193.835 217.917C193.79 217.827 193.745 217.734 193.695 217.643C193.01 216.29 192.215 214.995 191.318 213.772C190.826 213.105 190.3 212.463 189.743 211.849C188.3 210.265 186.617 208.918 184.756 207.857C181.122 205.649 176.766 204.956 172.626 205.927C172.525 205.955 172.423 205.983 172.318 206.013Z" fill="#F0F0F0"/>
<path d="M172.342 206.148C177.55 207.357 182.244 210.177 185.758 214.206C186.53 215.06 187.162 216.03 187.632 217.081C188.056 218.12 188.194 219.253 188.032 220.363C187.819 221.394 187.733 222.448 187.774 223.5C187.846 224.037 188.031 224.553 188.316 225.014C188.601 225.475 188.981 225.871 189.43 226.175C190.56 226.893 191.822 227.378 193.143 227.599C194.621 227.807 196.032 228.349 197.269 229.184C197.412 229.299 197.582 229.07 197.439 228.955C195.383 227.311 192.549 227.555 190.281 226.364C189.74 226.119 189.261 225.754 188.883 225.296C188.504 224.838 188.235 224.3 188.096 223.722C187.993 222.655 188.06 221.578 188.296 220.532C188.47 219.451 188.376 218.344 188.023 217.308C187.608 216.237 187.014 215.244 186.266 214.372C184.613 212.382 182.658 210.664 180.472 209.281C177.986 207.689 175.247 206.534 172.372 205.866C172.194 205.825 172.164 206.108 172.341 206.149L172.342 206.148Z" fill="white"/>
<path d="M184.7 212.842C185.296 212.161 185.63 211.29 185.643 210.385C185.656 209.48 185.347 208.599 184.771 207.901C184.654 207.76 184.43 207.935 184.547 208.076C185.086 208.726 185.374 209.547 185.36 210.39C185.346 211.234 185.031 212.045 184.471 212.676C184.35 212.81 184.579 212.979 184.7 212.842Z" fill="white"/>
<path d="M188.165 219.845C186.32 219.985 184.49 219.424 183.04 218.275C182.896 218.161 182.727 218.39 182.871 218.504C184.382 219.698 186.288 220.277 188.208 220.127C188.39 220.113 188.347 219.831 188.165 219.845Z" fill="white"/>
<path d="M177.926 208.061C177.75 208.373 177.5 208.636 177.197 208.827C176.895 209.017 176.55 209.13 176.193 209.155C176.01 209.167 176.053 209.449 176.235 209.437C176.629 209.408 177.01 209.283 177.345 209.073C177.68 208.862 177.958 208.573 178.155 208.231C178.176 208.2 178.185 208.162 178.18 208.125C178.174 208.088 178.155 208.054 178.125 208.031C178.094 208.009 178.057 207.999 178.019 208.005C177.982 208.011 177.948 208.031 177.926 208.061V208.061Z" fill="white"/>
<path d="M274.487 229.846C274.487 229.943 274.448 230.035 274.38 230.104C274.311 230.172 274.219 230.211 274.122 230.211H0.365982C0.269045 230.211 0.176073 230.172 0.107529 230.104C0.0389841 230.035 0.000488281 229.942 0.000488281 229.846C0.000488281 229.749 0.0389841 229.656 0.107529 229.587C0.176073 229.518 0.269045 229.48 0.365982 229.48H274.121C274.218 229.48 274.311 229.519 274.38 229.587C274.448 229.656 274.487 229.749 274.487 229.846V229.846Z" fill="#3F3D56"/>
<path d="M176.334 88.4569C177.097 88.4569 177.716 87.8381 177.716 87.0749C177.716 86.3116 177.097 85.6929 176.334 85.6929C175.571 85.6929 174.952 86.3116 174.952 87.0749C174.952 87.8381 175.571 88.4569 176.334 88.4569Z" fill="#3F3D56"/>
<path d="M159.027 97.7209L177.66 86.0139C177.829 85.9074 178.017 85.8362 178.214 85.8047C178.411 85.7731 178.612 85.7819 178.805 85.8304C178.999 85.8789 179.18 85.9662 179.339 86.0869C179.498 86.2077 179.63 86.3593 179.728 86.5328C179.827 86.7063 179.889 86.8979 179.911 87.096C179.933 87.2942 179.915 87.4947 179.857 87.6856C179.799 87.8764 179.703 88.0536 179.575 88.2063C179.447 88.359 179.289 88.484 179.111 88.5739L159.494 98.5449C159.385 98.5988 159.26 98.609 159.144 98.5734C159.028 98.5378 158.93 98.4592 158.87 98.3536C158.81 98.2481 158.793 98.1236 158.822 98.0058C158.851 97.8879 158.924 97.7857 159.026 97.7199L159.027 97.7209Z" fill="#E4E4E4"/>
<path d="M121.645 122.928C121.498 122.71 121.422 122.452 121.426 122.189C121.429 121.926 121.513 121.671 121.666 121.457C121.981 121.035 122.401 120.702 122.884 120.491C123.881 119.985 124.956 119.647 126.063 119.491C126.916 119.483 127.751 119.241 128.476 118.791C129.125 118.25 129.486 117.239 130.326 117.154C131.138 117.072 131.763 117.962 132.578 118.017C133.578 118.085 134.24 116.91 135.217 116.669C135.89 116.584 136.573 116.724 137.157 117.069L140.839 118.739L142.726 119.595C143.385 119.895 144.126 120.295 144.253 121.01C144.424 121.99 143.334 122.681 142.403 123.029C135.75 125.483 128.439 125.483 121.786 123.029" fill="#29913C"/>
<path d="M127.191 140.979C153.908 140.979 175.566 137.885 175.566 134.068C175.566 130.251 153.908 127.157 127.191 127.157C100.474 127.157 78.816 130.251 78.816 134.068C78.816 137.885 100.474 140.979 127.191 140.979Z" fill="#3F3D56"/>
<path d="M225.323 176.914H192.151C190.624 176.914 189.387 178.152 189.387 179.678V179.679C189.387 181.206 190.624 182.443 192.151 182.443H225.323C226.849 182.443 228.087 181.206 228.087 179.679V179.678C228.087 178.152 226.849 176.914 225.323 176.914Z" fill="#3F3D56"/>
<path d="M241.399 127.63L230.443 179.675L233.296 192.996L238.683 218.136V229.436C238.684 229.451 238.684 229.467 238.683 229.482C238.681 229.732 238.635 229.979 238.548 230.213H234.217C234.129 229.979 234.084 229.732 234.082 229.482C234.08 229.467 234.08 229.451 234.082 229.436V218.619L229.192 195.801L228.203 191.194L226.29 182.265L225.737 179.679L226.284 177.087L226.705 175.087L236.896 126.687C236.958 126.391 237.078 126.11 237.249 125.86C237.419 125.611 237.637 125.397 237.891 125.231C238.144 125.066 238.427 124.952 238.725 124.896C239.022 124.84 239.327 124.843 239.623 124.906C239.92 124.968 240.2 125.087 240.45 125.258C240.7 125.429 240.914 125.647 241.079 125.9C241.245 126.154 241.358 126.437 241.414 126.734C241.47 127.032 241.467 127.337 241.405 127.633L241.399 127.63Z" fill="#3F3D56"/>
<path d="M194.455 179.678V229.439C194.456 229.454 194.456 229.47 194.455 229.485C194.453 229.735 194.407 229.982 194.32 230.216H189.987C189.899 229.982 189.854 229.735 189.852 229.485C189.851 229.47 189.851 229.454 189.852 229.439V179.678C189.852 179.067 190.095 178.481 190.527 178.049C190.959 177.617 191.545 177.375 192.156 177.375C192.766 177.375 193.352 177.617 193.784 178.049C194.216 178.481 194.459 179.067 194.459 179.678H194.455Z" fill="#3F3D56"/>
<path d="M197.676 171.385H219.79C221.989 171.385 224.099 172.258 225.654 173.814C227.209 175.369 228.083 177.478 228.083 179.678H189.383C189.383 177.478 190.257 175.369 191.812 173.814C193.367 172.258 195.477 171.385 197.676 171.385V171.385Z" fill="#3F3D56"/>
<path d="M230.852 195.803H192.152C191.541 195.803 190.955 195.56 190.523 195.128C190.091 194.696 189.849 194.11 189.849 193.499C189.849 192.888 190.091 192.302 190.523 191.87C190.955 191.438 191.541 191.196 192.152 191.196H230.852C231.463 191.196 232.049 191.438 232.481 191.87C232.913 192.302 233.156 192.888 233.156 193.499C233.156 194.11 232.913 194.696 232.481 195.128C232.049 195.56 231.463 195.803 230.852 195.803V195.803Z" fill="#3F3D56"/>
<path d="M51.2579 182.526H89.4549C91.2129 182.526 92.6379 181.101 92.6379 179.343C92.6379 177.585 91.2129 176.16 89.4549 176.16H51.2579C49.5 176.16 48.0749 177.585 48.0749 179.343C48.0749 181.101 49.5 182.526 51.2579 182.526Z" fill="#3F3D56"/>
<path d="M50.4359 179.38L49.7289 182.292L47.1369 192.956L46.0189 197.563L40.8279 218.934V228.207C40.8293 228.661 40.6945 229.105 40.4409 229.482C40.2417 229.787 39.9708 230.038 39.6519 230.213H37.3969C37.0781 230.038 36.8072 229.787 36.6079 229.482C36.3543 229.105 36.2195 228.661 36.2209 228.207V218.382L41.9889 194.64L45.7119 179.307L33.0889 119.337C32.9635 118.74 33.0805 118.117 33.4144 117.605C33.7482 117.094 34.2714 116.737 34.8689 116.611C35.4664 116.486 36.0894 116.603 36.6006 116.937C37.1118 117.27 37.4695 117.794 37.5949 118.391L49.2629 173.809L49.7999 176.364L50.4259 179.343L50.4359 179.38Z" fill="#3F3D56"/>
<path d="M91.76 179.344V228.207C91.7615 228.661 91.6267 229.105 91.373 229.482C91.1737 229.787 90.9028 230.038 90.584 230.213H88.326C88.0086 230.037 87.7389 229.786 87.54 229.482C87.2864 229.105 87.1516 228.661 87.153 228.207V179.344C87.153 178.733 87.3957 178.147 87.8276 177.715C88.2596 177.283 88.8456 177.041 89.4565 177.041C90.0674 177.041 90.6533 177.283 91.0853 177.715C91.5173 178.147 91.76 178.733 91.76 179.344V179.344Z" fill="#3F3D56"/>
<path d="M92.6379 179.343H48.0749V178.087C48.0749 175.887 48.9487 173.778 50.5039 172.223C52.0591 170.667 54.1685 169.794 56.3679 169.794H84.3449C86.5444 169.794 88.6537 170.667 90.209 172.223C91.7642 173.778 92.6379 175.887 92.6379 178.087V179.343Z" fill="#3F3D56"/>
<path d="M89.455 197.562H44.891C44.2801 197.562 43.6942 197.319 43.2622 196.887C42.8302 196.455 42.5875 195.87 42.5875 195.259C42.5875 194.648 42.8302 194.062 43.2622 193.63C43.6942 193.198 44.2801 192.955 44.891 192.955H89.455C90.0659 192.955 90.6519 193.198 91.0839 193.63C91.5159 194.062 91.7585 194.648 91.7585 195.259C91.7585 195.87 91.5159 196.455 91.0839 196.887C90.6519 197.319 90.0659 197.562 89.455 197.562Z" fill="#3F3D56"/>
<path d="M146.725 217.656L141.884 215.34L148.535 195.103L155.681 198.52L146.725 217.656Z" fill="#9E616A"/>
<path d="M179.537 215.824L174.331 217.108L166.788 197.191L174.472 195.291L179.537 215.824Z" fill="#9E616A"/>
<path d="M159.584 129.696C160.275 130.817 161.376 131.625 162.654 131.945C163.932 132.266 165.284 132.074 166.422 131.411C166.651 131.272 166.868 131.115 167.071 130.941L182.378 139.725L181.713 130.708L167.279 123.75C166.494 122.961 165.469 122.455 164.365 122.311C163.261 122.167 162.14 122.394 161.179 122.956C160.626 123.288 160.144 123.728 159.763 124.249C159.382 124.77 159.11 125.362 158.961 125.99C158.812 126.618 158.791 127.27 158.898 127.906C159.005 128.543 159.238 129.152 159.584 129.697V129.696Z" fill="#9E616A"/>
<path d="M175.795 136.417L178.501 138.066L190.653 145.476C191.451 145.976 192.34 146.313 193.268 146.468C194.197 146.624 195.147 146.595 196.064 146.383C196.982 146.172 197.848 145.781 198.615 145.234C199.381 144.687 200.032 143.995 200.531 143.196C201.431 141.714 201.749 139.951 201.425 138.247L196.025 111.264C195.825 110.205 195.4 109.201 194.776 108.321C194.153 107.442 193.348 106.707 192.414 106.168C191.481 105.628 190.442 105.297 189.369 105.196C188.296 105.095 187.213 105.226 186.196 105.582C184.485 106.183 183.068 107.413 182.232 109.021C181.396 110.63 181.204 112.497 181.696 114.242L187.344 133.391L178.687 129.355L175.795 136.417Z" fill="#E6E6E6"/>
<path d="M169.401 210.241L161.07 193.533V193.495L161.893 162.85C161.903 162.577 161.925 162.304 161.958 162.034C162.103 160.805 162.491 159.618 163.099 158.541C163.707 157.463 164.524 156.518 165.501 155.76C166.438 155.027 167.511 154.488 168.658 154.174C169.805 153.861 171.003 153.779 172.182 153.933L196.004 157.016L196.83 153.638L196.984 153.582L219.809 145.217L219.941 145.431C222.93 150.295 225.02 160.011 225.589 162.873L225.597 162.914C225.609 162.974 225.616 163.014 225.619 163.021C226.794 167.905 221.939 175.995 217.102 177.211C206.914 179.811 197.802 177.782 187.252 175.436C183.469 174.595 179.559 173.725 175.252 172.973L175.38 175.508C175.485 177.458 175.889 179.381 176.58 181.208C177.116 182.423 177.4 183.735 177.416 185.063C177.432 186.391 177.179 187.709 176.672 188.937L176.052 190.729C176.374 191.618 176.485 192.571 176.376 193.51C176.267 194.45 175.941 195.351 175.424 196.144L175.299 196.335L180.793 210.235L169.401 210.241Z" fill="#2F2E41"/>
<path d="M155.711 202.853L145.777 201.93L149.297 190.674C150.023 183.324 151.854 176.126 154.726 169.322L159.526 157.945C159.537 157.692 159.558 157.437 159.589 157.187C159.734 155.958 160.123 154.771 160.732 153.694C161.341 152.617 162.158 151.672 163.136 150.914C164.073 150.182 165.146 149.643 166.293 149.329C167.44 149.016 168.638 148.933 169.817 149.087L193.604 152.165L194.64 143.465L217.471 140.41L217.571 140.58C221.562 147.073 224.095 152.156 225.544 156.58C225.617 156.805 225.681 157.035 225.736 157.265C226.315 159.611 225.95 162.09 224.718 164.168C223.487 166.247 221.488 167.758 219.153 168.377C206.887 171.504 192.138 171.417 172.745 168.102L163.36 190.437C162.463 192.57 161.352 194.607 160.045 196.517L155.711 202.853Z" fill="#2F2E41"/>
<path d="M190.364 90.0959C196.72 90.0959 201.872 84.8289 201.872 78.3319C201.872 71.8348 196.72 66.5679 190.364 66.5679C184.008 66.5679 178.856 71.8348 178.856 78.3319C178.856 84.8289 184.008 90.0959 190.364 90.0959Z" fill="#9E616A"/>
<path d="M193.687 152.576L192.036 146.661L191.63 143.743L189.257 143.822L184.599 133.071L182.79 130.236C182.421 129.847 182.088 129.474 181.79 129.115C179.905 126.984 178.393 124.55 177.319 121.915C176.566 120.023 176.124 118.021 176.01 115.987C175.672 109.98 178.205 103.625 183.752 96.5591C183.661 96.3089 183.6 96.0488 183.571 95.7841C183.472 94.9257 183.716 94.0628 184.249 93.3832C184.783 92.7036 185.564 92.2623 186.421 92.1551L191.771 91.5551C192.187 91.5081 192.608 91.5443 193.01 91.6615C193.412 91.7788 193.787 91.9748 194.112 92.2381C194.452 92.5105 194.734 92.8477 194.942 93.2302C195.151 93.6127 195.281 94.0329 195.325 94.4661C195.397 95.1364 195.265 95.8128 194.947 96.4071C197.674 96.7533 200.244 97.8789 202.347 99.6489C204.451 101.419 205.999 103.758 206.806 106.386C210.007 112.363 212.559 118.666 214.417 125.186C214.694 126.458 214.709 127.774 214.462 129.052C214.248 130.241 214.234 131.458 214.419 132.652C214.77 133.97 215.286 135.239 215.953 136.429C216.78 137.867 217.367 139.43 217.692 141.057L217.707 141.168L193.687 152.576Z" fill="#E4E4E4"/>
<path opacity="0.2" d="M177.458 121.858C178.527 124.477 180.03 126.897 181.904 129.016C182.225 129.399 182.564 129.776 182.919 130.153L184.739 133.009C191.45 127.979 196.886 108.174 196.886 108.174L189.315 106.701L177.458 121.858Z" fill="black"/>
<path d="M172.87 91.195C173.533 92.3338 173.725 93.6864 173.406 94.9649C173.087 96.2435 172.282 97.3471 171.162 98.041C170.932 98.1783 170.691 98.2964 170.442 98.394L170.978 116.035L163.339 111.226L164.001 95.211C163.676 94.1453 163.713 93.002 164.106 91.9594C164.499 90.9169 165.226 90.0338 166.174 89.448C166.726 89.1136 167.34 88.8932 167.978 88.8001C168.617 88.7069 169.268 88.7428 169.893 88.9055C170.518 89.0683 171.103 89.3547 171.615 89.7478C172.127 90.1409 172.555 90.6327 172.874 91.194L172.87 91.195Z" fill="#9E616A"/>
<path d="M171.653 109.377L163.253 110.572L163.614 127.972C163.635 129.213 163.973 130.428 164.596 131.502C165.219 132.576 166.106 133.472 167.173 134.106V134.106C168.476 134.873 169.994 135.195 171.496 135.025C172.999 134.854 174.406 134.2 175.504 133.16L195.338 114.083C196.733 112.759 197.568 110.951 197.671 109.031C197.774 107.11 197.138 105.223 195.892 103.757V103.757C195.275 103.027 194.519 102.429 193.667 101.997C192.814 101.566 191.884 101.31 190.931 101.244C189.978 101.179 189.022 101.306 188.119 101.617C187.215 101.929 186.384 102.418 185.674 103.057C185.478 103.232 185.292 103.418 185.116 103.613L172.016 118.679L171.653 109.377Z" fill="#E6E6E6"/>
<path d="M101.387 222.852H107.35L110.187 199.852H101.387V222.852Z" fill="#FFB6B6"/>
<path d="M67.59 90.4382C74.1627 90.4382 79.491 85.11 79.491 78.5372C79.491 71.9645 74.1627 66.6362 67.59 66.6362C61.0172 66.6362 55.689 71.9645 55.689 78.5372C55.689 85.11 61.0172 90.4382 67.59 90.4382Z" fill="#FFB6B6"/>
<path d="M109.298 215.768H100.854L98.701 212.882L98.118 210.163L97.618 209.678C96.9376 209.025 96.4976 208.161 96.3695 207.227C96.2413 206.292 96.4325 205.342 96.912 204.53L90.792 175.978C89.192 175.837 71.114 174.221 58.549 171.997C57.0533 171.775 55.6192 171.248 54.3356 170.449C53.052 169.65 51.9462 168.595 51.087 167.351C46.821 161.174 48.6489 151.18 48.6679 151.08L48.6889 150.969L48.8019 150.956L78.1509 147.662L78.191 147.681C79.165 148.142 102.091 159.024 105.833 162.77C107.525 164.462 111.298 174.511 112.143 185.196C112.171 187.151 111.86 189.096 111.223 190.944C110.64 192.655 110.336 194.449 110.323 196.256C110.478 198.916 110.623 201.707 110.761 204.55C110.864 205.062 111.104 205.537 111.454 205.925C111.809 206.315 112.049 206.796 112.145 207.315C112.125 210.339 111.144 213.279 109.345 215.71L109.298 215.768Z" fill="#2F2E41"/>
<path d="M111.221 110.236C110.582 110.061 109.912 110.029 109.259 110.141C108.605 110.253 107.985 110.507 107.44 110.885C106.896 111.263 106.441 111.756 106.107 112.328C105.774 112.901 105.57 113.54 105.51 114.2L95.621 117.291L96.034 123.758L109.934 119.197C111.05 119.225 112.138 118.843 112.991 118.122C113.844 117.401 114.402 116.392 114.561 115.287C114.719 114.182 114.466 113.057 113.85 112.126C113.234 111.194 112.297 110.522 111.218 110.235L111.221 110.236Z" fill="#FFB6B6"/>
<path d="M104.769 120.938L97.378 123.738L97.189 124.105C96.7358 124.984 95.9521 125.647 95.0101 125.948C94.0681 126.249 93.045 126.164 92.166 125.711V125.711L75.551 131.995C75.551 131.995 68.133 124.571 62.851 117.946L64.651 106.874C65.0679 104.305 65.954 101.835 67.265 99.5869C78.097 101.962 84.314 117.104 84.314 117.104L103.835 113.379L104.769 120.938Z" fill="#29913C"/>
<path d="M65.899 89.802C64.3884 90.1396 62.8185 90.1072 61.3231 89.7076C59.8277 89.3081 58.4509 88.5531 57.31 87.507C55.0442 85.3816 53.4406 82.647 52.692 79.632C52.078 77.457 51.792 75.042 52.756 73C53.72 70.958 56.331 69.58 58.343 70.612C57.102 69.167 57.722 66.776 59.171 65.539C60.7292 64.4214 62.588 63.7993 64.505 63.754C67.2508 63.3565 70.05 63.5536 72.713 64.332C74.04 64.7331 75.2558 65.4367 76.2646 66.3874C77.2735 67.3382 78.0479 68.5101 78.527 69.8109C79.3635 70.2005 80.3056 70.3015 81.2057 70.0983C82.1058 69.8951 82.913 69.3991 83.501 68.688C83.6534 69.5052 83.532 70.3499 83.1556 71.0912C82.7792 71.8324 82.1688 72.4288 81.419 72.788L85.429 71.4879C86.119 72.9479 84.91 74.7539 83.365 75.2219C81.7694 75.5545 80.1073 75.2992 78.685 74.503C77.2781 73.7089 75.7715 73.1063 74.205 72.711C73.4167 72.5283 72.5912 72.5919 71.8401 72.8932C71.0891 73.1945 70.4485 73.719 70.005 74.396C69.7121 75.1887 69.501 76.0093 69.375 76.845C69.151 77.66 68.583 78.506 67.741 78.572C67.208 78.614 66.687 78.33 66.156 78.388C65.8301 78.4521 65.5299 78.6099 65.2922 78.842C65.0546 79.0741 64.8898 79.3706 64.818 79.6949C64.6874 80.3461 64.6874 81.0168 64.818 81.668L65.837 89.4529" fill="#2F2E41"/>
<path d="M51.154 168.773H51.147L51.0529 168.757L51.026 168.666C50.684 167.515 50.2479 166.337 49.8259 165.198C49.2058 163.62 48.6822 162.006 48.258 160.365C47.9241 158.796 47.6926 157.206 47.565 155.607C47.448 154.446 47.326 153.245 47.12 152.063C47.1174 151.505 47.3293 150.968 47.7119 150.563C48.038 150.219 48.2309 149.771 48.2559 149.298C48.0609 148.791 47.7323 148.346 47.305 148.011C46.8174 147.633 46.4539 147.117 46.2609 146.531C45.3073 139.489 44.8638 132.388 44.934 125.283C45.034 115.454 45.477 108.755 46.254 105.371C48.344 96.2709 58.002 94.6109 59.513 94.4059C59.674 93.9771 59.9215 93.5861 60.2401 93.257C60.5587 92.928 60.9417 92.6681 61.3651 92.4934C61.7885 92.3188 62.2433 92.2331 62.7013 92.2418C63.1592 92.2505 63.6105 92.3533 64.0269 92.5439L70.8939 95.6829C72.2857 96.3224 73.5311 97.2411 74.5528 98.3822C75.5745 99.5233 76.3506 100.862 76.8329 102.316L77.852 105.424L78.3629 126.285L75.5329 140.975L81.0619 149.268C51.5939 165.448 51.249 168.773 51.154 168.773Z" fill="#29913C"/>
<path d="M98.1799 220.534H100.119L107.688 217.456L111.745 220.534C114.038 220.534 116.236 221.445 117.858 223.066C119.479 224.687 120.39 226.885 120.39 229.178V229.459H98.1799V220.534Z" fill="#2F2E41"/>
<path d="M113.697 125.118C113.125 124.782 112.487 124.576 111.827 124.514C111.168 124.452 110.502 124.535 109.878 124.758C109.254 124.981 108.686 125.338 108.215 125.804C107.743 126.27 107.38 126.833 107.15 127.455L96.7979 127.855L95.403 132.677L110.12 133.43C111.19 133.747 112.339 133.661 113.35 133.187C114.36 132.714 115.162 131.886 115.603 130.861C116.044 129.836 116.093 128.684 115.742 127.625C115.391 126.566 114.663 125.672 113.697 125.114V125.118Z" fill="#FFB6B6"/>
<path d="M105.193 133.959L94.5591 133.826L93.213 133.808L71.578 133.535C71.578 133.535 65.703 127.93 60.587 122.159L61.304 116.973C62.0022 111.884 64.5253 107.221 68.404 103.853C75.731 108.753 79.98 118.44 79.98 118.44L87.105 121.628C92.1191 121.852 97.0051 123.283 101.348 125.799L103.691 127.156L105.193 133.959Z" fill="#29913C"/>
<path d="M183.336 225.633L179.798 226.506L178.342 223.321L177.549 227.061L168.165 229.377C167.715 229.488 167.242 229.453 166.813 229.276C166.385 229.098 166.025 228.789 165.785 228.392C165.545 227.996 165.438 227.533 165.48 227.072C165.522 226.61 165.71 226.174 166.017 225.827L172.234 218.802L171.401 215.425L179.401 213.95L183.336 225.633Z" fill="#2F2E41"/>
<path d="M145.852 226.726L142.478 225.349L143.178 221.918L140.335 224.474L131.386 220.821C130.957 220.646 130.595 220.338 130.353 219.943C130.112 219.547 130.003 219.085 130.042 218.624C130.082 218.162 130.268 217.725 130.573 217.377C130.879 217.028 131.287 216.786 131.74 216.687L140.901 214.668L142.216 211.447L149.55 214.964L145.852 226.726Z" fill="#2F2E41"/>
<path d="M134.101 132.84H131.337C128.365 132.837 125.515 131.655 123.413 129.553C121.311 127.451 120.129 124.601 120.126 121.629V121.475H145.312V121.629C145.309 124.601 144.127 127.451 142.025 129.553C139.923 131.655 137.073 132.837 134.101 132.84V132.84Z" fill="#E4E4E4"/>
<path d="M131.338 117.482C131.338 118.245 129.956 118.864 129.956 118.864C129.956 118.864 128.574 118.245 128.574 117.482C128.574 116.719 129.956 116.1 129.956 116.1C129.956 116.1 131.338 116.719 131.338 117.482Z" fill="#3F3D56"/>
<path d="M139.631 117.482C139.631 118.245 138.249 118.864 138.249 118.864C138.249 118.864 136.867 118.245 136.867 117.482C136.867 116.719 138.249 116.1 138.249 116.1C138.249 116.1 139.631 116.719 139.631 117.482Z" fill="#3F3D56"/>
<path d="M134.102 120.246C134.102 121.009 132.72 121.628 132.72 121.628C132.72 121.628 131.338 121.009 131.338 120.246C131.338 119.483 132.72 118.864 132.72 118.864C132.72 118.864 134.102 119.483 134.102 120.246Z" fill="#3F3D56"/>
<path d="M124.427 114.564C125.19 114.564 125.809 113.945 125.809 113.182C125.809 112.419 125.19 111.8 124.427 111.8C123.664 111.8 123.045 112.419 123.045 113.182C123.045 113.945 123.664 114.564 124.427 114.564Z" fill="#3F3D56"/>
<path d="M104.326 110.211L126.126 113.222C126.323 113.249 126.513 113.316 126.684 113.418C126.855 113.521 127.003 113.657 127.12 113.818C127.236 113.98 127.319 114.163 127.363 114.357C127.407 114.552 127.411 114.753 127.375 114.949C127.338 115.145 127.263 115.331 127.153 115.497C127.042 115.663 126.9 115.805 126.733 115.914C126.566 116.023 126.379 116.097 126.183 116.132C125.987 116.167 125.786 116.161 125.592 116.116L104.155 111.144C104.037 111.116 103.934 111.043 103.867 110.941C103.801 110.839 103.776 110.716 103.798 110.596C103.82 110.476 103.887 110.37 103.986 110.298C104.084 110.226 104.206 110.195 104.327 110.211H104.326Z" fill="#E4E4E4"/>
<path d="M130.815 41.53V0H128.051V41.53C124.274 41.8738 120.762 43.617 118.205 46.4173C115.648 49.2176 114.23 52.8727 114.229 56.665V60.811H123.904C123.894 61.5433 124.03 62.2702 124.303 62.9496C124.577 63.629 124.982 64.2473 125.497 64.7686C126.011 65.2899 126.624 65.7038 127.299 65.9863C127.975 66.2689 128.7 66.4144 129.432 66.4144C130.165 66.4144 130.89 66.2689 131.565 65.9863C132.241 65.7038 132.854 65.2899 133.368 64.7686C133.883 64.2473 134.288 63.629 134.562 62.9496C134.835 62.2702 134.971 61.5433 134.961 60.811H144.636V56.665C144.636 52.8725 143.219 49.2169 140.662 46.416C138.105 43.6151 134.593 41.8713 130.816 41.527L130.815 41.53Z" fill="#F0F0F0"/>
<path d="M166.405 31.147V0H164.332V31.147C161.499 31.405 158.865 32.7128 156.947 34.8136C155.029 36.9144 153.966 39.6564 153.966 42.501V45.611H161.221C161.221 46.7107 161.658 47.7654 162.435 48.543C163.213 49.3206 164.268 49.7575 165.367 49.7575C166.467 49.7575 167.522 49.3206 168.299 48.543C169.077 47.7654 169.514 46.7107 169.514 45.611H176.77V42.501C176.77 39.6567 175.707 36.9151 173.789 34.8146C171.871 32.714 169.237 31.4062 166.405 31.148V31.147Z" fill="#F0F0F0"/>
<path d="M96.376 31.147V0H94.303V31.147C91.4701 31.405 88.836 32.7128 86.918 34.8136C85 36.9144 83.9368 39.6564 83.937 42.501V45.611H91.192C91.192 46.7107 91.6289 47.7654 92.4065 48.543C93.1841 49.3206 94.2388 49.7575 95.3385 49.7575C96.4382 49.7575 97.4929 49.3206 98.2705 48.543C99.0481 47.7654 99.485 46.7107 99.485 45.611H106.741V42.501C106.741 39.6567 105.678 36.9151 103.76 34.8146C101.842 32.714 99.2086 31.4062 96.376 31.148V31.147Z" fill="#F0F0F0"/>
<path d="M221.157 73.2298C219.201 70.9488 218.271 67.9218 216.707 65.3298C215.143 62.7378 212.422 60.4208 209.547 61.0238C208.554 61.3132 207.645 61.8385 206.898 62.5548C206.151 63.2711 205.589 64.1572 205.258 65.1378C204.585 67.1387 204.228 69.2327 204.202 71.3438C204.209 69.2064 203.571 67.1167 202.369 65.3488C201.168 63.581 199.46 62.2177 197.47 61.4378C195.473 60.7908 193.322 60.7944 191.328 61.448C189.333 62.1016 187.597 63.3715 186.37 65.0748C185.293 64.0767 183.887 63.5084 182.418 63.4777C180.95 63.4469 179.521 63.9557 178.403 64.9078C177.319 65.9588 176.622 67.3461 176.428 68.8435C176.233 70.341 176.551 71.8603 177.33 73.1538C178.145 74.3787 179.38 75.2638 180.801 75.6429C182.223 76.022 183.734 75.8691 185.051 75.2128L185.963 76.0518C185.727 76.9488 185.813 77.9004 186.207 78.7401C186.601 79.5799 187.278 80.2545 188.119 80.6458C189.476 81.1938 191.393 81.1028 191.901 82.5278C192.256 83.5278 191.593 84.5858 190.887 85.3508C190.07 86.0173 189.497 86.9364 189.259 87.9638C189.131 89.5638 190.781 90.6798 192.281 91.0168C194.12 91.3844 196.027 91.1949 197.758 90.4726C199.489 89.7502 200.965 88.5278 201.997 86.9618C202.037 86.9004 202.081 86.8388 202.128 86.7768C203.298 85.2809 204.15 83.5622 204.633 81.7258C205.117 79.8893 205.22 77.9736 204.938 76.0958C204.821 75.3578 204.938 74.8088 205.448 74.6348C207.648 73.8798 213.807 75.4648 215.671 76.8978C217.535 78.3308 219.028 80.2268 220.824 81.7518C222.62 83.2768 224.908 84.4518 227.189 84.0378C228.107 83.818 228.971 83.4164 229.731 82.8568C230.491 82.2972 231.132 81.591 231.614 80.7798C232.599 79.1247 233.336 77.3335 233.799 75.4638C231.751 76.5805 229.384 76.9676 227.087 76.5617C224.789 76.1557 222.698 74.9808 221.157 73.2298V73.2298Z" fill="#2F2E41"/>
</g>
<defs>
<clipPath id="clip0_594_678">
<rect width="274.486" height="230.212" fill="white"/>
</clipPath>
</defs>
</svg>
