<svg width="411" height="220" viewBox="0 0 411 220" fill="none" xmlns="http://www.w3.org/2000/svg">
<g clip-path="url(#clip0_594_798)">
<path d="M410.944 129.983C410.944 111.756 396.158 68.5029 377.918 68.5029C359.678 68.5029 344.892 111.756 344.892 129.983C344.892 138.742 348.372 147.142 354.565 153.336C360.759 159.529 369.159 163.009 377.918 163.009C386.677 163.009 395.077 159.529 401.271 153.336C407.465 147.142 410.944 138.742 410.944 129.983V129.983Z" fill="#F2F2F2"/>
<path d="M377.918 203.116C377.818 203.116 377.722 203.076 377.651 203.005C377.58 202.934 377.54 202.838 377.54 202.738V125.638C377.545 125.541 377.587 125.45 377.657 125.383C377.727 125.317 377.821 125.279 377.918 125.279C378.014 125.279 378.108 125.317 378.178 125.383C378.248 125.45 378.29 125.541 378.295 125.638V202.738C378.295 202.838 378.255 202.934 378.185 203.005C378.114 203.076 378.018 203.116 377.918 203.116V203.116Z" fill="#CCCCCC"/>
<path d="M377.918 140.05C377.864 140.05 377.81 140.039 377.761 140.016C377.711 139.994 377.667 139.961 377.632 139.92L358.638 118.02C358.604 117.983 358.577 117.939 358.56 117.891C358.543 117.844 358.536 117.793 358.539 117.743C358.542 117.692 358.555 117.643 358.577 117.598C358.599 117.552 358.631 117.512 358.669 117.479C358.707 117.446 358.751 117.42 358.799 117.405C358.848 117.389 358.898 117.383 358.949 117.388C358.999 117.392 359.048 117.406 359.093 117.43C359.137 117.453 359.177 117.486 359.209 117.525L378.203 139.425C378.25 139.48 378.281 139.547 378.291 139.618C378.301 139.69 378.291 139.763 378.261 139.829C378.231 139.895 378.182 139.95 378.122 139.99C378.061 140.029 377.99 140.05 377.918 140.05V140.05Z" fill="#CCCCCC"/>
<path d="M377.918 152.688C377.843 152.688 377.77 152.666 377.708 152.624C377.646 152.583 377.598 152.524 377.569 152.455C377.541 152.386 377.533 152.31 377.548 152.237C377.562 152.163 377.598 152.096 377.651 152.043L388.444 141.246C388.516 141.181 388.61 141.145 388.707 141.148C388.805 141.15 388.897 141.189 388.966 141.258C389.035 141.327 389.074 141.42 389.076 141.517C389.079 141.614 389.043 141.708 388.978 141.78L378.185 152.573C378.15 152.608 378.108 152.636 378.063 152.655C378.017 152.674 377.968 152.684 377.918 152.684V152.688Z" fill="#CCCCCC"/>
<path d="M46.774 161.933C46.774 151.669 38.448 127.312 28.174 127.312C17.9 127.312 9.57397 151.668 9.57397 161.933C9.57397 166.866 11.5336 171.597 15.0218 175.085C18.51 178.573 23.241 180.533 28.174 180.533C33.107 180.533 37.838 178.573 41.3261 175.085C44.8143 171.597 46.774 166.866 46.774 161.933V161.933Z" fill="#F2F2F2"/>
<path d="M28.1771 203.116C28.1206 203.116 28.0665 203.093 28.0265 203.053C27.9866 203.014 27.9641 202.959 27.9641 202.903V159.489C27.9621 159.46 27.9661 159.43 27.9759 159.403C27.9857 159.375 28.001 159.35 28.0209 159.329C28.0409 159.308 28.065 159.291 28.0917 159.279C28.1185 159.267 28.1474 159.261 28.1766 159.261C28.2058 159.261 28.2347 159.267 28.2615 159.279C28.2883 159.291 28.3124 159.308 28.3323 159.329C28.3522 159.35 28.3676 159.375 28.3773 159.403C28.3871 159.43 28.3911 159.46 28.3891 159.489V202.903C28.3891 202.959 28.3667 203.014 28.3267 203.053C28.2868 203.093 28.2326 203.116 28.1761 203.116H28.1771Z" fill="#CCCCCC"/>
<path d="M28.177 167.6C28.1465 167.6 28.1163 167.594 28.0886 167.581C28.0608 167.568 28.036 167.55 28.016 167.527L17.316 155.192C17.2827 155.149 17.2672 155.095 17.2725 155.041C17.2779 154.987 17.3037 154.937 17.3448 154.901C17.3858 154.865 17.4389 154.847 17.4933 154.849C17.5476 154.851 17.599 154.874 17.637 154.913L28.337 167.248C28.3636 167.279 28.3808 167.317 28.3865 167.357C28.3922 167.397 28.3863 167.438 28.3693 167.476C28.3524 167.513 28.3252 167.544 28.2909 167.566C28.2566 167.588 28.2167 167.6 28.176 167.6H28.177Z" fill="#CCCCCC"/>
<path d="M28.1771 174.718C28.1352 174.718 28.0942 174.705 28.0594 174.681C28.0246 174.658 27.9975 174.625 27.9815 174.586C27.9655 174.547 27.9612 174.505 27.9694 174.464C27.9775 174.422 27.9976 174.385 28.0271 174.355L34.1051 168.277C34.1241 168.254 34.1476 168.236 34.1741 168.222C34.2006 168.209 34.2295 168.202 34.2591 168.2C34.2887 168.199 34.3182 168.204 34.3458 168.215C34.3734 168.225 34.3984 168.242 34.4193 168.263C34.4402 168.283 34.4566 168.309 34.4673 168.336C34.478 168.364 34.4828 168.393 34.4815 168.423C34.4801 168.452 34.4727 168.481 34.4595 168.508C34.4464 168.534 34.4278 168.558 34.4051 168.577L28.3271 174.655C28.3075 174.675 28.2841 174.69 28.2584 174.701C28.2327 174.712 28.205 174.718 28.1771 174.718V174.718Z" fill="#CCCCCC"/>
<path d="M8.03711 202.831C8.03711 200.772 8.85509 198.797 10.3111 197.341C11.7672 195.885 13.742 195.067 15.8011 195.067C17.8603 195.067 19.8351 195.885 21.2911 197.341C22.7471 198.797 23.5651 200.772 23.5651 202.831" fill="#F2F2F2"/>
<path d="M15.8021 202.834C15.7464 202.834 15.6929 202.812 15.6536 202.772C15.6142 202.733 15.592 202.679 15.592 202.624V198.532C15.592 198.476 15.6142 198.423 15.6536 198.383C15.6929 198.344 15.7464 198.322 15.8021 198.322C15.8578 198.322 15.9111 198.344 15.9505 198.383C15.9899 198.423 16.0121 198.476 16.0121 198.532V202.624C16.0121 202.651 16.0066 202.679 15.9961 202.704C15.9855 202.73 15.97 202.753 15.9505 202.772C15.931 202.792 15.9079 202.807 15.8824 202.818C15.8569 202.828 15.8296 202.834 15.8021 202.834Z" fill="#CCCCCC"/>
<path d="M15.798 201.429C15.7476 201.429 15.699 201.411 15.6609 201.378L13.143 199.217C13.12 199.2 13.1008 199.178 13.0866 199.153C13.0723 199.128 13.0634 199.101 13.0603 199.072C13.0572 199.044 13.06 199.015 13.0685 198.987C13.077 198.96 13.091 198.934 13.1097 198.913C13.1284 198.891 13.1515 198.873 13.1773 198.86C13.2031 198.848 13.2313 198.841 13.26 198.84C13.2887 198.838 13.3173 198.843 13.3441 198.853C13.371 198.863 13.3954 198.879 13.4159 198.899L15.9339 201.06C15.9664 201.088 15.9895 201.125 16.0001 201.167C16.0108 201.208 16.0085 201.252 15.9936 201.292C15.9787 201.332 15.9519 201.367 15.9167 201.392C15.8816 201.416 15.8398 201.429 15.7969 201.429H15.798Z" fill="#CCCCCC"/>
<path d="M31.9551 202.831C31.9551 200.772 32.7731 198.797 34.2291 197.341C35.6851 195.885 37.6599 195.067 39.7191 195.067C41.7782 195.067 43.753 195.885 45.209 197.341C46.6651 198.797 47.4831 200.772 47.4831 202.831" fill="#F2F2F2"/>
<path d="M39.719 202.834C39.6633 202.834 39.6099 202.812 39.5706 202.772C39.5312 202.733 39.509 202.679 39.509 202.624V198.532C39.509 198.476 39.5312 198.423 39.5706 198.383C39.6099 198.344 39.6633 198.322 39.719 198.322C39.7747 198.322 39.8281 198.344 39.8675 198.383C39.9069 198.423 39.929 198.476 39.929 198.532V202.624C39.929 202.679 39.9069 202.733 39.8675 202.772C39.8281 202.812 39.7747 202.834 39.719 202.834Z" fill="#CCCCCC"/>
<path d="M39.7191 201.428C39.6688 201.428 39.6201 201.41 39.5821 201.377L37.0641 199.216C37.026 199.179 37.0035 199.128 37.0012 199.075C36.9989 199.022 37.0169 198.97 37.0517 198.929C37.0864 198.889 37.1352 198.863 37.1882 198.857C37.2412 198.851 37.2945 198.866 37.3371 198.898L39.8551 201.059C39.8875 201.087 39.9106 201.124 39.9213 201.166C39.932 201.207 39.9297 201.251 39.9148 201.291C39.8999 201.331 39.8731 201.366 39.8379 201.39C39.8027 201.415 39.761 201.428 39.7181 201.428H39.7191Z" fill="#CCCCCC"/>
<path d="M175.931 171.985C158.923 171.985 142.298 166.941 128.157 157.492C114.015 148.043 102.994 134.613 96.4854 118.9C89.977 103.187 88.2743 85.8969 91.5924 69.2162C94.9106 52.5354 103.101 37.2132 115.127 25.1871C127.153 13.161 142.475 4.9712 159.156 1.65326C175.837 -1.66468 193.127 0.0382853 208.84 6.54685C224.553 13.0554 237.983 24.0772 247.432 38.2185C256.881 52.3598 261.924 68.9854 261.924 85.993C261.898 108.792 252.83 130.649 236.709 146.77C220.587 162.891 198.73 171.959 175.931 171.985V171.985ZM175.931 1.15402C159.152 1.15402 142.749 6.12966 128.797 15.4518C114.846 24.7739 103.972 38.0238 97.5509 53.5259C91.1297 69.028 89.4496 86.0861 92.7231 102.543C95.9966 119 104.077 134.117 115.941 145.982C127.806 157.846 142.923 165.926 159.38 169.2C175.837 172.473 192.895 170.793 208.397 164.372C223.899 157.951 237.149 147.077 246.471 133.125C255.793 119.174 260.769 102.771 260.769 85.992C260.744 63.4994 251.797 41.9353 235.892 26.0305C219.988 10.1258 198.424 1.17943 175.931 1.15402Z" fill="#CCCCCC"/>
<path d="M175.932 79.644C175.779 79.644 175.632 79.5832 175.524 79.475C175.416 79.3668 175.355 79.22 175.355 79.067V0.576996C175.355 0.501223 175.37 0.426206 175.399 0.356201C175.428 0.286196 175.47 0.222586 175.524 0.169006C175.578 0.115427 175.641 0.0729423 175.711 0.0439453C175.781 0.0149483 175.856 0 175.932 0C176.008 0 176.083 0.0149483 176.153 0.0439453C176.223 0.0729423 176.286 0.115427 176.34 0.169006C176.394 0.222586 176.436 0.286196 176.465 0.356201C176.494 0.426206 176.509 0.501223 176.509 0.576996V79.067C176.509 79.22 176.448 79.3668 176.34 79.475C176.232 79.5832 176.085 79.644 175.932 79.644V79.644Z" fill="#CCCCCC"/>
<path d="M261.346 86.5691H182.856C182.703 86.5691 182.556 86.5083 182.448 86.4001C182.34 86.2918 182.279 86.1451 182.279 85.992C182.279 85.839 182.34 85.6923 182.448 85.584C182.556 85.4758 182.703 85.415 182.856 85.415H261.346C261.499 85.415 261.646 85.4758 261.754 85.584C261.862 85.6923 261.923 85.839 261.923 85.992C261.923 86.1451 261.862 86.2918 261.754 86.4001C261.646 86.5083 261.499 86.5691 261.346 86.5691V86.5691Z" fill="#CCCCCC"/>
<path d="M169.006 86.5691H90.5531C90.4773 86.5691 90.4023 86.5541 90.3323 86.5251C90.2623 86.4961 90.1987 86.4536 90.1451 86.4001C90.0915 86.3465 90.049 86.2829 90.02 86.2129C89.991 86.1429 89.9761 86.0678 89.9761 85.992C89.9761 85.9163 89.991 85.8412 90.02 85.7712C90.049 85.7012 90.0915 85.6376 90.1451 85.584C90.1987 85.5305 90.2623 85.488 90.3323 85.459C90.4023 85.43 90.4773 85.415 90.5531 85.415H169.006C169.082 85.415 169.157 85.43 169.227 85.459C169.297 85.488 169.36 85.5305 169.414 85.584C169.468 85.6376 169.51 85.7012 169.539 85.7712C169.568 85.8412 169.583 85.9163 169.583 85.992C169.583 86.0678 169.568 86.1429 169.539 86.2129C169.51 86.2829 169.468 86.3465 169.414 86.4001C169.36 86.4536 169.297 86.4961 169.227 86.5251C169.157 86.5541 169.082 86.5691 169.006 86.5691V86.5691Z" fill="#CCCCCC"/>
<path d="M175.932 171.985C175.779 171.985 175.632 171.924 175.524 171.816C175.416 171.708 175.355 171.561 175.355 171.408V92.9178C175.355 92.842 175.37 92.767 175.399 92.697C175.428 92.627 175.47 92.5634 175.524 92.5098C175.578 92.4562 175.641 92.4138 175.711 92.3848C175.781 92.3558 175.856 92.3408 175.932 92.3408C176.008 92.3408 176.083 92.3558 176.153 92.3848C176.223 92.4138 176.286 92.4562 176.34 92.5098C176.394 92.5634 176.436 92.627 176.465 92.697C176.494 92.767 176.509 92.842 176.509 92.9178V171.408C176.509 171.561 176.448 171.708 176.34 171.816C176.232 171.924 176.085 171.985 175.932 171.985V171.985Z" fill="#CCCCCC"/>
<path d="M181.02 81.8791C180.906 81.8791 180.794 81.8452 180.699 81.7818C180.604 81.7184 180.53 81.6283 180.487 81.5229C180.443 81.4174 180.432 81.3014 180.454 81.1895C180.476 81.0776 180.531 80.9747 180.612 80.894L235.868 25.6371C235.976 25.5292 236.123 25.4686 236.276 25.4688C236.429 25.4689 236.575 25.5297 236.683 25.6378C236.791 25.7458 236.852 25.8924 236.852 26.0453C236.852 26.1981 236.792 26.3448 236.684 26.4531L181.428 81.7101C181.374 81.7637 181.311 81.8063 181.241 81.8353C181.171 81.8643 181.096 81.8792 181.02 81.8791Z" fill="#CCCCCC"/>
<path d="M170.843 81.879C170.767 81.8791 170.692 81.8642 170.622 81.8352C170.552 81.8062 170.489 81.7637 170.435 81.71L115.178 26.453C115.124 26.3995 115.082 26.3358 115.053 26.2658C115.023 26.1957 115.008 26.1207 115.008 26.0448C115.008 25.9689 115.023 25.8938 115.052 25.8237C115.081 25.7536 115.124 25.6899 115.177 25.6363C115.231 25.5827 115.295 25.5401 115.365 25.5111C115.435 25.4821 115.51 25.4672 115.586 25.4673C115.662 25.4674 115.737 25.4824 115.807 25.5115C115.877 25.5406 115.94 25.5833 115.994 25.637L171.255 80.899C171.336 80.9797 171.391 81.0825 171.413 81.1944C171.435 81.3064 171.424 81.4224 171.38 81.5278C171.336 81.6332 171.262 81.7233 171.168 81.7867C171.073 81.8501 170.961 81.884 170.847 81.884L170.843 81.879Z" fill="#CCCCCC"/>
<path d="M236.276 146.516C236.2 146.516 236.125 146.501 236.055 146.472C235.985 146.443 235.922 146.401 235.868 146.347L180.611 91.0902C180.557 91.0367 180.515 90.973 180.486 90.903C180.456 90.8329 180.441 90.7578 180.441 90.682C180.441 90.6061 180.456 90.531 180.485 90.4609C180.514 90.3908 180.557 90.3271 180.61 90.2735C180.664 90.2199 180.728 90.1773 180.798 90.1483C180.868 90.1193 180.943 90.1044 181.019 90.1045C181.095 90.1046 181.17 90.1196 181.24 90.1487C181.31 90.1778 181.374 90.2205 181.427 90.2742L236.683 145.531C236.764 145.612 236.819 145.715 236.841 145.827C236.863 145.939 236.852 146.055 236.808 146.16C236.764 146.265 236.691 146.356 236.596 146.419C236.501 146.482 236.389 146.516 236.275 146.516H236.276Z" fill="#CCCCCC"/>
<path d="M115.586 146.516C115.472 146.516 115.36 146.482 115.265 146.419C115.171 146.355 115.097 146.265 115.053 146.16C115.009 146.054 114.998 145.938 115.02 145.826C115.042 145.714 115.097 145.611 115.178 145.531L170.435 90.2738C170.543 90.1659 170.69 90.1053 170.843 90.1055C170.996 90.1056 171.142 90.1664 171.25 90.2745C171.358 90.3826 171.419 90.5291 171.419 90.682C171.419 90.8348 171.359 90.9815 171.251 91.0898L115.994 146.347C115.941 146.4 115.877 146.443 115.807 146.472C115.737 146.501 115.662 146.516 115.586 146.516V146.516Z" fill="#CCCCCC"/>
<path d="M175.931 145.148C164.231 145.148 152.793 141.678 143.065 135.178C133.337 128.678 125.755 119.438 121.277 108.629C116.8 97.8192 115.629 85.9246 117.912 74.4493C120.195 62.9741 125.829 52.4335 134.103 44.1606C142.377 35.8877 152.918 30.254 164.393 27.972C175.869 25.69 187.763 26.8622 198.572 31.3404C209.382 35.8185 218.62 43.4015 225.12 53.1303C231.619 62.8591 235.088 74.2968 235.087 85.997C235.086 101.685 228.853 116.731 217.759 127.823C206.665 138.916 191.619 145.148 175.931 145.148V145.148ZM175.931 27.9909C164.46 27.9909 153.246 31.3926 143.708 37.7657C134.17 44.1388 126.736 53.1972 122.346 63.7953C117.956 74.3934 116.807 86.0553 119.045 97.3062C121.283 108.557 126.807 118.892 134.919 127.003C143.03 135.115 153.365 140.639 164.616 142.877C175.867 145.114 187.528 143.966 198.127 139.576C208.725 135.186 217.783 127.752 224.156 118.214C230.529 108.676 233.931 97.4623 233.931 85.9909C233.931 78.3742 232.431 70.832 229.516 63.795C226.602 56.758 222.329 50.364 216.943 44.9781C211.558 39.5922 205.164 35.3199 198.127 32.405C191.09 29.4902 183.548 27.99 175.931 27.99V27.9909Z" fill="#CCCCCC"/>
<path d="M175.932 92.9189C179.757 92.9189 182.858 89.818 182.858 85.9929C182.858 82.1678 179.757 79.0669 175.932 79.0669C172.107 79.0669 169.006 82.1678 169.006 85.9929C169.006 89.818 172.107 92.9189 175.932 92.9189Z" fill="#3F3D56"/>
<path d="M149.12 202.978L143.035 203.154L172.735 83.2871L178.255 84.9711L149.12 202.978Z" fill="#3F3D56"/>
<path d="M202.743 202.978L208.828 203.154L179.13 83.2778L173.61 84.9618L202.743 202.978Z" fill="#3F3D56"/>
<path d="M185.165 17.8911H166.12V28.2791H185.165V17.8911Z" fill="#CCCCCC"/>
<path d="M174.777 20.2002H167.274V28.2802H174.777V20.2002Z" fill="white"/>
<path d="M184.011 20.2002H176.508V28.2802H184.011V20.2002Z" fill="white"/>
<path d="M175.643 39.5332C172.736 39.53 169.949 38.3738 167.893 36.3182C165.837 34.2626 164.68 31.4754 164.677 28.5682V28.2792C164.677 27.5896 164.951 26.9283 165.438 26.4407C165.926 25.9531 166.587 25.6792 167.277 25.6792H184.014C184.704 25.6792 185.365 25.9531 185.852 26.4407C186.34 26.9283 186.614 27.5896 186.614 28.2792V28.5682C186.611 31.4763 185.453 34.2642 183.396 36.3199C181.34 38.3757 178.551 39.5314 175.643 39.5332V39.5332Z" fill="#CCCCCC"/>
<path d="M184.452 20.4878H166.833C166.587 20.4879 166.345 20.425 166.13 20.3053C165.916 20.1856 165.735 20.0129 165.606 19.8037C165.476 19.5945 165.402 19.3557 165.391 19.11C165.38 18.8643 165.432 18.6199 165.542 18.3998L169.005 11.4738C169.124 11.2332 169.308 11.0307 169.536 10.8893C169.764 10.7479 170.027 10.6732 170.295 10.6738H180.988C181.257 10.6731 181.52 10.7476 181.748 10.889C181.976 11.0305 182.16 11.2331 182.279 11.4738L185.742 18.3998C185.852 18.6199 185.904 18.8643 185.893 19.11C185.882 19.3557 185.808 19.5945 185.679 19.8037C185.549 20.0129 185.369 20.1856 185.154 20.3053C184.939 20.425 184.697 20.4879 184.451 20.4878H184.452Z" fill="#29913C"/>
<path d="M236.53 40.9761H217.485V51.3641H236.53V40.9761Z" fill="#CCCCCC"/>
<path d="M226.142 43.2852H218.639V51.3652H226.142V43.2852Z" fill="white"/>
<path d="M235.376 43.2852H227.873V51.3652H235.376V43.2852Z" fill="white"/>
<path d="M227.007 62.6182C224.1 62.6147 221.313 61.4584 219.257 59.4028C217.202 57.3472 216.045 54.5602 216.042 51.6532V51.3642C216.042 50.6746 216.316 50.0133 216.804 49.5257C217.291 49.0381 217.952 48.7642 218.642 48.7642H235.379C236.069 48.7642 236.73 49.0381 237.217 49.5257C237.705 50.0133 237.979 50.6746 237.979 51.3642V51.6532C237.976 54.5614 236.818 57.3495 234.761 59.4052C232.704 61.461 229.915 62.6166 227.007 62.6182V62.6182Z" fill="#CCCCCC"/>
<path d="M221.661 34.3389C221.5 34.3384 221.342 34.3831 221.206 34.4677C221.069 34.5524 220.958 34.6737 220.887 34.8179L217.424 41.7439C217.358 41.8758 217.327 42.0225 217.334 42.1699C217.34 42.3172 217.384 42.4605 217.462 42.586C217.54 42.7115 217.648 42.8151 217.777 42.887C217.906 42.9589 218.051 42.9968 218.198 42.9969H235.817C235.965 42.9968 236.11 42.9589 236.238 42.887C236.367 42.8151 236.476 42.7115 236.553 42.586C236.631 42.4605 236.675 42.3172 236.681 42.1699C236.688 42.0225 236.657 41.8758 236.591 41.7439L233.128 34.8179C233.057 34.6737 232.946 34.5524 232.81 34.4677C232.673 34.3831 232.515 34.3384 232.354 34.3389H221.661Z" fill="#29913C"/>
<path d="M256.729 92.918H237.684V103.306H256.729V92.918Z" fill="#CCCCCC"/>
<path d="M246.341 95.2271H238.838V103.307H246.341V95.2271Z" fill="white"/>
<path d="M255.576 95.2271H248.073V103.307H255.576V95.2271Z" fill="white"/>
<path d="M247.207 114.56C244.3 114.557 241.513 113.4 239.457 111.345C237.402 109.289 236.245 106.502 236.242 103.595V103.306C236.242 102.616 236.516 101.955 237.003 101.468C237.491 100.98 238.152 100.706 238.842 100.706H255.579C256.268 100.706 256.93 100.98 257.417 101.468C257.905 101.955 258.179 102.616 258.179 103.306V103.595C258.176 106.503 257.018 109.291 254.961 111.347C252.904 113.403 250.115 114.558 247.207 114.56V114.56Z" fill="#CCCCCC"/>
<path d="M256.016 95.5152H238.397C238.151 95.515 237.909 95.4521 237.695 95.3323C237.48 95.2125 237.299 95.0398 237.17 94.8306C237.041 94.6214 236.967 94.3827 236.956 94.1371C236.945 93.8915 236.997 93.6471 237.107 93.4272L240.57 86.5012C240.689 86.2604 240.873 86.0578 241.101 85.9164C241.329 85.775 241.592 85.7004 241.861 85.7012H252.554C252.822 85.7004 253.086 85.775 253.314 85.9164C253.542 86.0578 253.726 86.2604 253.845 86.5012L257.308 93.4272C257.418 93.6471 257.47 93.8915 257.459 94.1371C257.448 94.3827 257.374 94.6214 257.245 94.8306C257.116 95.0398 256.935 95.2125 256.72 95.3323C256.506 95.4521 256.264 95.515 256.018 95.5152H256.016Z" fill="#29913C"/>
<path d="M235.375 141.397H216.33V151.785H235.375V141.397Z" fill="#CCCCCC"/>
<path d="M224.988 143.706H217.485V151.786H224.988V143.706Z" fill="white"/>
<path d="M234.222 143.706H226.719V151.786H234.222V143.706Z" fill="white"/>
<path d="M225.853 163.039C222.946 163.036 220.159 161.879 218.103 159.824C216.048 157.768 214.891 154.981 214.888 152.074V151.785C214.888 151.095 215.162 150.434 215.649 149.947C216.137 149.459 216.798 149.185 217.488 149.185H234.225C234.566 149.185 234.904 149.252 235.22 149.383C235.535 149.514 235.822 149.705 236.063 149.947C236.305 150.188 236.496 150.475 236.627 150.79C236.758 151.106 236.825 151.444 236.825 151.785V152.074C236.822 154.982 235.664 157.77 233.607 159.826C231.55 161.882 228.761 163.037 225.853 163.039V163.039Z" fill="#CCCCCC"/>
<path d="M234.662 143.994H217.043C216.797 143.994 216.555 143.931 216.34 143.812C216.126 143.692 215.945 143.519 215.816 143.31C215.686 143.101 215.612 142.862 215.601 142.616C215.59 142.371 215.642 142.126 215.752 141.906L219.215 134.98C219.334 134.739 219.518 134.537 219.746 134.395C219.974 134.254 220.238 134.179 220.506 134.18H231.199C231.468 134.179 231.731 134.254 231.959 134.395C232.187 134.537 232.371 134.739 232.49 134.98L235.953 141.906C236.063 142.126 236.115 142.371 236.104 142.616C236.093 142.862 236.019 143.1 235.89 143.31C235.761 143.519 235.58 143.691 235.365 143.811C235.151 143.931 234.909 143.994 234.663 143.994H234.662Z" fill="#29913C"/>
<path d="M115.333 51.3652H134.378V40.9772H115.333V51.3652Z" fill="#CCCCCC"/>
<path d="M125.721 51.3652H133.224V43.2852H125.721V51.3652Z" fill="white"/>
<path d="M116.486 51.3652H123.989V43.2852H116.486V51.3652Z" fill="white"/>
<path d="M124.855 62.6182C121.948 62.6147 119.161 61.4584 117.105 59.4028C115.05 57.3472 113.893 54.5602 113.89 51.6532V51.3642C113.89 50.6746 114.164 50.0133 114.651 49.5257C115.139 49.0381 115.8 48.7642 116.49 48.7642H133.227C133.568 48.7642 133.906 48.8314 134.222 48.9621C134.537 49.0927 134.824 49.2843 135.065 49.5257C135.307 49.7671 135.498 50.0537 135.629 50.3692C135.76 50.6846 135.827 51.0227 135.827 51.3642V51.6532C135.823 54.5614 134.666 57.3495 132.609 59.4052C130.552 61.461 127.763 62.6166 124.855 62.6182V62.6182Z" fill="#CCCCCC"/>
<path d="M133.664 43.5728H116.045C115.799 43.5726 115.557 43.5097 115.343 43.3899C115.128 43.2701 114.947 43.0974 114.818 42.8882C114.689 42.6791 114.615 42.4404 114.604 42.1947C114.593 41.9491 114.645 41.7047 114.755 41.4848L118.218 34.5588C118.337 34.318 118.521 34.1154 118.749 33.974C118.977 33.8326 119.24 33.758 119.509 33.7588H130.202C130.47 33.758 130.734 33.8326 130.962 33.974C131.19 34.1154 131.374 34.318 131.493 34.5588L134.956 41.4848C135.066 41.7047 135.118 41.9491 135.107 42.1947C135.096 42.4404 135.022 42.6791 134.893 42.8882C134.764 43.0974 134.583 43.2701 134.368 43.3899C134.154 43.5097 133.912 43.5726 133.666 43.5728H133.664Z" fill="#29913C"/>
<path d="M95.133 103.306H114.178V92.9182H95.133V103.306Z" fill="#CCCCCC"/>
<path d="M105.521 103.306H113.024V95.2262H105.521V103.306Z" fill="white"/>
<path d="M96.287 103.306H103.79V95.2262H96.287V103.306Z" fill="white"/>
<path d="M104.656 114.56C101.749 114.557 98.9619 113.4 96.9063 111.345C94.8507 109.289 93.6944 106.502 93.6909 103.595V103.306C93.6909 102.965 93.7582 102.627 93.8888 102.311C94.0195 101.996 94.211 101.709 94.4524 101.468C94.6939 101.226 94.9805 101.035 95.2959 100.904C95.6114 100.773 95.9495 100.706 96.2909 100.706H113.028C113.717 100.706 114.379 100.98 114.866 101.468C115.354 101.955 115.628 102.616 115.628 103.306V103.595C115.624 106.503 114.467 109.291 112.41 111.347C110.353 113.403 107.564 114.558 104.656 114.56V114.56Z" fill="#CCCCCC"/>
<path d="M113.465 95.5152H95.846C95.6001 95.515 95.3584 95.4521 95.1437 95.3323C94.929 95.2125 94.7484 95.0398 94.6192 94.8306C94.49 94.6214 94.4163 94.3827 94.4053 94.1371C94.3942 93.8915 94.4461 93.6471 94.556 93.4272L98.019 86.5012C98.1377 86.2606 98.3215 86.0581 98.5496 85.9167C98.7776 85.7753 99.0407 85.7006 99.309 85.7012H110.002C110.27 85.7004 110.534 85.775 110.762 85.9164C110.99 86.0578 111.174 86.2604 111.293 86.5012L114.756 93.4272C114.866 93.6471 114.918 93.8915 114.907 94.1371C114.896 94.3827 114.822 94.6214 114.693 94.8306C114.564 95.0398 114.383 95.2125 114.168 95.3323C113.954 95.4521 113.712 95.515 113.466 95.5152H113.465Z" fill="#29913C"/>
<path d="M116.487 151.785H135.532V141.397H116.487V151.785Z" fill="#CCCCCC"/>
<path d="M126.875 151.785H134.378V143.705H126.875V151.785Z" fill="white"/>
<path d="M117.641 151.785H125.144V143.705H117.641V151.785Z" fill="white"/>
<path d="M126.009 163.039C123.102 163.036 120.315 161.879 118.259 159.824C116.204 157.768 115.047 154.981 115.044 152.074V151.785C115.044 151.444 115.111 151.106 115.242 150.79C115.373 150.475 115.564 150.188 115.805 149.947C116.047 149.705 116.334 149.514 116.649 149.383C116.964 149.252 117.303 149.185 117.644 149.185H134.381C134.722 149.185 135.06 149.252 135.376 149.383C135.691 149.514 135.978 149.705 136.219 149.947C136.461 150.188 136.652 150.475 136.783 150.79C136.914 151.106 136.981 151.444 136.981 151.785V152.074C136.978 154.982 135.82 157.77 133.763 159.826C131.706 161.882 128.917 163.037 126.009 163.039V163.039Z" fill="#CCCCCC"/>
<path d="M134.819 143.994H117.2C116.954 143.994 116.712 143.931 116.497 143.812C116.283 143.692 116.102 143.519 115.972 143.31C115.843 143.101 115.769 142.862 115.758 142.616C115.747 142.371 115.799 142.126 115.909 141.906L119.372 134.98C119.491 134.739 119.675 134.537 119.903 134.395C120.131 134.254 120.395 134.179 120.663 134.18H131.356C131.624 134.179 131.888 134.254 132.116 134.395C132.344 134.537 132.528 134.739 132.647 134.98L136.11 141.906C136.22 142.126 136.272 142.371 136.261 142.616C136.25 142.862 136.176 143.101 136.047 143.31C135.917 143.519 135.737 143.692 135.522 143.812C135.307 143.931 135.065 143.994 134.819 143.994Z" fill="#29913C"/>
<path d="M185.165 163.328H166.12V173.716H185.165V163.328Z" fill="#CCCCCC"/>
<path d="M174.777 165.636H167.274V173.716H174.777V165.636Z" fill="white"/>
<path d="M184.011 165.636H176.508V173.716H184.011V165.636Z" fill="white"/>
<path d="M167.274 171.696C166.738 171.696 166.225 171.909 165.846 172.288C165.467 172.667 165.254 173.18 165.254 173.716V174.005C165.254 176.76 166.348 179.402 168.297 181.351C170.245 183.299 172.887 184.393 175.642 184.393C178.398 184.393 181.04 183.299 182.988 181.351C184.936 179.402 186.031 176.76 186.031 174.005V173.716C186.03 173.18 185.817 172.667 185.439 172.288C185.06 171.909 184.546 171.696 184.011 171.696H167.274Z" fill="#CCCCCC"/>
<path d="M170.296 156.691C170.135 156.69 169.977 156.735 169.841 156.82C169.704 156.904 169.593 157.026 169.522 157.17L166.059 164.096C165.993 164.228 165.962 164.375 165.969 164.522C165.975 164.669 166.019 164.813 166.097 164.938C166.175 165.064 166.283 165.167 166.412 165.239C166.541 165.311 166.686 165.349 166.833 165.349H184.452C184.6 165.349 184.745 165.311 184.873 165.239C185.002 165.167 185.111 165.064 185.188 164.938C185.266 164.813 185.31 164.669 185.316 164.522C185.323 164.375 185.292 164.228 185.226 164.096L181.763 157.17C181.692 157.026 181.581 156.904 181.445 156.82C181.308 156.735 181.15 156.69 180.989 156.691H170.296Z" fill="#29913C"/>
<path d="M305.329 185.836C305.482 185.836 305.629 185.775 305.737 185.667C305.845 185.559 305.906 185.412 305.906 185.259C305.906 185.106 305.845 184.959 305.737 184.851C305.629 184.743 305.482 184.682 305.329 184.682H299.846V182.373H305.329C305.482 182.373 305.629 182.312 305.737 182.204C305.845 182.096 305.906 181.949 305.906 181.796C305.906 181.643 305.845 181.496 305.737 181.388C305.629 181.28 305.482 181.219 305.329 181.219H258.581C258.428 181.219 258.281 181.28 258.173 181.388C258.065 181.496 258.004 181.643 258.004 181.796C258.004 181.949 258.065 182.096 258.173 182.204C258.281 182.312 258.428 182.373 258.581 182.373H264.064V184.68H258.581C258.428 184.68 258.281 184.741 258.173 184.849C258.065 184.957 258.004 185.104 258.004 185.257C258.004 185.41 258.065 185.557 258.173 185.665C258.281 185.773 258.428 185.834 258.581 185.834H264.064V188.142H258.581C258.428 188.142 258.281 188.203 258.173 188.311C258.065 188.419 258.004 188.566 258.004 188.719C258.004 188.872 258.065 189.019 258.173 189.127C258.281 189.235 258.428 189.296 258.581 189.296H264.064V191.605H259.158C258.852 191.605 258.558 191.726 258.342 191.943C258.126 192.159 258.004 192.453 258.004 192.759C258.004 193.065 258.126 193.358 258.342 193.575C258.558 193.791 258.852 193.913 259.158 193.913H263.828C263.794 194.005 263.776 194.103 263.775 194.202V202.282C263.771 202.398 263.79 202.514 263.832 202.622C263.874 202.731 263.937 202.829 264.018 202.913C264.098 202.997 264.195 203.063 264.302 203.108C264.409 203.154 264.524 203.177 264.64 203.177C264.757 203.177 264.872 203.154 264.979 203.108C265.086 203.063 265.182 202.997 265.263 202.913C265.344 202.829 265.407 202.731 265.449 202.622C265.49 202.514 265.51 202.398 265.506 202.282V194.202C265.505 194.103 265.487 194.005 265.453 193.913H298.453C298.419 194.005 298.401 194.103 298.4 194.202V202.282C298.396 202.398 298.415 202.514 298.457 202.622C298.499 202.731 298.562 202.829 298.643 202.913C298.723 202.997 298.82 203.063 298.927 203.108C299.034 203.154 299.149 203.177 299.265 203.177C299.382 203.177 299.497 203.154 299.604 203.108C299.711 203.063 299.807 202.997 299.888 202.913C299.969 202.829 300.032 202.731 300.074 202.622C300.115 202.514 300.135 202.398 300.131 202.282V194.202C300.13 194.103 300.112 194.005 300.078 193.913H304.748C305.054 193.913 305.347 193.791 305.564 193.575C305.78 193.358 305.902 193.065 305.902 192.759C305.902 192.453 305.78 192.159 305.564 191.943C305.347 191.726 305.054 191.605 304.748 191.605H299.842V189.296H305.325C305.478 189.296 305.625 189.235 305.733 189.127C305.841 189.019 305.902 188.872 305.902 188.719C305.902 188.566 305.841 188.419 305.733 188.311C305.625 188.203 305.478 188.142 305.325 188.142H299.842V185.834L305.329 185.836ZM265.218 182.373H298.692V184.68H265.218V182.373ZM298.692 191.607H265.218V189.298H298.692V191.607ZM298.692 188.144H265.218V185.836H298.692V188.144Z" fill="#3F3D56"/>
<path d="M109.105 185.836C109.258 185.836 109.405 185.775 109.513 185.667C109.621 185.559 109.682 185.412 109.682 185.259C109.682 185.106 109.621 184.959 109.513 184.851C109.405 184.743 109.258 184.682 109.105 184.682H103.622V182.373H109.105C109.258 182.373 109.405 182.312 109.513 182.204C109.621 182.096 109.682 181.949 109.682 181.796C109.682 181.643 109.621 181.496 109.513 181.388C109.405 181.28 109.258 181.219 109.105 181.219H62.357C62.204 181.219 62.0572 181.28 61.949 181.388C61.8408 181.496 61.78 181.643 61.78 181.796C61.78 181.949 61.8408 182.096 61.949 182.204C62.0572 182.312 62.204 182.373 62.357 182.373H67.84V184.68H62.357C62.204 184.68 62.0572 184.741 61.949 184.849C61.8408 184.957 61.78 185.104 61.78 185.257C61.78 185.41 61.8408 185.557 61.949 185.665C62.0572 185.773 62.204 185.834 62.357 185.834H67.84V188.142H62.357C62.204 188.142 62.0572 188.203 61.949 188.311C61.8408 188.419 61.78 188.566 61.78 188.719C61.78 188.872 61.8408 189.019 61.949 189.127C62.0572 189.235 62.204 189.296 62.357 189.296H67.84V191.605H62.934C62.628 191.605 62.3344 191.726 62.118 191.943C61.9016 192.159 61.78 192.453 61.78 192.759C61.78 193.065 61.9016 193.358 62.118 193.575C62.3344 193.791 62.628 193.913 62.934 193.913H67.604C67.5699 194.005 67.552 194.103 67.551 194.202V202.282C67.5471 202.398 67.5665 202.514 67.6082 202.622C67.65 202.731 67.7131 202.829 67.7939 202.913C67.8746 202.997 67.9714 203.063 68.0783 203.108C68.1853 203.154 68.3003 203.177 68.4165 203.177C68.5327 203.177 68.6477 203.154 68.7547 203.108C68.8617 203.063 68.9584 202.997 69.0392 202.913C69.1199 202.829 69.1831 202.731 69.2248 202.622C69.2665 202.514 69.286 202.398 69.282 202.282V194.202C69.2811 194.103 69.2631 194.005 69.229 193.913H102.229C102.195 194.005 102.177 194.103 102.176 194.202V202.282C102.172 202.398 102.192 202.514 102.233 202.622C102.275 202.731 102.338 202.829 102.419 202.913C102.5 202.997 102.596 203.063 102.703 203.108C102.81 203.154 102.925 203.177 103.042 203.177C103.158 203.177 103.273 203.154 103.38 203.108C103.487 203.063 103.583 202.997 103.664 202.913C103.745 202.829 103.808 202.731 103.85 202.622C103.892 202.514 103.911 202.398 103.907 202.282V194.202C103.906 194.103 103.888 194.005 103.854 193.913H108.524C108.83 193.913 109.124 193.791 109.34 193.575C109.556 193.358 109.678 193.065 109.678 192.759C109.678 192.453 109.556 192.159 109.34 191.943C109.124 191.726 108.83 191.605 108.524 191.605H103.618V189.296H109.101C109.254 189.296 109.401 189.235 109.509 189.127C109.617 189.019 109.678 188.872 109.678 188.719C109.678 188.566 109.617 188.419 109.509 188.311C109.401 188.203 109.254 188.142 109.101 188.142H103.618V185.834L109.105 185.836ZM68.994 182.373H102.468V184.68H68.994V182.373ZM102.468 191.607H68.994V189.298H102.468V191.607ZM102.468 188.144H68.994V185.836H102.468V188.144Z" fill="#3F3D56"/>
<path d="M290.9 182.66H289.169C288.939 182.66 288.719 182.568 288.557 182.406C288.395 182.244 288.303 182.023 288.303 181.794V180.06C288.303 179.83 288.395 179.61 288.557 179.448C288.719 179.285 288.939 179.194 289.169 179.194H290.9C291.13 179.194 291.35 179.285 291.512 179.448C291.674 179.61 291.766 179.83 291.766 180.06V181.791C291.766 182.02 291.674 182.241 291.512 182.403C291.35 182.565 291.13 182.657 290.9 182.657V182.66Z" fill="#CCCCCC"/>
<path d="M290.067 180.754C290.034 180.754 290 180.751 289.967 180.746C289.816 180.72 289.682 180.635 289.594 180.51C289.505 180.385 289.47 180.231 289.496 180.08L295.204 146.868C295.231 146.717 295.316 146.583 295.441 146.495C295.567 146.407 295.722 146.372 295.873 146.399C296.024 146.425 296.158 146.511 296.246 146.636C296.334 146.762 296.369 146.917 296.342 147.068L290.634 180.28C290.61 180.413 290.54 180.533 290.436 180.62C290.333 180.706 290.202 180.754 290.067 180.754Z" fill="#CCCCCC"/>
<path d="M290.066 180.754C289.93 180.754 289.798 180.706 289.695 180.618C289.591 180.53 289.521 180.409 289.498 180.275L283.793 147.063C283.78 146.988 283.781 146.912 283.798 146.838C283.814 146.764 283.845 146.693 283.889 146.631C283.932 146.569 283.988 146.516 284.052 146.476C284.116 146.435 284.187 146.407 284.262 146.394C284.337 146.381 284.413 146.383 284.487 146.399C284.561 146.415 284.631 146.446 284.694 146.49C284.756 146.533 284.809 146.589 284.849 146.653C284.89 146.717 284.918 146.788 284.931 146.863L290.639 180.075C290.652 180.15 290.65 180.226 290.633 180.3C290.617 180.374 290.585 180.444 290.542 180.506C290.498 180.568 290.442 180.621 290.378 180.661C290.314 180.702 290.243 180.729 290.168 180.742C290.134 180.749 290.1 180.753 290.066 180.754Z" fill="#CCCCCC"/>
<path d="M302.354 141.182C302.91 137.241 300.805 133.682 297.654 133.24C294.503 132.798 291.494 135.629 290.937 139.571C290.468 142.895 291.895 145.937 294.244 147.078L294.11 148.026L296.965 148.426L297.099 147.478C299.671 147.034 301.885 144.506 302.354 141.182Z" fill="#FF6584"/>
<path d="M289.099 139.389C288.416 135.468 285.319 132.732 282.182 133.278C279.045 133.824 277.056 137.446 277.739 141.368C278.315 144.675 280.609 147.131 283.195 147.494L283.359 148.437L286.199 147.942L286.035 146.999C288.347 145.783 289.676 142.696 289.099 139.389Z" fill="#CCCCCC"/>
<path d="M290.035 180.064C289.882 180.064 289.735 180.003 289.627 179.895C289.519 179.787 289.458 179.64 289.458 179.487V145.346C289.458 145.193 289.519 145.046 289.627 144.938C289.735 144.83 289.882 144.769 290.035 144.769C290.188 144.769 290.335 144.83 290.443 144.938C290.551 145.046 290.612 145.193 290.612 145.346V179.487C290.612 179.64 290.551 179.787 290.443 179.895C290.335 180.003 290.188 180.064 290.035 180.064V180.064Z" fill="#CCCCCC"/>
<path d="M295.443 138.787C295.443 134.807 292.862 131.58 289.677 131.58C286.492 131.58 283.911 134.807 283.911 138.787C283.911 142.144 285.75 144.957 288.235 145.758V146.715H291.118V145.758C293.604 144.957 295.443 142.144 295.443 138.787Z" fill="#29913C"/>
<path d="M410.042 204.037H0.686996C0.504793 204.037 0.330055 203.965 0.201218 203.836C0.0723802 203.707 0 203.532 0 203.35C0 203.168 0.0723802 202.993 0.201218 202.864C0.330055 202.735 0.504793 202.663 0.686996 202.663H410.042C410.224 202.663 410.399 202.735 410.528 202.864C410.657 202.993 410.729 203.168 410.729 203.35C410.729 203.532 410.657 203.707 410.528 203.836C410.399 203.965 410.224 204.037 410.042 204.037Z" fill="#CCCCCC"/>
<path d="M319.427 202.811H318.114L317.49 197.748H319.427V202.811Z" fill="#A0616A"/>
<path d="M316.989 202.433H319.708V204.027H315.582V203.84C315.582 203.467 315.73 203.109 315.994 202.845C316.258 202.581 316.616 202.433 316.989 202.433V202.433Z" fill="#2F2E41"/>
<path d="M328.952 201.321L327.758 201.866L325.086 197.52L326.848 196.715L328.952 201.321Z" fill="#A0616A"/>
<path d="M326.578 201.995L329.051 200.865L329.713 202.315L325.96 204.029L325.883 203.859C325.728 203.519 325.714 203.132 325.844 202.783C325.975 202.433 326.238 202.15 326.578 201.995V201.995Z" fill="#2F2E41"/>
<path d="M319.344 201.472H318.09C317.968 201.471 317.851 201.425 317.762 201.342C317.673 201.259 317.618 201.146 317.609 201.025L316.925 182.763C316.92 182.693 316.93 182.623 316.955 182.557C316.98 182.492 317.019 182.432 317.069 182.384C317.119 182.335 317.18 182.297 317.246 182.274C317.312 182.251 317.382 182.242 317.452 182.249L324.705 183.019C324.823 183.03 324.932 183.084 325.012 183.171C325.092 183.258 325.138 183.371 325.14 183.489L325.292 191.545C325.293 191.589 325.301 191.632 325.317 191.673L328.292 199.388C328.315 199.447 328.326 199.511 328.324 199.575C328.322 199.639 328.308 199.701 328.281 199.759C328.255 199.818 328.217 199.87 328.171 199.913C328.124 199.957 328.069 199.991 328.009 200.013L326.738 200.481C326.627 200.523 326.504 200.522 326.394 200.48C326.283 200.437 326.192 200.355 326.138 200.249L322.483 193.143C322.463 193.104 322.449 193.063 322.44 193.021L321.816 190.013C321.798 189.926 321.749 189.849 321.679 189.794C321.608 189.74 321.521 189.713 321.433 189.716C321.344 189.72 321.26 189.756 321.194 189.816C321.129 189.876 321.088 189.958 321.077 190.046L319.818 201.046C319.805 201.163 319.748 201.272 319.66 201.351C319.572 201.429 319.457 201.473 319.339 201.473L319.344 201.472Z" fill="#2F2E41"/>
<path d="M319.968 168.484C321.42 168.484 322.598 167.307 322.598 165.854C322.598 164.402 321.42 163.224 319.968 163.224C318.515 163.224 317.338 164.402 317.338 165.854C317.338 167.307 318.515 168.484 319.968 168.484Z" fill="#A0616A"/>
<path d="M321.781 184.43C320.085 184.409 318.425 183.934 316.974 183.056C316.899 183.01 316.838 182.944 316.798 182.866C316.758 182.788 316.74 182.7 316.747 182.613L317.386 173.472C317.427 172.855 317.612 172.256 317.925 171.723C318.239 171.191 318.673 170.739 319.193 170.404C319.689 170.076 320.254 169.868 320.845 169.798C321.435 169.727 322.034 169.796 322.593 169.998C322.84 170.083 323.074 170.204 323.286 170.357C323.967 170.842 324.502 171.506 324.832 172.274C325.162 173.043 325.275 173.887 325.159 174.716C324.894 177.676 324.935 180.655 325.283 183.606V183.645L325.248 183.661C324.162 184.166 322.979 184.428 321.781 184.43V184.43Z" fill="#29913C"/>
<path d="M325.129 185.735C325.255 185.64 325.358 185.519 325.432 185.38C325.506 185.241 325.549 185.088 325.557 184.93C325.565 184.773 325.539 184.616 325.48 184.47C325.42 184.324 325.33 184.193 325.215 184.086L326.758 180.586L324.798 180.918L323.633 184.192C323.464 184.398 323.376 184.659 323.387 184.925C323.398 185.191 323.507 185.444 323.692 185.635C323.878 185.826 324.127 185.942 324.393 185.961C324.659 185.979 324.922 185.899 325.133 185.736L325.129 185.735Z" fill="#A0616A"/>
<path d="M325.277 183.572C325.21 183.572 325.144 183.558 325.083 183.531C325.022 183.504 324.967 183.465 324.922 183.416L324.347 182.788C324.291 182.726 324.252 182.652 324.233 182.571C324.214 182.49 324.217 182.406 324.24 182.326L325.558 177.867L323.558 173.657C323.467 173.448 323.46 173.213 323.537 172.999C323.614 172.785 323.77 172.609 323.973 172.506C324.176 172.404 324.411 172.383 324.629 172.448C324.847 172.514 325.032 172.66 325.145 172.857L327.855 177.257C327.961 177.428 328.022 177.622 328.035 177.822C328.048 178.022 328.012 178.223 327.929 178.406L325.722 183.296C325.684 183.38 325.622 183.452 325.544 183.503C325.466 183.553 325.375 183.58 325.282 183.58L325.277 183.572Z" fill="#29913C"/>
<path d="M322.135 168.173C321.862 168.22 321.635 167.84 321.604 167.573C321.606 167.309 321.631 167.045 321.678 166.785C321.693 166.647 321.664 166.508 321.593 166.388C321.523 166.268 321.416 166.173 321.288 166.119C320.999 166.037 320.731 166.268 320.436 166.24C320.024 166.201 319.817 165.719 319.767 165.329C319.717 164.939 319.678 164.477 319.321 164.255C318.964 164.033 318.521 164.195 318.121 164.201C317.772 164.197 317.433 164.082 317.153 163.873C316.874 163.663 316.668 163.37 316.566 163.036C316.65 163.06 316.739 163.056 316.82 163.023C316.901 162.991 316.969 162.933 317.013 162.857C317.047 162.777 317.054 162.687 317.032 162.603C317.011 162.518 316.962 162.443 316.894 162.388L317.677 162.771C317.657 162.717 317.649 162.66 317.652 162.602C317.655 162.545 317.67 162.488 317.696 162.437C317.722 162.386 317.759 162.34 317.803 162.303C317.847 162.267 317.899 162.239 317.954 162.223C318.192 162.16 318.442 162.158 318.681 162.216C319.907 162.407 321.327 162.316 322.14 163.247C322.754 164.006 323.093 164.949 323.104 165.924C322.909 166.722 322.583 167.482 322.14 168.173H322.135Z" fill="#2F2E41"/>
<path d="M308.19 172.658C308.327 172.58 308.479 172.533 308.636 172.52C308.793 172.507 308.951 172.529 309.098 172.584C309.246 172.639 309.379 172.725 309.49 172.837C309.601 172.95 309.685 173.085 309.738 173.233L313.564 173.205L312.481 174.873L309.014 174.644C308.759 174.715 308.487 174.69 308.249 174.575C308.011 174.459 307.824 174.26 307.722 174.016C307.621 173.771 307.613 173.498 307.699 173.248C307.785 172.998 307.96 172.788 308.19 172.658V172.658Z" fill="#A0616A"/>
<path d="M310.181 174.473C310.167 174.407 310.168 174.34 310.182 174.275C310.195 174.21 310.223 174.148 310.262 174.094L310.762 173.403C310.811 173.335 310.876 173.281 310.951 173.246C311.027 173.211 311.11 173.196 311.193 173.203L315.669 173.016L319.54 170.763C319.725 170.626 319.956 170.567 320.184 170.596C320.412 170.626 320.62 170.743 320.764 170.923C320.907 171.103 320.976 171.331 320.955 171.56C320.934 171.789 320.825 172.001 320.651 172.152L316.899 175.702C316.753 175.84 316.576 175.94 316.382 175.994C316.189 176.047 315.985 176.052 315.789 176.009L310.552 174.846C310.474 174.828 310.401 174.792 310.341 174.74C310.28 174.687 310.234 174.621 310.206 174.546C310.196 174.522 310.187 174.498 310.181 174.473V174.473Z" fill="#29913C"/>
<path d="M244.387 200.651C244.441 200.498 244.461 200.336 244.445 200.175C244.43 200.013 244.379 199.857 244.297 199.718C244.215 199.578 244.103 199.459 243.969 199.367C243.836 199.275 243.684 199.214 243.524 199.187L242.859 195.304L241.365 196.704L242.225 200.177C242.199 200.448 242.274 200.719 242.434 200.94C242.594 201.16 242.83 201.313 243.096 201.372C243.362 201.43 243.64 201.389 243.878 201.257C244.116 201.124 244.297 200.909 244.387 200.652V200.651Z" fill="#FFB8B8"/>
<path d="M243.395 198.794L241.928 199.179C241.858 199.197 241.784 199.187 241.721 199.151C241.659 199.115 241.613 199.056 241.593 198.987L238.957 189.646L238.157 187.263C238.08 187.033 238.063 186.788 238.106 186.55C238.15 186.312 238.253 186.088 238.406 185.901C238.559 185.713 238.757 185.567 238.981 185.477C239.206 185.386 239.45 185.354 239.69 185.383C239.967 185.417 240.229 185.532 240.442 185.713C240.655 185.893 240.811 186.133 240.89 186.401L242.997 193.522L243.592 198.495C243.598 198.55 243.588 198.606 243.562 198.655C243.536 198.704 243.496 198.745 243.447 198.771C243.43 198.78 243.413 198.788 243.395 198.794Z" fill="#29913C"/>
<path d="M238.033 183.808C239.529 183.808 240.741 182.596 240.741 181.1C240.741 179.605 239.529 178.392 238.033 178.392C236.537 178.392 235.325 179.605 235.325 181.1C235.325 182.596 236.537 183.808 238.033 183.808Z" fill="#FFB8B8"/>
<path d="M230.061 218.144L228.761 217.758L229.631 212.578L231.543 213.147L230.061 218.144Z" fill="#FFB8B8"/>
<path d="M230.017 219.496L225.84 218.253L225.856 218.2C225.985 217.769 226.28 217.407 226.675 217.193C227.071 216.979 227.535 216.931 227.966 217.058L230.517 217.817L230.017 219.496Z" fill="#2F2E41"/>
<path d="M244.254 218.075H242.902L242.259 212.862H243.595L244.254 218.075Z" fill="#FFB8B8"/>
<path d="M244.597 219.385H240.239V219.33C240.239 218.879 240.418 218.447 240.737 218.128C241.056 217.809 241.488 217.63 241.939 217.63H244.597V219.385Z" fill="#2F2E41"/>
<path d="M230.558 216.609H229.201C229.128 216.608 229.057 216.592 228.991 216.561C228.926 216.53 228.868 216.485 228.821 216.429C228.775 216.373 228.741 216.308 228.722 216.238C228.704 216.168 228.7 216.094 228.713 216.023C227.848 215.638 232.507 193.292 233.613 193.723L233.649 193.671L239.193 194.123C241.676 199.093 243.248 207.316 244.719 215.901C244.736 215.972 244.738 216.046 244.723 216.118C244.708 216.19 244.678 216.257 244.635 216.316C244.591 216.375 244.535 216.424 244.471 216.459C244.406 216.493 244.335 216.514 244.262 216.518L242.737 216.592C242.634 216.597 242.531 216.57 242.444 216.514C242.357 216.459 242.29 216.377 242.252 216.281L236.41 201.681C236.398 201.65 236.376 201.623 236.348 201.605C236.319 201.587 236.286 201.579 236.253 201.581C236.219 201.581 236.186 201.592 236.159 201.612C236.132 201.632 236.111 201.66 236.101 201.692L231.031 216.28C230.996 216.377 230.931 216.46 230.847 216.519C230.762 216.578 230.661 216.61 230.558 216.609V216.609Z" fill="#2F2E41"/>
<path d="M239.305 194.563H239.263L233.363 194.118L234.398 187.533C234.512 186.798 234.86 186.12 235.391 185.599C235.922 185.078 236.607 184.743 237.344 184.643V184.643L237.481 184.624C238.061 184.547 238.65 184.621 239.193 184.838C239.736 185.055 240.214 185.408 240.581 185.863C240.956 186.32 241.208 186.867 241.311 187.449C241.414 188.032 241.366 188.631 241.171 189.189L239.305 194.563Z" fill="#29913C"/>
<path d="M243.293 184.197C241.431 185.049 238.905 184.897 236.017 184.197C236.488 183.297 236.615 182.256 236.375 181.269C236.232 180.976 236.152 180.657 236.138 180.331C236.125 180.006 236.179 179.681 236.297 179.377C236.574 178.715 237.041 178.149 237.638 177.752C238.236 177.354 238.937 177.142 239.655 177.142V177.142C240.62 177.142 241.545 177.525 242.228 178.208C242.91 178.89 243.293 179.815 243.293 180.78V184.197Z" fill="#2F2E41"/>
<path d="M237.319 177.389H239.319V180.236H234.468C234.468 179.481 234.768 178.757 235.302 178.223C235.836 177.689 236.56 177.389 237.315 177.389H237.319Z" fill="#2F2E41"/>
<path d="M233.233 201.264C233.353 201.154 233.447 201.02 233.509 200.87C233.571 200.72 233.6 200.558 233.592 200.396C233.585 200.234 233.542 200.075 233.467 199.932C233.392 199.788 233.286 199.662 233.157 199.564L234.389 195.822L232.413 196.358L231.546 199.829C231.396 200.056 231.335 200.33 231.374 200.6C231.412 200.869 231.548 201.116 231.755 201.292C231.963 201.468 232.228 201.562 232.5 201.557C232.772 201.551 233.033 201.446 233.233 201.262V201.264Z" fill="#FFB8B8"/>
<path d="M233.227 199.157L231.751 198.81C231.681 198.793 231.62 198.749 231.582 198.689C231.543 198.628 231.53 198.554 231.545 198.484L233.593 188.997L234.006 186.519C234.046 186.28 234.145 186.055 234.295 185.865C234.445 185.675 234.641 185.527 234.864 185.433C235.087 185.338 235.33 185.302 235.571 185.328C235.812 185.353 236.042 185.439 236.241 185.577V185.577C236.471 185.737 236.649 185.96 236.754 186.22C236.858 186.48 236.884 186.765 236.828 187.04L235.352 194.318L233.552 198.99C233.532 199.042 233.496 199.086 233.45 199.118C233.404 199.149 233.35 199.166 233.294 199.166C233.271 199.166 233.249 199.163 233.227 199.157V199.157Z" fill="#29913C"/>
<path d="M278.858 178.537C278.801 178.551 278.745 178.571 278.691 178.594L274.255 175.732L274.316 174.451L272.395 174.106L272.066 176.363C272.039 176.546 272.072 176.732 272.16 176.895C272.248 177.057 272.387 177.186 272.555 177.263L278.019 179.757C278.046 179.982 278.141 180.194 278.292 180.363C278.442 180.533 278.64 180.653 278.861 180.707C279.081 180.762 279.313 180.748 279.525 180.667C279.737 180.586 279.919 180.443 280.048 180.256C280.176 180.07 280.245 179.848 280.245 179.621C280.245 179.395 280.175 179.173 280.046 178.987C279.917 178.8 279.734 178.658 279.522 178.578C279.309 178.498 279.078 178.484 278.858 178.539V178.537Z" fill="#FFB8B8"/>
<path d="M274.073 175.654L271.694 175.215C271.626 175.203 271.562 175.176 271.506 175.136C271.45 175.096 271.402 175.045 271.368 174.986C271.333 174.926 271.311 174.86 271.305 174.792C271.298 174.723 271.306 174.654 271.328 174.589L272.109 172.307C272.174 171.96 272.374 171.654 272.666 171.454C272.957 171.255 273.315 171.18 273.662 171.245C274.009 171.31 274.315 171.51 274.515 171.802C274.714 172.093 274.789 172.451 274.724 172.798L274.639 175.198C274.637 175.267 274.619 175.334 274.588 175.396C274.558 175.457 274.514 175.512 274.46 175.555C274.406 175.598 274.344 175.629 274.277 175.646C274.21 175.662 274.141 175.665 274.073 175.652V175.654Z" fill="#3F3D56"/>
<path d="M282.346 169.464C282.333 169.522 282.325 169.58 282.321 169.639L277.748 172.277L276.637 171.637L275.452 173.188L277.31 174.512C277.46 174.619 277.641 174.675 277.825 174.67C278.009 174.666 278.187 174.601 278.332 174.487L283.047 170.767C283.26 170.846 283.491 170.858 283.711 170.802C283.931 170.746 284.129 170.624 284.278 170.453C284.427 170.281 284.52 170.069 284.545 169.843C284.57 169.618 284.526 169.39 284.418 169.19C284.311 168.99 284.145 168.828 283.943 168.725C283.741 168.622 283.512 168.582 283.287 168.612C283.062 168.642 282.852 168.74 282.684 168.893C282.516 169.046 282.398 169.246 282.347 169.467L282.346 169.464Z" fill="#FFB8B8"/>
<path d="M277.595 172.402L276.117 174.317C276.075 174.371 276.022 174.416 275.961 174.448C275.9 174.48 275.833 174.499 275.764 174.503C275.695 174.506 275.627 174.495 275.563 174.47C275.499 174.445 275.441 174.406 275.393 174.357L273.72 172.62C273.577 172.515 273.456 172.382 273.365 172.229C273.273 172.077 273.214 171.907 273.189 171.731C273.164 171.555 273.175 171.376 273.221 171.204C273.267 171.033 273.347 170.872 273.456 170.731C273.565 170.591 273.701 170.474 273.856 170.387C274.011 170.3 274.182 170.245 274.359 170.226C274.535 170.206 274.714 170.222 274.885 170.272C275.055 170.323 275.214 170.407 275.351 170.52L277.451 171.693C277.511 171.727 277.563 171.773 277.604 171.828C277.644 171.884 277.673 171.948 277.686 172.015C277.7 172.083 277.699 172.152 277.684 172.219C277.668 172.286 277.638 172.349 277.596 172.404L277.595 172.402Z" fill="#CCCCCC"/>
<path d="M271.543 167.828C272.987 167.828 274.157 166.658 274.157 165.214C274.157 163.77 272.987 162.6 271.543 162.6C270.099 162.6 268.929 163.77 268.929 165.214C268.929 166.658 270.099 167.828 271.543 167.828Z" fill="#FFB8B8"/>
<path d="M274.012 202.648H275.312L275.932 197.614H274.006L274.012 202.648Z" fill="#FFB8B8"/>
<path d="M273.679 202.222H276.249C276.464 202.222 276.677 202.265 276.876 202.347C277.075 202.429 277.255 202.55 277.407 202.702C277.559 202.854 277.68 203.035 277.762 203.233C277.845 203.432 277.887 203.645 277.887 203.86V203.913H273.679V202.222Z" fill="#2F2E41"/>
<path d="M269.54 202.648H270.84L271.461 197.614H269.535L269.54 202.648Z" fill="#FFB8B8"/>
<path d="M269.207 202.222H271.777C271.992 202.222 272.205 202.265 272.404 202.347C272.603 202.429 272.783 202.55 272.935 202.702C273.087 202.854 273.208 203.035 273.29 203.233C273.373 203.432 273.415 203.645 273.415 203.86V203.913H269.207V202.222Z" fill="#2F2E41"/>
<path d="M273.619 200.737L272.288 190.437C272.288 190.43 272.286 190.423 272.283 190.417C272.281 190.411 272.276 190.405 272.271 190.401C272.266 190.396 272.261 190.392 272.254 190.39C272.248 190.388 272.241 190.387 272.234 190.387C272.227 190.387 272.221 190.388 272.214 190.39C272.208 190.393 272.202 190.396 272.197 190.401C272.192 190.406 272.188 190.412 272.186 190.418C272.183 190.424 272.182 190.431 272.182 190.438L271.8 200.588C271.796 200.712 271.743 200.829 271.654 200.915C271.564 201.001 271.445 201.049 271.321 201.049H269.74C269.615 201.05 269.494 201.001 269.404 200.913C269.315 200.826 269.263 200.706 269.261 200.581L268.851 183.671L275.925 183.742L276.102 200.707C276.101 200.774 276.085 200.841 276.056 200.902C276.027 200.963 275.985 201.017 275.934 201.061C275.884 201.104 275.825 201.136 275.762 201.155C275.698 201.175 275.632 201.18 275.566 201.172H274.033C273.924 201.157 273.824 201.105 273.749 201.026C273.674 200.946 273.628 200.842 273.62 200.733L273.619 200.737Z" fill="#2F2E41"/>
<path d="M268.746 184.135C268.667 184.105 268.598 184.054 268.545 183.988C268.493 183.922 268.458 183.843 268.446 183.759L268.375 174.465C268.062 172.396 267.693 170.365 269.502 169.32L269.661 168.842C269.678 168.79 269.711 168.745 269.755 168.713C269.799 168.68 269.851 168.662 269.906 168.66L273.338 168.56C273.391 168.558 273.444 168.573 273.489 168.602C273.534 168.63 273.569 168.672 273.59 168.721L273.845 169.321L273.936 169.373C274.798 169.865 275.496 170.6 275.943 171.486C276.39 172.372 276.566 173.371 276.448 174.356L276.248 176.013L276.109 183.756C276.107 183.841 276.083 183.924 276.039 183.997C275.995 184.07 275.933 184.129 275.858 184.17C274.887 184.675 273.805 184.927 272.711 184.903C271.355 184.879 270.013 184.62 268.745 184.139L268.746 184.135Z" fill="#CCCCCC"/>
<path d="M271.458 167.925C271.065 167.933 270.675 167.857 270.313 167.703C269.951 167.55 269.626 167.321 269.359 167.033C269.091 166.745 268.888 166.404 268.762 166.032C268.636 165.659 268.59 165.265 268.627 164.873C268.664 164.482 268.783 164.103 268.977 163.761C269.171 163.419 269.435 163.122 269.752 162.889C270.068 162.656 270.431 162.493 270.815 162.41C271.199 162.327 271.596 162.327 271.981 162.408C272.547 162.035 273.217 161.852 273.894 161.884C274.231 161.905 274.556 162.017 274.834 162.207C275.113 162.398 275.335 162.66 275.477 162.966C275.603 163.278 275.607 163.626 275.488 163.941C275.369 164.257 275.136 164.515 274.835 164.666C274.419 164.786 273.977 164.792 273.558 164.684C273.137 164.576 272.691 164.615 272.296 164.796C271.925 165.016 271.758 165.606 272.091 165.881C272.267 166.032 272.393 166.234 272.451 166.459C272.51 166.683 272.498 166.921 272.419 167.139C272.341 167.342 272.211 167.522 272.042 167.66C271.874 167.798 271.672 167.889 271.457 167.925H271.458Z" fill="#2F2E41"/>
<path d="M119.85 218.026H121.122L121.722 213.12H119.845L119.85 218.026Z" fill="#FFB8B8"/>
<path d="M119.289 219.495V217.374H122.03C122.516 217.375 122.982 217.568 123.326 217.911C123.669 218.255 123.863 218.721 123.863 219.207V219.496L119.289 219.495Z" fill="#2F2E41"/>
<path d="M112.995 218.026H114.266L114.866 213.12H112.989L112.995 218.026Z" fill="#FFB8B8"/>
<path d="M112.433 219.495V217.374H115.174C115.66 217.375 116.126 217.568 116.47 217.911C116.813 218.255 117.007 218.721 117.007 219.207V219.496L112.433 219.495Z" fill="#2F2E41"/>
<path d="M116.719 183.151C118.228 183.151 119.451 181.928 119.451 180.419C119.451 178.91 118.228 177.687 116.719 177.687C115.21 177.687 113.987 178.91 113.987 180.419C113.987 181.928 115.21 183.151 116.719 183.151Z" fill="#FFB8B8"/>
<path d="M126.063 198.239C126.044 198.088 125.992 197.943 125.911 197.814C125.829 197.685 125.721 197.575 125.592 197.492C125.464 197.41 125.32 197.357 125.168 197.336C125.017 197.316 124.864 197.329 124.718 197.374L123.191 195.543L121.852 196.2L124.045 198.755C124.138 198.994 124.315 199.19 124.543 199.308C124.771 199.425 125.034 199.455 125.282 199.391C125.531 199.328 125.747 199.176 125.891 198.964C126.035 198.752 126.096 198.494 126.063 198.24V198.239Z" fill="#FFB8B8"/>
<path d="M112.92 200.091C112.985 199.953 113.019 199.802 113.02 199.65C113.02 199.497 112.987 199.347 112.924 199.208C112.86 199.07 112.766 198.947 112.649 198.849C112.533 198.75 112.396 198.679 112.249 198.639L111.942 196.275L110.46 196.111L110.94 199.443C110.889 199.695 110.933 199.956 111.062 200.178C111.192 200.4 111.398 200.566 111.642 200.646C111.886 200.726 112.151 200.714 112.387 200.611C112.622 200.509 112.812 200.324 112.92 200.091Z" fill="#FFB8B8"/>
<path d="M114.436 185.581C114.291 185.395 114.099 185.25 113.88 185.161C113.66 185.072 113.422 185.043 113.188 185.076C112.954 185.109 112.732 185.203 112.546 185.349C112.36 185.495 112.216 185.688 112.128 185.907L109.888 191.496C109.66 192.067 109.587 192.688 109.677 193.296L110.406 198.209C110.415 198.273 110.438 198.333 110.473 198.387C110.508 198.441 110.555 198.486 110.609 198.52C110.663 198.554 110.724 198.577 110.788 198.585C110.851 198.593 110.916 198.588 110.977 198.569L111.938 198.269C112.037 198.239 112.123 198.174 112.18 198.087C112.237 198 112.261 197.896 112.249 197.792V197.792C111.91 194.9 112.36 191.969 113.549 189.311L114.605 186.949C114.703 186.727 114.739 186.483 114.709 186.242C114.68 186.001 114.585 185.773 114.436 185.581V185.581Z" fill="#CCCCCC"/>
<path d="M116.053 183.152C115.642 183.16 115.234 183.082 114.856 182.921C114.478 182.761 114.138 182.522 113.858 182.221C113.578 181.92 113.366 181.563 113.234 181.174C113.102 180.785 113.054 180.372 113.092 179.963C113.131 179.554 113.256 179.158 113.459 178.8C113.661 178.443 113.937 178.132 114.268 177.889C114.599 177.645 114.978 177.475 115.38 177.388C115.782 177.302 116.197 177.301 116.599 177.386C117.191 176.997 117.891 176.805 118.599 176.838C118.951 176.86 119.29 176.977 119.581 177.176C119.872 177.375 120.104 177.649 120.253 177.968C120.385 178.295 120.39 178.659 120.266 178.988C120.142 179.318 119.898 179.588 119.583 179.746C119.148 179.872 118.687 179.878 118.249 179.765C117.809 179.652 117.343 179.694 116.93 179.882C116.542 180.112 116.368 180.728 116.715 181.015C116.898 181.174 117.029 181.385 117.091 181.62C117.152 181.854 117.14 182.102 117.058 182.33C116.977 182.543 116.841 182.731 116.665 182.875C116.489 183.019 116.278 183.115 116.053 183.152V183.152Z" fill="#2F2E41"/>
<path d="M112.663 198.131L112.178 216.525C112.176 216.587 112.187 216.648 112.211 216.704C112.234 216.761 112.268 216.813 112.312 216.856C112.356 216.898 112.408 216.932 112.466 216.953C112.523 216.975 112.585 216.984 112.646 216.981L114.246 216.9C114.348 216.895 114.445 216.855 114.521 216.787C114.597 216.718 114.647 216.626 114.663 216.525L116.563 204.578C116.57 204.527 116.596 204.479 116.635 204.444C116.673 204.41 116.723 204.39 116.776 204.388C116.828 204.386 116.879 204.403 116.92 204.435C116.961 204.467 116.989 204.513 117 204.564L119.571 216.064C119.585 216.126 119.611 216.183 119.649 216.234C119.687 216.284 119.735 216.326 119.79 216.356C119.845 216.387 119.906 216.405 119.969 216.41C120.031 216.415 120.095 216.407 120.154 216.386L121.739 216.286C121.831 216.254 121.909 216.192 121.962 216.11C122.016 216.029 122.041 215.932 122.034 215.835L120.651 197.95L112.663 198.131Z" fill="#2F2E41"/>
<path d="M111.886 189.395C111.818 188.732 111.883 188.062 112.078 187.424C112.272 186.786 112.591 186.194 113.017 185.681C113.443 185.168 113.967 184.746 114.559 184.438C115.15 184.13 115.797 183.943 116.461 183.888C117.661 183.803 119.533 183.772 120.149 185.349C122.004 190.101 118.756 189.985 119.875 194.102C120.994 198.219 121.982 198.455 120.447 198.752C118.912 199.049 112.007 200.804 112.29 197.906C112.353 195.063 112.218 192.219 111.886 189.395V189.395Z" fill="#CCCCCC"/>
<path d="M119.82 184.866C119.599 184.78 119.36 184.754 119.127 184.791C118.893 184.828 118.673 184.925 118.489 185.074C118.305 185.223 118.164 185.417 118.079 185.638C117.994 185.859 117.969 186.098 118.007 186.332L118.879 191.782C119.028 192.714 119.422 193.589 120.021 194.319L122.854 197.774C122.895 197.823 122.945 197.864 123.003 197.892C123.061 197.92 123.124 197.935 123.188 197.937C123.252 197.938 123.316 197.926 123.374 197.901C123.433 197.875 123.486 197.837 123.529 197.79L124.202 197.043C124.272 196.966 124.312 196.866 124.316 196.762C124.32 196.658 124.287 196.556 124.224 196.474L124.024 196.217C122.376 194.079 121.337 191.535 121.015 188.855L120.668 185.964C120.64 185.721 120.546 185.49 120.397 185.297C120.247 185.104 120.048 184.954 119.82 184.866Z" fill="#CCCCCC"/>
<path d="M126.192 199.506C126.333 199.436 126.456 199.336 126.554 199.213C126.651 199.091 126.721 198.948 126.758 198.795C126.794 198.643 126.797 198.484 126.765 198.33C126.734 198.177 126.669 198.032 126.575 197.906L127.375 190.072H125.643L125.006 197.721C124.805 197.891 124.673 198.13 124.636 198.391C124.599 198.653 124.659 198.919 124.805 199.139C124.951 199.359 125.173 199.517 125.428 199.584C125.684 199.651 125.955 199.622 126.19 199.503L126.192 199.506Z" fill="#A0616A"/>
<path d="M127.782 185.751C129.135 185.751 130.232 184.654 130.232 183.301C130.232 181.948 129.135 180.851 127.782 180.851C126.429 180.851 125.332 181.948 125.332 183.301C125.332 184.654 126.429 185.751 127.782 185.751Z" fill="#A0616A"/>
<path d="M128.243 194.636C128.145 194.636 128.049 194.604 127.971 194.544C127.893 194.485 127.837 194.402 127.811 194.307C127.4 193.074 126.892 191.876 126.293 190.723C126.11 190.347 126.008 189.936 125.995 189.517C125.982 189.099 126.057 188.682 126.216 188.295C126.376 187.908 126.615 187.559 126.919 187.27C127.223 186.982 127.584 186.762 127.979 186.623V186.623C128.353 186.491 128.75 186.435 129.146 186.459C129.542 186.483 129.929 186.586 130.285 186.762C130.64 186.939 130.957 187.184 131.216 187.485C131.475 187.786 131.671 188.135 131.792 188.513C132.252 190.103 132.44 191.76 132.348 193.413C132.343 193.511 132.305 193.605 132.242 193.68C132.178 193.755 132.092 193.807 131.996 193.828L128.34 194.628C128.307 194.635 128.274 194.638 128.24 194.638L128.243 194.636Z" fill="#29913C"/>
<path d="M131.785 217.899H133.008L133.59 213.182H131.785V217.899Z" fill="#A0616A"/>
<path d="M135.654 219.324H131.234V217.262H133.882C134.352 217.262 134.803 217.449 135.136 217.781C135.468 218.114 135.655 218.565 135.655 219.035L135.654 219.324Z" fill="#2F2E41"/>
<path d="M119.556 216.314L120.628 216.903L123.41 213.05L121.829 212.18L119.556 216.314Z" fill="#A0616A"/>
<path d="M122.261 219.427L118.387 217.297L119.38 215.49L121.7 216.765C121.904 216.877 122.084 217.029 122.23 217.21C122.375 217.392 122.484 217.601 122.549 217.824C122.614 218.048 122.634 218.282 122.609 218.514C122.583 218.745 122.512 218.969 122.4 219.173L122.261 219.427Z" fill="#2F2E41"/>
<path d="M131.727 215.287C131.618 215.287 131.513 215.247 131.431 215.175C131.349 215.103 131.296 215.004 131.282 214.896L129.753 203.111C129.747 203.058 129.724 203.01 129.688 202.971C129.651 202.933 129.604 202.907 129.552 202.897C129.5 202.887 129.447 202.894 129.399 202.917C129.351 202.939 129.312 202.976 129.287 203.023L122.913 214.587C122.86 214.681 122.775 214.753 122.674 214.789C122.572 214.826 122.461 214.825 122.36 214.787L120.971 214.258C120.915 214.237 120.864 214.204 120.821 214.163C120.778 214.122 120.743 214.072 120.719 214.017C120.695 213.962 120.683 213.903 120.682 213.843C120.681 213.784 120.693 213.724 120.715 213.669L125.13 202.823C125.141 202.795 125.149 202.766 125.153 202.737C125.753 198.109 127.273 195.755 127.725 195.144C127.758 195.099 127.779 195.047 127.788 194.992C127.797 194.937 127.792 194.881 127.774 194.828L127.712 194.642C127.687 194.568 127.682 194.489 127.697 194.412C127.712 194.335 127.747 194.264 127.798 194.205C129.427 192.35 132.266 193.362 132.298 193.372L132.312 193.377L132.321 193.389C135.505 197.755 134.328 211.936 134.059 214.734C134.048 214.838 134.001 214.935 133.926 215.009C133.85 215.082 133.752 215.126 133.647 215.134L131.764 215.279L131.727 215.287Z" fill="#2F2E41"/>
<path d="M137.306 186.146C137.294 186.2 137.286 186.255 137.282 186.31L132.997 188.782L131.955 188.182L130.845 189.635L132.586 190.876C132.727 190.976 132.896 191.027 133.068 191.023C133.241 191.019 133.407 190.959 133.543 190.853L137.961 187.367C138.16 187.441 138.378 187.452 138.583 187.399C138.789 187.347 138.975 187.233 139.114 187.072C139.254 186.912 139.341 186.713 139.365 186.501C139.388 186.29 139.347 186.077 139.247 185.889C139.146 185.702 138.991 185.55 138.801 185.453C138.612 185.356 138.398 185.319 138.187 185.347C137.976 185.375 137.779 185.466 137.622 185.609C137.464 185.752 137.354 185.939 137.305 186.146H137.306Z" fill="#A0616A"/>
<path d="M132.854 188.899L131.469 190.694C131.43 190.745 131.38 190.787 131.322 190.817C131.265 190.847 131.202 190.864 131.138 190.868C131.074 190.871 131.009 190.861 130.949 190.837C130.889 190.814 130.835 190.777 130.79 190.731L129.222 189.103C129.087 189.004 128.974 188.88 128.888 188.737C128.802 188.594 128.746 188.435 128.723 188.27C128.7 188.104 128.71 187.936 128.753 187.775C128.796 187.614 128.871 187.463 128.973 187.331C129.075 187.2 129.203 187.09 129.349 187.008C129.494 186.927 129.654 186.875 129.82 186.857C129.986 186.838 130.154 186.853 130.314 186.901C130.474 186.949 130.622 187.028 130.751 187.134L132.717 188.234C132.773 188.265 132.822 188.309 132.86 188.361C132.898 188.413 132.925 188.472 132.937 188.536C132.95 188.599 132.949 188.664 132.935 188.727C132.92 188.79 132.892 188.849 132.853 188.9L132.854 188.899Z" fill="#29913C"/>
<path d="M127.487 192.017L125.256 191.617C125.193 191.606 125.132 191.581 125.08 191.544C125.027 191.507 124.982 191.459 124.95 191.404C124.917 191.348 124.897 191.286 124.89 191.222C124.883 191.158 124.89 191.093 124.911 191.032L125.634 188.891C125.702 188.574 125.891 188.296 126.16 188.115C126.43 187.935 126.759 187.867 127.078 187.925C127.398 187.984 127.681 188.165 127.869 188.429C128.058 188.693 128.135 189.02 128.086 189.341L128.015 191.593C128.013 191.658 127.997 191.721 127.968 191.779C127.94 191.837 127.899 191.887 127.849 191.928C127.799 191.969 127.741 191.998 127.678 192.014C127.616 192.03 127.55 192.033 127.487 192.021V192.017Z" fill="#29913C"/>
<path d="M128.172 182.737C128.802 183.168 129.628 183.611 130.272 183.152C130.473 182.999 130.619 182.785 130.689 182.541C130.758 182.298 130.746 182.039 130.656 181.803C130.468 181.411 130.194 181.066 129.854 180.795C129.514 180.524 129.117 180.334 128.693 180.238C127.665 179.774 126.521 179.628 125.41 179.821C124.861 179.936 124.371 180.244 124.031 180.691C123.692 181.138 123.525 181.692 123.561 182.252C123.719 183.139 124.555 183.877 124.437 184.771C124.319 185.665 123.307 186.143 122.414 186.304C121.503 186.328 120.621 186.625 119.881 187.157C119.52 187.61 119.337 188.179 119.365 188.758C119.394 189.337 119.633 189.885 120.037 190.3C120.878 191.106 121.945 191.636 123.095 191.821C124.571 192.275 126.151 192.259 127.617 191.774C128.338 191.51 128.945 191.002 129.33 190.337C129.715 189.673 129.855 188.894 129.726 188.137C129.51 187.525 129.179 186.96 128.75 186.473C128.321 185.985 127.999 185.413 127.805 184.793C127.735 184.531 127.728 184.257 127.782 183.992C127.837 183.727 127.953 183.478 128.12 183.265C128.183 183.196 128.223 183.109 128.233 183.016C128.244 182.923 128.225 182.829 128.179 182.748L128.172 182.737Z" fill="#2F2E41"/>
</g>
<defs>
<clipPath id="clip0_594_798">
<rect width="410.944" height="219.495" fill="white"/>
</clipPath>
</defs>
</svg>
