<svg width="384" height="364" viewBox="0 0 384 364" fill="none" xmlns="http://www.w3.org/2000/svg">
<g clip-path="url(#clip0_606_1097)">
<path d="M383.16 306.01C382.52 308.77 381.94 311.54 381.24 314.28C373.78 343.71 348.79 363.17 317.17 363.25C233.47 363.45 149.77 363.44 66.0699 363.25C32.9799 363.18 7.29986 342.32 1.19986 310.76C-0.160141 303.74 -0.0401413 296.37 0.0698587 289.17C0.169859 282.72 5.76986 277.98 12.6099 277.72C15.5499 277.61 18.5099 277.7 21.3999 277.7C19.7799 271.43 18.1599 265.58 16.7899 259.67C15.8699 255.67 17.5699 252.75 20.8199 252.08C24.3599 251.35 26.6399 253.43 27.7799 257.57C29.3799 263.43 31.3699 269.19 33.2299 274.98C33.8699 276.98 35.1299 277.84 37.3999 277.75C41.9999 277.56 46.6099 277.69 51.7199 277.69C53.9299 256.56 62.8399 238.85 78.9999 224.62C71.0299 218.45 62.2599 214.77 52.8599 212.6C48.4999 211.59 44.0099 211.21 39.5899 210.43C37.2699 210.02 35.7999 210.65 35.0399 212.99C33.0699 219.01 31.1699 225.07 28.8799 230.97C28.0499 233.09 26.5599 235.55 24.6799 236.54C21.1299 238.41 16.9399 234.86 17.6699 230.66C19.4699 220.39 22.8899 210.62 28.4899 201.81C29.5299 200.18 32.7299 199.12 34.9199 199.14C53.8799 199.36 71.2699 204.6 86.5499 216.11C87.1499 216.56 87.7599 216.98 87.7199 216.95C95.9499 213.88 103.56 210.41 111.53 208.28C117.71 206.63 124.33 206.48 130.77 206.04C132.98 205.89 134.24 205.06 134.31 203.2C134.35 202.1 133.45 200.53 132.48 199.88C105.1 181.43 88.8899 155.86 83.9799 123.29C77.0799 77.4698 102.9 29.6698 145.31 10.6698C183.07 -6.25019 219.49 -3.03019 254 20.0098C255.45 20.9798 256.9 21.9998 258.11 23.2398C260.22 25.4098 260.38 27.9998 258.58 30.3798C256.8 32.7298 254.34 33.3898 251.6 31.9798C250.61 31.4698 249.73 30.7598 248.82 30.0998C190.07 -12.3402 107.16 21.3598 95.7699 92.9398C89.3899 133.05 104.18 165.22 136.87 189.2C137.85 189.92 138.96 190.46 140.02 191.09C142.64 187.31 145.22 183.81 147.58 180.15C149.87 176.59 152.96 175.74 156.93 176.56C173.67 180.02 188.54 187.09 200.92 199.04C201.55 199.65 202.16 200.27 202.8 200.86C202.97 201.01 203.24 201.05 203.71 201.24C214.09 194.83 225.51 190.78 237.7 188.85C238.32 188.75 238.94 188.51 239.54 188.57C247.62 189.35 253 184.63 258.29 179.55C294.33 144.94 299.05 90.8198 269.49 50.5398C269.19 50.1398 268.88 49.7498 268.6 49.3398C266.45 46.1098 266.78 43.0498 269.46 41.0798C272.04 39.1798 275.32 39.7598 277.62 42.7398C285.32 52.6898 291.11 63.6498 294.91 75.6498C308.33 118.02 294.92 163.84 260.77 192.29C259.82 193.08 258.88 193.9 258.05 194.61C260.5 201.26 262.87 207.78 265.33 214.25C265.53 214.78 266.41 215.44 266.94 215.41C275.28 214.96 279.29 219.38 280.1 228.39C283.59 224.91 286.35 222.16 289.1 219.4C290.34 218.17 291.52 216.88 292.81 215.7C295.8 212.95 299.03 212.77 301.63 215.88C306.09 221.2 310.15 226.85 314.6 232.66C315.52 232.13 317 231.28 318.48 230.44C328.34 224.88 339.02 222.33 350.22 221.46C354.4 221.14 356.99 222.79 358.88 226.45C367.04 242.25 369.94 258.61 364.6 275.95C364.49 276.29 364.52 276.68 364.42 277.83C372.82 276.67 379.8 278.67 383.15 287.27V305.98L383.16 306.01ZM21.0799 328.44C20.9299 328.93 20.8299 329.07 20.8699 329.16C21.0299 329.49 21.1899 329.83 21.4099 330.13C30.8999 342.75 43.4399 350.21 59.1999 351.65C65.8899 352.26 72.6599 352.08 79.3899 352.08C158.11 352.1 236.82 352.04 315.54 352.14C334.05 352.16 349.34 345.78 360.92 331.11C361.47 330.41 361.84 329.57 362.51 328.44C360.84 328.44 359.73 328.44 358.61 328.44C332.29 328.44 305.97 328.44 279.64 328.44C278.27 328.44 276.85 328.55 275.55 328.22C272.67 327.5 271 325.48 271.17 322.51C271.34 319.58 273.09 317.7 276.1 317.28C277.2 317.13 278.34 317.22 279.46 317.22C307.65 317.22 335.85 317.22 364.04 317.22H368.51C371.47 309.78 372.06 302.26 371.95 294.62C371.87 288.94 371.93 288.94 366.3 288.94C249.79 288.94 133.27 288.94 16.7599 288.94C15.6399 288.94 14.3899 288.65 13.4299 289.04C12.5199 289.41 11.2699 290.47 11.2499 291.26C10.9399 299.99 11.0499 308.69 14.5999 317.22H19.4099C95.3799 317.22 171.35 317.22 247.32 317.22C248.57 317.22 249.83 317.11 251.06 317.29C254.01 317.71 255.8 319.42 255.99 322.47C256.18 325.54 254.54 327.47 251.7 328.21C250.29 328.58 248.73 328.44 247.24 328.44C173.26 328.44 99.2899 328.44 25.3099 328.44H21.0799V328.44ZM195.85 277.48C194.43 249.63 169.6 216.67 128.56 217.27C94.7099 217.76 61.2899 249.05 63.6999 277.52H75.8399C81.6299 244.76 106.79 231.73 124.88 230.4C137.07 229.51 148.46 232.01 158.73 238.73C172.76 247.9 180.71 261.08 183.29 277.48H195.84H195.85ZM207.82 277.7C214.65 277.7 221.26 277.85 227.85 277.6C229.61 277.53 231.74 276.7 232.98 275.48C244.02 264.65 254.62 253.36 265.96 242.86C270.52 238.64 271.16 234.69 269.15 229.49C269.11 229.37 269.1 229.21 269.01 229.15C267.99 228.33 267.01 226.89 265.94 226.81C255.87 226.07 246.04 227.26 236.65 231.21C217.74 239.18 206.8 257.86 207.8 277.69L207.82 277.7ZM124.1 241.91C116.43 242.92 109.98 245.57 103.68 250.55C105.03 251.62 106.09 252.32 106.98 253.19C111.91 258.07 112.68 260.98 109.88 263.86C106.99 266.84 104.02 266.05 98.9299 260.97C98.0099 260.05 97.0299 259.19 95.9099 258.15C91.4899 264.07 88.6199 270.27 87.6199 277.47H171.69C170.61 270.35 168.01 264.23 163.53 258.47C161.72 260.35 160.31 261.94 158.78 263.39C155.83 266.18 152.58 266.31 150.21 263.83C147.99 261.5 148.2 258.33 150.82 255.52C152.39 253.84 154.02 252.23 155.66 250.56C149.05 245.36 141.5 242.32 135.32 242.32C135.32 245.54 135.43 248.77 135.29 251.99C135.14 255.63 132.59 258.11 129.43 257.96C126.34 257.81 124.22 255.45 124.13 251.88C124.05 248.66 124.11 245.45 124.11 241.91H124.1ZM318.7 277.7C329.55 277.7 339.88 277.76 350.21 277.59C351.14 277.57 352.49 276.22 352.88 275.19C358.19 261.31 356.49 247.81 350.31 234.65C349.95 233.89 348.64 233.01 347.86 233.09C337.66 234.09 328.1 237.03 319.69 243.07C318.99 243.57 318.3 244.95 318.49 245.7C321.04 256.18 321.02 266.67 318.71 277.7H318.7ZM201.28 251.47C205.91 241.24 212.84 232.62 222.36 226.15C231.81 219.73 242.49 216.79 254.23 215.37C252.08 210.34 250.15 205.91 248.3 201.44C247.5 199.49 246.28 198.91 244.21 199.39C238.04 200.82 231.68 201.63 225.68 203.55C210.88 208.3 198.75 216.85 190.37 230.24C189.46 231.7 188.58 232.88 190.02 234.85C193.9 240.16 197.42 245.73 201.26 251.47H201.28ZM144.1 207.36C158.44 210.24 170.06 216.16 180.11 224.44C184.81 218.82 189.27 213.5 193.93 207.94C183.76 197.74 171.29 191.44 157.16 188.24C156.48 188.09 155.23 188.74 154.83 189.39C151.33 195.08 147.96 200.85 144.09 207.36H144.1ZM283.69 241.19C291.26 252.7 292.18 264.72 286.84 277.7C292.75 277.7 298.2 277.56 303.63 277.76C306.23 277.86 307.33 277.08 307.88 274.45C311.25 258.07 308.24 243.07 298.56 229.42C298.07 228.73 297.83 227.86 297.67 227.49C292.56 232.5 288.22 236.75 283.69 241.19V241.19ZM276.08 250.68C266.9 259.77 257.7 268.87 248.78 277.7C255.92 277.7 263.76 277.76 271.61 277.63C272.64 277.61 273.97 276.87 274.62 276.03C280.24 268.76 280.55 257.4 276.09 250.67L276.08 250.68Z" fill="#555555"/>
<path d="M156.81 82.86C162.19 77.85 166.18 71.96 168.43 64.95C171.93 54.05 175.36 43.12 178.81 32.2C182.19 21.51 190.82 18.79 199.58 25.85C207.13 31.93 209.9 39.98 208.42 49.49C207.75 53.8 206.79 58.05 206.02 62.34C204.57 70.37 209.74 76.76 217.91 76.89C224.77 77 231.68 77.43 238.48 76.81C251.74 75.59 261.99 88.63 254.72 101.92C255.18 102.51 255.7 103.17 256.22 103.83C261.12 110 261.22 117.94 256.34 124.18C255.26 125.56 254.74 126.49 255.58 128.39C258.92 135.9 257.05 142.68 250.74 148.17C249.92 148.88 249.22 150.43 249.37 151.46C251.02 162.58 244.75 170.08 233.27 170.16C216.68 170.28 200.1 170.21 183.51 170.18C180.15 170.18 176.73 170.34 173.43 169.82C167.59 168.9 161.83 167.51 155.12 166.13C149.73 172.08 141.5 170.41 133.66 169.75C128.05 169.27 123.62 164.32 123.31 158.62C122.99 152.78 123.08 146.9 123.21 141.05C123.28 137.78 125.69 135.54 128.63 135.51C131.53 135.47 134.06 137.67 134.22 140.92C134.45 145.65 134.46 150.4 134.3 155.13C134.2 158.1 135.38 159.05 138.23 159C149.08 158.84 147.23 159.91 147.27 150.16C147.36 130.95 147.22 111.75 147.36 92.54C147.39 89.1 146.39 87.94 142.9 88.08C133.11 88.45 134.45 86.58 134.35 96.58C134.29 102.19 134.39 107.8 134.32 113.42C134.27 118 132.36 120.35 128.81 120.42C125.11 120.5 123.15 118.1 123.12 113.28C123.08 105.8 123.04 98.31 123.12 90.83C123.22 82 128.35 76.96 137.14 76.91C138.89 76.9 140.63 76.91 142.38 76.91C150.04 76.91 151.17 77.37 156.78 82.84L156.81 82.86ZM190.23 33.32C186.59 44.85 183.08 56.12 179.48 67.36C176 78.23 169.77 87.17 160.73 94.21C159.59 95.1 158.64 97 158.63 98.44C158.5 115.27 158.63 132.11 158.54 148.94C158.52 152.75 160.18 155.3 163.56 156.37C167.08 157.49 170.8 158.56 174.44 158.62C194.14 158.91 213.84 158.88 233.53 158.96C233.9 158.96 234.41 159.08 234.63 158.89C235.98 157.69 237.27 156.41 238.58 155.16C237.28 153.89 236.18 151.96 234.65 151.52C232.46 150.88 229.96 151.37 227.59 151.3C223.48 151.19 221.02 149.08 221.03 145.74C221.04 142.43 223.53 140.21 227.61 140.11C231.72 140.01 235.84 140.13 239.95 140.06C243.72 140 245.87 138.27 245.97 135.35C246.08 132.34 243.73 130.31 239.9 130.25C235.79 130.19 231.67 130.28 227.56 130.21C223.46 130.14 221 127.98 221.02 124.63C221.04 121.32 223.59 119.1 227.62 119.02C231.48 118.95 235.35 119 239.22 119C246.4 119 248.71 117.77 248.63 114C248.56 110.35 246.28 109.16 239.38 109.16C235.39 109.16 231.4 109.21 227.41 109.14C223.56 109.08 221.16 107 221.04 103.76C220.91 100.41 223.44 98.03 227.4 97.95C231.51 97.87 235.63 97.95 239.74 97.92C243.61 97.89 246 96 246 93.04C246 90.07 243.62 88.17 239.76 88.15C232.28 88.12 224.79 88.27 217.32 88.09C202.66 87.74 192.42 75.1 194.98 60.68C195.72 56.51 196.55 52.36 197.3 48.19C198.47 41.69 196.28 36.77 190.25 33.3L190.23 33.32Z" fill="#FFC40C"/>
</g>
<defs>
<clipPath id="clip0_606_1097">
<rect width="383.16" height="363.4" fill="white"/>
</clipPath>
</defs>
</svg>
