<svg width="493" height="492" viewBox="0 0 493 492" fill="none" xmlns="http://www.w3.org/2000/svg">
<g clip-path="url(#clip0_406_554)">
<path d="M492.5 64.0363C491.234 71.28 490.234 78.5839 488.643 85.7553C485.34 100.604 479.495 114.477 471.118 127.169C462.018 140.957 453.003 154.83 443.132 168.064C431.067 184.238 414.326 192.615 394.294 194.29C385.194 195.05 376.07 195.508 366.958 196.147C353.495 197.087 343.13 203.499 334.765 213.924C295.509 262.859 256.133 311.696 216.805 360.57C185.817 399.067 154.83 437.563 123.866 476.084C117.574 483.906 109.813 489.077 99.6882 490.33C98.7601 490.451 97.8803 490.909 96.9763 491.21H93.1315C85.0923 489.788 77.2459 488.077 70.3759 483.087C52.7909 470.323 47.3671 442.119 65.0606 424.004C142.994 344.227 220.481 264.016 298.378 184.19C310.033 172.246 314.794 158.795 313.275 142.343C312.311 131.833 311.853 121.154 312.504 110.644C313.564 93.7584 320.844 79.2107 333.476 68.1222C349.964 53.6468 366.344 38.7857 384.326 26.3593C407.817 10.1243 434.948 4.43535 463.441 6.19505C477.277 7.0508 488.667 18.3322 490.668 32.458C491.21 36.2426 491.885 40.0151 492.5 43.7997V64.0483V64.0363ZM326.678 133.665C331.933 160.482 323.134 180.43 305.079 198.774C228.291 276.792 152.467 355.761 75.8478 433.96C63.7468 446.314 68.7005 468.684 84.9236 474.204C94.5055 477.458 104.642 476.651 114.031 464.911C183.853 377.709 254.012 290.773 324.038 203.716C333.03 192.543 344.13 184.648 358.389 182.491C368.658 180.936 379.107 180.333 389.509 179.875C408.625 179.02 423.642 170.992 434.478 155.191C441.734 144.609 448.953 133.978 456.113 123.336C474.083 96.6149 480.833 67.3026 476.18 35.3868C474.927 26.8053 469.033 21.0199 460.427 20.7066C436.117 19.8388 412.662 24.467 392.775 38.5085C374.395 51.5014 357.654 66.9048 340.719 81.8382C333.656 88.0695 329.329 96.8198 328.112 106.233C326.883 115.719 327.064 125.385 326.69 133.665H326.678Z" fill="#FFC40C"/>
<path d="M447.278 491.186C444.964 490.692 442.65 490.222 440.36 489.68C432.923 487.932 426.909 483.882 421.823 478.29C375.829 427.692 329.824 377.107 283.831 326.497C282.433 324.955 280.962 323.424 279.877 321.676C277.841 318.374 278.311 315.059 281.131 312.516C283.939 309.973 287.266 309.889 290.363 312.167C291.761 313.191 292.931 314.577 294.112 315.879C340.117 366.464 386.255 416.941 432.019 467.756C441.891 478.712 456.45 477.036 464.96 470.805C475.313 463.236 479.507 444.494 466.78 433.008C414.953 386.231 363.536 339.008 311.974 291.942C310.552 290.652 309.057 289.375 307.936 287.844C305.658 284.735 305.803 281.408 308.346 278.588C310.901 275.755 314.143 275.297 317.482 277.346C318.699 278.094 319.784 279.082 320.845 280.058C372.901 327.534 424.944 375.022 476.976 422.522C489.68 434.117 492.657 448.375 487.052 464.188C481.58 479.652 470.106 488.197 453.859 490.319C452.606 490.487 451.388 490.885 450.159 491.174H447.266L447.278 491.186Z" fill="#555555"/>
<path d="M141.813 116.936C149.165 110.476 149.237 109.114 143.536 103.401C119.612 79.4156 95.6025 55.5271 71.8706 31.3613C68.8815 28.324 66.3745 24.0934 65.3742 19.9835C63.6145 12.8 67.3147 5.94198 73.4013 2.38642C79.7411 -1.31378 87.4428 -0.747299 93.5656 4.32691C105.799 14.4633 117.888 24.7684 130.037 35.0012C149.298 51.2363 168.437 67.628 187.866 83.6702C204.198 97.1573 211.707 114.658 212.346 135.437C212.611 144.103 212.43 152.793 212.43 161.471C212.43 174.572 217.287 185.504 226.917 194.339C230.702 197.81 234.571 201.197 238.283 204.74C242.032 208.332 242.538 212.659 239.766 215.817C236.777 219.228 232.341 219.336 228.352 215.515C221.313 208.754 213.876 202.245 207.802 194.652C200.269 185.239 197.677 173.753 197.665 161.676C197.665 151.395 197.714 141.102 197.014 130.857C196.038 116.61 189.927 104.775 178.887 95.5061C148.056 69.5926 117.285 43.5948 86.4906 17.6332C85.6349 16.91 84.8273 15.9337 83.827 15.6324C82.8025 15.319 81.0789 15.2829 80.5486 15.8976C80.0062 16.5364 80.1629 18.284 80.6571 19.2C81.3079 20.4294 82.5614 21.3454 83.5738 22.3578C107.161 45.9933 130.76 69.6167 154.336 93.2522C165.304 104.244 165.255 114.778 154.251 125.807C144.272 135.811 134.328 145.838 124.312 155.794C114.598 165.436 103.593 165.448 93.8669 155.722C69.906 131.785 46.0054 107.776 22.0806 83.8028C21.1767 82.8989 20.3932 81.6936 19.2964 81.1994C18.1876 80.6932 16.7654 80.8861 15.4878 80.7776C15.4878 81.9708 15.2226 83.2484 15.5721 84.3211C15.8976 85.3215 16.8618 86.129 17.585 86.9968C44.2216 118.72 70.6412 150.611 97.6033 182.045C107.294 193.35 120.769 197.665 135.437 198.063C146.815 198.376 158.229 197.991 169.546 198.883C182.66 199.919 193.676 206.054 202.764 215.54C206.982 219.939 211.068 224.471 215.106 229.039C218.926 233.354 219.083 237.391 215.756 240.537C212.562 243.562 208.139 243.068 204.355 239.091C201.149 235.716 198.003 232.281 194.953 228.761C185.673 218.034 173.994 212.948 159.82 212.852C147.502 212.767 135.051 213.021 122.89 211.43C107.487 209.417 94.5901 201.787 84.4657 189.674C58.0461 158.036 31.4456 126.494 4.97776 94.8552C-4.4716 83.5738 0.1205 68.3873 13.7763 65.4706C20.7428 63.976 26.1906 66.9049 31.0117 71.7501C53.9964 94.8552 77.0412 117.888 100.062 140.945C101.086 141.969 102.099 142.994 103.123 144.006C108.824 149.707 110.379 149.599 115.815 142.873C114.694 141.668 113.561 140.378 112.356 139.173C86.1652 112.922 59.9625 86.6834 33.7839 60.4205C32.434 59.0585 31.0238 57.6845 29.9993 56.0935C27.9985 52.9719 28.5289 49.8381 31.0358 47.295C33.5549 44.7398 36.6886 44.2336 39.8102 46.1741C41.4133 47.1745 42.7873 48.5967 44.1372 49.9587C71.4729 77.3305 98.7844 104.714 126.554 132.556C128.217 130.555 129.772 128.663 131.544 126.53C130.616 125.554 129.447 124.276 128.217 123.035C102.135 96.8921 76.0529 70.7617 49.9707 44.6193C48.8378 43.4863 47.6566 42.3775 46.6803 41.1119C44.1251 37.8095 44.2818 33.7236 47.1624 31.1323C50.1997 28.4083 53.5263 28.3601 56.7685 30.8068C58.1666 31.8675 59.3839 33.1692 60.6254 34.4227C86.5991 60.4325 112.573 86.4544 138.51 112.5C139.74 113.742 140.632 115.321 141.801 116.912L141.813 116.936Z" fill="#555555"/>
</g>
<defs>
<clipPath id="clip0_406_554">
<rect width="492.5" height="491.186" fill="white"/>
</clipPath>
</defs>
</svg>
