<svg width="50" height="50" viewBox="0 0 50 50" fill="none" xmlns="http://www.w3.org/2000/svg">
<g clip-path="url(#clip0_562_610)">
<path d="M18.449 8.41292V5.52445C18.0017 5.78904 17.6079 6.02371 17.2126 6.2568C16.6079 6.61432 16.0724 6.53085 15.7778 6.03474C15.4959 5.55752 15.6487 5.07244 16.2251 4.69602C18.8018 3.00767 21.5847 1.90047 24.7 1.82015C28.1239 1.73195 31.1715 2.88639 33.9812 4.75429C34.5025 5.10079 34.6143 5.62052 34.3167 6.07253C34.0222 6.51982 33.5134 6.60802 32.9701 6.29145C32.5653 6.05678 32.17 5.80794 31.6991 5.5213V8.41135C31.9038 8.41135 32.1291 8.41135 32.3559 8.41135C36.7185 8.41135 41.0827 8.41135 45.4453 8.41135C47.5258 8.41135 48.633 9.53114 48.6346 11.6274C48.6409 20.7055 48.6472 29.7819 48.6519 38.86C48.6519 40.9027 48.6567 42.947 48.6519 44.9897C48.6472 46.8624 47.4518 48.0089 45.5729 48.0074C40.1692 48.0026 34.764 48.0215 29.3603 48.02C21.1264 48.02 12.8925 48.0089 4.65707 48.0026C2.61435 48.0042 1.48511 46.8781 1.48511 44.8338C1.48511 33.7524 1.48511 22.6694 1.48511 11.588C1.48511 9.54217 2.6112 8.4145 4.65707 8.41292C9.00081 8.41135 13.3445 8.41292 17.6867 8.41292H18.449V8.41292ZM20.3578 26.0761C20.3578 25.2319 20.3547 24.468 20.3578 23.7042C20.3641 22.3891 21.128 21.6237 22.4494 21.6205C24.1787 21.6158 25.908 21.6158 27.6373 21.6205C29.0012 21.6237 29.7572 22.3733 29.765 23.7278C29.7682 24.4901 29.765 25.2524 29.765 26.0839C35.479 24.6555 41.1205 23.2443 46.7777 21.83V21.2347C46.7777 18.0123 46.7777 14.7899 46.7777 11.5691C46.7777 10.5706 46.4801 10.2729 45.4784 10.2729C31.8597 10.2729 18.2411 10.2729 4.62242 10.2729C3.65382 10.2729 3.34671 10.5769 3.34513 11.5313C3.34356 14.0654 3.34513 16.5996 3.34513 19.1352C3.34513 20.0172 3.34513 20.8992 3.34513 21.8268C9.01341 23.2427 14.6533 24.6523 20.3578 26.0776V26.0761ZM39.2085 25.6398C36.0239 26.4399 32.9102 27.2211 29.7698 28.0101C29.7698 29.3347 29.7666 30.6293 29.7698 31.9239C29.7729 33.0122 28.9996 33.8532 27.9082 33.8658C26.0812 33.8863 24.2527 33.8894 22.4242 33.8595C21.0587 33.8375 20.3594 33.0736 20.3563 31.6876C20.3547 30.4718 20.3563 29.2543 20.3563 27.9849C17.2063 27.199 14.0816 26.4178 10.9238 25.6304V46.0985H39.2069V25.6398H39.2085ZM3.40026 23.7467C3.37191 23.8837 3.34828 23.9404 3.34828 23.9971C3.34671 31.0309 3.34356 38.0662 3.34828 45.1C3.34828 45.7867 3.7184 46.1347 4.42083 46.1442C5.18783 46.1552 5.95326 46.1473 6.72027 46.1473C7.4794 46.1473 8.23695 46.1473 9.0134 46.1473V25.1516C7.1581 24.687 5.30123 24.2223 3.39868 23.7467H3.40026ZM41.1252 25.1531V46.1379C42.7096 46.1379 44.2578 46.1599 45.8044 46.1269C46.4375 46.1143 46.7494 45.7048 46.7573 45.0165C46.7714 43.7802 46.7762 42.5423 46.7777 41.3059C46.7793 36.1432 46.7777 30.9789 46.7777 25.8162V23.7388C44.8295 24.2255 42.9868 24.6854 41.1252 25.1516V25.1531ZM22.2462 31.9648H27.8735V23.512H22.2462V31.9648ZM29.7068 8.38457C29.7257 8.34835 29.7761 8.29952 29.7761 8.2507C29.7839 7.13091 29.7981 6.01111 29.7761 4.89289C29.7729 4.75587 29.5965 4.55113 29.4548 4.49758C26.5254 3.37936 23.5896 3.38408 20.6602 4.49758C20.5263 4.54798 20.3468 4.72122 20.3437 4.84092C20.32 6.01269 20.3295 7.18603 20.3295 8.38457H29.7052H29.7068Z" fill="#455A64"/>
</g>
<defs>
<clipPath id="clip0_562_610">
<rect width="50" height="50" fill="white"/>
</clipPath>
</defs>
</svg>
