<svg width="50" height="50" viewBox="0 0 50 50" fill="none" xmlns="http://www.w3.org/2000/svg">
<g clip-path="url(#clip0_558_590)">
<path d="M11.2517 38.764H38.9135V11.0775H11.2024C11.2024 11.2442 11.2024 11.4263 11.2024 11.6085C11.2024 12.6488 11.2162 13.6875 11.1977 14.7278C11.1699 16.2898 10.0062 17.4674 8.45192 17.4967C7.22025 17.5199 5.98703 17.5168 4.75535 17.4967C3.19647 17.4705 2.00338 16.2975 1.99412 14.7448C1.97559 11.3553 1.97559 7.96746 1.99412 4.57804C2.00183 3.02224 3.19338 1.85847 4.74763 1.8168C4.88192 1.81371 5.01774 1.8168 5.15202 1.8168C18.4381 1.8168 31.7241 1.8168 45.0086 1.8168C47.0938 1.8168 48.1727 2.89567 48.1727 4.98397C48.1727 14.0903 48.1727 23.1967 48.1727 32.3046C48.1727 36.5013 48.1727 40.6995 48.1727 44.8961C48.1727 46.9566 47.1015 48.0201 45.0317 48.0201C34.5764 48.0201 24.121 48.0201 13.6657 48.0201C10.7779 48.0201 7.8901 48.0092 5.0023 48.0031C3.12547 47.9984 1.98949 46.8594 1.98794 44.9748C1.98485 41.7598 1.98485 38.5433 1.98794 35.3282C1.98949 33.4514 3.1301 32.3231 5.02083 32.3201C6.0997 32.3185 7.17703 32.3154 8.2559 32.3201C10.0293 32.3278 11.1915 33.4792 11.2024 35.2418C11.2085 36.3577 11.207 37.4752 11.2116 38.5926C11.2116 38.6297 11.2286 38.6652 11.2533 38.7655L11.2517 38.764ZM25.0795 3.63653C18.3979 3.63653 11.7179 3.63653 5.03626 3.63653C4.12254 3.63653 3.81076 3.94059 3.81076 4.83579C3.80767 8.05081 3.80767 11.2658 3.81076 14.4824C3.81076 15.3544 4.12717 15.6755 4.98224 15.6785C6.06111 15.6832 7.13844 15.6832 8.21732 15.6785C9.04924 15.6755 9.37799 15.3529 9.38108 14.5318C9.38571 13.1843 9.38108 11.8369 9.38262 10.4879C9.38262 9.49856 9.66816 9.20994 10.6467 9.20994C20.2732 9.20994 29.9013 9.20994 39.5278 9.20994C40.477 9.20994 40.778 9.50628 40.7795 10.4447C40.7811 12.9852 40.7795 15.5273 40.7795 18.0678C40.7795 25.1723 40.7795 32.2753 40.7795 39.3798C40.7795 40.2935 40.4739 40.6068 39.5772 40.6068C29.9121 40.6068 20.247 40.6084 10.5819 40.6068C9.68668 40.6068 9.38417 40.2935 9.38262 39.3783C9.37954 38.0493 9.38262 36.722 9.38262 35.3931C9.38262 34.4423 9.08628 34.1413 8.15249 34.1382C7.13227 34.1352 6.11205 34.1367 5.09182 34.1382C4.10247 34.1382 3.8123 34.4238 3.81076 35.3992C3.81076 38.5371 3.81076 41.6765 3.81076 44.8143C3.81076 45.9194 4.06852 46.1803 5.16128 46.1803C10.6868 46.1803 16.2124 46.1803 21.738 46.1803C29.4784 46.1803 37.2188 46.1803 44.9577 46.1803C46.1029 46.1803 46.3545 45.9318 46.3545 44.802C46.3483 36.2543 46.3406 27.7051 46.3375 19.1575C46.3375 14.4608 46.3483 9.76249 46.3545 5.06577C46.3545 3.87731 46.1183 3.63653 44.9515 3.63653C38.3285 3.63653 31.7056 3.63653 25.0811 3.63653H25.0795Z" fill="#455A64"/>
<path d="M14.8989 20.2837C15.2045 20.2837 15.4299 20.2837 15.6552 20.2837C21.4663 20.2837 27.2774 20.2837 33.0885 20.2837C35.0533 20.2837 36.1739 21.3981 36.1739 23.3536C36.1739 24.431 36.1646 25.5083 36.1569 26.5856C36.1445 28.3513 34.9885 29.512 33.2197 29.5151C27.37 29.5244 21.5203 29.529 15.6706 29.5336C15.4438 29.5336 15.2169 29.5336 14.9159 29.5336C14.9159 30.4458 14.9113 31.304 14.9174 32.1637C14.9205 32.6344 14.7492 32.9925 14.297 33.1669C13.8586 33.3351 13.516 33.1484 13.2104 32.8412C10.8906 30.5075 8.56922 28.1769 6.24787 25.8448C5.49004 25.0838 5.49004 24.7335 6.24941 23.9726C8.54762 21.6728 10.8396 19.3653 13.1579 17.0857C13.4049 16.8433 13.8216 16.6211 14.1411 16.6442C14.6489 16.6813 14.902 17.1042 14.8989 17.6382C14.8943 18.4995 14.8989 19.3592 14.8989 20.2852V20.2837ZM13.0792 19.8932C11.366 21.6049 9.68668 23.2826 8.0568 24.911C9.69594 26.5439 11.3752 28.2186 13.0776 29.9148C13.0776 29.7373 13.0776 29.5352 13.0776 29.333C13.0776 27.8003 13.1996 27.6768 14.7044 27.6784C20.8443 27.6846 26.9842 27.6907 33.1256 27.6954C34.0254 27.6954 34.3356 27.3836 34.3356 26.4791C34.3356 25.4975 34.3248 24.5158 34.3202 23.5342C34.314 22.3874 34.0701 22.1405 32.9373 22.1405C26.8159 22.1405 20.6946 22.1405 14.5733 22.1405C14.4004 22.1405 14.226 22.1466 14.0531 22.1374C13.4296 22.105 13.1023 21.7824 13.0823 21.1588C13.0684 20.739 13.0792 20.3177 13.0792 19.8917V19.8932Z" fill="#455A64"/>
</g>
<defs>
<clipPath id="clip0_558_590">
<rect width="50" height="50" fill="white"/>
</clipPath>
</defs>
</svg>
