<svg width="512" height="512" viewBox="0 0 512 512" fill="none" xmlns="http://www.w3.org/2000/svg">
<path d="M424 204.555V27H23V441H333.452" stroke="#455A64" stroke-width="32"/>
<path d="M222 146H424" stroke="#455A64" stroke-width="32"/>
<path d="M160.041 41V182.873H221.568V41" stroke="#455A64" stroke-width="32"/>
<path d="M360.5 367C383.42 367 402 348.644 402 326C402 303.356 383.42 285 360.5 285C337.58 285 319 303.356 319 326C319 348.644 337.58 367 360.5 367Z" stroke="#455A64" stroke-width="32" stroke-linecap="round" stroke-linejoin="round"/>
<path d="M432.047 245.223C435.299 248.218 438.38 251.299 441.29 254.466L476.335 259.472C482.045 269.389 486.446 280.003 489.428 291.051L468.119 319.42C468.119 319.42 468.504 328.149 468.119 332.514L489.428 360.884C486.46 371.936 482.058 382.552 476.335 392.462L441.29 397.469C441.29 397.469 435.257 403.759 432.047 406.711L427.041 441.756C417.124 447.466 406.51 451.867 395.462 454.85L367.093 433.541C362.737 433.926 358.355 433.926 353.999 433.541L325.629 454.85C314.577 451.881 303.961 447.479 294.051 441.756L289.044 406.711C285.878 403.716 282.797 400.635 279.802 397.469L244.757 392.462C239.047 382.546 234.645 371.931 231.663 360.884L252.972 332.514C252.972 332.514 252.587 323.785 252.972 319.42L231.663 291.051C234.632 279.998 239.034 269.382 244.757 259.472L279.802 254.466C282.797 251.299 285.878 248.218 289.044 245.223L294.051 210.178C303.967 204.468 314.582 200.067 325.629 197.084L353.999 218.394C358.355 218.009 362.737 218.009 367.093 218.394L395.462 197.084C406.515 200.053 417.131 204.455 427.041 210.178L432.047 245.223Z" stroke="#ED1C24" stroke-width="32" stroke-linecap="round" stroke-linejoin="round"/>
</svg>
