<svg width="50" height="50" viewBox="0 0 50 50" fill="none" xmlns="http://www.w3.org/2000/svg">
<g clip-path="url(#clip0_556_568)">
<path d="M38.2741 38.5588C38.4271 38.7691 38.5609 38.9365 38.6757 39.1166C40.0719 41.2874 41.4872 43.447 42.8467 45.6417C43.4731 46.6538 43.0396 47.3487 41.8586 47.3519C40.1484 47.3567 38.4382 47.3391 36.728 47.3599C36.1431 47.3678 35.7574 47.1463 35.4737 46.6379C33.9867 43.9618 31.8573 41.9265 29.2211 40.3933C28.362 39.8944 27.5125 39.3764 26.679 38.8393C25.4692 38.0599 24.564 37.0319 24.2277 35.5926C24.0667 34.9073 23.5248 34.7001 22.9606 34.5774C21.7206 34.308 20.4726 34.0594 19.2199 33.8586C15.8633 33.3214 12.513 32.7636 9.38913 31.3292C4.36379 29.0181 1.70529 25.0782 1.22873 19.5827C0.973719 16.6277 1.34349 13.8321 2.93094 11.274C4.44507 8.83389 6.62384 7.14125 9.1373 5.84547C12.3536 4.18789 15.8107 3.31606 19.3745 2.85067C23.2985 2.33905 27.2256 2.32949 31.1401 2.95427C35.6411 3.67467 39.7882 5.19519 43.1671 8.39081C46.1715 11.2342 47.8035 14.8012 48.4825 18.824C49.0419 22.1471 49.0818 25.4798 48.2514 28.7711C47.5278 31.6368 46.1762 34.1455 43.7999 35.9943C42.3256 37.1418 40.6696 37.9451 38.851 38.3962C38.6789 38.4392 38.5099 38.4902 38.2741 38.5556V38.5588ZM5.20374 11.2135C2.4496 15.0307 2.5277 19.0886 3.92708 23.2166C5.04913 26.5222 7.52435 28.5607 10.8252 29.9314C9.83858 27.8052 9.44332 25.746 9.72383 23.5752C9.81149 22.8946 10.2275 22.4755 10.7853 22.552C11.3527 22.6301 11.6651 23.1194 11.5822 23.8015C11.2762 26.2943 11.9217 28.5288 13.439 30.5099C13.6128 30.7363 13.9252 30.9387 14.2041 30.9913C16.641 31.4535 19.0876 31.8695 21.5277 32.3237C22.3756 32.4815 23.2108 32.7126 24.0858 32.9182C24.3376 31.4216 24.9911 30.2278 26.1402 29.3305C26.9276 28.7153 27.0057 28.481 26.5116 27.5932C26.2853 27.1868 25.9665 26.8043 25.6111 26.5015C24.6261 25.6647 23.4196 25.4368 22.1684 25.3651C21.5867 25.3316 21.201 24.9443 21.1962 24.4359C21.1914 23.9019 21.6106 23.4796 22.2131 23.4971C24.6102 23.5672 27.8696 24.5952 28.6856 27.8562C28.6936 27.8897 28.7334 27.9168 28.7717 27.9598C29.6945 27.6809 30.6317 27.4243 31.5497 27.1119C32.3195 26.8505 33.0909 26.5764 33.8177 26.2194C35.0864 25.5946 35.6012 24.5124 35.4689 23.1241C35.3079 21.4203 34.723 19.8743 33.6615 18.5275C33.287 18.051 32.855 17.6207 32.4247 17.1393C30.9249 18.526 29.2482 18.9961 27.3436 18.6949C26.6614 18.5881 26.2534 18.1594 26.3427 17.6079C26.4351 17.0389 26.926 16.7823 27.6098 16.8365C28.1772 16.8811 28.7621 16.8747 29.3231 16.7919C31.1831 16.5161 33.0288 13.907 31.4652 11.808C30.9536 11.121 30.2714 10.5536 29.6259 9.97507C29.1845 9.5798 29.0251 9.12078 29.296 8.67132C29.5797 8.19955 30.1137 8.07682 30.6396 8.40515C31.0253 8.64582 31.4174 8.90083 31.7394 9.218C33.4766 10.9234 34.5413 12.836 33.5579 15.3606C33.5117 15.4801 33.628 15.7144 33.7364 15.8356C34.3118 16.4922 35.0051 17.066 35.4817 17.7848C37.1106 20.2425 37.9712 22.8771 36.9607 25.8512C37.2142 26.0153 37.466 26.1731 37.7098 26.3405C39.2686 27.4115 40.1245 28.8922 40.2616 30.7761C40.3189 31.5587 39.9635 32.0368 39.3547 32.0639C38.7713 32.0894 38.4207 31.6814 38.3474 30.9164C38.2007 29.3719 37.4883 28.1989 36.0347 27.5709C35.81 27.4737 35.4673 27.5215 35.2251 27.6171C33.9723 28.108 32.7451 28.6643 31.4891 29.1456C30.5265 29.5138 29.508 29.7449 28.5613 30.1465C26.5722 30.9881 25.8103 32.2679 25.9649 34.426C26.0558 35.6947 26.6837 36.6494 27.8345 37.3108C27.9827 36.8502 28.0847 36.4453 28.2393 36.0628C28.9406 34.3192 30.171 33.221 32.0852 33.0106C32.702 32.9421 33.1356 33.288 33.2073 33.8267C33.2726 34.3192 32.9443 34.8212 32.3721 34.8802C30.8452 35.0364 29.8921 36.2621 29.728 38.0806C29.712 38.2527 29.881 38.5253 30.0403 38.6145C32.8327 40.194 35.0784 42.3409 36.7886 45.0552C36.8842 45.2066 37.0596 45.409 37.203 45.4122C38.282 45.4425 39.3626 45.4281 40.5293 45.4281C40.3667 45.1413 40.2743 44.9436 40.1532 44.7683C38.7394 42.7266 37.3257 40.6849 35.8977 38.6528C35.6251 38.2655 35.3542 37.9069 35.5885 37.4064C35.8196 36.9139 36.2547 36.8693 36.7312 36.8199C40.4958 36.4214 43.4317 34.7352 45.2598 31.318C46.4233 29.144 46.8696 26.8027 46.9253 24.3721C46.954 23.1321 46.8839 21.8905 46.86 20.6521C46.7277 20.6521 46.699 20.6441 46.6911 20.6521C46.5779 20.7876 46.4647 20.9231 46.3548 21.0617C45.3809 22.2969 44.1712 23.1943 42.6603 23.6644C41.9909 23.8732 41.4569 23.6692 41.2704 23.1353C41.0919 22.6237 41.3629 22.1551 41.9861 21.8905C42.1327 21.8284 42.2809 21.7726 42.426 21.7056C44.2238 20.8784 45.4351 19.5253 46.0073 17.6286C46.0982 17.3258 46.1029 16.9544 46.0216 16.6484C45.2327 13.6297 43.5719 11.1577 41.2338 9.12078C41.0999 9.00284 40.9501 8.90402 40.9118 8.87533C40.8162 10.0659 40.7684 11.2485 40.6106 12.4168C40.5229 13.0735 40.0129 13.3476 39.4423 13.2042C38.9275 13.0751 38.7315 12.6113 38.8144 11.9753C38.9084 11.2517 39.0455 10.4994 38.9451 9.79178C38.7124 8.15014 38.0557 6.8703 36.277 6.2248C31.8175 4.60547 27.2416 4.13529 22.551 4.42855C21.4305 4.49868 20.3132 4.61025 19.2469 4.69791C19.427 5.45657 19.639 6.1196 19.7363 6.79858C19.9148 8.06567 19.4127 9.17816 18.8071 10.2444C18.6206 10.5728 18.6636 10.8182 18.8883 11.1035C19.8319 12.2957 21.0607 12.8599 22.5717 12.8392C23.3096 12.8296 23.7256 13.1404 23.7511 13.7158C23.7766 14.2832 23.3734 14.6354 22.6275 14.6705C21.0304 14.7422 19.6135 14.2641 18.3767 13.2504C18.1679 13.0798 17.9671 12.8997 17.5973 12.5826C17.3264 13.7939 16.9933 14.8554 16.8674 15.9424C16.6618 17.729 17.5941 19.0631 19.29 19.6448C19.384 19.6767 19.4828 19.6958 19.5737 19.7357C20.0805 19.954 20.3132 20.4194 20.1538 20.888C19.9833 21.3901 19.5099 21.6275 18.9601 21.4889C16.6012 20.888 14.9532 18.8224 14.9851 16.4014C14.9946 15.5965 15.0504 14.7422 15.3229 13.9979C15.9892 12.1761 16.7654 10.3911 17.5543 8.61713C18.0611 7.47914 18.042 6.42243 17.3057 5.41673C17.1909 5.26053 16.904 5.09796 16.7351 5.13143C13.3944 5.80084 10.2115 6.8687 7.46697 8.97893C7.15936 9.21482 6.87407 9.47939 6.53936 9.76309C6.79756 9.91451 6.9697 10.0101 7.13545 10.1137C9.88799 11.8143 11.3687 14.2864 11.6045 17.5059C11.6555 18.196 11.2778 18.6598 10.7088 18.6821C10.1446 18.7029 9.76527 18.2693 9.73499 17.5697C9.60429 14.5047 7.87977 12.5762 5.20692 11.2151L5.20374 11.2135Z" fill="#455A64"/>
</g>
<defs>
<clipPath id="clip0_556_568">
<rect width="50" height="50" fill="white"/>
</clipPath>
</defs>
</svg>
