<svg width="25" height="25" viewBox="0 0 25 25" fill="none" xmlns="http://www.w3.org/2000/svg">
<g opacity="0.6">
<path fill-rule="evenodd" clip-rule="evenodd" d="M16.6981 18.0275L21.2326 18.0869C22.0049 18.097 22.631 17.4791 22.631 16.7067C22.631 16.3358 22.4836 15.9781 22.2214 15.7124L21.2326 14.7106C20.8617 14.3348 20.6533 13.8291 20.6533 13.3045L20.6533 10.1391C20.6533 5.78595 17.1247 2.21079 12.7718 2.15381C8.40977 2.09671 4.87728 5.59387 4.89038 9.95646L4.89974 13.0746C4.90135 13.6131 4.68333 14.1262 4.29602 14.4952L3.27858 15.4647C3.00771 15.7228 2.85474 16.0812 2.85474 16.4578C2.85474 17.2247 3.47633 17.8545 4.2431 17.8645L8.7876 17.924C8.7876 20.1086 10.5584 21.9028 12.7428 21.9313C14.9273 21.9599 16.6981 20.2122 16.6981 18.0275ZM20.1838 15.7458L21.0278 16.6009L4.47784 16.3842L5.32644 15.5756C6.00423 14.9298 6.38577 14.032 6.38295 13.0896L6.37359 9.97143C6.36296 6.42983 9.23066 3.5908 12.7718 3.63715C16.3055 3.68341 19.1701 6.58576 19.1701 10.1197L19.1701 13.2851C19.1701 14.203 19.5347 15.0882 20.1838 15.7458ZM15.2149 18.0081L10.2708 17.9434C10.2708 19.3088 11.3776 20.4301 12.7428 20.448C14.1081 20.4659 15.2149 19.3735 15.2149 18.0081Z" fill="black"/>
</g>
</svg>
