<svg width="318" height="284" viewBox="0 0 318 284" fill="none" xmlns="http://www.w3.org/2000/svg">
<g clip-path="url(#clip0_628_554)">
<path d="M64.8939 263.928C64.8389 270.198 64.3796 276.457 63.5189 282.668C63.4889 282.886 63.4559 283.104 63.4259 283.322L4.70892 282.994C4.53692 282.777 4.3669 282.558 4.2019 282.336C3.6539 281.602 3.1399 280.847 2.6679 280.066C0.400903 276.303 -0.632081 271.898 0.402919 268.858L0.421901 268.811C0.646366 268.145 1.00016 267.531 1.46292 267.002C3.83392 264.333 8.62891 264.778 12.9789 266.932C9.07891 262.66 5.96891 257.27 5.73291 252.459C5.50091 247.766 7.95491 244.414 10.6169 241.565C10.7039 241.471 10.7919 241.379 10.8789 241.288C10.9209 241.241 10.9659 241.196 11.0089 241.149C13.0859 238.978 15.5089 236.838 19.0089 237.097C22.8519 237.381 27.1089 240.597 30.1009 244.352C33.0929 248.107 35.0739 252.359 37.0859 256.514C39.0979 260.669 41.2809 264.927 44.5139 268.476C40.1349 262.937 36.6039 256.634 35.2999 250.505C33.9959 244.376 35.1439 238.488 39.0469 235.605C40.2323 234.756 41.6039 234.202 43.0469 233.992C43.2149 233.964 43.3859 233.941 43.5599 233.921C47.7799 233.615 51.9498 234.99 55.1599 237.746C59.089 241.121 61.9516 245.566 63.3989 250.539C64.5874 254.898 65.0918 259.415 64.8939 263.928Z" fill="#F2F2F2"/>
<path d="M26.479 283.115L25.356 283.109C24.9993 282.886 24.641 282.666 24.281 282.448C24.058 282.307 23.833 282.172 23.607 282.034C19.883 279.759 16.1353 277.578 12.364 275.489C8.59264 273.4 4.80698 271.406 1.00698 269.507C0.906079 269.463 0.823727 269.385 0.774224 269.287C0.724722 269.189 0.711198 269.076 0.735986 268.969C0.740159 268.955 0.746588 268.942 0.754998 268.93C0.807998 268.83 0.926999 268.789 1.1 268.874C1.567 269.108 2.03599 269.342 2.49999 269.581C6.31599 271.514 10.116 273.541 13.9 275.662C17.684 277.783 21.4427 279.999 25.176 282.31L25.412 282.456L26.479 283.115Z" fill="white"/>
<path d="M40.9559 283.196H40.2619C40.1049 282.977 39.9519 282.758 39.7949 282.539C36.1156 277.38 32.4372 272.22 28.7599 267.061C22.7372 258.614 16.7166 250.168 10.6979 241.722C10.6623 241.677 10.6358 241.625 10.6199 241.569C10.5689 241.382 10.7059 241.269 10.8819 241.292C10.9562 241.303 11.0274 241.329 11.0906 241.369C11.1539 241.41 11.2079 241.463 11.2489 241.526L21.3759 255.726L39.3469 280.936L40.4899 282.536C40.6449 282.758 40.8019 282.975 40.9559 283.196Z" fill="white"/>
<path d="M56.423 279.165C56.388 280.335 56.31 281.487 56.209 282.627L56.15 283.281H55.422C55.444 283.063 55.467 282.845 55.486 282.627C55.64 280.979 55.749 279.312 55.764 277.6C55.7832 272.854 55.3205 268.118 54.383 263.465C53.3865 258.455 51.9558 253.542 50.107 248.78C48.1653 243.758 45.8244 238.899 43.107 234.251C43.0559 234.175 43.0333 234.084 43.043 233.993C43.073 233.785 43.349 233.724 43.556 233.922C43.5952 233.961 43.6289 234.006 43.656 234.054C43.9893 234.632 44.3193 235.212 44.646 235.793C47.2633 240.467 49.5037 245.343 51.346 250.373C53.0994 255.15 54.4331 260.071 55.332 265.08C56.1753 269.725 56.5409 274.445 56.423 279.165Z" fill="white"/>
<path d="M214.177 9.26099C214.177 7.42953 214.72 5.63919 215.737 4.11639C216.755 2.59359 218.201 1.40672 219.893 0.705856C221.585 0.00498861 223.447 -0.17839 225.243 0.178909C227.04 0.536208 228.69 1.41813 229.985 2.71317C231.28 4.0082 232.162 5.65817 232.519 7.45444C232.876 9.2507 232.693 11.1126 231.992 12.8046C231.291 14.4967 230.104 15.9429 228.581 16.9604C227.059 17.9779 225.268 18.521 223.437 18.521C220.981 18.521 218.626 17.5454 216.889 15.8088C215.152 14.0722 214.177 11.7169 214.177 9.26099V9.26099ZM231.723 9.26099C231.723 7.62237 231.237 6.02054 230.327 4.65808C229.416 3.29562 228.122 2.23372 226.608 1.60664C225.094 0.979571 223.429 0.815499 221.821 1.13518C220.214 1.45486 218.738 2.24392 217.579 3.4026C216.421 4.56128 215.632 6.03752 215.312 7.64465C214.992 9.25179 215.156 10.9176 215.783 12.4315C216.411 13.9454 217.472 15.2393 218.835 16.1497C220.197 17.0601 221.799 17.546 223.438 17.546C225.635 17.546 227.742 16.6731 229.296 15.1194C230.85 13.5656 231.723 11.4583 231.723 9.26099V9.26099Z" fill="#FFC40C"/>
<path d="M223.437 14.6209C226.398 14.6209 228.798 12.2207 228.798 9.25993C228.798 6.29913 226.398 3.89893 223.437 3.89893C220.476 3.89893 218.076 6.29913 218.076 9.25993C218.076 12.2207 220.476 14.6209 223.437 14.6209Z" fill="#FFC40C"/>
<path d="M192.246 18.0328C197.091 18.0328 201.019 14.105 201.019 9.25982C201.019 4.41462 197.091 0.486816 192.246 0.486816C187.401 0.486816 183.473 4.41462 183.473 9.25982C183.473 14.105 187.401 18.0328 192.246 18.0328Z" fill="#CCCCCC"/>
<path d="M161.054 18.0328C165.899 18.0328 169.827 14.105 169.827 9.25982C169.827 4.41462 165.899 0.486816 161.054 0.486816C156.209 0.486816 152.281 4.41462 152.281 9.25982C152.281 14.105 156.209 18.0328 161.054 18.0328Z" fill="#CCCCCC"/>
<path d="M309.216 168.632H85.5108C83.3147 168.628 81.2097 167.754 79.6568 166.201C78.1039 164.648 77.2298 162.543 77.2258 160.347V42.889C77.2298 40.6929 78.1039 38.5879 79.6568 37.035C81.2097 35.4821 83.3147 34.608 85.5108 34.604H309.216C311.412 34.6082 313.516 35.4825 315.069 37.0354C316.622 38.5882 317.496 40.6931 317.5 42.889V160.347C317.496 162.543 316.622 164.648 315.069 166.201C313.516 167.754 311.411 168.628 309.215 168.632H309.216ZM85.5108 35.579C83.5725 35.5811 81.7141 36.3521 80.3435 37.7227C78.9729 39.0933 78.2019 40.9517 78.1998 42.89V160.347C78.2019 162.285 78.9729 164.144 80.3435 165.514C81.7141 166.885 83.5725 167.656 85.5108 167.658H309.216C311.154 167.656 313.012 166.885 314.383 165.514C315.754 164.144 316.525 162.285 316.527 160.347V42.889C316.525 40.9506 315.754 39.0923 314.383 37.7217C313.012 36.3511 311.154 35.5801 309.216 35.578L85.5108 35.579Z" fill="#3F3D56"/>
<path d="M161.541 137.44H104.031C101.835 137.436 99.7297 136.562 98.1768 135.009C96.624 133.456 95.7498 131.351 95.7458 129.155V71.6449C95.7498 69.4488 96.624 67.3437 98.1768 65.7909C99.7297 64.238 101.835 63.3638 104.031 63.3599H161.541C163.737 63.3638 165.842 64.238 167.395 65.7909C168.948 67.3437 169.822 69.4488 169.826 71.6449V129.155C169.822 131.351 168.948 133.456 167.395 135.009C165.842 136.562 163.737 137.436 161.541 137.44V137.44ZM104.031 64.3339C102.092 64.336 100.234 65.1069 98.8635 66.4775C97.4929 67.8482 96.722 69.7065 96.7198 71.6449V129.155C96.722 131.093 97.4929 132.952 98.8635 134.322C100.234 135.693 102.092 136.464 104.031 136.466H161.541C163.479 136.464 165.338 135.693 166.708 134.322C168.079 132.952 168.85 131.093 168.852 129.155V71.6449C168.85 69.7065 168.079 67.8482 166.708 66.4775C165.338 65.1069 163.479 64.336 161.541 64.3339H104.031Z" fill="#CCCCCC"/>
<path d="M303.362 94.551H192.728C191.693 94.551 190.702 94.1401 189.97 93.4087C189.239 92.6773 188.828 91.6853 188.828 90.651C188.828 89.6166 189.239 88.6246 189.97 87.8932C190.702 87.1619 191.693 86.751 192.728 86.751H303.362C304.396 86.751 305.388 87.1619 306.12 87.8932C306.851 88.6246 307.262 89.6166 307.262 90.651C307.262 91.6853 306.851 92.6773 306.12 93.4087C305.388 94.1401 304.396 94.551 303.362 94.551Z" fill="#CCCCCC"/>
<path d="M247.315 77.9802H192.728C191.693 77.9802 190.702 77.5693 189.97 76.8379C189.239 76.1065 188.828 75.1145 188.828 74.0802C188.828 73.0458 189.239 72.0538 189.97 71.3224C190.702 70.5911 191.693 70.1802 192.728 70.1802H247.315C248.349 70.1802 249.341 70.5911 250.073 71.3224C250.804 72.0538 251.215 73.0458 251.215 74.0802C251.215 75.1145 250.804 76.1065 250.073 76.8379C249.341 77.5693 248.349 77.9802 247.315 77.9802V77.9802Z" fill="#CCCCCC"/>
<path d="M303.362 127.205H192.728C191.693 127.205 190.702 126.794 189.97 126.062C189.239 125.331 188.828 124.339 188.828 123.305C188.828 122.27 189.239 121.278 189.97 120.547C190.702 119.816 191.693 119.405 192.728 119.405H303.362C304.396 119.405 305.388 119.816 306.12 120.547C306.851 121.278 307.262 122.27 307.262 123.305C307.262 124.339 306.851 125.331 306.12 126.062C305.388 126.794 304.396 127.205 303.362 127.205V127.205Z" fill="#CCCCCC"/>
<path opacity="0.484" d="M247.315 110.634H192.728C191.693 110.634 190.702 110.223 189.97 109.492C189.239 108.76 188.828 107.768 188.828 106.734C188.828 105.7 189.239 104.708 189.97 103.976C190.702 103.245 191.693 102.834 192.728 102.834H247.315C248.349 102.834 249.341 103.245 250.073 103.976C250.804 104.708 251.215 105.7 251.215 106.734C251.215 107.768 250.804 108.76 250.073 109.492C249.341 110.223 248.349 110.634 247.315 110.634V110.634Z" fill="#FFC40C"/>
<path d="M167.177 135.028C167.112 135.028 167.048 135.015 166.989 134.99C166.929 134.966 166.875 134.929 166.83 134.883L98.784 65.92C98.7391 65.8745 98.7036 65.8205 98.6795 65.7612C98.6555 65.7019 98.6433 65.6385 98.6438 65.5745C98.6443 65.5105 98.6574 65.4473 98.6823 65.3883C98.7072 65.3294 98.7434 65.2759 98.789 65.231C98.8346 65.1861 98.8886 65.1506 98.9479 65.1266C99.0071 65.1025 99.0706 65.0904 99.1346 65.0908C99.1985 65.0913 99.2618 65.1043 99.3207 65.1293C99.3797 65.1542 99.4331 65.1904 99.478 65.236L167.524 134.199C167.592 134.267 167.638 134.354 167.656 134.449C167.675 134.543 167.665 134.641 167.628 134.73C167.591 134.819 167.528 134.894 167.448 134.948C167.367 135.001 167.273 135.029 167.177 135.029V135.028Z" fill="black"/>
<path d="M98.3938 135.028C98.2976 135.028 98.2034 135 98.1232 134.947C98.043 134.894 97.9803 134.818 97.9432 134.729C97.9061 134.64 97.8961 134.542 97.9145 134.448C97.933 134.353 97.979 134.266 98.0468 134.198L166.091 65.2351C166.181 65.143 166.305 65.0908 166.434 65.0899C166.563 65.0889 166.688 65.1394 166.78 65.2301C166.872 65.3208 166.924 65.4443 166.925 65.5735C166.926 65.7027 166.876 65.827 166.785 65.919L98.7458 134.883C98.7005 134.929 98.6465 134.966 98.5869 134.991C98.5273 135.015 98.4634 135.028 98.3988 135.028H98.3938Z" fill="black"/>
<path d="M299.956 154.255H268.764C266.76 154.255 264.839 153.459 263.422 152.042C262.005 150.626 261.209 148.704 261.209 146.701C261.209 144.697 262.005 142.775 263.422 141.359C264.839 139.942 266.76 139.146 268.764 139.146H299.956C301.96 139.146 303.881 139.942 305.298 141.359C306.715 142.775 307.51 144.697 307.51 146.701C307.51 148.704 306.715 150.626 305.298 152.042C303.881 153.459 301.96 154.255 299.956 154.255V154.255Z" fill="#FFC40C"/>
<path d="M4.07199 283.274H150.772C150.901 283.274 151.025 283.222 151.117 283.131C151.208 283.04 151.259 282.916 151.259 282.786C151.259 282.657 151.208 282.533 151.117 282.442C151.025 282.35 150.901 282.299 150.772 282.299H4.07199C3.9427 282.299 3.81869 282.35 3.72726 282.442C3.63584 282.533 3.58447 282.657 3.58447 282.786C3.58447 282.916 3.63584 283.04 3.72726 283.131C3.81869 283.222 3.9427 283.274 4.07199 283.274V283.274Z" fill="#3F3D56"/>
<path d="M95.6639 277.693H101.639L104.481 254.646H95.6619L95.6639 277.693Z" fill="#A0616A"/>
<path d="M113.161 283.242L94.3819 283.243L94.3815 275.988L105.905 275.988C106.857 275.987 107.801 276.175 108.681 276.539C109.562 276.904 110.361 277.438 111.035 278.112C111.709 278.786 112.244 279.585 112.608 280.466C112.973 281.346 113.161 282.289 113.161 283.242V283.242Z" fill="#2F2E41"/>
<path d="M52.3098 270.924L57.7448 273.407L69.9068 253.624L61.8848 249.96L52.3098 270.924Z" fill="#A0616A"/>
<path d="M65.9199 283.242L48.8383 275.44L51.8524 268.841L62.3348 273.629C64.085 274.428 65.446 275.89 66.1184 277.693C66.7907 279.496 66.7193 281.492 65.9199 283.242V283.242Z" fill="#2F2E41"/>
<path d="M69.7089 199.984C69.1372 199.553 68.6668 199.002 68.3308 198.37C67.9948 197.738 67.8014 197.04 67.7642 196.325C67.727 195.61 67.847 194.896 68.1156 194.232C68.3842 193.568 68.7949 192.972 69.3189 192.484L62.2949 176.547L71.2179 178.059L76.5179 192.959C77.2801 193.894 77.6724 195.077 77.6204 196.283C77.5684 197.489 77.0757 198.633 76.2358 199.5C75.3959 200.366 74.2672 200.894 73.0638 200.984C71.8604 201.074 70.6659 200.718 69.7069 199.986L69.7089 199.984Z" fill="#A0616A"/>
<path d="M93.8648 269.672L88.1318 219.607C88.0854 219.204 87.8971 218.831 87.6006 218.555C87.3042 218.278 86.919 218.116 86.514 218.098C86.1091 218.08 85.7109 218.206 85.3907 218.455C85.0706 218.704 84.8494 219.058 84.7668 219.455L81.9248 233.147C81.8838 233.341 81.8165 233.528 81.7248 233.704L65.0898 266.051C64.8448 266.527 64.4341 266.897 63.9351 267.091C63.4361 267.286 62.8833 267.291 62.3808 267.106L56.5968 264.975C56.3239 264.874 56.0738 264.721 55.8609 264.522C55.6481 264.324 55.4767 264.086 55.3568 263.821C55.237 263.556 55.171 263.27 55.1627 262.979C55.1545 262.689 55.2042 262.399 55.3088 262.128L68.8508 227.011C68.9226 226.825 68.9612 226.628 68.9648 226.429L69.6568 189.761C69.6672 189.223 69.8746 188.708 70.2396 188.314C70.6046 187.919 71.1018 187.672 71.6368 187.62L107.574 184.114C107.892 184.083 108.212 184.122 108.514 184.228C108.815 184.334 109.09 184.504 109.318 184.727C109.547 184.95 109.724 185.22 109.837 185.519C109.95 185.818 109.997 186.137 109.974 186.456L103.937 269.582C103.895 270.134 103.647 270.65 103.241 271.027C102.836 271.404 102.303 271.614 101.75 271.616H96.0418C95.5033 271.616 94.9835 271.418 94.5817 271.059C94.1798 270.701 93.9239 270.207 93.8628 269.672H93.8648Z" fill="#2F2E41"/>
<path d="M93.2019 121.459C99.8128 121.459 105.172 116.1 105.172 109.489C105.172 102.878 99.8128 97.519 93.2019 97.519C86.5911 97.519 81.2319 102.878 81.2319 109.489C81.2319 116.1 86.5911 121.459 93.2019 121.459Z" fill="#A0616A"/>
<path d="M103.576 127.999C103.248 127.842 102.923 127.691 102.6 127.547C98.6693 125.778 94.3382 125.09 90.053 125.553C85.7678 126.015 81.6835 127.612 78.2209 130.179C75.1553 132.364 72.7481 135.348 71.2614 138.807C69.7748 142.266 69.2658 146.066 69.7899 149.794C71.9349 166.059 69.4789 188.123 69.2239 190.32C88.9019 199.369 106.166 187.992 107.699 186.935L103.576 127.999Z" fill="#FFC40C"/>
<path d="M68.6879 190.112C68.3294 190.055 67.9906 189.91 67.7022 189.689C67.4139 189.469 67.1849 189.18 67.0359 188.849L56.9919 166.593C56.6155 165.76 56.4492 164.848 56.5078 163.936C56.5664 163.024 56.848 162.141 57.3279 161.363L69.6629 141.348C70.1655 140.421 71.0102 139.726 72.0171 139.412C73.024 139.098 74.1138 139.189 75.0546 139.666C75.9955 140.143 76.7131 140.968 77.0549 141.966C77.3967 142.964 77.3357 144.055 76.8849 145.009L67.7599 164.171L73.7599 184.471C73.8657 184.833 73.8765 185.217 73.7912 185.585C73.7059 185.953 73.5274 186.292 73.2729 186.571L70.6519 189.431C70.4471 189.655 70.1978 189.834 69.9199 189.957C69.642 190.08 69.3416 190.143 69.0379 190.143C68.9206 190.142 68.8035 190.132 68.6879 190.112Z" fill="#FFC40C"/>
<path opacity="0.2" d="M96.6499 185.46L94.7939 148.32L95.2759 148.257L103.624 187.541H98.8409C98.2784 187.542 97.7372 187.326 97.3293 186.938C96.9214 186.551 96.6782 186.022 96.6499 185.46Z" fill="black"/>
<path d="M103.266 197.311C102.795 196.771 102.449 196.134 102.251 195.445C102.053 194.757 102.009 194.033 102.121 193.325C102.233 192.618 102.499 191.943 102.9 191.349C103.301 190.756 103.827 190.257 104.442 189.889L100.88 172.841L109.295 176.173L111.387 191.851C111.935 192.924 112.072 194.161 111.77 195.328C111.468 196.495 110.749 197.511 109.748 198.183C108.748 198.856 107.536 199.138 106.342 198.978C105.147 198.817 104.053 198.224 103.266 197.311V197.311Z" fill="#A0616A"/>
<path d="M101.582 185.725L94.55 138.843L94.543 138.799L95.902 132.546C96.2424 130.979 97.1421 129.59 98.4326 128.639C99.7231 127.688 101.316 127.239 102.913 127.378C104.51 127.516 106.003 128.231 107.11 129.39C108.218 130.549 108.866 132.072 108.932 133.674L111.042 184.742C111.063 185.296 110.874 185.838 110.513 186.259C110.151 186.68 109.644 186.949 109.093 187.012L103.993 187.579C103.911 187.588 103.828 187.593 103.746 187.593C103.221 187.593 102.713 187.404 102.316 187.061C101.919 186.718 101.658 186.243 101.582 185.724V185.725Z" fill="#FFC40C"/>
<path d="M88.2819 120.36C86.6537 120.346 85.0628 119.871 83.6932 118.99C82.3237 118.11 81.2314 116.859 80.5429 115.384V115.384C79.6253 113.647 79.0057 111.768 78.7099 109.826C78.4239 106.226 80.4599 100.561 83.1549 97.4619C86.1129 94.0619 90.7939 93.5879 95.3209 93.1289C96.5579 93.0039 97.8369 92.8739 99.0479 92.6859C100.177 92.4168 101.356 92.4326 102.478 92.7318C102.796 92.8482 103.086 93.0282 103.332 93.2606C103.577 93.4931 103.773 93.7732 103.907 94.0839C103.95 94.193 104.015 94.2922 104.098 94.3752C104.181 94.4583 104.28 94.5235 104.389 94.5669C104.483 94.6029 104.584 94.619 104.684 94.6142C104.785 94.6094 104.884 94.5837 104.974 94.5389C105.158 94.4455 105.361 94.3968 105.567 94.3968C105.773 94.3968 105.976 94.4455 106.16 94.5389C106.322 94.6206 106.463 94.7395 106.571 94.8861C106.678 95.0326 106.75 95.2025 106.779 95.3819C106.798 95.505 106.836 95.6244 106.892 95.7358C106.987 95.909 107.117 96.0601 107.275 96.1791C107.433 96.2982 107.613 96.3827 107.806 96.4269C108.1 96.4923 108.36 96.663 108.536 96.9066C108.713 97.1503 108.795 97.4502 108.766 97.7499C108.693 98.3649 108.666 99.0279 108.632 99.6699C108.519 102.085 108.403 104.582 105.975 104.541C105.354 104.515 104.739 104.406 104.147 104.218C103.748 104.038 103.311 103.957 102.874 103.982C102.437 104.007 102.013 104.138 101.637 104.363C100.198 105.263 99.9639 107.134 99.7559 108.788L99.7199 109.077C99.4779 110.969 98.4779 113.245 96.4569 113.436C95.8152 113.457 95.1761 113.346 94.5789 113.11C93.9647 112.838 93.2831 112.756 92.6219 112.875C92.0915 113.107 91.6496 113.503 91.3615 114.005C91.0734 114.507 90.9544 115.089 91.0219 115.664C91.0515 116.134 91.1116 116.602 91.2019 117.064C91.3654 117.795 91.4176 118.546 91.3569 119.293C91.2989 119.747 90.7779 120.046 89.7149 120.235C89.2418 120.318 88.7623 120.36 88.2819 120.36V120.36Z" fill="#2F2E41"/>
</g>
<defs>
<clipPath id="clip0_628_554">
<rect width="317.501" height="283.322" fill="white"/>
</clipPath>
</defs>
</svg>
