<svg width="408" height="409" viewBox="0 0 408 409" fill="none" xmlns="http://www.w3.org/2000/svg">
<g clip-path="url(#clip0_588_558)">
<path d="M175.67 408.72C171.01 406.92 166.4 404.99 161.68 403.33C125.34 390.57 88.99 377.84 52.62 365.17C50.54 364.45 48.23 364.09 46.02 364.08C33.25 363.98 20.47 364.05 7.69999 364.02C2.71999 364.02 -0.0800098 361.77 -0.0100098 357.98C0.0599902 354.29 2.73999 352.1 7.50999 352.08C21.48 352.04 35.45 352.02 49.42 352.12C51.22 352.13 53.08 352.7 54.81 353.3C94.94 367.29 135.05 381.34 175.2 395.26C177.32 396 179.91 396.21 182.11 395.77C221.73 387.94 261.33 379.98 300.93 371.99C302.31 371.71 303.75 371.13 304.87 370.31C333.75 349.2 362.6 328.03 391.44 306.87C391.96 306.49 392.4 306.02 393.1 305.38C389.94 300.78 387.08 296.15 383.74 291.88C378.1 284.66 368.17 282.64 360 286.8C358.11 287.76 356.33 288.95 354.56 290.13C331.66 305.39 308.81 320.74 285.81 335.86C283.43 337.42 280.19 338.35 277.34 338.39C260.05 338.62 242.75 338.44 225.45 338.56C222.05 338.58 219.37 337.64 216.79 335.4C204.04 324.32 191.2 313.33 178.27 302.45C176.81 301.22 174.57 300.4 172.65 300.32C166.54 300.05 160.41 300.25 154.29 300.21C149.36 300.18 146.85 298.23 146.76 294.47C146.66 290.57 149.32 288.29 154.35 288.28C183.09 288.24 211.83 288.29 240.57 288.24C250.8 288.22 258.08 282.91 260.63 273.86C263.66 263.13 256.63 251.73 245.64 249.76C243.17 249.32 240.61 249.2 238.1 249.2C186.74 249.17 135.38 249.18 84.02 249.17C82.43 249.17 80.81 249.24 79.24 249.02C76.24 248.59 74.45 246.78 74.22 243.73C73.99 240.7 75.39 238.54 78.35 237.74C79.86 237.33 81.5 237.25 83.08 237.25C135.1 237.23 187.13 237.21 239.15 237.24C255.51 237.24 267.44 245.46 271.8 259.57C277.84 279.1 264.07 299.17 243.52 300.01C229.31 300.59 215.05 300.19 200.82 300.22C199.1 300.22 197.37 300.22 194.91 300.22C195.91 301.37 196.46 302.16 197.16 302.77C205.73 310.14 214.29 317.54 222.97 324.79C224.16 325.78 226.01 326.47 227.56 326.48C243.66 326.6 259.76 326.62 275.86 326.47C277.68 326.45 279.72 325.61 281.28 324.57C304.12 309.45 326.9 294.24 349.69 279.04C360.97 271.52 372.67 270.43 384.62 277.18C387.56 278.84 390.41 281.15 392.45 283.82C397.2 290.04 401.54 296.6 405.84 303.15C408.42 307.07 407.65 309.83 403.4 312.96C391.41 321.8 379.38 330.59 367.37 339.39C349.99 352.13 332.51 364.72 315.31 377.69C310.24 381.51 304.85 383.58 298.74 384.78C259.76 392.43 220.81 400.26 181.86 408.05C181.37 408.15 180.92 408.49 180.46 408.71H175.67V408.72Z" fill="#555555"/>
<path d="M270.99 132.98C271.14 171.24 240.07 202.54 201.7 202.77C163.2 203.01 131.86 171.95 131.64 133.36C131.42 94.9401 162.47 63.6201 201.13 63.2801C239.29 62.9401 270.84 94.4201 271 132.98H270.99ZM259.05 133.02C258.96 101.05 232.71 74.9001 201.05 75.2601C169.09 75.6201 143.58 101.32 143.61 133.14C143.64 165.14 169.57 190.94 201.57 190.8C233.37 190.66 259.14 164.75 259.05 133.02Z" fill="#FFD037"/>
<path d="M73.38 160.51C76.97 158.14 79.69 156.23 82.51 154.5C86.06 152.32 89.4 152.83 91.34 155.67C93.31 158.55 92.64 161.93 89.24 164.29C83.24 168.46 77.23 172.67 70.91 176.32C69.11 177.36 65.73 177.43 63.96 176.41C57.52 172.7 51.41 168.42 45.29 164.18C42.13 161.99 41.47 158.6 43.27 155.83C45.18 152.9 48.54 152.28 52.04 154.4C54.97 156.18 57.79 158.15 61.18 160.38C61.28 158.62 61.41 157.38 61.42 156.14C61.44 144.57 61.39 132.99 61.46 121.42C61.49 117.47 63.66 115.06 66.99 114.87C70.38 114.68 72.86 116.92 73.32 120.68C73.45 121.73 73.39 122.81 73.39 123.87C73.39 134.51 73.39 145.15 73.39 155.8C73.39 157.09 73.39 158.38 73.39 160.51H73.38Z" fill="#FFD037"/>
<path d="M341.19 230.72C344.8 228.34 347.52 226.46 350.33 224.73C353.87 222.55 357.24 223 359.19 225.78C361.22 228.68 360.37 232.27 356.87 234.67C351.06 238.65 345.16 242.49 339.3 246.41C336.55 248.25 333.85 248.19 331.12 246.36C325.27 242.44 319.36 238.61 313.56 234.61C310.2 232.29 309.38 228.87 311.18 226.01C313.07 223.01 316.6 222.49 320.29 224.79C323.07 226.52 325.76 228.39 329.21 230.67C329.21 228.03 329.21 226.22 329.21 224.42C329.21 214.31 329.21 204.21 329.21 194.1C329.21 193.04 329.17 191.96 329.31 190.91C329.82 187.04 332.16 184.91 335.59 185.09C338.96 185.27 341.1 187.56 341.14 191.59C341.24 202.89 341.18 214.2 341.19 225.5C341.19 226.93 341.19 228.35 341.19 230.73V230.72Z" fill="#FFD037"/>
<path d="M271.83 44.7902C271.83 35.9502 271.83 27.1802 271.83 18.4202C271.83 14.3002 271.71 10.1602 271.96 6.05017C272.18 2.30017 274.86 -0.259832 278.05 0.0301677C281.61 0.360168 283.51 2.49017 283.73 6.06017C283.81 7.25017 283.8 8.45017 283.81 9.65017C283.81 20.0302 283.81 30.4102 283.81 40.7902V45.7202C287.3 43.4202 290.01 41.5402 292.81 39.8002C296.59 37.4402 299.89 37.9302 301.89 41.0202C303.76 43.9002 302.98 47.2402 299.56 49.6102C293.65 53.6902 287.62 57.5802 281.65 61.5802C279 63.3502 276.46 63.2102 273.85 61.4602C268 57.5302 262.08 53.7002 256.28 49.7102C252.71 47.2502 251.9 43.7502 253.95 40.8202C256.03 37.8502 259.25 37.5202 263.1 39.9302C265.69 41.5602 268.23 43.2502 270.8 44.9102C270.88 44.9602 271.05 44.8902 271.84 44.8002L271.83 44.7902Z" fill="#FFD037"/>
<path d="M28.23 249.19C21.19 249.19 14.16 249.24 7.11998 249.17C2.61998 249.13 0.079982 246.98 0.00998203 243.4C-0.060018 239.77 2.42998 237.32 6.86998 237.28C21.07 237.17 35.28 237.18 49.48 237.28C53.81 237.31 56.49 239.86 56.45 243.34C56.4 246.88 53.78 249.12 49.34 249.16C42.3 249.23 35.27 249.18 28.23 249.18V249.19Z" fill="#555555"/>
<path d="M223.86 117.57C223.81 118.76 223.8 119.96 223.69 121.15C223.37 124.44 221.34 126.28 218.23 126.45C215.12 126.62 212.84 125.03 212.24 121.79C211.9 119.98 211.93 118.1 211.76 116.25C211.42 112.5 209.28 110.44 205.61 110.15C203.23 109.96 200.81 109.95 198.44 110.22C193.8 110.75 190.64 114.51 190.83 118.93C191.02 123.21 194.24 126.5 198.76 126.93C201.27 127.17 203.81 127.13 206.3 127.49C215.4 128.78 222.62 136.06 223.57 144.78C224.63 154.46 219.75 163.25 210.93 166.46C207.95 167.54 206.94 168.89 207.28 171.84C207.43 173.13 207.21 174.5 206.93 175.78C206.22 178.97 204.06 180.55 200.87 180.33C197.88 180.13 195.4 178.32 195.67 175.36C196.19 169.78 193.71 167.68 188.74 165.7C182.26 163.11 179.03 157.26 178.85 150.13C178.76 146.6 181 143.96 184.16 143.79C187.56 143.61 189.59 145.42 190.5 148.66C192.59 156.1 202.75 159.06 208.77 153.98C211.35 151.81 212.64 148.72 211.35 145.78C210.3 143.38 208.06 141.07 205.75 139.76C203.86 138.69 201.11 139.05 198.73 138.94C188.68 138.47 180.59 131.49 179.01 121.84C177.46 112.35 182.71 102.95 191.93 99.58C194.73 98.56 195.73 97.25 195.4 94.46C195.26 93.29 195.38 92.06 195.53 90.88C195.94 87.6 198.02 85.85 201.15 85.77C204.09 85.69 206.96 87.25 206.76 90.23C206.34 96.5 209.73 98.61 214.81 100.97C221.35 104.01 223.89 110.32 223.83 117.54L223.86 117.57Z" fill="#FFD037"/>
</g>
<defs>
<clipPath id="clip0_588_558">
<rect width="407.33" height="408.72" fill="white"/>
</clipPath>
</defs>
</svg>
