<svg width="368" height="384" viewBox="0 0 368 384" fill="none" xmlns="http://www.w3.org/2000/svg">
<g clip-path="url(#clip0_503_642)">
<path d="M331.49 0C334 0.67 336.53 1.25 339 2.04C356.72 7.73 367.77 23.34 367.88 43.08C367.98 61.42 367.9 79.76 367.9 98.1C367.9 189.68 367.9 281.26 367.9 372.84C367.9 374.21 367.96 375.59 367.87 376.96C367.54 382.25 363.93 384.56 359.1 382.43C352.6 379.56 346.12 376.65 339.76 373.5C336.95 372.11 334.65 371.95 331.74 373.43C325.41 376.64 318.93 379.58 312.34 382.21C310.39 382.99 307.6 382.99 305.66 382.21C298.74 379.4 292.08 375.96 285.19 373.07C283.61 372.41 281.28 372.44 279.69 373.1C273.02 375.86 266.45 378.89 259.94 382.02C257.11 383.39 254.63 383.46 251.78 382.07C245.4 378.96 238.85 376.19 232.46 373.11C230.25 372.05 228.41 371.97 226.14 373.07C219.64 376.22 212.97 379.03 206.46 382.15C203.73 383.46 201.34 383.4 198.64 382.1C192.13 378.97 185.58 375.89 178.91 373.14C177.23 372.45 174.77 372.51 173.08 373.21C166.29 376.01 159.68 379.24 152.97 382.24C147.49 384.69 143.81 382.39 143.79 376.36C143.72 358.14 143.74 339.93 143.79 321.71C143.8 317.36 146.03 314.76 149.45 314.77C152.9 314.77 154.97 317.3 154.98 321.74C155.01 335.84 154.99 349.94 154.99 364.04C154.99 365.39 154.99 366.75 154.99 368.96C158.52 367.38 161.5 366.02 164.51 364.71C178.66 358.53 173.34 358.44 187.62 364.69C191.61 366.44 195.62 368.17 199.5 370.16C201.7 371.29 203.51 371.34 205.78 370.23C212.05 367.17 218.53 364.55 224.77 361.44C228.02 359.82 230.81 359.97 233.98 361.51C240.25 364.56 246.59 367.51 253.04 370.15C254.72 370.84 257.16 370.79 258.85 370.09C265.41 367.39 271.87 364.42 278.25 361.31C281.23 359.86 283.84 359.92 286.78 361.34C293.29 364.47 299.86 367.5 306.52 370.29C308.01 370.91 310.2 370.95 311.67 370.33C318.55 367.42 325.21 363.98 332.14 361.19C334.19 360.36 337.11 360.37 339.18 361.16C344.86 363.31 350.32 366.09 356.47 368.89C356.56 367.15 356.69 365.86 356.69 364.58C356.69 257.65 356.71 150.73 356.69 43.8C356.69 23.97 343.93 11.27 324.16 11.26C265.01 11.26 205.86 11.26 146.71 11.26H142.39C143.22 12.34 143.72 13.09 144.31 13.76C150.91 21.23 154.57 29.88 154.9 39.88C154.95 41.5 154.99 43.12 154.99 44.74C154.99 126.96 154.99 209.18 154.99 291.41C154.99 292.91 155.06 294.42 154.83 295.89C154.42 298.54 152.74 300.1 150.07 300.38C147.25 300.67 145.14 299.49 144.27 296.75C143.83 295.36 143.79 293.81 143.78 292.33C143.75 279.1 143.76 265.88 143.76 252.65C143.76 251.29 143.76 249.92 143.76 247.93C142.09 247.93 140.66 247.93 139.23 247.93C107.03 247.93 74.84 247.97 42.64 247.92C21.59 247.89 4.59999 234.46 1.00999 214.27C-0.27001 207.1 0.25999 199.61 0.0799896 192.26C-0.0300104 187.77 -0.0200104 183.28 0.0899896 178.79C0.18999 174.81 2.59999 172.26 5.87999 172.36C9.04999 172.46 11.22 174.89 11.25 178.75C11.33 187.73 11.2 196.72 11.31 205.7C11.46 217.94 16.68 227.46 27.56 233.21C37.71 238.58 48.08 238.12 57.83 232.01C66.26 226.72 71.51 218.88 71.65 208.88C72.03 183.06 71.84 157.23 71.86 131.4C71.86 130.93 71.69 130.46 71.56 129.82H11.28C11.28 134.93 11.28 139.89 11.28 144.85C11.28 147.47 11.35 150.1 11.2 152.71C11.02 155.89 9.25999 157.79 6.03999 158.05C2.95999 158.3 0.59999 156.31 0.20999 153C-0.0400105 150.91 0.0699896 148.77 0.0599896 146.65C0.0499896 139.79 0.0299896 132.93 0.0599896 126.06C0.0899896 120.26 1.93999 118.4 7.65999 118.4C27.5 118.39 47.34 118.4 67.18 118.4C68.54 118.4 69.9 118.4 71.69 118.4C71.76 116.9 71.87 115.59 71.87 114.28C71.89 105.8 71.86 97.31 71.9 88.83C71.9 87.48 71.71 85.66 72.46 84.87C73.95 83.3 75.93 81.51 77.9 81.26C80.51 80.93 82.54 82.88 82.95 85.76C83.16 87.23 83.1 88.75 83.1 90.24C83.1 127.05 82.91 163.85 83.21 200.66C83.32 214.08 80.69 226.15 70.44 236.41H143.51C143.59 235.5 143.74 234.54 143.74 233.59C143.75 169.96 143.79 106.33 143.72 42.69C143.7 24.29 130.09 10.82 112.41 11.32C96.11 11.78 83.49 25.04 83.14 42.22C83.02 48.21 83.16 54.2 83.09 60.19C83.04 64.47 81.08 66.74 77.62 66.77C74.16 66.8 71.89 64.48 71.94 60.33C72.05 51.48 71.49 42.49 72.86 33.83C75.6 16.54 89.23 3.79 106.65 0.64C107.24 0.53 107.79 0.22 108.36 0C182.74 0 257.12 0 331.5 0H331.49Z" fill="#555555"/>
<path d="M250.37 121.96C250.37 116.94 250.37 111.98 250.37 107.03C250.37 101.05 250.23 95.0599 250.43 89.0799C250.53 86.2399 249.94 84.3899 247 83.3999C245.03 82.7299 243.26 81.4299 241.42 80.3899C232.58 75.3699 229.01 67.6299 230.46 57.7699C231.9 48.0099 237.21 40.8799 246.8 37.8399C249.94 36.8499 250.7 35.4299 250.38 32.5999C250.27 31.6199 250.35 30.5999 250.45 29.6099C250.75 26.5899 252.43 24.7799 255.47 24.5599C258.67 24.3299 261.53 26.0199 261.2 29.0399C260.49 35.5899 264.03 37.3299 269.32 38.5999C271.98 39.2399 274.45 41.1199 276.72 42.8099C279.51 44.8899 279.91 48.2599 278.06 50.7099C276.17 53.2199 273.1 53.5799 270.08 51.6999C268.39 50.6499 266.69 49.6199 264.93 48.7099C264.08 48.2799 263.07 48.1599 261.59 47.7499C261.59 54.7799 262.04 61.5099 261.46 68.1399C260.88 74.7799 262.49 78.3899 269.48 80.7799C280.31 84.4799 285.76 94.3599 285.26 105.79C284.73 117.73 276.76 128.59 265.3 132.07C261.98 133.08 261.3 134.63 261.55 137.57C261.67 139.04 261.59 140.59 261.25 142.02C260.55 144.99 258.45 146.39 255.46 146.16C252.63 145.95 250.23 144.21 250.62 141.48C251.56 134.78 248.38 133.11 242.44 132.24C238.33 131.64 234.41 129.04 230.64 126.92C227.46 125.14 226.77 122 228.34 119.26C229.96 116.44 233.11 115.9 236.5 117.42C240.43 119.18 244.5 120.61 248.53 122.13C248.93 122.28 249.47 122.04 250.37 121.92V121.96ZM261.79 121.3C269.8 118.59 274.61 111.28 274.06 103.21C273.59 96.3199 269.08 91.4099 261.79 90.0599V121.3ZM250.22 48.6899C244.11 50.9299 240.94 56.1799 241.47 62.5999C241.87 67.4099 245.08 70.7699 250.22 71.6199V48.6899Z" fill="#29913C"/>
<path d="M285.45 292C301.53 292 317.62 291.92 333.7 292.1C335.71 292.12 338.24 293.01 339.6 294.4C342.42 297.28 340.41 302.26 336.38 303.09C335.3 303.31 334.14 303.23 333.02 303.23C301.1 303.23 269.18 303.23 237.26 303.23C236.51 303.23 235.76 303.27 235.02 303.2C231.78 302.92 229.63 300.7 229.61 297.66C229.59 294.62 231.71 292.27 234.95 292.05C237.56 291.87 240.18 291.99 242.8 291.99C257.01 291.99 271.23 291.99 285.44 291.99L285.45 292Z" fill="#29913C"/>
<path d="M285.05 245.06C268.97 245.06 252.89 245.14 236.81 244.97C234.78 244.95 232.24 244.17 230.86 242.8C228.06 240.05 229.73 235.29 233.59 234.24C235 233.85 236.55 233.85 238.03 233.85C269.44 233.83 300.86 233.83 332.27 233.83C333.02 233.83 333.77 233.8 334.51 233.85C338.54 234.09 340.95 236.35 340.81 239.73C340.67 242.98 338.37 245.02 334.41 245.03C317.96 245.08 301.5 245.05 285.05 245.05V245.06Z" fill="#29913C"/>
<path d="M285.51 175.8C301.09 175.8 316.68 175.8 332.26 175.8C333.51 175.8 334.77 175.73 335.99 175.9C338.83 176.29 340.49 178.02 340.75 180.83C341.01 183.64 339.72 185.7 336.99 186.55C335.71 186.95 334.3 187.01 332.94 187.01C301.15 187.03 269.36 187.04 237.57 187.01C236.1 187.01 234.54 186.94 233.17 186.47C230.46 185.55 228.89 183.22 229.82 180.65C230.49 178.77 232.58 177.23 234.34 175.99C235.19 175.39 236.76 175.8 238.01 175.8C253.84 175.8 269.67 175.8 285.51 175.8Z" fill="#29913C"/>
<path d="M276.04 323.51C262.95 323.51 249.87 323.52 236.78 323.51C231.98 323.51 229.55 321.58 229.6 317.9C229.65 314.26 232.12 312.34 236.92 312.34C263.09 312.33 289.26 312.27 315.43 312.46C317.59 312.48 320.23 313.79 321.71 315.37C322.64 316.37 322.58 319.65 321.63 320.72C320.29 322.23 317.72 323.36 315.65 323.4C302.44 323.63 289.23 323.52 276.02 323.52L276.04 323.51Z" fill="#555555"/>
<path d="M276.11 207.35C263.02 207.35 249.94 207.38 236.85 207.31C235.29 207.31 233.14 207.25 232.3 206.3C230.97 204.81 229.6 202.35 229.94 200.65C230.29 198.95 232.61 197.52 234.29 196.28C234.95 195.8 236.23 196.13 237.22 196.13C263.14 196.13 289.07 196.13 314.99 196.13C315.61 196.13 316.24 196.11 316.86 196.15C320.37 196.36 322.61 198.54 322.61 201.72C322.61 204.88 320.39 207.21 316.86 207.31C311.63 207.45 306.39 207.36 301.16 207.36C292.81 207.36 284.46 207.36 276.11 207.36V207.35Z" fill="#555555"/>
<path d="M276.2 254.29C288.91 254.29 301.62 254.29 314.33 254.29C315.57 254.29 316.84 254.24 318.06 254.45C320.87 254.94 322.46 256.7 322.59 259.55C322.72 262.39 321.37 264.38 318.6 265.1C317.18 265.47 315.64 265.49 314.16 265.49C288.86 265.51 263.57 265.51 238.27 265.5C232.16 265.5 229.56 263.77 229.61 259.75C229.66 255.81 232.02 254.28 238.06 254.27C250.77 254.27 263.48 254.27 276.19 254.27L276.2 254.29Z" fill="#555555"/>
<path d="M188.492 197.614C195.102 190.984 201.222 184.764 207.452 178.664C208.652 177.484 210.342 175.914 211.712 176.004C213.672 176.134 216.102 177.154 217.312 178.634C219.172 180.904 218.312 183.614 216.252 185.694C210.542 191.454 204.792 197.174 199.062 202.914C197.032 204.944 195.062 207.044 192.952 208.974C190.032 211.644 187.202 211.664 184.342 208.914C180.472 205.194 176.672 201.404 172.972 197.524C170.422 194.854 170.392 191.844 172.612 189.504C174.922 187.064 178.122 187.054 180.892 189.714C183.412 192.124 185.742 194.734 188.492 197.614V197.614Z" fill="#29913C"/>
<path d="M188.492 257.614C195.102 250.984 201.222 244.764 207.452 238.664C208.652 237.484 210.342 235.914 211.712 236.004C213.672 236.134 216.102 237.154 217.312 238.634C219.172 240.904 218.312 243.614 216.252 245.694C210.542 251.454 204.792 257.174 199.062 262.914C197.032 264.944 195.062 267.044 192.952 268.974C190.032 271.644 187.202 271.664 184.342 268.914C180.472 265.194 176.672 261.404 172.972 257.524C170.422 254.854 170.392 251.844 172.612 249.504C174.922 247.064 178.122 247.054 180.892 249.714C183.412 252.124 185.742 254.734 188.492 257.614V257.614Z" fill="#29913C"/>
<path d="M188.492 317.614C195.102 310.984 201.222 304.764 207.452 298.664C208.652 297.484 210.342 295.914 211.712 296.004C213.672 296.134 216.102 297.154 217.312 298.634C219.172 300.904 218.312 303.614 216.252 305.694C210.542 311.454 204.792 317.174 199.062 322.914C197.032 324.944 195.062 327.044 192.952 328.974C190.032 331.644 187.202 331.664 184.342 328.914C180.472 325.194 176.672 321.404 172.972 317.524C170.422 314.854 170.392 311.844 172.612 309.504C174.922 307.064 178.122 307.054 180.892 309.714C183.412 312.124 185.742 314.734 188.492 317.614V317.614Z" fill="#29913C"/>
</g>
<defs>
<clipPath id="clip0_503_642">
<rect width="367.94" height="383.21" fill="white"/>
</clipPath>
</defs>
</svg>
