<svg width="50" height="50" viewBox="0 0 50 50" fill="none" xmlns="http://www.w3.org/2000/svg">
<g clip-path="url(#clip0_557_575)">
<path d="M23.1601 24.5296C18.1695 24.5296 13.1773 24.5296 8.18672 24.5296C6.11939 24.5296 4.97974 23.3868 4.97974 21.3147C4.97974 15.8268 4.97974 10.3373 4.97974 4.8494C4.97974 2.78686 6.12258 1.65039 8.19947 1.65039C18.1424 1.65039 28.0853 1.65039 38.0266 1.65039C40.0621 1.65039 41.2193 2.79802 41.2193 4.81752C41.2208 10.3453 41.2208 15.873 41.2193 21.4023C41.2193 23.4075 40.0764 24.5472 38.0728 24.5472C33.1014 24.5487 28.1299 24.5472 23.1601 24.5472C23.1601 24.5408 23.1601 24.5344 23.1601 24.5296V24.5296ZM12.5206 22.6042H33.6688C34.351 19.4832 36.2398 17.6295 39.3097 16.9728V9.2072C36.1936 8.53297 34.316 6.64257 33.6624 3.5647H12.5302C11.8607 6.66967 9.98785 8.53934 6.89882 9.20401V16.984C10.0994 17.7443 11.7715 19.4163 12.5222 22.6042H12.5206ZM10.5649 3.53441C9.61328 3.53441 8.70315 3.51688 7.79302 3.54079C7.27021 3.55354 6.9052 3.86914 6.8797 4.38398C6.83347 5.32758 6.86695 6.27437 6.86695 7.22435C8.62505 7.02033 10.2732 5.38496 10.5649 3.53441ZM35.6421 3.53441C35.8748 5.3499 37.7509 7.19407 39.3352 7.1861C39.3352 6.27597 39.3575 5.36583 39.3273 4.4573C39.3081 3.90899 38.9686 3.5631 38.4203 3.54398C37.5118 3.5121 36.6001 3.53601 35.6421 3.53601V3.53441ZM10.5553 22.6328C10.3321 20.8349 8.46406 18.9971 6.86376 18.9891C6.86376 19.8993 6.84941 20.8094 6.87013 21.7179C6.88129 22.2152 7.17936 22.5882 7.65913 22.6153C8.62026 22.6711 9.58619 22.6313 10.5553 22.6313V22.6328ZM39.3368 18.9493C37.515 19.1884 35.6692 21.0708 35.6867 22.644C36.5953 22.644 37.507 22.6663 38.4155 22.636C38.9638 22.6169 39.3097 22.2758 39.3289 21.7259C39.3607 20.8174 39.3368 19.9056 39.3368 18.9493V18.9493Z" fill="#455A64"/>
<path d="M35.1862 31.6896C35.3919 31.4983 35.5512 31.3596 35.7011 31.2114C37.4225 29.5043 39.1296 27.7813 40.8654 26.0885C43.0092 23.9989 46.2337 24.2188 47.9584 26.5476C49.2829 28.3359 49.165 30.8687 47.5838 32.52C45.797 34.3865 43.9401 36.1844 42.1134 38.0127C40.6247 39.503 39.1296 40.9869 37.6489 42.4852C35.5991 44.5589 33.1285 45.5679 30.21 45.5535C25.3007 45.528 20.3914 45.5408 15.4837 45.5217C15.0757 45.5201 14.776 45.6205 14.4907 45.9201C13.8356 46.6135 13.1518 47.2798 12.4728 47.9492C11.8735 48.539 11.4192 48.5469 10.8342 47.9636C7.75316 44.8889 4.67529 41.811 1.6006 38.7299C1.00925 38.137 1.00607 37.6827 1.59422 37.093C3.95164 34.7276 6.30109 32.3558 8.68242 30.0127C10.4501 28.2722 12.6099 27.4306 15.0868 27.4242C20.2352 27.4115 25.382 27.4083 30.5304 27.4051C33.0153 27.4035 34.7097 28.8348 35.1161 31.272C35.1352 31.3835 35.1528 31.4967 35.1846 31.6896H35.1862ZM11.7523 46.0811C12.3405 45.4722 12.9494 44.8729 13.5232 44.2401C13.9121 43.8114 14.3504 43.636 14.937 43.636C19.985 43.6472 25.0345 43.6105 30.0825 43.6376C32.5674 43.6504 34.6427 42.8136 36.3865 41.0379C38.6977 38.6853 41.0567 36.3805 43.3918 34.0502C44.3338 33.1097 45.2822 32.1725 46.1939 31.2034C47.2682 30.0622 47.2092 28.3359 46.0999 27.2919C45.0224 26.2782 43.3057 26.2941 42.2728 27.3318C39.8309 29.7816 37.346 32.1901 34.9711 34.7021C34.045 35.6823 33.095 36.1 31.7481 36.0266C29.7462 35.9182 27.7346 36.0011 25.7279 35.9964C25.0712 35.9948 24.6568 35.6266 24.6456 35.0607C24.6344 34.4885 25.0345 34.1107 25.6864 34.0836C25.8458 34.0773 26.0052 34.082 26.163 34.082C27.733 34.082 29.3031 34.1012 30.8731 34.0741C32.2168 34.0518 33.2576 32.9504 33.2241 31.6465C33.1906 30.3331 32.145 29.3019 30.8508 29.3019C25.6832 29.3019 20.5141 29.3194 15.3466 29.2923C13.1135 29.2811 11.2502 30.0462 9.68819 31.6354C7.77866 33.5768 5.84045 35.4895 3.91498 37.4165C3.76515 37.5664 3.62489 37.7274 3.51013 37.8517C6.25327 40.59 8.96136 43.2949 11.7491 46.0795L11.7523 46.0811Z" fill="#455A64"/>
<path d="M29.7637 13.0737C29.7701 16.7222 26.7911 19.7363 23.1601 19.7554C19.4638 19.7762 16.4401 16.7716 16.4337 13.0721C16.4274 9.44433 19.4399 6.42702 23.0708 6.42383C26.7512 6.41905 29.7574 9.40607 29.7637 13.0753V13.0737ZM23.1314 8.30307C20.4584 8.29829 18.3146 10.4342 18.313 13.104C18.313 15.7116 20.4409 17.8587 23.0374 17.8746C25.7199 17.8905 27.8781 15.7658 27.8829 13.1056C27.8877 10.4613 25.7582 8.30945 23.1298 8.30467L23.1314 8.30307Z" fill="#455A64"/>
<path d="M11.6886 12.1527C11.9867 12.1527 12.2863 12.1368 12.5828 12.1559C13.1471 12.1926 13.5424 12.5958 13.5328 13.1043C13.5248 13.592 13.1503 13.9969 12.6131 14.0192C11.958 14.0479 11.3013 14.0495 10.6462 14.016C10.1138 13.9889 9.74722 13.5649 9.75519 13.0756C9.76316 12.5863 10.1361 12.1973 10.6733 12.1591C11.0096 12.1352 11.3491 12.1543 11.687 12.1543C11.687 12.1543 11.687 12.1543 11.687 12.1527H11.6886Z" fill="#455A64"/>
<path d="M34.5981 12.1527C34.8962 12.1527 35.1958 12.1368 35.4923 12.1559C36.0565 12.1926 36.4518 12.5974 36.4423 13.1043C36.4343 13.592 36.0581 13.9953 35.5226 14.0192C34.8675 14.0479 34.2108 14.0495 33.5557 14.016C33.0233 13.9889 32.6567 13.5649 32.6663 13.0756C32.6758 12.5863 33.0488 12.1989 33.586 12.1591C33.9223 12.1352 34.2618 12.1543 34.5997 12.1543C34.5997 12.1543 34.5997 12.1543 34.5997 12.1527H34.5981Z" fill="#455A64"/>
</g>
<defs>
<clipPath id="clip0_557_575">
<rect width="50" height="50" fill="white"/>
</clipPath>
</defs>
</svg>
