<svg width="443" height="330" viewBox="0 0 443 330" fill="none" xmlns="http://www.w3.org/2000/svg">
<path d="M442.749 289.912H0V290.133H442.749V289.912Z" fill="#EBEBEB"/>
<path d="M398.385 304.159H369.058V304.381H398.385V304.159Z" fill="#EBEBEB"/>
<path d="M241.936 301.388H230.521V301.609H241.936V301.388Z" fill="#EBEBEB"/>
<path d="M309.632 302.327H285.599V302.548H309.632V302.327Z" fill="#EBEBEB"/>
<path d="M368.172 295.942H318.487V296.163H368.172V295.942Z" fill="#EBEBEB"/>
<path d="M69.9454 306.187H46.4531V306.408H69.9454V306.187Z" fill="#EBEBEB"/>
<path d="M98.1929 306.187H77.8264V306.408H98.1929V306.187Z" fill="#EBEBEB"/>
<path d="M169.847 301.282H116V301.503H169.847V301.282Z" fill="#EBEBEB"/>
<path d="M209.863 250.419H38.8822C37.5427 250.416 36.2589 249.883 35.3126 248.935C34.3663 247.987 33.8348 246.702 33.8348 245.362V5.01191C33.8465 3.68015 34.3831 2.40676 35.3282 1.46835C36.2732 0.529933 37.5504 0.00228138 38.8822 0H209.863C211.204 0 212.49 0.532704 213.438 1.48092C214.386 2.42914 214.919 3.7152 214.919 5.05619V245.362C214.919 246.703 214.386 247.989 213.438 248.938C212.49 249.886 211.204 250.419 209.863 250.419V250.419ZM38.8822 0.1771C37.6014 0.179446 36.374 0.68986 35.4692 1.59631C34.5644 2.50276 34.0562 3.73117 34.0562 5.01191V245.362C34.0562 246.643 34.5644 247.872 35.4692 248.778C36.374 249.684 37.6014 250.195 38.8822 250.197H209.863C211.144 250.195 212.373 249.685 213.279 248.779C214.185 247.872 214.695 246.644 214.698 245.362V5.01191C214.695 3.73036 214.185 2.50197 213.279 1.59577C212.373 0.689572 211.144 0.179441 209.863 0.1771H38.8822Z" fill="#EBEBEB"/>
<path d="M401.405 250.419H230.415C229.075 250.416 227.79 249.883 226.843 248.935C225.895 247.987 225.361 246.703 225.359 245.362V5.01191C225.373 3.67934 225.912 2.40596 226.858 1.46779C227.805 0.529624 229.083 0.0022565 230.415 0H401.405C402.735 0.00460857 404.01 0.53329 404.953 1.47146C405.896 2.40962 406.432 3.68168 406.443 5.01191V245.362C406.443 246.7 405.913 247.984 404.969 248.931C404.024 249.879 402.743 250.414 401.405 250.419V250.419ZM230.415 0.1771C229.134 0.179441 227.905 0.689572 226.999 1.59577C226.093 2.50197 225.583 3.73036 225.581 5.01191V245.362C225.583 246.644 226.093 247.872 226.999 248.779C227.905 249.685 229.134 250.195 230.415 250.197H401.405C402.686 250.195 403.915 249.685 404.821 248.779C405.727 247.872 406.237 246.644 406.24 245.362V5.01191C406.237 3.73036 405.727 2.50197 404.821 1.59577C403.915 0.689572 402.686 0.179441 401.405 0.1771H230.415Z" fill="#EBEBEB"/>
<path d="M57.3891 289.912H63.7823L63.7823 17.7098H57.3891L57.3891 289.912Z" fill="#E0E0E0"/>
<path d="M60.5856 289.912H228.865L228.865 26.7596H60.5856L60.5856 289.912Z" fill="#F5F5F5"/>
<path d="M79.199 187.238H150.481V75.7629L80.2881 75.3379L79.199 187.238Z" fill="#E0E0E0"/>
<path d="M80.2793 186.45H151.562V74.9838L80.2793 74.9838L80.2793 186.45Z" fill="white"/>
<path d="M115.929 132.019C127.383 132.019 136.668 122.734 136.668 111.28C136.668 99.8269 127.383 90.542 115.929 90.542C104.476 90.542 95.1909 99.8269 95.1909 111.28C95.1909 122.734 104.476 132.019 115.929 132.019Z" fill="#F5F5F5"/>
<path d="M120.727 163.807C127.125 161.157 130.163 153.822 127.513 147.425C124.863 141.027 117.528 137.989 111.13 140.639C104.732 143.289 101.694 150.623 104.344 157.021C106.994 163.419 114.329 166.457 120.727 163.807Z" fill="#F5F5F5"/>
<path d="M379.267 289.912H385.661L385.661 17.7098H379.267L379.267 289.912Z" fill="#E0E0E0"/>
<path d="M343.449 21.252H54.2367V62.1796H343.449V21.252Z" fill="#F0F0F0"/>
<path d="M331.548 31.8779H195.473V51.5537H331.548V31.8779Z" fill="white"/>
<path d="M66.1465 51.5537L184.254 51.5537V31.878L66.1465 31.878V51.5537Z" fill="white"/>
<path d="M343.449 62.1797L388.512 62.1797V21.252L343.449 21.252V62.1797Z" fill="#E0E0E0"/>
<path d="M384.253 31.8779H365.029V51.5537H384.253V31.8779Z" fill="white"/>
<path d="M350.143 51.5537H363.443V31.878H350.143V51.5537Z" fill="white"/>
<path d="M346.876 289.912H193.64L193.64 168.359C193.64 166.011 194.573 163.759 196.234 162.098C197.895 160.437 200.147 159.504 202.495 159.504L338.047 159.504C340.396 159.504 342.648 160.437 344.309 162.098C345.969 163.759 346.902 166.011 346.902 168.359V289.912H346.876Z" fill="#E0E0E0"/>
<path d="M329.104 289.912H175.86L175.86 168.359C175.86 166.011 176.793 163.759 178.453 162.098C180.114 160.437 182.366 159.504 184.715 159.504L320.275 159.504C322.624 159.504 324.876 160.437 326.537 162.098C328.197 163.759 329.13 166.011 329.13 168.359V289.912H329.104Z" fill="#E0E0E0"/>
<path opacity="0.3" d="M326.164 168.36V289.912H178.8V168.36C178.8 166.798 179.42 165.3 180.524 164.196C181.629 163.092 183.126 162.471 184.688 162.471H320.275C321.837 162.471 323.335 163.092 324.439 164.196C325.544 165.3 326.164 166.798 326.164 168.36V168.36Z" fill="white"/>
<path opacity="0.9" d="M326.155 168.36V289.939H180.367V168.36C180.367 166.798 180.987 165.3 182.092 164.196C183.196 163.092 184.694 162.471 186.256 162.471H320.276C321.836 162.474 323.331 163.095 324.434 164.199C325.536 165.303 326.155 166.8 326.155 168.36V168.36Z" fill="white"/>
<path d="M298.103 159.531H286.901L283.563 142.149H294.764L298.103 159.531Z" fill="#E0E0E0"/>
<path d="M304.558 120.569H289.504C288.953 120.582 288.419 120.772 287.983 121.109C287.546 121.447 287.229 121.916 287.078 122.447L280.605 150.34C280.54 150.571 280.532 150.814 280.581 151.048C280.63 151.283 280.736 151.502 280.888 151.687C281.04 151.873 281.235 152.018 281.455 152.112C281.676 152.206 281.916 152.245 282.155 152.226H297.208C297.761 152.212 298.295 152.022 298.732 151.682C299.169 151.343 299.485 150.872 299.635 150.34L306.108 122.447C306.171 122.216 306.178 121.974 306.128 121.741C306.078 121.508 305.972 121.29 305.82 121.106C305.668 120.921 305.474 120.777 305.255 120.683C305.035 120.59 304.796 120.551 304.558 120.569V120.569Z" fill="#E6E6E6"/>
<path d="M297.669 148.932H283.217C283.091 148.942 282.965 148.921 282.848 148.872C282.732 148.823 282.629 148.747 282.548 148.65C282.467 148.552 282.411 148.437 282.384 148.314C282.358 148.19 282.361 148.062 282.394 147.94L288.282 122.579C288.362 122.298 288.53 122.05 288.761 121.872C288.992 121.693 289.274 121.593 289.566 121.587H304.018C304.144 121.577 304.27 121.598 304.387 121.647C304.503 121.696 304.606 121.772 304.687 121.87C304.768 121.967 304.824 122.082 304.851 122.206C304.878 122.329 304.874 122.457 304.841 122.579L298.953 147.94C298.873 148.221 298.705 148.469 298.474 148.647C298.243 148.826 297.961 148.926 297.669 148.932V148.932Z" fill="white"/>
<path d="M267.81 159.531H256.599L253.261 142.149H264.463L267.81 159.531Z" fill="#E0E0E0"/>
<path d="M277.373 117.231H258.406C257.854 117.244 257.321 117.433 256.884 117.771C256.448 118.108 256.131 118.577 255.98 119.108L248.727 150.34C248.664 150.571 248.658 150.814 248.708 151.049C248.759 151.283 248.865 151.502 249.017 151.687C249.17 151.872 249.365 152.017 249.586 152.111C249.807 152.205 250.047 152.244 250.286 152.226H269.244C269.797 152.212 270.331 152.022 270.768 151.682C271.205 151.343 271.521 150.872 271.671 150.34L278.932 119.108C278.995 118.877 279.002 118.634 278.952 118.4C278.901 118.166 278.795 117.947 278.642 117.763C278.489 117.579 278.294 117.434 278.073 117.341C277.852 117.249 277.612 117.211 277.373 117.231Z" fill="#E6E6E6"/>
<path d="M269.705 148.932H251.348C251.223 148.942 251.096 148.922 250.98 148.873C250.863 148.824 250.761 148.747 250.681 148.65C250.6 148.552 250.545 148.437 250.52 148.313C250.494 148.189 250.499 148.061 250.534 147.94L257.193 119.241C257.272 118.96 257.44 118.712 257.671 118.533C257.902 118.355 258.185 118.255 258.477 118.249H276.824C276.951 118.237 277.078 118.256 277.196 118.304C277.313 118.353 277.417 118.429 277.499 118.527C277.58 118.625 277.636 118.741 277.662 118.865C277.688 118.99 277.683 119.119 277.648 119.241L270.962 147.94C270.884 148.217 270.72 148.462 270.494 148.64C270.269 148.818 269.992 148.92 269.705 148.932Z" fill="white"/>
<path d="M233.346 159.531H222.145L218.806 142.149H230.008L233.346 159.531Z" fill="#E0E0E0"/>
<path d="M245.504 113.052H221.321C220.769 113.065 220.236 113.254 219.799 113.592C219.363 113.929 219.046 114.398 218.895 114.929L210.669 150.349C210.605 150.58 210.599 150.823 210.649 151.058C210.7 151.292 210.806 151.511 210.959 151.696C211.111 151.881 211.306 152.026 211.527 152.12C211.748 152.214 211.988 152.253 212.227 152.235H236.428C236.981 152.221 237.515 152.031 237.951 151.691C238.388 151.352 238.704 150.881 238.854 150.349L247.071 114.929C247.137 114.697 247.146 114.452 247.096 114.217C247.046 113.981 246.939 113.761 246.784 113.575C246.63 113.39 246.432 113.246 246.209 113.155C245.986 113.063 245.744 113.028 245.504 113.052Z" fill="#E6E6E6"/>
<path d="M236.871 148.932H213.299C213.172 148.944 213.045 148.925 212.927 148.877C212.809 148.828 212.706 148.752 212.624 148.654C212.543 148.556 212.487 148.44 212.461 148.315C212.435 148.191 212.44 148.062 212.475 147.94L220.108 115.061C220.188 114.78 220.355 114.532 220.587 114.354C220.818 114.175 221.1 114.076 221.392 114.07H244.964C245.09 114.059 245.216 114.079 245.333 114.128C245.449 114.177 245.552 114.254 245.632 114.352C245.712 114.449 245.767 114.565 245.793 114.688C245.818 114.812 245.814 114.94 245.779 115.061L238.199 147.94C238.116 148.227 237.941 148.48 237.701 148.659C237.462 148.838 237.17 148.934 236.871 148.932V148.932Z" fill="white"/>
<path d="M298.103 187.132H188.876V195.987H298.103V187.132Z" fill="#F0F0F0"/>
<path d="M260.531 205.958H188.876V214.813H260.531V205.958Z" fill="#F0F0F0"/>
<path d="M282.367 224.784H188.876V233.639H282.367V224.784Z" fill="#F0F0F0"/>
<path d="M221.374 329.901C316.196 329.901 393.063 325.413 393.063 319.877C393.063 314.341 316.196 309.853 221.374 309.853C126.553 309.853 49.6853 314.341 49.6853 319.877C49.6853 325.413 126.553 329.901 221.374 329.901Z" fill="#F5F5F5"/>
<path d="M139.422 309.756L146.231 308.18L143.575 292.241L136.756 293.826L139.422 309.756Z" fill="#CE7A63"/>
<path d="M146.417 307.268L138.758 309.039C138.628 309.064 138.513 309.14 138.439 309.249C138.364 309.359 138.336 309.493 138.359 309.623L139.351 315.742C139.385 315.899 139.451 316.048 139.543 316.18C139.635 316.311 139.752 316.424 139.888 316.51C140.024 316.597 140.175 316.655 140.334 316.683C140.492 316.711 140.655 316.707 140.812 316.672C143.468 316.007 144.708 315.556 148.073 314.777C150.145 314.298 158.991 312.465 161.851 311.801C164.711 311.137 163.994 308.339 162.737 308.366C157.043 308.481 149.95 308.463 147.683 307.409C147.288 307.223 146.843 307.174 146.417 307.268V307.268Z" fill="#263238"/>
<path opacity="0.2" d="M136.756 293.835L143.575 292.25L144.947 300.458L138.129 302.043L136.756 293.835Z" fill="black"/>
<path d="M126.529 135.623C126.529 135.623 135.481 192.419 138.138 212.227C141.024 233.931 147.117 297.386 147.117 297.386L134.773 300.786C134.773 300.786 123.084 239.297 118.267 218.205C113.034 195.314 101.593 135.623 101.593 135.623H126.529Z" fill="#29913B"/>
<path opacity="0.5" d="M126.529 135.623C126.529 135.623 135.481 192.419 138.138 212.227C141.024 233.931 147.117 297.386 147.117 297.386L134.773 300.786C134.773 300.786 123.084 239.297 118.267 218.205C113.034 195.314 101.593 135.623 101.593 135.623H126.529Z" fill="white"/>
<path opacity="0.3" d="M111.883 155.573C116.602 167.607 116.31 191.418 114.3 199.804C111.458 186.034 108.199 169.555 105.693 156.751C106.649 153.466 109.014 148.25 111.883 155.573Z" fill="black"/>
<path d="M134.472 301.034L147.692 297.395L147.48 292.02L132.586 297.155L134.472 301.034Z" fill="#29913B"/>
<path d="M149.091 307.932C148.476 308.055 147.85 308.115 147.223 308.109C147.192 308.11 147.161 308.102 147.135 308.084C147.11 308.066 147.091 308.041 147.081 308.011C147.064 307.985 147.054 307.954 147.054 307.923C147.054 307.891 147.064 307.86 147.081 307.834C147.267 307.639 148.896 305.877 149.8 306.01C149.902 306.022 150 306.062 150.082 306.124C150.164 306.186 150.229 306.269 150.269 306.364C150.347 306.499 150.387 306.652 150.387 306.807C150.387 306.962 150.347 307.115 150.269 307.25C149.972 307.612 149.553 307.854 149.091 307.932ZM147.612 307.781C148.879 307.737 149.773 307.489 150.021 307.099C150.073 307.009 150.1 306.907 150.1 306.803C150.1 306.698 150.073 306.596 150.021 306.506C150.004 306.459 149.974 306.418 149.935 306.387C149.896 306.355 149.849 306.335 149.8 306.329C149.295 306.258 148.285 307.09 147.612 307.781V307.781Z" fill="#29913B"/>
<path d="M147.258 308.1H147.187C147.161 308.094 147.136 308.081 147.116 308.062C147.096 308.043 147.081 308.02 147.072 307.994C147.072 307.914 146.452 305.993 146.993 305.178C147.06 305.072 147.151 304.982 147.259 304.916C147.366 304.85 147.487 304.81 147.612 304.797C147.748 304.769 147.89 304.787 148.014 304.85C148.138 304.913 148.237 305.016 148.294 305.143C148.622 305.851 147.922 307.498 147.338 308.065C147.317 308.086 147.288 308.099 147.258 308.1V308.1ZM147.568 305.134C147.442 305.168 147.332 305.247 147.258 305.355C147.016 306.088 147.016 306.88 147.258 307.613C147.779 306.954 148.029 306.121 147.958 305.284C147.958 305.196 147.843 305.098 147.603 305.125L147.568 305.134Z" fill="#29913B"/>
<path d="M128.999 82.4399C129.672 84.2995 130.39 86.3273 131.142 88.2488C131.895 90.1703 132.648 92.1273 133.453 94.0311C134.965 97.7711 136.74 101.399 138.766 104.887L139.519 106.065L139.811 106.517C139.862 106.608 139.921 106.694 139.988 106.773C140.105 106.943 140.238 107.101 140.387 107.243C140.731 107.389 141.115 107.414 141.476 107.314C142.194 107.186 142.889 106.953 143.539 106.623C146.621 105.162 149.924 102.337 152.837 99.6274L157.061 102.736C155.917 104.772 154.593 106.701 153.103 108.5C151.546 110.418 149.745 112.124 147.745 113.574C146.574 114.41 145.297 115.086 143.947 115.584C142.249 116.206 140.421 116.389 138.634 116.115C136.68 115.788 134.865 114.892 133.418 113.539C133.105 113.243 132.81 112.929 132.533 112.6L132.125 112.131L131.851 111.768L130.726 110.307C128.054 106.527 125.744 102.504 123.828 98.2903C122.889 96.236 121.986 94.1816 121.172 92.0919C120.357 90.0021 119.595 87.9566 118.914 85.7163L128.999 82.4399Z" fill="#CE7A63"/>
<path d="M124.271 75.2673C117.346 73.6557 113.14 78.0743 115.221 86.7787C116.509 91.7405 118.088 96.6221 119.95 101.398C120.357 102.47 120.729 103.426 121.039 104.196L136.774 95.43C135.038 88.5497 128.911 76.3564 124.271 75.2673Z" fill="#263238"/>
<path opacity="0.3" d="M124.572 83.4937C120.392 79.7657 124.669 94.89 126.422 101.204L131.045 98.6268C130.584 94.2436 127.786 86.3538 124.572 83.4937Z" fill="black"/>
<path d="M87.7705 312.749H94.7482L95.7843 296.588H88.7977L87.7705 312.749Z" fill="#CE7A63"/>
<path d="M95.1203 311.943H87.2836C87.2178 311.94 87.1519 311.949 87.0898 311.971C87.0277 311.994 86.9706 312.028 86.922 312.072C86.8733 312.117 86.834 312.171 86.8064 312.231C86.7788 312.291 86.7634 312.355 86.7612 312.421L86.3273 318.62C86.3249 318.781 86.3545 318.941 86.4143 319.091C86.4741 319.241 86.563 319.377 86.6758 319.492C86.7885 319.607 86.923 319.699 87.0714 319.762C87.2198 319.825 87.3792 319.858 87.5404 319.859C90.2677 319.815 91.5783 319.656 95.0229 319.656C97.1481 319.656 106.162 319.877 109.085 319.877C112.007 319.877 111.954 316.982 110.714 316.716C105.162 315.538 98.3169 313.918 96.3157 312.368C95.9748 312.099 95.5546 311.949 95.1203 311.943V311.943Z" fill="#263238"/>
<path opacity="0.2" d="M88.7977 296.597H95.7842L95.2441 304.93H88.2664L88.7977 296.597Z" fill="black"/>
<path d="M112.901 135.623C112.901 135.623 113.149 188.585 111.856 208.561C110.448 230.442 98.2902 302.911 98.2902 302.911H85.4771C85.4771 302.911 91.8261 232.204 91.2239 210.545C90.5775 187.035 89.2138 135.623 89.2138 135.623H112.901Z" fill="#29913B"/>
<path opacity="0.5" d="M112.901 135.623C112.901 135.623 113.149 188.585 111.856 208.561C110.448 230.442 98.2902 302.911 98.2902 302.911H85.4771C85.4771 302.911 91.8261 232.204 91.2239 210.545C90.5775 187.035 89.2138 135.623 89.2138 135.623H112.901Z" fill="white"/>
<path d="M84.9546 302.911H98.7684L99.5742 298.067L84.3259 298.82L84.9546 302.911Z" fill="#29913B"/>
<path d="M97.5819 313.156C96.955 313.14 96.3317 313.057 95.7224 312.908C95.693 312.902 95.6663 312.886 95.6458 312.864C95.6252 312.842 95.6118 312.814 95.6073 312.784C95.587 312.753 95.5785 312.715 95.5834 312.678C95.5882 312.64 95.6061 312.606 95.6338 312.581C95.8641 312.43 97.8476 311.075 98.6976 311.412C98.794 311.45 98.8789 311.513 98.9441 311.593C99.0092 311.674 99.0525 311.77 99.0696 311.872C99.1176 312.025 99.1233 312.189 99.0859 312.345C99.0484 312.5 98.9693 312.643 98.857 312.758C98.4948 313.042 98.0413 313.184 97.5819 313.156V313.156ZM96.174 312.669C97.4225 312.926 98.3435 312.882 98.6711 312.563C98.7385 312.484 98.7845 312.388 98.8047 312.286C98.8248 312.184 98.8185 312.078 98.7862 311.979C98.7802 311.928 98.7606 311.88 98.7294 311.839C98.6982 311.799 98.6566 311.767 98.6091 311.748C98.1486 311.571 96.9886 312.156 96.174 312.669V312.669Z" fill="#29913B"/>
<path d="M95.7579 312.917H95.687C95.6629 312.904 95.6423 312.884 95.6269 312.861C95.6116 312.838 95.6018 312.812 95.5985 312.784C95.5985 312.696 95.4568 310.686 96.1652 310.013C96.255 309.924 96.364 309.857 96.4837 309.817C96.6035 309.777 96.7308 309.765 96.8559 309.783C96.9948 309.788 97.1279 309.839 97.2339 309.929C97.3399 310.019 97.4126 310.142 97.4403 310.278C97.5909 311.04 96.5548 312.492 95.8464 312.935C95.8158 312.938 95.7849 312.932 95.7579 312.917V312.917ZM96.7408 310.084C96.6752 310.082 96.6099 310.093 96.5489 310.118C96.488 310.142 96.4327 310.179 96.3866 310.225C95.9968 310.897 95.8295 311.675 95.9084 312.448C96.5194 311.934 97.2278 310.827 97.1215 310.323C97.1215 310.234 97.0507 310.119 96.8116 310.092L96.7408 310.084Z" fill="#29913B"/>
<path d="M126.529 135.623H89.214C88.9749 132.284 89.8338 121.455 89.3645 107.641C89.0908 97.4119 87.9294 87.2259 85.8933 77.1977C85.7339 76.445 85.5657 75.7012 85.3975 74.9485C85.3975 74.9485 87.2924 74.5677 90.002 74.1693C92.2601 73.8416 95.0848 73.4963 97.8475 73.3723C103.13 73.0666 108.425 73.0666 113.707 73.3723C116.142 73.5937 118.524 74.001 120.419 74.3641C122.845 74.8511 124.271 75.2496 124.271 75.2496C124.271 75.2496 133.303 96.3775 126.529 135.623Z" fill="#263238"/>
<path d="M112.804 95.9262C112.712 95.9257 112.623 95.898 112.547 95.8465C112.396 95.7402 97.086 84.7866 91.6579 74.0898C91.6054 73.9852 91.5964 73.8641 91.6329 73.753C91.6694 73.6418 91.7485 73.5496 91.8527 73.4965C91.9043 73.4693 91.9608 73.4527 92.0188 73.4478C92.0769 73.4429 92.1354 73.4498 92.1908 73.4679C92.2461 73.4861 92.2973 73.5153 92.3411 73.5537C92.385 73.592 92.4207 73.6389 92.446 73.6913C97.759 84.1933 112.91 95.0141 113.06 95.1292C113.155 95.1968 113.219 95.2987 113.238 95.413C113.258 95.5272 113.232 95.6447 113.167 95.7402C113.125 95.7975 113.07 95.8442 113.007 95.8765C112.944 95.9088 112.874 95.9258 112.804 95.9262Z" fill="#29913B"/>
<path d="M112.804 95.9259C112.712 95.9254 112.623 95.8977 112.547 95.8462C112.499 95.8134 112.459 95.7715 112.428 95.7229C112.396 95.6743 112.375 95.6199 112.365 95.563C112.355 95.5061 112.357 95.4478 112.37 95.3915C112.383 95.3352 112.407 95.2821 112.441 95.2352C116.252 88.8014 117.777 81.2689 116.771 73.8593C116.758 73.7435 116.79 73.6272 116.861 73.5348C116.932 73.4424 117.036 73.381 117.151 73.3634C117.21 73.356 117.269 73.3602 117.325 73.3759C117.382 73.3915 117.435 73.4182 117.481 73.4545C117.527 73.4907 117.566 73.5358 117.594 73.587C117.623 73.6383 117.641 73.6947 117.647 73.753C118.682 81.3777 117.102 89.128 113.167 95.7399C113.126 95.7983 113.072 95.8458 113.008 95.8782C112.945 95.9106 112.875 95.927 112.804 95.9259Z" fill="#29913B"/>
<path d="M118.984 109.173H108.651L107.57 94.3145H117.904L118.984 109.173Z" fill="#29913B"/>
<path d="M118.515 108.35H109.359L108.376 94.8457H117.541L118.515 108.35Z" fill="white"/>
<path d="M113.388 101.664H109.554L109.191 96.7759H113.034L113.388 101.664Z" fill="#29913B"/>
<path d="M117.142 103.7H109.695L109.642 102.939H117.089L117.142 103.7Z" fill="#29913B"/>
<path d="M117.267 105.41H109.819L109.766 104.657H117.213L117.267 105.41Z" fill="#29913B"/>
<path d="M116.7 107.128H109.944L109.89 106.375H116.647L116.7 107.128Z" fill="#29913B"/>
<path opacity="0.3" d="M89.3645 107.641C89.0913 97.4151 87.9299 87.232 85.8933 77.2068C88.3904 76.9855 92.6497 77.2068 93.3315 81.2624C94.0576 85.5925 92.9773 95.7757 89.3645 107.641Z" fill="black"/>
<path d="M92.694 83.8038L88.9572 96.67L87.0799 103.108L85.309 109.527L85.1938 109.926L85.1407 110.121V110.227C85.1553 110.139 85.1553 110.049 85.1407 109.961C85.1407 109.82 85.0699 109.837 85.1407 109.961C85.3271 110.53 85.6285 111.055 86.0262 111.502C87.2956 112.958 88.7209 114.271 90.2766 115.416C93.7585 118.01 97.3829 120.408 101.133 122.597L99.1493 127.45C96.8684 126.824 94.6245 126.07 92.4284 125.192C90.2007 124.306 88.0274 123.289 85.92 122.146C83.6155 120.919 81.4761 119.404 79.5532 117.639C78.3306 116.499 77.3228 115.15 76.578 113.654C76.0811 112.63 75.7807 111.521 75.6925 110.386C75.6502 109.733 75.6829 109.076 75.7899 108.429L75.9758 107.438C76.7905 102.877 77.7468 98.3968 78.898 93.9516C80.0491 89.5064 81.2445 85.0966 82.6613 80.7134L92.694 83.8038Z" fill="#CE7A63"/>
<path d="M85.3974 74.9487C80.7486 76.029 75.533 88.2754 73.6912 95.1646C73.3901 96.3334 73.1422 97.3429 72.9562 98.1133C72.7083 99.1316 72.5754 99.7426 72.5754 99.7426L88.1779 104.17C88.4967 103.4 88.8863 102.399 89.3025 101.372C91.2414 96.6086 92.9001 91.7359 94.2701 86.7789C96.5193 78.0833 92.3486 73.3371 85.3974 74.9487Z" fill="#263238"/>
<path d="M112.954 73.3104C108.358 72.2213 107.57 69.37 107.907 66.2265C107.984 65.4399 108.111 64.6591 108.288 63.8887L102.55 59.0894L98.3346 55.5474C99.468 60.6567 100.717 69.9633 97.2366 73.3724C98.6225 75.4161 100.512 77.0682 102.722 78.1694C104.932 79.2707 107.389 79.7838 109.855 79.6595C113.822 75.3648 112.954 73.3104 112.954 73.3104Z" fill="#CE7A63"/>
<path d="M94.4294 73.3456C95.4193 73.1165 96.4216 72.945 97.4313 72.832C99.1049 75.6833 106.286 79.7123 108.721 79.7123C108.721 79.7123 106.286 80.7749 105.675 84.618C101.938 82.5194 94.7482 77.1444 94.4294 73.3456Z" fill="white"/>
<path d="M114.69 73.3722C113.99 73.1623 113.257 73.0842 112.529 73.142C112.582 75.9313 111.706 77.2241 110.351 79.1368C111.318 79.4745 112.167 80.0847 112.795 80.8938C113.424 81.7029 113.805 82.6764 113.893 83.6971C116.664 80.7661 115.735 75.4708 114.69 73.3722Z" fill="white"/>
<path opacity="0.2" d="M108.288 63.8975C108.111 64.6679 107.984 65.4487 107.907 66.2353C105.755 65.8014 102.505 63.8798 102.213 61.4536C102.229 60.6576 102.342 59.8666 102.55 59.0981L108.288 63.8975Z" fill="black"/>
<path d="M95.6337 47.8169C96.7317 54.6795 97.0328 58.7439 100.858 62.038C106.605 66.9879 114.796 63.2334 115.761 56.238C116.647 49.9421 114.69 39.7766 107.685 37.5097C106.17 36.9858 104.545 36.8671 102.97 37.1656C101.395 37.4641 99.9253 38.1693 98.7071 39.2112C97.4889 40.253 96.5643 41.5954 96.0252 43.105C95.4861 44.6146 95.3511 46.239 95.6337 47.8169V47.8169Z" fill="#CE7A63"/>
<path d="M98.1044 55.4057C100.513 51.0844 101.939 45.922 99.4238 43.6374C102.815 43.6374 106.827 42.3534 108.279 41.0783C110.935 42.3091 113.919 42.1409 115.141 39.3073C116.169 36.9607 114.681 33.7995 110.634 34.0475C104.188 28.9293 92.9242 30.0096 96.4662 34.3928C87.195 33.7021 86.159 38.8203 89.6921 40.5913C84.1224 43.9827 85.3089 52.5366 98.1044 55.4057Z" fill="#263238"/>
<path d="M93.7211 54.5643C94.7384 55.9417 96.2038 56.9217 97.8653 57.3359C99.9816 57.8052 100.522 55.8394 99.6363 53.8736C98.7508 52.1026 96.5901 49.7206 94.6598 50.1368C92.7294 50.553 92.4283 52.8287 93.7211 54.5643Z" fill="#CE7A63"/>
<path d="M106.26 48.9856C106.313 49.5523 106.658 49.9862 107.021 49.9597C107.384 49.9331 107.641 49.4549 107.588 48.8971C107.535 48.3392 107.19 47.8964 106.818 47.923C106.446 47.9496 106.26 48.4277 106.26 48.9856Z" fill="#263238"/>
<path d="M112.627 48.5433C112.689 49.1011 113.025 49.535 113.388 49.5085C113.751 49.4819 114.008 49.0126 113.955 48.4459C113.902 47.8791 113.556 47.4541 113.193 47.4807C112.83 47.5072 112.573 47.9854 112.627 48.5433Z" fill="#263238"/>
<path d="M110.687 48.9595C111.526 50.6318 112.587 52.1835 113.84 53.5729C113.477 53.8792 113.049 54.1002 112.59 54.2197C112.13 54.3393 111.649 54.3543 111.183 54.2636L110.687 48.9595Z" fill="#BA4D3C"/>
<path d="M109.023 55.9368C108.373 55.915 107.735 55.7608 107.147 55.4836C106.56 55.2065 106.035 54.8123 105.605 54.3252C105.589 54.3095 105.576 54.2909 105.568 54.2704C105.559 54.2499 105.555 54.2278 105.555 54.2056C105.555 54.1834 105.559 54.1614 105.568 54.1409C105.576 54.1203 105.589 54.1017 105.605 54.0861C105.636 54.0568 105.677 54.0405 105.72 54.0405C105.762 54.0405 105.804 54.0568 105.835 54.0861C106.308 54.6112 106.896 55.0191 107.554 55.2773C108.212 55.5355 108.921 55.637 109.625 55.5737C109.647 55.5712 109.67 55.5735 109.691 55.5804C109.713 55.5872 109.732 55.5986 109.749 55.6136C109.766 55.6287 109.779 55.6471 109.788 55.6677C109.797 55.6883 109.802 55.7106 109.802 55.7331C109.804 55.7543 109.802 55.7758 109.796 55.7962C109.789 55.8165 109.779 55.8353 109.764 55.8512C109.75 55.8671 109.733 55.8798 109.713 55.8885C109.694 55.8971 109.673 55.9015 109.651 55.9013C109.443 55.9252 109.233 55.9371 109.023 55.9368V55.9368Z" fill="#263238"/>
<path d="M104.135 47.0818C104.078 47.0761 104.024 47.058 103.975 47.0286C103.938 47.006 103.907 46.9763 103.881 46.9414C103.856 46.9064 103.838 46.8668 103.828 46.8249C103.818 46.7829 103.817 46.7394 103.824 46.6969C103.831 46.6544 103.846 46.6136 103.869 46.577C104.136 46.1285 104.509 45.752 104.955 45.4804C105.401 45.2088 105.907 45.0502 106.428 45.0186C106.515 45.0186 106.598 45.0531 106.66 45.1145C106.721 45.176 106.756 45.2593 106.756 45.3462C106.756 45.4354 106.72 45.521 106.657 45.5841C106.594 45.6472 106.508 45.6827 106.419 45.6827C106.012 45.714 105.618 45.843 105.271 46.0588C104.924 46.2746 104.635 46.5708 104.427 46.9224C104.396 46.972 104.353 47.0128 104.302 47.0407C104.25 47.0687 104.193 47.0828 104.135 47.0818V47.0818Z" fill="#263238"/>
<path d="M115.115 46.1697C115.061 46.1672 115.008 46.1512 114.962 46.1234C114.916 46.0956 114.877 46.0568 114.849 46.0104C114.642 45.6436 114.352 45.3298 114.004 45.0932C113.655 44.8567 113.257 44.7039 112.839 44.6467C112.795 44.6445 112.752 44.6335 112.713 44.6143C112.673 44.5952 112.638 44.5683 112.609 44.5352C112.58 44.5022 112.558 44.4637 112.545 44.422C112.531 44.3803 112.526 44.3362 112.529 44.2925C112.536 44.2064 112.576 44.1262 112.64 44.0685C112.704 44.0108 112.788 43.98 112.875 43.9826V43.9826C113.4 44.0446 113.904 44.2291 114.345 44.5213C114.787 44.8136 115.153 45.2053 115.416 45.665C115.438 45.7022 115.453 45.7434 115.459 45.7863C115.466 45.8291 115.463 45.8729 115.453 45.9149C115.442 45.9569 115.423 45.9963 115.397 46.031C115.371 46.0656 115.338 46.0947 115.301 46.1166C115.245 46.1504 115.18 46.1687 115.115 46.1697V46.1697Z" fill="#263238"/>
<path d="M99.2644 122.243L107.615 121.357L103.24 128.999C103.24 128.999 96.9178 128.362 97.5376 125.147L99.2644 122.243Z" fill="#CE7A63"/>
<path d="M113.662 123.403L109.527 130.009L103.258 128.973L107.632 121.331L113.662 123.403Z" fill="#CE7A63"/>
<path d="M155.175 103.772L161.957 102.328L156.99 96.4043C156.99 96.4043 150.791 98.9368 152.562 101.717L155.175 103.772Z" fill="#CE7A63"/>
<path d="M165.81 98.8217L161.364 92.6675L156.99 96.4043L161.958 102.328L165.81 98.8217Z" fill="#CE7A63"/>
<path d="M113.485 157.176H213.856C216.778 157.176 219.58 158.336 221.646 160.402C223.711 162.468 224.872 165.27 224.872 168.191V319.877H102.47V168.191C102.47 165.27 103.63 162.468 105.696 160.402C107.762 158.336 110.564 157.176 113.485 157.176Z" fill="#3F3D56"/>
<path d="M250.153 168.191H249.267V188.514H250.153V168.191Z" fill="#29913B"/>
<path d="M250.153 193.632H249.267V199.733H250.153V193.632Z" fill="#29913B"/>
<path d="M135.676 157.176H236.038C238.96 157.176 241.762 158.336 243.827 160.402C245.893 162.468 247.054 165.27 247.054 168.191V319.877H124.66V168.191C124.66 165.27 125.821 162.468 127.887 160.402C129.953 158.336 132.754 157.176 135.676 157.176Z" fill="#3F3D56"/>
<path opacity="0.3" d="M243.379 168.183V319.868H128.326V168.183C128.326 166.236 129.1 164.369 130.476 162.992C131.853 161.615 133.72 160.842 135.667 160.842H236.038C237.985 160.842 239.852 161.615 241.229 162.992C242.606 164.369 243.379 166.236 243.379 168.183Z" fill="white"/>
<path opacity="0.9" d="M241.431 168.191V319.877H128.326V168.191C128.328 167.227 128.519 166.272 128.889 165.381C129.26 164.49 129.802 163.681 130.486 163C131.169 162.319 131.98 161.78 132.872 161.412C133.764 161.045 134.72 160.857 135.685 160.859H234.09C236.035 160.859 237.901 161.632 239.278 163.006C240.654 164.381 241.429 166.246 241.431 168.191V168.191Z" fill="white"/>
<path d="M173.929 134.294H137.934C134.335 134.294 131.417 137.212 131.417 140.812V150.658C131.417 154.258 134.335 157.176 137.934 157.176H173.929C177.529 157.176 180.447 154.258 180.447 150.658V140.812C180.447 137.212 177.529 134.294 173.929 134.294Z" fill="#29913B"/>
<path d="M172.973 135.587H148.427C145.273 135.587 142.716 138.145 142.716 141.299V150.172C142.716 153.326 145.273 155.883 148.427 155.883H172.973C176.127 155.883 178.684 153.326 178.684 150.172V141.299C178.684 138.145 176.127 135.587 172.973 135.587Z" fill="#263238"/>
<path d="M135.64 141.29C135.64 141.579 135.526 141.856 135.321 142.06C135.117 142.264 134.84 142.379 134.551 142.379C134.262 142.379 133.985 142.264 133.781 142.06C133.577 141.856 133.462 141.579 133.462 141.29C133.462 141.001 133.577 140.724 133.781 140.52C133.985 140.315 134.262 140.201 134.551 140.201C134.84 140.201 135.117 140.315 135.321 140.52C135.526 140.724 135.64 141.001 135.64 141.29V141.29Z" fill="white"/>
<path d="M135.64 144.761C135.64 144.976 135.577 145.187 135.457 145.366C135.337 145.545 135.167 145.685 134.968 145.767C134.769 145.85 134.55 145.871 134.339 145.829C134.128 145.787 133.933 145.684 133.781 145.531C133.629 145.379 133.525 145.185 133.483 144.974C133.441 144.762 133.463 144.543 133.545 144.344C133.628 144.145 133.767 143.975 133.946 143.855C134.125 143.736 134.336 143.672 134.551 143.672C134.839 143.674 135.115 143.79 135.319 143.993C135.523 144.197 135.638 144.473 135.64 144.761Z" fill="white"/>
<path opacity="0.2" d="M211.421 120.915H194.5L197.342 157.176H214.264L211.421 120.915Z" fill="#29913B"/>
<path d="M212.457 117.807H195.535L198.378 154.068H215.3L212.457 117.807Z" fill="#29913B"/>
<path opacity="0.6" d="M212.882 140.945H198.741L197.032 119.188H211.173L212.882 140.945Z" fill="white"/>
<path opacity="0.6" d="M213.803 152.686H199.653L198.998 144.345H213.148L213.803 152.686Z" fill="white"/>
<path d="M213.015 117.603L196.093 117.567L198.865 154.05L215.787 154.085L213.015 117.603Z" fill="#29913B"/>
<path opacity="0.6" d="M213.387 140.882L199.246 140.847L197.59 118.966L211.731 118.993L213.387 140.882Z" fill="white"/>
<path opacity="0.6" d="M214.29 152.695L200.14 152.668L199.502 144.274L213.653 144.301L214.29 152.695Z" fill="white"/>
<path d="M213.476 117.142L196.554 117.107L199.325 154.032L216.247 154.068L213.476 117.142Z" fill="#29913B"/>
<path opacity="0.6" d="M213.856 140.705L199.706 140.67L198.05 118.515L212.201 118.55L213.856 140.705Z" fill="white"/>
<path opacity="0.6" d="M214.76 152.66L200.6 152.624L199.963 144.132L214.122 144.159L214.76 152.66Z" fill="white"/>
<path opacity="0.4" d="M193.074 120.915H194.499L197.342 157.176H195.925L193.074 120.915Z" fill="#29913B"/>
<path d="M339.836 96.1211C340.252 97.0863 340.562 97.8921 340.872 98.7776C341.182 99.6631 341.474 100.478 341.757 101.328C342.324 103.028 342.82 104.737 343.289 106.446C344.175 109.882 344.963 113.335 345.574 116.815L345.804 118.117L345.857 118.444L345.919 118.843C345.977 119.203 346.01 119.567 346.017 119.932C346.04 121.223 345.818 122.506 345.361 123.713C344.608 125.654 343.527 127.451 342.165 129.026C339.753 131.843 336.929 134.279 333.788 136.252L331.282 133.17C333.463 130.767 335.424 128.174 337.144 125.422C337.878 124.251 338.434 122.977 338.791 121.641C338.897 121.21 338.921 120.762 338.862 120.322L338.357 118.365C337.472 115.088 336.586 111.839 335.612 108.624C335.134 107.022 334.603 105.428 334.089 103.851C333.832 103.063 333.558 102.275 333.283 101.505L332.46 99.2912L339.836 96.1211Z" fill="#B55B52"/>
<path d="M334.665 135.021L337.082 140.219L333.762 142.158C333.762 142.158 327.253 132.657 332.159 132.347L334.665 135.021Z" fill="#B55B52"/>
<path d="M321.294 312.324C321.992 312.31 322.687 312.218 323.366 312.05C323.402 312.041 323.434 312.023 323.459 311.996C323.485 311.969 323.501 311.935 323.507 311.899C323.514 311.864 323.509 311.827 323.495 311.794C323.481 311.761 323.458 311.733 323.428 311.713C323.162 311.536 320.771 309.995 319.886 310.411C319.784 310.458 319.696 310.53 319.632 310.622C319.568 310.714 319.53 310.822 319.523 310.934C319.485 311.11 319.493 311.292 319.545 311.464C319.598 311.637 319.694 311.792 319.824 311.917C320.251 312.221 320.771 312.365 321.294 312.324V312.324ZM322.843 311.784C321.48 312.05 320.452 312.005 320.054 311.642C319.969 311.558 319.906 311.454 319.872 311.34C319.838 311.225 319.834 311.104 319.859 310.987C319.861 310.936 319.877 310.887 319.905 310.845C319.933 310.803 319.972 310.769 320.019 310.748C320.497 310.535 321.869 311.191 322.843 311.784V311.784Z" fill="#29913B"/>
<path d="M323.321 312.049C323.353 312.059 323.387 312.059 323.419 312.049C323.447 312.033 323.47 312.01 323.485 311.982C323.501 311.954 323.508 311.922 323.507 311.89C323.507 311.793 323.507 309.535 322.622 308.782C322.517 308.685 322.392 308.612 322.256 308.569C322.119 308.527 321.975 308.514 321.834 308.534C321.685 308.537 321.542 308.59 321.428 308.685C321.314 308.78 321.235 308.911 321.205 309.056C321.028 309.942 322.454 311.633 323.206 312.058L323.321 312.049ZM321.993 308.87C322.069 308.87 322.144 308.885 322.214 308.914C322.283 308.943 322.347 308.985 322.4 309.039C322.905 309.481 323.082 310.757 323.127 311.509C322.383 310.907 321.488 309.641 321.604 309.101C321.604 309.012 321.665 308.906 321.905 308.879L321.993 308.87Z" fill="#29913B"/>
<path d="M321.825 69.0688C320.939 73.7266 318.991 83.1571 322.241 86.2563C322.241 86.2563 320.975 90.9849 312.324 90.9849C302.813 90.9849 307.781 86.2563 307.781 86.2563C312.97 85.0167 312.837 81.1647 311.934 77.5519L321.825 69.0688Z" fill="#B55B52"/>
<path d="M304.832 89.9137C303.522 90.082 306.603 85.9113 307.126 85.4862C308.348 84.5033 324.296 83.671 324.216 86.1061C324.163 87.151 323.782 89.1876 323.091 89.8517C322.401 90.5159 316.291 88.1959 304.832 89.9137Z" fill="#263238"/>
<path d="M306.497 57.8231C306.438 57.8175 306.382 57.7976 306.332 57.7652C306.283 57.7328 306.242 57.6889 306.214 57.6372C305.996 57.2253 305.685 56.8704 305.305 56.6012C304.925 56.332 304.487 56.156 304.027 56.0875C303.978 56.0853 303.93 56.0734 303.885 56.0526C303.841 56.0317 303.802 56.0024 303.769 55.9662C303.736 55.93 303.71 55.8877 303.694 55.8416C303.677 55.7956 303.67 55.7468 303.672 55.6979C303.679 55.5985 303.725 55.5057 303.799 55.4394C303.874 55.3732 303.971 55.3388 304.071 55.3437C304.655 55.4212 305.213 55.6367 305.698 55.9724C306.183 56.308 306.582 56.7542 306.86 57.2741C306.885 57.3163 306.901 57.3631 306.907 57.4116C306.914 57.4602 306.91 57.5095 306.897 57.5567C306.884 57.6039 306.861 57.6478 306.83 57.686C306.8 57.7242 306.762 57.7558 306.718 57.7788C306.652 57.8186 306.574 57.8343 306.497 57.8231V57.8231Z" fill="#263238"/>
<path d="M303.92 62.0293C303.249 63.4256 302.391 64.7244 301.37 65.8901C301.675 66.1421 302.03 66.3249 302.413 66.4258C302.795 66.5267 303.195 66.5434 303.584 66.4745L303.92 62.0293Z" fill="#A02724"/>
<path d="M304.611 60.9843C304.567 61.613 304.195 62.1 303.779 62.0735C303.362 62.0469 303.07 61.5068 303.115 60.8781C303.159 60.2494 303.54 59.7535 303.947 59.7889C304.354 59.8243 304.611 60.3556 304.611 60.9843Z" fill="#263238"/>
<path d="M304.088 59.8332L302.601 59.2842C302.601 59.2842 303.292 60.5239 304.088 59.8332Z" fill="#263238"/>
<path d="M332.451 311.863H324.605L325.216 293.702H333.062L332.451 311.863Z" fill="#B55B52"/>
<path d="M323.977 310.96H332.832C332.982 310.957 333.129 311.009 333.243 311.107C333.358 311.205 333.432 311.342 333.452 311.491L334.461 318.469C334.48 318.645 334.461 318.823 334.406 318.991C334.352 319.159 334.262 319.314 334.143 319.445C334.024 319.577 333.879 319.681 333.718 319.753C333.556 319.824 333.381 319.86 333.204 319.859C330.131 319.806 328.652 319.629 324.774 319.629C322.392 319.629 318.903 319.877 315.609 319.877C312.315 319.877 312.146 316.618 313.519 316.335C319.664 315.016 320.603 313.192 322.702 311.447C323.06 311.146 323.509 310.974 323.977 310.96V310.96Z" fill="#263238"/>
<g opacity="0.2">
<path d="M333.062 293.702H325.216L324.862 304.23H332.708L333.062 293.702Z" fill="black"/>
</g>
<path d="M298.413 98.6268C296.854 102.541 295.18 106.269 293.294 109.988C291.441 113.776 289.341 117.438 287.007 120.95C286.379 121.836 285.759 122.721 285.05 123.607C284.678 124.058 284.369 124.492 283.944 124.944C283.445 125.495 282.897 125.999 282.305 126.449C281.149 127.297 279.846 127.925 278.462 128.3C277.211 128.644 275.917 128.814 274.619 128.805C272.293 128.778 269.986 128.384 267.783 127.636C266.739 127.298 265.716 126.899 264.719 126.44C263.71 125.991 262.729 125.482 261.78 124.917L263.453 121.313C267.039 122.27 271.042 122.916 274.238 122.456C275.583 122.331 276.856 121.789 277.878 120.906C278.072 120.712 278.252 120.505 278.418 120.286L279.18 119.215C279.702 118.48 280.198 117.665 280.685 116.868C281.668 115.239 282.606 113.539 283.501 111.794C284.395 110.05 285.272 108.252 286.157 106.481C287.831 102.939 289.478 99.2201 291.001 95.625L298.413 98.6268Z" fill="#B55B52"/>
<path d="M295.331 87.939C291.435 88.8865 286.635 99.5921 286.635 99.5921L295.915 111.476C295.915 111.476 305.496 97.9185 304.221 93.7656C302.884 89.4355 300.059 86.779 295.331 87.939Z" fill="#29913B"/>
<path d="M265.268 121.871L259.45 120.038L258.167 126.148C258.167 126.148 263.887 127.264 266.136 124.767L265.268 121.871Z" fill="#B55B52"/>
<path d="M254.022 120.738L255.129 125.386L258.149 126.148L259.433 120.038L254.022 120.738Z" fill="#B55B52"/>
<path d="M325.943 60.4089C324.889 68.1216 324.605 71.4068 320.39 75.0904C314.059 80.6336 304.815 77.6495 303.566 69.7774C302.424 62.6935 304.336 51.2705 312.155 48.7557C313.875 48.1989 315.707 48.0898 317.48 48.4386C319.254 48.7874 320.908 49.5827 322.289 50.7493C323.669 51.9158 324.729 53.4151 325.368 55.1053C326.007 56.7956 326.205 58.6209 325.943 60.4089V60.4089Z" fill="#B55B52"/>
<path d="M308.525 64.792C314.643 75.4888 317.743 76.941 322.471 78.712C322.471 78.712 324.65 72.1328 329.369 68.0329C335.727 62.5251 332.026 52.0231 328.147 50.7657C330.078 44.5673 307.391 42.7963 304.974 52.0497C303.238 58.6909 308.525 64.792 308.525 64.792Z" fill="#263238"/>
<path d="M312.084 62.7198C311.723 64.4354 310.785 65.9757 309.428 67.0853C307.604 68.5906 306.028 67.4129 305.966 65.3851C305.921 63.561 306.807 60.5769 308.906 59.8419C311.004 59.107 312.456 60.7009 312.084 62.7198Z" fill="#B55B52"/>
<path d="M307.489 135.277C307.489 135.277 312.04 189.116 316.769 219.462C320.585 243.972 323.587 301.255 323.587 301.255H334.284C334.284 301.255 339.384 245.929 337.445 221.693C332.548 160.355 341.147 149.498 330.937 135.277H307.489Z" fill="#263238"/>
<path opacity="0.2" d="M310.809 170.015C312.253 184.183 314.05 200.308 315.927 213.467C318.947 206.383 322.126 196.687 322.737 176.648C323.073 163.135 315.618 160.496 310.809 170.015Z" fill="black"/>
<path d="M282.598 308.959C282.63 308.96 282.661 308.952 282.689 308.937C282.718 308.921 282.741 308.898 282.757 308.871C282.781 308.841 282.795 308.803 282.795 308.764C282.795 308.726 282.781 308.688 282.757 308.658C282.491 308.357 280.171 305.727 279.082 305.86C278.98 305.873 278.883 305.912 278.799 305.972C278.716 306.032 278.649 306.112 278.604 306.205C278.526 306.354 278.485 306.52 278.485 306.688C278.485 306.856 278.526 307.022 278.604 307.17C279.117 308.189 281.331 308.729 282.598 308.941V308.959ZM279.153 306.232C279.764 306.232 281.136 307.471 282.084 308.49C280.366 308.118 279.188 307.604 278.905 307.002C278.851 306.906 278.822 306.798 278.822 306.688C278.822 306.578 278.851 306.469 278.905 306.373C278.92 306.335 278.945 306.301 278.978 306.276C279.011 306.251 279.05 306.236 279.091 306.232H279.153Z" fill="#29913B"/>
<path d="M282.597 308.959H282.642C282.674 308.951 282.703 308.934 282.726 308.911C282.749 308.888 282.766 308.858 282.774 308.826C282.774 308.747 283.403 306.71 282.774 305.586C282.69 305.422 282.572 305.278 282.429 305.162C282.285 305.046 282.12 304.961 281.942 304.913C281.437 304.771 281.207 304.966 281.057 305.143C280.596 305.922 281.694 308.171 282.411 308.906C282.435 308.93 282.465 308.948 282.497 308.957C282.53 308.967 282.564 308.967 282.597 308.959ZM281.623 305.24C281.697 305.229 281.771 305.229 281.845 305.24C281.977 305.276 282.1 305.338 282.206 305.423C282.313 305.509 282.401 305.615 282.465 305.736C282.756 306.595 282.771 307.524 282.509 308.393C281.827 307.507 281.145 305.807 281.429 305.346C281.437 305.311 281.482 305.24 281.588 305.24H281.623Z" fill="#29913B"/>
<path d="M290.478 314.325L283.146 311.155L285.219 301.778L287.317 292.338L287.556 291.24L295.163 293.162L294.897 294.401L292.869 303.54L290.478 314.325Z" fill="#B55B52"/>
<path opacity="0.2" d="M292.869 303.54L285.077 302.433L287.317 292.338L294.897 294.402L292.869 303.54Z" fill="black"/>
<path d="M299.077 135.277C299.077 135.277 293.764 193.26 291.78 220.728C290.009 245.522 284.581 297.58 284.581 297.58L295.163 299.156C295.163 299.156 309.331 240.545 311.544 223.588C317.893 174.886 330.326 159.832 327.289 135.277H299.077Z" fill="#263238"/>
<path d="M283.403 308.153L291.612 311.376C291.754 311.429 291.872 311.532 291.942 311.666C292.012 311.8 292.03 311.956 291.992 312.102L290.381 318.956C290.335 319.128 290.253 319.288 290.14 319.426C290.028 319.563 289.888 319.676 289.729 319.755C289.57 319.835 289.396 319.879 289.218 319.887C289.041 319.894 288.863 319.864 288.698 319.797C285.856 318.629 284.545 317.92 280.941 316.503C278.719 315.618 274.043 314.051 270.98 312.846C267.916 311.642 268.943 308.552 270.324 308.782C276.523 309.8 279.445 308.986 282.013 308.127C282.465 307.971 282.957 307.981 283.403 308.153V308.153Z" fill="#263238"/>
<path d="M282.783 299.838L296.208 302.149L297.748 297.084L283.377 294.596L282.783 299.838Z" fill="#29913B"/>
<path d="M322.126 301.468H335.754L336.471 296.686L322.046 296.199L322.126 301.468Z" fill="#29913B"/>
<path d="M343.325 100.15L335.453 106.419L330.724 110.191C330.724 110.191 330.228 108.872 329.626 106.986C328.484 103.329 326.97 97.5464 328.023 94.8811C329.644 90.6661 332.734 86.8673 336.586 87.7086C339.845 88.4258 343.325 100.15 343.325 100.15Z" fill="#29913B"/>
<path opacity="0.2" d="M334.337 107.314L330.724 110.191C330.724 110.191 330.228 108.872 329.626 106.986L332.433 93.0747L334.337 107.314Z" fill="black"/>
<path d="M295.331 87.9391C295.331 87.9391 291.594 89.2497 299.076 135.278H330.954C330.423 122.314 330.405 114.318 336.604 87.7089C332.143 86.7911 327.621 86.1992 323.073 85.9379C318.257 85.5878 313.421 85.5878 308.604 85.9379C302.379 86.4958 295.331 87.9391 295.331 87.9391Z" fill="#29913B"/>
<path d="M323.392 77.9238L320.355 77.8618C315.086 85.1317 321.152 85.4417 321.143 91.6933C321.134 97.9449 314.36 101.629 322.711 106.029C316.565 99.5742 333.762 95.8197 323.392 77.9238Z" fill="#263238"/>
<path d="M317.008 75.6219C317.223 76.7331 317.365 77.8571 317.433 78.9868C317.433 79.2216 317.526 79.4468 317.692 79.6129C317.858 79.779 318.084 79.8723 318.319 79.8723C319.85 79.8723 322.905 79.8723 324.375 79.8723C324.605 79.8558 324.821 79.7572 324.983 79.5946C325.146 79.432 325.244 79.2162 325.261 78.9868C325.386 77.692 325.443 76.3914 325.429 75.0906C325.429 74.8557 325.336 74.6305 325.17 74.4644C325.004 74.2984 324.778 74.2051 324.544 74.2051C322.215 74.2051 319.328 74.3556 317.805 74.4619C317.546 74.5113 317.317 74.6609 317.168 74.8781C317.019 75.0953 316.961 75.3625 317.008 75.6219V75.6219Z" fill="#29913B"/>
<path d="M331.415 133.409L332.85 136.26C332.965 136.482 332.699 136.712 332.336 136.712H298.917C298.634 136.712 298.395 136.57 298.377 136.384L298.094 133.533C298.094 133.338 298.315 133.17 298.634 133.17H330.893C330.993 133.162 331.094 133.179 331.185 133.221C331.277 133.263 331.356 133.328 331.415 133.409V133.409Z" fill="#29913B"/>
<path opacity="0.5" d="M331.415 133.409L332.85 136.26C332.965 136.482 332.699 136.712 332.336 136.712H298.917C298.634 136.712 298.395 136.57 298.377 136.384L298.094 133.533C298.094 133.338 298.315 133.17 298.634 133.17H330.893C330.993 133.162 331.094 133.179 331.185 133.221C331.277 133.263 331.356 133.328 331.415 133.409V133.409Z" fill="white"/>
<path d="M327.085 137.013H327.97C328.147 137.013 328.271 136.924 328.262 136.818L327.855 133.117C327.855 133.01 327.696 132.913 327.528 132.913H326.642C326.474 132.913 326.341 133.01 326.35 133.117L326.757 136.818C326.748 136.924 326.908 137.013 327.085 137.013Z" fill="#263238"/>
<path d="M306.134 137.013H307.019C307.188 137.013 307.32 136.924 307.312 136.818L306.904 133.117C306.904 133.01 306.745 132.913 306.568 132.913H305.682C305.505 132.913 305.381 133.01 305.39 133.117L305.797 136.818C305.815 136.924 305.966 137.013 306.134 137.013Z" fill="#263238"/>
</svg>
