<svg width="384" height="381" viewBox="0 0 384 381" fill="none" xmlns="http://www.w3.org/2000/svg">
<g clip-path="url(#clip0_488_554)">
<path d="M383.17 75.4698C381.18 76.8698 379.36 78.6198 377.19 79.6098C354.11 90.1298 330.97 100.53 307.84 110.96C307.16 111.27 306.5 111.63 305.79 111.86C302.53 112.94 299.58 111.68 298.37 108.73C297.23 105.94 298.28 103.09 301.39 101.63C308.59 98.2498 315.88 95.0498 323.13 91.7698C339.9 84.1798 356.66 76.5798 373.43 68.9998C378.27 66.8098 380.07 67.3398 383.16 71.7298V75.4698H383.17Z" fill="#FFC40C"/>
<path d="M76.9399 354.43C78.3799 345.93 80.1199 335.62 81.8899 325.31C85.2399 305.79 88.5499 286.25 92.0199 266.75C92.5199 263.94 91.7399 262.21 89.7499 260.29C69.2299 240.43 48.7999 220.46 28.3399 200.53C21.2799 193.65 18.6999 185.43 21.6699 175.98C24.5899 166.69 31.2299 161.25 40.8399 159.82C67.7099 155.82 94.5699 151.79 121.49 148.2C127.7 147.37 131.4 145.39 134.27 139.3C145.71 114.96 157.96 90.9902 169.79 66.8302C174.26 57.7002 181.3 52.4102 191.51 52.3902C201.73 52.3702 208.8 57.6502 213.28 66.7702C225.79 92.2602 238.42 117.7 250.9 143.21C252.19 145.85 253.77 147 256.74 147.42C285.36 151.46 313.97 155.63 342.56 159.91C352.04 161.33 358.53 166.81 361.42 175.93C364.35 185.2 362.01 193.45 355.07 200.24C334.56 220.3 314.03 240.33 293.4 260.27C291.27 262.32 290.63 264.21 291.13 267.08C296.05 295.18 300.83 323.31 305.69 351.42C307.36 361.13 304.75 369.35 296.76 375.24C288.69 381.19 279.93 381.52 271.05 376.85C245.69 363.53 220.32 350.21 195.02 336.77C192.55 335.46 190.69 335.43 188.19 336.75C162.99 350.12 137.74 363.38 112.47 376.61C102.7 381.73 92.5099 380.78 84.9299 374.13C79.5799 369.43 76.8599 363.48 76.9599 354.44L76.9399 354.43ZM88.2099 355C88.0299 362.25 91.8099 367.53 97.9599 368.19C101.18 368.54 104.97 367.73 107.88 366.23C134.11 352.68 160.23 338.92 186.29 325.05C189.99 323.08 193.02 323 196.75 324.98C223.15 339.02 249.65 352.85 276.09 366.8C280.81 369.29 285.39 369.51 289.83 366.4C294.32 363.26 295.59 358.75 294.69 353.54C289.64 324.07 284.61 294.59 279.43 265.15C278.72 261.1 279.39 258.12 282.5 255.13C304.05 234.35 325.41 213.38 346.89 192.53C350.74 188.79 352.33 184.46 350.76 179.32C349.17 174.13 345.28 171.49 340.03 170.73C310.19 166.41 280.35 162.06 250.49 157.82C246.95 157.32 244.62 155.88 243.04 152.56C238.23 142.44 233.17 132.43 228.21 122.38C219.72 105.18 211.24 87.9702 202.73 70.7802C200.43 66.1202 196.68 63.5202 191.43 63.5602C186.33 63.6002 182.74 66.2002 180.43 70.6802C180.09 71.3402 179.79 72.0302 179.46 72.7002C166.33 99.2802 153.17 125.84 140.11 152.45C138.67 155.39 136.81 157.23 133.48 157.71C103.75 161.96 74.0299 166.27 44.3099 170.59C42.7099 170.82 41.0799 171.07 39.5799 171.62C31.2699 174.69 29.0599 185.72 36.0999 192.48C57.7899 213.29 79.1799 234.41 100.77 255.33C103.33 257.81 104.52 260.35 103.89 263.94C100.22 284.8 96.6499 305.68 93.0599 326.55C91.3699 336.37 89.7099 346.2 88.2199 355.01L88.2099 355Z" fill="#555555"/>
<path d="M85.15 105.25C85.18 111 80.93 113.43 76.47 111.47C67.03 107.31 57.65 102.99 48.25 98.75C33.75 92.2 19.19 85.76 4.78998 79.01C2.81998 78.09 0.659982 75.87 0.169982 73.86C-0.930018 69.39 3.95998 66.54 8.77998 68.67C19.69 73.5 30.56 78.45 41.44 83.36C54.47 89.24 67.54 95.04 80.49 101.11C82.59 102.09 84.11 104.3 85.17 105.26L85.15 105.25Z" fill="#FFC40C"/>
<path d="M150.3 46.52C148.96 48.17 147.99 50.44 146.37 51.07C144.72 51.72 142.37 50.99 140.47 50.41C139.58 50.14 138.95 48.83 138.31 47.92C129.45 35.4 120.61 22.87 111.78 10.34C111.35 9.72996 110.91 9.11996 110.58 8.44996C109.18 5.60996 109.57 3.03996 112.17 1.16996C114.79 -0.700042 117.45 -0.290041 119.54 2.07996C121.18 3.93996 122.52 6.07996 123.95 8.10996C131.79 19.21 139.64 30.31 147.44 41.44C148.42 42.83 149.13 44.41 150.31 46.52H150.3Z" fill="#FFC40C"/>
<path d="M240.33 51.7402C235.07 51.7402 232.45 47.8702 233.95 44.1802C234.23 43.5002 234.63 42.8502 235.06 42.2402C244.26 29.2002 253.38 16.1002 262.79 3.21016C263.96 1.61016 266.71 0.250164 268.66 0.340164C272.88 0.540164 274.62 5.37016 272.07 9.20016C268.82 14.0702 265.34 18.7902 261.96 23.5802C256.14 31.8302 250.39 40.1402 244.44 48.2902C243.23 49.9402 241.22 51.0102 240.34 51.7302L240.33 51.7402Z" fill="#FFC40C"/>
</g>
<defs>
<clipPath id="clip0_488_554">
<rect width="383.17" height="380.03" fill="white"/>
</clipPath>
</defs>
</svg>
