<svg width="50" height="50" viewBox="0 0 50 50" fill="none" xmlns="http://www.w3.org/2000/svg">
<g clip-path="url(#clip0_641_588)">
<path d="M13.6598 24.6133C12.1993 25.9664 9.78093 29.8968 11.7912 34.7937" stroke="#555555" stroke-width="1.5"/>
<path d="M13.6597 9.60059V28.6702C13.6597 29.7747 14.5551 30.6702 15.6597 30.6702H21.005" stroke="#FFD037" stroke-width="1.5"/>
<path d="M36.4692 20.7476V28.6702C36.4692 29.7748 35.5738 30.6702 34.4692 30.6702H29.5105" stroke="#FFD037" stroke-width="1.5"/>
<path d="M16.688 9.66504V25.1934C17.4397 25.2578 19.0591 25.8764 19.523 27.8351H20.9406" stroke="#FFD037" stroke-width="1.5"/>
<path d="M33.6338 9.66504V25.1934C32.8821 25.2578 31.2627 25.8764 30.7987 27.8351H29.3812" stroke="#FFD037" stroke-width="1.5"/>
<path d="M36.4692 9.72949V18.4279" stroke="#FFD037" stroke-width="1.5"/>
<mask id="path-7-inside-1_641_588" fill="white">
<path d="M20.8765 10.6006C20.8765 11.2183 20.9981 11.8299 21.2345 12.4006C21.4709 12.9713 21.8174 13.4898 22.2541 13.9265C22.6909 14.3633 23.2094 14.7098 23.7801 14.9462C24.3508 15.1825 24.9624 15.3042 25.5801 15.3042C26.1978 15.3042 26.8094 15.1825 27.3801 14.9462C27.9507 14.7098 28.4693 14.3633 28.906 13.9265C29.3428 13.4898 29.6893 12.9713 29.9257 12.4006C30.162 11.8299 30.2837 11.2183 30.2837 10.6006L25.5801 10.6006H20.8765Z"/>
</mask>
<path d="M20.8765 10.6006C20.8765 11.2183 20.9981 11.8299 21.2345 12.4006C21.4709 12.9713 21.8174 13.4898 22.2541 13.9265C22.6909 14.3633 23.2094 14.7098 23.7801 14.9462C24.3508 15.1825 24.9624 15.3042 25.5801 15.3042C26.1978 15.3042 26.8094 15.1825 27.3801 14.9462C27.9507 14.7098 28.4693 14.3633 28.906 13.9265C29.3428 13.4898 29.6893 12.9713 29.9257 12.4006C30.162 11.8299 30.2837 11.2183 30.2837 10.6006L25.5801 10.6006H20.8765Z" stroke="#FFD037" stroke-width="3" mask="url(#path-7-inside-1_641_588)"/>
<path d="M10.6313 13.7243H8.47412C7.92184 13.7243 7.47412 13.2766 7.47412 12.7243V10.665C7.47412 10.1128 7.92184 9.66504 8.47412 9.66504H41.2035C41.7558 9.66504 42.2035 10.1128 42.2035 10.665V12.7243C42.2035 13.2766 41.7558 13.7243 41.2035 13.7243H39.0463" stroke="#555555" stroke-width="1.5"/>
<path d="M2.96387 0.708984V5.47703" stroke="#555555" stroke-width="1.5"/>
<path d="M2.96387 7.60303V15.3324C2.96387 16.437 3.8593 17.3324 4.96387 17.3324H11.018" stroke="#555555" stroke-width="1.5"/>
<path d="M47.0361 0.644531V15.3971C47.0361 16.5017 46.1407 17.3971 45.0361 17.3971H38.9176" stroke="#555555" stroke-width="1.5"/>
<path d="M21.6494 32.5478V22.6187C21.6494 21.5141 22.5448 20.6187 23.6494 20.6187H24.2533C25.2938 20.6187 26.1605 21.4165 26.2465 22.4535L26.7823 28.9192C26.7961 29.0851 26.8307 29.2472 26.8821 29.4055C27.5448 31.4473 28.4428 35.7101 27.254 38.2021C26.0171 40.7948 25.9656 43.2817 26.0944 44.2011" stroke="#555555" stroke-width="1.5"/>
<path d="M12.4355 36.9844L14.7551 41.0437V44.2653" stroke="#555555" stroke-width="1.5"/>
<path d="M12.9512 49.227V46.3301C12.9512 45.2255 13.8466 44.3301 14.9512 44.3301H26.4151C27.5197 44.3301 28.4151 45.2255 28.4151 46.3301V49.227" stroke="#555555" stroke-width="1.5"/>
</g>
<defs>
<clipPath id="clip0_641_588">
<rect width="50" height="50" fill="white"/>
</clipPath>
</defs>
</svg>
