<svg width="50" height="50" viewBox="0 0 50 50" fill="none" xmlns="http://www.w3.org/2000/svg">
<path d="M2.74561 17.7747L4.14887 12.2696C4.41431 11.2283 5.45519 10.5829 6.50596 10.808L39.0173 17.7747" stroke="#555555"/>
<path d="M12.1387 8.5258L12.9405 6.70358C13.3783 5.70836 14.5311 5.24529 15.5358 5.66102L34.682 13.5836" stroke="#555555"/>
<path d="M44.2198 24.1328V23.0981C44.2198 21.9936 43.3244 21.0981 42.2198 21.0981H2.86719C1.76262 21.0981 0.867188 21.9936 0.867188 23.0981V40.0519C0.867188 41.1565 1.76262 42.0519 2.86719 42.0519H29.9134" stroke="#FFD037"/>
<path d="M28.0347 24.7109H35.1156" stroke="#FFD037"/>
<path d="M14.451 24.5664H8.92034C8.66705 24.5664 8.42319 24.6625 8.23802 24.8354L4.5086 28.3161C4.30596 28.5053 4.19092 28.77 4.19092 29.0472V33.8243C4.19092 34.0954 4.30098 34.3549 4.4959 34.5433L8.23548 38.1582C8.42195 38.3385 8.67115 38.4392 8.9305 38.4392H14.451" stroke="#FFD037"/>
<path d="M21 36C23.7614 36 26 33.7614 26 31C26 28.2386 23.7614 26 21 26C18.2386 26 16 28.2386 16 31C16 33.7614 18.2386 36 21 36Z" stroke="#FFD037" stroke-linecap="round" stroke-linejoin="round"/>
<path d="M19.7487 33.0846H21.6237C21.9 33.0846 22.1649 32.9749 22.3603 32.7795C22.5556 32.5842 22.6654 32.3192 22.6654 32.043C22.6654 31.7667 22.5556 31.5017 22.3603 31.3064C22.1649 31.111 21.9 31.0013 21.6237 31.0013H20.3737C20.0974 31.0013 19.8325 30.8916 19.6371 30.6962C19.4418 30.5009 19.332 30.2359 19.332 29.9596C19.332 29.6834 19.4418 29.4184 19.6371 29.2231C19.8325 29.0277 20.0974 28.918 20.3737 28.918H22.2487" stroke="#FFD037" stroke-linecap="round" stroke-linejoin="round"/>
<path d="M21 28.082V28.9154" stroke="#FFD037" stroke-linecap="round" stroke-linejoin="round"/>
<path d="M21 33.082V33.9154" stroke="#FFD037" stroke-linecap="round" stroke-linejoin="round"/>
<path d="M48.2659 27.5288H32.37C31.931 27.5288 31.5752 27.8847 31.5752 28.3236V44.2196C31.5752 44.6585 31.931 45.0144 32.37 45.0144H48.2659C48.7049 45.0144 49.0607 44.6585 49.0607 44.2196V28.3236C49.0607 27.8847 48.7049 27.5288 48.2659 27.5288Z" stroke="#555555" stroke-linecap="round" stroke-linejoin="round"/>
<path d="M45.0869 25.9395V29.1186" stroke="#555555" stroke-linecap="round" stroke-linejoin="round"/>
<path d="M35.5493 25.9395V29.1186" stroke="#555555" stroke-linecap="round" stroke-linejoin="round"/>
<path d="M31.5752 32.2979H49.0607" stroke="#555555" stroke-linecap="round" stroke-linejoin="round"/>
<path d="M43.8944 36.2715L39.2548 40.6429L36.7412 38.2585" stroke="#FFD037" stroke-linecap="round" stroke-linejoin="round"/>
</svg>
