<svg width="50" height="50" viewBox="0 0 50 50" fill="none" xmlns="http://www.w3.org/2000/svg">
<g clip-path="url(#clip0_557_581)">
<path d="M16.6105 9.91509C16.6105 8.84102 16.6244 7.76695 16.6043 6.69288C16.5951 6.20677 16.7679 5.85492 17.1491 5.55399C18.5704 4.43517 19.9793 3.29783 21.3883 2.16357C21.737 1.88271 22.0935 1.68518 22.5457 1.92283C22.9839 2.15431 23.0595 2.54937 23.0565 2.99999C23.0472 4.48301 23.0395 5.96603 23.0673 7.44751C23.0719 7.70059 23.2062 7.99535 23.3728 8.19288C23.8296 8.73454 24.3358 9.233 24.8836 9.81478C25.5364 9.14966 26.1228 8.57405 26.6753 7.96757C26.7802 7.85183 26.7725 7.608 26.774 7.42282C26.7818 5.9398 26.7833 4.45678 26.774 2.9753C26.771 2.5216 26.862 2.13425 27.3049 1.91203C27.7632 1.68209 28.1151 1.89968 28.4592 2.17746C29.8558 3.29783 31.2493 4.42128 32.6567 5.52776C33.0549 5.84103 33.237 6.20523 33.2262 6.71449C33.203 7.78393 33.22 8.85491 33.3481 9.98917C34.2216 9.108 35.0919 8.22374 35.9669 7.34566C36.6999 6.60955 37.5888 6.2793 38.5965 6.56171C39.0765 6.69597 39.5641 6.96603 39.933 7.3009C40.8311 8.11417 41.6722 8.99226 42.5163 9.86262C43.6413 11.0216 43.6444 12.6342 42.5286 13.7978C41.7292 14.6311 40.9175 15.4537 40.0935 16.2623C39.6783 16.6697 39.6058 17.091 39.8481 17.6172C40.1367 18.2453 40.399 18.8873 40.6428 19.5339C40.8388 20.0524 41.1799 20.2916 41.737 20.2854C42.8728 20.2715 44.0086 20.2746 45.1444 20.2823C46.8342 20.2947 48.0116 21.4691 48.024 23.1573C48.0332 24.3317 48.0348 25.5061 48.024 26.6805C48.0086 28.3363 46.8311 29.5153 45.1783 29.5308C44.0626 29.5416 42.9453 29.5508 41.828 29.5261C41.2015 29.5123 40.8218 29.753 40.6135 30.3564C40.3944 30.9906 40.1181 31.6079 39.8388 32.219C39.6089 32.7221 39.6706 33.1342 40.0688 33.5261C40.8897 34.3379 41.6845 35.1774 42.5101 35.9845C43.5672 37.0184 43.7138 38.6419 42.7262 39.736C41.7863 40.7777 40.7864 41.7715 39.7493 42.7159C38.6768 43.6943 37.0024 43.5616 35.987 42.5215C35.1799 41.6959 34.3481 40.8949 33.5395 40.0709C33.1521 39.6758 32.7416 39.6002 32.2339 39.8301C31.5873 40.1233 30.9268 40.3903 30.2632 40.6465C29.7709 40.8363 29.5318 41.165 29.5364 41.6989C29.5472 42.8347 29.5441 43.9705 29.5364 45.1063C29.5256 46.8409 28.3635 48.0107 26.6367 48.0184C25.4623 48.023 24.2879 48.0184 23.1136 47.9999C21.4963 47.9767 20.3234 46.7977 20.3065 45.1727C20.2941 44.0168 20.2926 42.8625 20.308 41.7067C20.3157 41.1465 20.0657 40.8116 19.5518 40.6156C18.8883 40.3625 18.2309 40.0909 17.5812 39.8008C17.075 39.5755 16.6645 39.6511 16.2772 40.0477C15.5102 40.8332 14.7324 41.6064 13.9515 42.378C12.6722 43.6418 11.0164 43.6449 9.74786 42.3903C8.94076 41.5909 8.13212 40.7931 7.33891 39.9798C6.16762 38.7807 6.17379 37.1666 7.35126 35.9629C8.14601 35.1511 8.94848 34.3471 9.76175 33.5539C10.1784 33.148 10.2417 32.7206 10.004 32.1974C9.71854 31.5678 9.45156 30.9289 9.21082 30.2808C9.00866 29.7376 8.65527 29.4968 8.07348 29.5076C6.95774 29.5277 5.84046 29.5184 4.72318 29.5123C2.99325 29.5015 1.82967 28.3379 1.82041 26.6049C1.81424 25.4691 1.81269 24.3333 1.82041 23.1975C1.83121 21.4706 2.99633 20.3101 4.73244 20.2993C5.84972 20.2916 6.96546 20.2839 8.08274 20.304C8.66607 20.3148 9.01329 20.0663 9.21391 19.5246C9.45465 18.8765 9.72162 18.2376 10.0087 17.608C10.2479 17.0833 10.1722 16.6558 9.75712 16.253C8.95619 15.4737 8.1707 14.6821 7.38675 13.8858C6.15836 12.6389 6.15836 11.0308 7.38675 9.78546C8.1707 8.99071 8.96082 8.20059 9.75557 7.41664C11.0087 6.18054 12.6707 6.17128 13.9176 7.40121C14.7787 8.24997 15.6213 9.11726 16.4731 9.97682L16.6089 9.91355L16.6105 9.91509ZM18.5025 15.858C18.1305 15.5679 17.8126 15.3179 17.4917 15.0725C16.8142 14.554 16.4839 13.9012 16.592 13.0216C16.6167 12.8194 16.4716 12.5385 16.3173 12.3811C15.1074 11.1419 13.879 9.91818 12.6475 8.69905C12.0858 8.14349 11.6043 8.14349 11.0472 8.69133C10.2633 9.45985 9.4886 10.2376 8.71854 11.02C8.13521 11.6111 8.13521 12.0648 8.71854 12.6574C9.51638 13.466 10.3312 14.2577 11.1244 15.0725C12.0303 16.0015 12.2093 17.1296 11.683 18.3132C11.4099 18.9274 11.1506 19.5478 10.9114 20.1774C10.4346 21.4367 9.48397 22.1172 8.13829 22.1249C7.04107 22.1311 5.94386 22.1249 4.84509 22.1265C3.9701 22.1296 3.64757 22.4413 3.64448 23.2947C3.63985 24.3734 3.63985 25.4521 3.64448 26.5308C3.64757 27.3857 3.96855 27.6975 4.84355 27.699C5.94077 27.7021 7.03799 27.6959 8.13675 27.7005C9.48243 27.7083 10.4346 28.3888 10.9099 29.6481C11.1337 30.2407 11.3682 30.8317 11.6306 31.4089C12.2278 32.7221 12.0549 33.8132 11.0457 34.8379C10.2756 35.6203 9.49168 36.3888 8.72008 37.1696C8.13675 37.7591 8.13521 38.2144 8.717 38.8054C9.47471 39.574 10.2371 40.3363 11.004 41.094C11.6105 41.6928 12.0781 41.6912 12.6892 41.0878C13.484 40.3039 14.2648 39.5045 15.0611 38.7221C15.9932 37.8085 17.1182 37.6203 18.2972 38.1419C18.9469 38.4289 19.6043 38.7005 20.2663 38.9582C21.4839 39.4335 22.1383 40.3486 22.1429 41.6496C22.1475 42.7854 22.1275 43.9212 22.129 45.0585C22.1305 45.8502 22.4639 46.1835 23.2524 46.185C24.3497 46.1866 25.4469 46.1789 26.5441 46.1681C27.3404 46.1604 27.6737 45.8363 27.6799 45.0493C27.6876 43.932 27.6799 42.8147 27.683 41.6989C27.6892 40.3224 28.3651 39.3811 29.666 38.8934C30.2601 38.6712 30.8481 38.4304 31.4253 38.1681C32.7231 37.5801 33.8358 37.7622 34.8543 38.7746C35.632 39.5477 36.3898 40.3425 37.1675 41.1156C37.7555 41.699 38.2154 41.6974 38.8049 41.1125C39.5688 40.3517 40.3218 39.5801 41.0749 38.8101C41.6629 38.2098 41.6644 37.7715 41.0826 37.1774C40.2755 36.3517 39.4592 35.5338 38.6552 34.7051C37.8219 33.8456 37.6135 32.8394 38.0379 31.7268C38.3249 30.9737 38.666 30.2391 38.9808 29.4953C39.4962 28.2777 40.4407 27.7021 41.737 27.6851C42.8342 27.6712 43.9314 27.6866 45.0302 27.6805C45.8265 27.6758 46.1582 27.3502 46.1644 26.5601C46.1721 25.4629 46.1721 24.3641 46.1644 23.2669C46.1582 22.4768 45.828 22.1496 45.0317 22.145C43.9144 22.1373 42.7987 22.1465 41.6814 22.1419C40.3357 22.1357 39.3789 21.4552 38.9021 20.2006C38.6706 19.5894 38.4252 18.983 38.1567 18.3873C37.5842 17.1203 37.754 16.0385 38.7215 15.0555C39.5178 14.2453 40.3311 13.4506 41.1259 12.6404C41.686 12.0694 41.6876 11.6095 41.1336 11.0432C40.3789 10.2731 39.6135 9.51386 38.8465 8.7546C38.203 8.11726 37.7632 8.11572 37.1259 8.74843C36.0055 9.86108 34.9083 10.9969 33.7678 12.0895C33.362 12.4784 33.1305 12.8765 33.2123 13.4444C33.2864 13.9629 33.0888 14.378 32.6938 14.7206C32.2601 15.0972 31.845 15.4953 31.3759 15.9274C34.1598 18.0231 35.7046 20.7191 35.9592 24.0647C36.2138 27.4073 35.1413 30.3332 32.7864 32.7345C28.6043 36.9983 21.7663 37.1372 17.4006 33.0647C15.217 31.0292 14.004 28.4984 13.862 25.5246C13.6738 21.591 15.2494 18.4259 18.4978 15.8611L18.5025 15.858ZM21.2308 4.61418C20.2802 5.37653 19.4484 6.0293 18.6383 6.70677C18.5164 6.80862 18.4407 7.03239 18.4392 7.2006C18.4299 9.12497 18.4253 11.0509 18.4593 12.9753C18.4639 13.2422 18.6167 13.5648 18.8049 13.7623C19.6938 14.6975 20.6028 15.6126 21.5364 16.5015C21.9747 16.9182 22.1583 17.3641 22.1552 17.9753C22.1352 22.9999 22.1537 28.0262 22.1305 33.0508C22.1275 33.5724 22.271 33.7993 22.7787 33.9073C24.2139 34.2129 25.6367 34.2082 27.0734 33.9027C27.5673 33.7977 27.6953 33.5724 27.6938 33.0832C27.6753 28.02 27.6892 22.9552 27.6722 17.8919C27.6706 17.3194 27.8666 16.9135 28.271 16.5293C29.2463 15.6003 30.1984 14.6466 31.1398 13.6836C31.2817 13.5385 31.3836 13.2885 31.3851 13.0848C31.4037 11.1404 31.399 9.19596 31.3913 7.25152C31.3913 7.08948 31.3743 6.86263 31.2725 6.77621C30.4268 6.06634 29.5611 5.3827 28.595 4.60801C28.595 5.85183 28.6274 6.94442 28.5765 8.03393C28.5595 8.38269 28.3975 8.79318 28.1629 9.04936C27.3713 9.91509 26.5225 10.7284 25.6845 11.5524C25.1336 12.0941 24.6892 12.0941 24.1382 11.5524C23.3157 10.7423 22.4762 9.94441 21.7046 9.08794C21.45 8.80399 21.271 8.35954 21.2494 7.97683C21.1892 6.90893 21.2278 5.83486 21.2278 4.61727L21.2308 4.61418ZM20.3065 32.9552C20.3065 32.6002 20.3065 32.3934 20.3065 32.1866C20.3003 27.6249 20.2864 23.0632 20.3003 18.5015C20.3018 17.9737 20.1321 17.6249 19.6352 17.341C16.9778 19.2577 15.5935 21.8564 15.6753 25.1465C15.7586 28.5138 17.3574 31.057 20.3065 32.9536V32.9552ZM29.5395 32.9274C32.6351 30.8826 34.2262 28.1758 34.129 24.6172C34.0456 21.5478 32.6506 19.1265 30.183 17.3441C29.6676 17.645 29.524 18.0107 29.5271 18.5324C29.5487 23.0709 29.5395 27.611 29.5395 32.1496V32.9258V32.9274Z" fill="#455A64"/>
</g>
<defs>
<clipPath id="clip0_557_581">
<rect width="50" height="50" fill="white"/>
</clipPath>
</defs>
</svg>
