<svg width="50" height="50" viewBox="0 0 50 50" fill="none" xmlns="http://www.w3.org/2000/svg">
<g clip-path="url(#clip0_562_603)">
<path d="M15.4493 39.5621C16.7892 42.276 16.4911 44.5994 14.6489 46.1045C12.8326 47.587 10.3586 47.647 8.53907 46.252C6.52029 44.7047 6.18329 42.4996 7.55722 39.5022C6.99015 39.5022 6.45386 39.5054 5.91919 39.5022C5.15445 39.4957 4.69918 39.1279 4.7089 38.5317C4.71862 37.9387 5.1658 37.592 5.94512 37.592C19.0477 37.592 32.1504 37.592 45.253 37.592C46.6123 37.592 46.7679 37.4575 46.9429 36.1208C46.998 35.7012 47.053 35.2799 47.0952 34.8587C47.1616 34.1847 46.7695 33.7423 46.0825 33.7035C45.9416 33.6954 45.799 33.7002 45.658 33.7002C38.9455 33.6937 32.233 33.684 25.5205 33.6824C21.8815 33.6824 18.2409 33.6954 14.6019 33.6986C13.1729 33.6986 12.5183 33.0943 12.3271 31.6604C11.4959 25.4355 10.6567 19.2107 9.82227 12.9859C9.49499 10.5442 9.17419 8.10092 8.84205 5.65927C8.72701 4.81352 8.42727 4.56887 7.55236 4.56725C5.77337 4.56401 3.99277 4.56725 2.21378 4.56725C2.05176 4.56725 1.88811 4.57697 1.72933 4.55915C1.18981 4.49434 0.815537 4.09253 0.825258 3.59351C0.83498 3.09448 1.21411 2.66999 1.76174 2.66675C3.88421 2.65054 6.00992 2.6068 8.12916 2.68943C9.52092 2.74452 10.5416 3.86894 10.7328 5.3012C10.7831 5.68195 10.8333 6.06108 10.8965 6.5358C11.1508 6.5358 11.4052 6.5358 11.658 6.5358C23.1031 6.5358 34.5483 6.5358 45.9918 6.5358C48.3314 6.5358 49.5352 7.91136 49.2322 10.2121C48.6959 14.2772 48.1726 18.3439 47.6379 22.409C47.2523 25.3318 46.8538 28.2531 46.4649 31.1743C46.4406 31.3509 46.4438 31.5308 46.4341 31.696C46.823 31.8516 47.1924 31.9634 47.5261 32.1416C48.5906 32.7054 49.1577 33.825 49.0086 35.0239C48.9244 35.706 48.845 36.3881 48.73 37.0654C48.4869 38.5074 47.3204 39.4989 45.8525 39.5168C44.7912 39.5297 43.7284 39.52 42.638 39.52C43.939 42.6227 43.555 44.8699 41.5135 46.3524C39.6989 47.6697 37.2443 47.5724 35.4977 46.111C33.6766 44.588 33.3704 42.2047 34.6941 39.5621H15.4493ZM11.1427 8.44765C11.4117 10.4405 11.6952 12.3378 11.9091 14.2415C11.9723 14.8102 12.1586 14.9576 12.7208 14.956C19.6926 14.9269 26.6627 14.922 33.6345 14.9155C37.7352 14.9123 41.836 14.8961 45.9367 14.9333C46.6059 14.9398 46.7436 14.6644 46.8068 14.1151C46.9623 12.772 47.1405 11.4305 47.335 10.0938C47.5197 8.82516 47.2183 8.44765 45.9659 8.44765C34.6082 8.44765 23.2522 8.44765 11.8945 8.44765H11.1427V8.44765ZM12.3044 16.897C12.3206 17.1384 12.3239 17.3572 12.353 17.571C12.5766 19.2318 12.8083 20.8909 13.0303 22.5516C13.1405 23.3714 13.1324 23.3746 13.9716 23.373C19.1855 23.3649 24.3977 23.3519 29.6115 23.3471C34.6439 23.3422 39.6762 23.3471 44.7086 23.3471H45.5689C45.8492 21.1841 46.123 19.073 46.405 16.897H12.3061H12.3044ZM14.2859 31.7479H15.0653C21.6952 31.7479 28.3267 31.7479 34.9566 31.7479C37.928 31.7479 40.8995 31.7398 43.8709 31.7576C44.3084 31.7608 44.4575 31.6361 44.5028 31.1921C44.6098 30.1682 44.7977 29.1539 44.9322 28.1332C45.0521 27.2194 45.1412 26.3023 45.2497 25.3254H13.3884C13.6881 27.4721 13.9813 29.5687 14.2859 31.7479V31.7479ZM11.4943 45.3511C13.0854 45.3511 14.3783 44.0566 14.3848 42.4558C14.3929 40.8502 13.0627 39.5022 11.4749 39.5054C9.85954 39.5087 8.55365 40.821 8.55689 42.4364C8.56013 44.0485 9.8725 45.3511 11.4943 45.3511V45.3511ZM41.5622 42.5255C41.5913 40.8907 40.313 39.5492 38.7025 39.5249C37.0596 39.5006 35.7553 40.7659 35.7359 42.4024C35.7181 44.0031 36.9689 45.2863 38.5923 45.3317C40.2125 45.3754 41.533 44.1279 41.5622 42.5255Z" fill="#455A64"/>
</g>
<defs>
<clipPath id="clip0_562_603">
<rect width="50" height="50" fill="white"/>
</clipPath>
</defs>
</svg>
