<svg width="508" height="358" viewBox="0 0 508 358" fill="none" xmlns="http://www.w3.org/2000/svg">
<path d="M228 63.5C228 67.6421 231.358 71 235.5 71C239.642 71 243 67.6421 243 63.5H228ZM274.492 31.9742L267.731 28.7287L274.492 31.9742ZM282.561 15.1637L289.323 18.4091L282.561 15.1637ZM243 63.5V34.5761H228V63.5H243ZM240.74 27.4078L229.651 11.5663L217.363 20.1683L228.452 36.0098L240.74 27.4078ZM227.603 15.5H278.054V0.5H227.603V15.5ZM275.8 11.9182L267.731 28.7287L281.254 35.2197L289.323 18.4091L275.8 11.9182ZM266.5 34.1379V60H281.5V34.1379H266.5ZM267.731 28.7287C266.921 30.4168 266.5 32.2654 266.5 34.1379H281.5C281.5 34.5124 281.416 34.8821 281.254 35.2197L267.731 28.7287ZM278.054 15.5C276.213 15.5 275.003 13.5778 275.8 11.9182L289.323 18.4091C293.306 10.1112 287.258 0.5 278.054 0.5V15.5ZM229.651 11.5663C230.811 13.2233 229.626 15.5 227.603 15.5V0.5C217.491 0.5 211.564 11.8835 217.363 20.1683L229.651 11.5663ZM243 34.5761C243 32.0115 242.211 29.5089 240.74 27.4078L228.452 36.0098C228.158 35.5896 228 35.089 228 34.5761H243Z" fill="#FFC40C"/>
<path d="M92 146C105.667 119.5 158 66.5 258 66.5C358 66.5 408 119.5 420.5 146" stroke="#555555" stroke-width="15" stroke-linecap="round"/>
<path d="M360 279.5H13C10.2386 279.5 8 281.739 8 284.5V316.5C8 319.261 10.2386 321.5 13 321.5H44.9289C46.255 321.5 47.5268 322.027 48.4645 322.964L74.0355 348.536C74.9732 349.473 76.245 350 77.5711 350H430.929C432.255 350 433.527 349.473 434.464 348.536L460.036 322.964C460.973 322.027 462.245 321.5 463.571 321.5H495.5C498.261 321.5 500.5 319.261 500.5 316.5V284.5C500.5 281.739 498.261 279.5 495.5 279.5H383.5" stroke="#555555" stroke-width="15" stroke-linecap="round"/>
<path d="M80 164C69.6142 187.515 51.1923 243.437 60.5905 279" stroke="#555555" stroke-width="15" stroke-linecap="round"/>
<path d="M444 197.5C448.667 217.667 456.6 261.3 451 274.5" stroke="#555555" stroke-width="15" stroke-linecap="round"/>
</svg>
