<svg width="384" height="337" viewBox="0 0 384 337" fill="none" xmlns="http://www.w3.org/2000/svg">
<g clip-path="url(#clip0_505_554)">
<path d="M383.27 79.1801C381.03 87.8201 378.68 96.4301 376.57 105.1C366.02 148.42 355.54 191.75 345.02 235.07C343.81 240.07 342.39 241.11 336.78 241.11C270.3 241.11 203.81 241.11 137.33 241.11C132.1 241.11 129.61 239.35 129.53 235.68C129.44 231.88 132.1 229.89 137.44 229.89C200.8 229.89 264.17 229.89 327.53 229.89C332.27 229.89 335.207 227.59 336.34 222.99C347.45 177.37 358.55 131.76 369.65 86.1401C369.91 85.0701 370.06 83.9701 370.37 82.3201C368.71 82.3201 367.29 82.3201 365.86 82.3201C340.16 82.3201 314.47 82.3201 288.77 82.3201C287.4 82.3201 286 82.4101 284.66 82.1901C281.84 81.7301 279.82 79.8001 280.19 77.1301C280.46 75.1601 282.17 73.1301 283.75 71.7001C284.65 70.8901 286.6 71.1201 288.07 71.1101C317.13 71.0801 346.2 71.1301 375.26 71.0401C378.65 71.0301 381.3 71.9401 383.27 74.7001V79.1901V79.1801Z" fill="#7D7D7D"/>
<path d="M102.21 300.84C99.06 300.84 95.82 300.64 92.61 300.87C78.81 301.88 69.43 290.92 69.47 277.96C69.75 195.88 69.61 113.8 69.61 31.7201V26.7001H58.18C58.18 29.4501 58.23 32.0401 58.17 34.6201C58.05 39.4501 56.08 41.5701 51.35 41.5901C36.51 41.6501 21.66 41.6501 6.82001 41.5901C2.05001 41.5701 0.0600098 39.4601 0.0400098 34.6401C9.76585e-06 25.4101 9.76585e-06 16.1801 0.0400098 6.95012C0.0500098 2.12012 2.01001 0.0601172 6.83001 0.0401172C21.67 -0.0198828 36.52 -0.0198828 51.36 0.0401172C56.14 0.0601172 58.05 2.11012 58.17 7.01012C58.23 9.60012 58.18 12.2001 58.18 15.2201C63.54 15.2201 68.51 15.1901 73.47 15.2201C79 15.2701 80.8 17.1101 80.83 22.6801C80.85 27.0001 80.83 31.3201 80.83 35.6801C85.56 30.4801 89.67 24.9601 94.75 20.5501C117.59 0.730116 143.77 -4.78988 172.07 5.88012C200.48 16.5801 216.6 38.0101 220.83 68.1401C221.18 70.6401 222.14 71.1401 224.39 71.1201C235.37 71.0301 246.35 70.9901 257.32 71.1601C259.28 71.1901 261.81 71.7801 263.02 73.0901C264.17 74.3401 264.82 77.3701 264.07 78.7101C263.12 80.3901 260.56 82.0801 258.64 82.1401C248.67 82.4801 238.69 82.3001 228.71 82.3101C227.46 82.3101 226.19 82.4601 224.97 82.2801C221.84 81.8301 221.07 83.2501 220.78 86.2101C217.55 118.83 189.45 147.76 156.91 151.78C125.77 155.63 101.01 144.54 82.6 119.18C82.25 118.7 81.88 118.23 81.12 117.24V229.89C85.58 229.89 90.02 229.89 94.45 229.89C99.07 229.89 103.69 229.78 108.29 229.95C111.99 230.08 114.4 232.62 114.25 235.79C114.1 238.89 111.81 241.02 108.17 241.07C100.56 241.17 92.95 241.11 85.34 241.11C83.99 241.11 82.65 241.11 80.83 241.11C80.83 243.28 80.83 245.11 80.83 246.93C80.83 257.66 80.8 268.39 80.84 279.11C80.87 285.82 84.56 289.51 91.24 289.59C94.85 289.64 98.45 289.59 102.37 289.59C104.56 277.58 110.3 267.88 120.48 261.07C127.98 256.05 136.24 253.9 145.26 254.23C164.08 254.91 177.04 266.45 184.24 289.34C184.96 289.42 185.79 289.58 186.62 289.58C196.6 289.6 206.58 289.58 216.56 289.6C218.37 289.6 219.65 289.66 220.21 287.14C224.74 266.99 241.22 253.88 261.25 254.21C280.95 254.53 296.87 268.21 300.97 288.36C301.02 288.6 301.12 288.83 301.36 289.59C305.14 289.59 309.09 289.59 313.05 289.59C314.55 289.59 316.06 289.5 317.53 289.68C320.78 290.09 322.79 292.45 322.67 295.49C322.55 298.53 320.4 300.69 317.04 300.76C311.83 300.87 306.62 300.79 301.29 300.79C299.42 311.46 294.79 320.25 286.65 326.9C262.76 346.44 227.13 334.21 220.34 304.09C219.74 301.42 218.85 300.71 216.24 300.75C205.65 300.89 195.05 300.81 184.16 300.81C181.84 313.4 175.69 323.43 164.83 330.24C157.77 334.67 150 336.63 141.69 336.37C126.45 335.9 107.18 325.76 102.21 300.81V300.84ZM81.19 70.8101C84.94 71.2501 88.19 72.3701 88.29 76.6301C88.39 81.1501 84.91 82.1601 81.35 82.6701C83.37 114.9 112.07 139.94 139.78 140.81C139.88 137.26 141.16 134.44 145.12 133.96C148.36 133.56 150.18 135.61 151.71 141.01C181.64 139.19 212.85 107.57 209.31 82.4801C206 82.2701 203.16 81.1601 202.83 77.2801C202.42 72.4601 206.06 71.4601 209.63 70.7201C207.96 40.0501 180.26 13.7801 151.42 12.7301C150.98 16.0501 150.08 19.2001 145.95 19.4601C141.16 19.7701 140.15 16.2101 139.54 12.5901C112.09 14.1701 84.19 37.4801 81.18 70.8201L81.19 70.8101ZM260.7 265.45C244.08 265.36 230.6 278.64 230.56 295.14C230.52 311.66 243.93 325.19 260.4 325.25C276.63 325.3 290.21 311.89 290.39 295.63C290.57 279.13 277.2 265.55 260.7 265.46V265.45ZM173.09 295.46C173.17 278.81 159.95 265.48 143.33 265.45C126.76 265.41 113.3 278.8 113.31 295.31C113.31 311.57 126.65 325.02 142.99 325.25C159.4 325.48 173.01 312.01 173.09 295.47V295.46ZM46.7 11.5101H11.55V30.1901H46.7V11.5101Z" fill="#7D7D7D"/>
<path d="M151.17 50.9802C151.17 56.3402 151.3 61.7002 151.12 67.0502C151.02 70.2002 152.3 71.2002 155.32 71.1302C161.79 70.9802 168.27 71.0202 174.75 71.1102C179.3 71.1802 181.96 74.0002 181.16 77.8402C180.55 80.7902 178.55 82.2702 175.55 82.2902C170.57 82.3202 165.59 82.2902 160.6 82.3202C156.7 82.3502 152.94 81.9902 149.34 84.7702C146.14 87.2302 141.27 85.7502 138.6 82.5802C135.99 79.4802 135.93 75.3202 137.89 71.7902C138.96 69.8702 139.79 67.5402 139.84 65.3802C140.04 55.4202 139.92 45.4502 139.93 35.4902C139.93 30.6002 141.74 28.2202 145.4 28.1702C149.16 28.1202 151.13 30.6702 151.15 35.6702C151.17 40.7802 151.15 45.8802 151.15 50.9902L151.17 50.9802Z" fill="#ED1C24"/>
<path d="M260.61 312.15C251.28 312.22 243.65 304.82 243.47 295.53C243.29 286.22 251.1 278.32 260.48 278.33C269.74 278.33 277.37 285.94 277.42 295.21C277.47 304.5 269.96 312.08 260.62 312.15H260.61ZM266.14 295.2C266.1 292.12 263.44 289.52 260.38 289.57C257.32 289.62 254.69 292.31 254.73 295.34C254.77 298.45 257.35 300.92 260.52 300.88C263.71 300.85 266.18 298.35 266.14 295.19V295.2Z" fill="#ED1C24"/>
<path d="M143.24 312.15C133.83 312.15 126.42 304.76 126.39 295.36C126.36 286.01 133.81 278.42 143.09 278.33C152.5 278.24 160.25 285.98 160.2 295.39C160.15 304.7 152.61 312.15 143.24 312.15ZM148.95 295.22C148.91 292.13 146.29 289.55 143.21 289.57C140.11 289.59 137.62 292.16 137.64 295.32C137.66 298.53 140.1 300.93 143.31 300.9C146.45 300.87 148.99 298.32 148.95 295.22Z" fill="#ED1C24"/>
</g>
<defs>
<clipPath id="clip0_505_554">
<rect width="383.27" height="336.42" fill="white"/>
</clipPath>
</defs>
</svg>
