<svg width="50" height="50" viewBox="0 0 50 50" fill="none" xmlns="http://www.w3.org/2000/svg">
<g clip-path="url(#clip0_558_583)">
<path d="M13.0392 39.6877C12.573 39.6877 12.1914 39.6877 11.8098 39.6877C9.19874 39.6877 6.58767 39.6923 3.97661 39.6862C2.75185 39.6831 1.98253 38.9307 1.98253 37.7198C1.97946 29.2127 1.97946 20.7071 1.98253 12.2015C1.98253 10.9767 2.73646 10.2259 3.96122 10.2228C6.95541 10.2166 9.9496 10.2213 13.0392 10.2213C13.0392 9.67197 13.0392 9.14422 13.0392 8.61647C13.0438 6.7424 14.1762 5.61304 16.0611 5.61151C22.031 5.60997 28.0024 5.60997 33.9723 5.61151C35.8449 5.61151 36.9665 6.74856 36.9711 8.63647C36.9711 9.13345 36.9711 9.63197 36.9711 10.2182C37.2035 10.2182 37.405 10.2182 37.6066 10.2182C40.3715 10.2182 43.1349 10.2182 45.8999 10.2182C47.3092 10.2182 48.0278 10.9352 48.0293 12.34C48.0355 20.7302 48.0416 29.1204 48.0463 37.5121C48.0463 39.0092 47.3569 39.7016 45.8691 39.7016C43.1426 39.7016 40.4177 39.7016 37.6912 39.7016H36.9881C36.9881 40.2986 36.9911 40.8479 36.9881 41.3972C36.9758 43.1312 35.8233 44.3067 34.1031 44.3067C28.0363 44.3067 21.971 44.3021 15.9041 44.2883C14.2162 44.2852 13.0546 43.1081 13.0392 41.4187C13.0346 40.8648 13.0392 40.3124 13.0392 39.6816V39.6877ZM14.8548 24.9568C14.8548 30.3497 14.8548 35.7427 14.8548 41.1371C14.8548 42.2249 15.1148 42.4819 16.218 42.4804C22.0894 42.4757 27.9624 42.4696 33.8339 42.4634C34.854 42.4634 35.1371 42.1834 35.1371 41.171C35.1432 30.3651 35.1494 19.5608 35.1556 8.75494C35.1556 7.69944 34.8863 7.43171 33.8292 7.43171C27.9578 7.43171 22.0848 7.43171 16.2134 7.43171C15.1133 7.43171 14.8548 7.68713 14.8548 8.77956C14.8548 14.1725 14.8548 19.5654 14.8548 24.9599V24.9568ZM13.0176 16.6451C11.4852 16.6451 10.0096 16.6528 8.53559 16.642C7.9109 16.6374 7.49855 16.242 7.51547 15.7111C7.5324 15.1988 7.92629 14.8418 8.52943 14.8341C9.50801 14.8218 10.4866 14.831 11.4652 14.831C11.976 14.831 12.4868 14.831 12.9976 14.831V12.0769H3.83197V37.8367H13.0038V35.078C11.9191 35.078 10.8666 35.0949 9.81573 35.0733C8.19709 35.0395 7.12774 33.5286 7.64318 32.033C7.96014 31.1114 8.81408 30.5113 9.85882 30.5005C10.9066 30.4897 11.9544 30.4974 12.9992 30.4974V20.3317C12.0991 20.3317 11.239 20.3317 10.3789 20.3317C9.85112 20.3317 9.48954 20.0916 9.37415 19.5685C9.25259 19.01 9.70803 18.5315 10.3743 18.5207C11.2497 18.5068 12.1252 18.5176 13.0176 18.5176V16.6451V16.6451ZM46.1737 37.8291V12.0769H37.0111V14.8295C38.4882 14.8295 39.9253 14.8264 41.3609 14.8295C42.0563 14.831 42.4748 15.1634 42.4933 15.708C42.5118 16.2727 42.0763 16.6389 41.3578 16.642C40.11 16.6482 38.8621 16.6451 37.6143 16.6512C37.4127 16.6512 37.2112 16.6774 37.0342 16.6897V18.4961C37.9036 18.4961 38.7267 18.4914 39.5514 18.4961C40.2115 18.5007 40.6408 18.8669 40.65 19.4146C40.6593 19.9839 40.2623 20.3317 39.5761 20.344C39.2114 20.3501 38.8467 20.344 38.4821 20.344C37.9928 20.344 37.5035 20.344 37.0342 20.344V30.4774C38.1528 30.4774 39.2268 30.4559 40.2977 30.4836C41.4486 30.5128 42.381 31.4006 42.5056 32.53C42.6303 33.6609 41.9132 34.7195 40.7916 34.9995C40.4438 35.0857 40.07 35.0826 39.7084 35.0872C38.8144 35.0995 37.9205 35.0903 37.0281 35.0903V37.8214H46.1737V37.8291ZM13.0161 32.3161C11.9191 32.3161 10.8866 32.2961 9.85574 32.3346C9.67726 32.3407 9.50801 32.5992 9.33414 32.7408C9.47723 32.9116 9.61417 33.227 9.76342 33.2316C10.8451 33.2747 11.9283 33.2547 13.0161 33.2547V32.3146V32.3161ZM37.0204 33.2408C38.1005 33.2408 39.1514 33.2593 40.1992 33.2208C40.3546 33.2147 40.6116 32.9562 40.6193 32.8054C40.6269 32.6577 40.3792 32.3669 40.2361 32.3607C39.1699 32.3223 38.102 32.3407 37.0204 32.3407V33.2408V33.2408Z" fill="#455A64"/>
<path d="M24.9882 37.8433C23.8173 37.8433 22.6479 37.848 21.477 37.8433C19.8076 37.8341 18.5598 36.6417 18.569 35.0769C18.5783 33.5336 19.8169 32.3504 21.4524 32.3443C23.8312 32.3366 26.2099 32.335 28.5886 32.3443C30.2134 32.3504 31.449 33.5613 31.4382 35.1092C31.429 36.634 30.2057 37.8249 28.6132 37.8418C27.4054 37.8541 26.196 37.8449 24.9867 37.8449L24.9882 37.8433ZM24.9621 36.0277C26.133 36.0277 27.3023 36.0308 28.4732 36.0277C29.1995 36.0247 29.6134 35.6877 29.6226 35.1076C29.6318 34.523 29.2133 34.1614 28.5025 34.1598C26.1807 34.1552 23.8589 34.1568 21.5371 34.1598C20.8093 34.1598 20.3969 34.4968 20.3892 35.0799C20.38 35.6816 20.8047 36.0262 21.5663 36.0293C22.6987 36.0324 23.8296 36.0293 24.9621 36.0293V36.0277Z" fill="#455A64"/>
<path d="M24.9467 13.8798C22.9126 13.8798 20.877 13.8875 18.8429 13.8706C18.5675 13.8691 18.2043 13.8367 18.0428 13.666C17.8351 13.449 17.6797 13.0674 17.7012 12.7735C17.7351 12.3335 18.1013 12.0888 18.5536 12.0704C19.0321 12.0519 19.5137 12.0627 19.9938 12.0627C23.6404 12.0627 27.2885 12.0627 30.935 12.0627C31.0889 12.0627 31.2428 12.0565 31.3951 12.0658C31.9767 12.0996 32.3737 12.4889 32.3567 12.9982C32.3398 13.4905 31.9582 13.8629 31.3966 13.8721C30.2842 13.8891 29.1702 13.8783 28.0562 13.8783C27.0192 13.8783 25.9837 13.8783 24.9467 13.8783V13.8798Z" fill="#455A64"/>
<path d="M25.0036 15.7523C26.4622 15.7523 27.9209 15.7493 29.3795 15.7523C30.0981 15.7554 30.5335 16.1216 30.5119 16.6878C30.4919 17.231 30.0734 17.5649 29.3795 17.5664C26.4622 17.5695 23.545 17.5695 20.6277 17.5664C19.9107 17.5664 19.4753 17.1971 19.4953 16.6309C19.5153 16.0862 19.9307 15.7554 20.6277 15.7539C22.0864 15.7493 23.545 15.7539 25.0036 15.7539V15.7523Z" fill="#455A64"/>
<path d="M25.0621 23.1254C25.9068 23.1254 26.7515 23.1192 27.5947 23.1269C28.2424 23.1331 28.6502 23.4762 28.6687 24.0039C28.6871 24.5517 28.2609 24.9348 27.5931 24.9379C25.8653 24.9456 24.1389 24.9456 22.411 24.9379C21.7417 24.9348 21.317 24.5517 21.337 24.0024C21.3555 23.4731 21.7632 23.1331 22.4126 23.1269C23.2957 23.1192 24.1789 23.1254 25.0605 23.1254H25.0621Z" fill="#455A64"/>
<path d="M24.9728 28.6269C24.1097 28.6269 23.2449 28.6346 22.3818 28.6238C21.7463 28.6161 21.337 28.2484 21.337 27.716C21.337 27.1836 21.7463 26.8159 22.3848 26.8144C24.1312 26.8067 25.8776 26.8067 27.6239 26.8144C28.2594 26.8174 28.6702 27.1898 28.6687 27.7206C28.6687 28.2515 28.2563 28.6161 27.6208 28.6238C26.7377 28.6346 25.8545 28.6269 24.9728 28.6269V28.6269Z" fill="#455A64"/>
</g>
<defs>
<clipPath id="clip0_558_583">
<rect width="50" height="50" fill="white"/>
</clipPath>
</defs>
</svg>
