<svg width="382" height="385" viewBox="0 0 382 385" fill="none" xmlns="http://www.w3.org/2000/svg">
<path d="M0.12999 141.1C0.16999 134.35 5.51999 129.28 12.48 129.1C18.34 128.95 24.2 129.07 30.12 129.07C34.25 120.18 43.61 117.73 50.44 112.17C51.7 111.14 52.84 109.49 53.21 107.92C54.13 104 52.9 101.72 48.5 100.11C38.01 96.2802 31.57 85.2302 32.66 74.2302C33.87 62.0702 35.27 49.9402 36.68 37.8002C37.34 32.1102 40.38 29.4202 46.14 29.3702C54.5 29.3102 62.86 29.3002 71.21 29.3702C76.61 29.4202 79.75 31.9102 80.41 37.2302C81.98 49.8502 83.57 62.4702 84.58 75.1402C85.49 86.5902 78.48 96.5602 67.67 100.76C66.44 101.24 64.66 102.66 64.7 103.58C64.81 106.31 63.04 109.54 66.56 111.68C71.46 114.65 76.22 117.86 80.98 121.05C82.41 122.01 84.34 123.02 84.84 124.43C86.65 129.52 90.53 129.39 94.69 129.06C95.67 128.98 96.67 129.05 98.27 129.05C97.74 118.54 98.51 108.58 111.32 105.44C111.61 100.51 111.54 95.5202 112.24 90.6402C117.13 56.9202 136.04 34.7702 168.15 23.8002C170.6 22.9602 171.6 22.2002 171.76 19.3502C172.23 10.9902 176.68 5.20023 184.52 2.10023C185.43 1.74023 186.33 1.36023 187.24 0.990234C189.74 0.990234 192.23 0.990234 194.73 0.990234C195.39 1.28023 196.03 1.62023 196.71 1.86023C204.78 4.70023 209.86 11.2702 210.08 19.8502C210.14 22.2402 210.9 22.9102 213.02 23.5902C241.14 32.6002 259.59 51.2102 267.48 79.7302C269.28 86.2502 269.42 93.2502 270.23 100.04C270.43 101.74 270.26 103.49 270.26 105.09C281.06 109.21 282.03 110.93 283.77 129.05C286.89 129.05 290.09 129.15 293.27 128.97C293.97 128.93 294.66 127.91 295.27 127.27C297.3 125.15 299.03 122.64 301.35 120.92C305.75 117.66 310.36 114.65 315.11 111.91C318.88 109.74 317.2 106.42 317.24 103.58C317.25 102.7 315.29 101.43 314.01 100.95C302.55 96.6202 295.54 85.9102 296.69 73.6802C297.79 62.0102 299.14 50.3702 300.51 38.7302C301.32 31.8402 304.19 29.3902 311.11 29.3702C318.97 29.3402 326.83 29.3302 334.69 29.3702C340.92 29.4102 343.85 31.9702 344.58 38.1602C346.02 50.4202 347.45 62.6802 348.7 74.9502C349.78 85.6002 342.73 96.3702 332.22 100.52C331.18 100.93 330.11 101.26 328.65 101.78C328.65 104.01 328.42 106.39 328.75 108.68C328.91 109.8 329.91 111.06 330.9 111.74C335.09 114.66 339.57 117.19 343.65 120.24C346.73 122.55 349.38 125.43 353.3 129.06C357.14 129.06 362.75 129.02 368.35 129.06C376.8 129.13 381.83 134.17 381.88 142.58M259.12 104.99C259.46 76.0802 248.48 53.5802 223.15 39.9802C197.9 26.4202 172.71 28.5502 149.74 45.7102C130.2 60.3102 121.88 80.6202 122.92 104.99H259.12ZM272.29 128.84C272.29 127.33 272.29 126.1 272.29 124.88C272.31 117.06 271.65 116.4 263.76 116.4C215.89 116.4 168.02 116.47 120.15 116.35C109.2 116.32 109.2 117.08 109.6 127.99C109.6 128.21 109.79 128.42 109.99 128.84H272.29ZM308.61 67.7702C309.05 68.0102 309.26 68.2102 309.48 68.2202C318.65 68.4002 326.61 64.4002 334.67 60.8202C335.19 60.5902 335.59 59.3902 335.53 58.6802C334.99 52.7602 334.32 46.8502 333.67 40.7702H311.61C310.6 49.9002 309.6 58.8802 308.61 67.7702ZM69.6 40.9002H47.51C46.52 50.1602 45.56 59.1202 44.59 68.2502C54.46 68.5002 62.5 64.4102 70.67 60.8102C71.19 60.5802 71.63 59.4002 71.56 58.7202C70.98 52.8002 70.28 46.8802 69.61 40.9002H69.6ZM44.88 80.7402C46.88 88.5302 54.95 93.0602 63.23 90.3002C71.19 87.6402 75.5 79.3802 72.8 73.2202C63.43 75.7502 54.16 78.2402 44.88 80.7502V80.7402ZM336.87 73.1802C327.59 75.7002 318.3 78.2202 309.04 80.7302C311.46 88.7502 318.46 92.9302 326.68 90.5702C334.71 88.2702 338.9 80.7002 336.88 73.1802H336.87ZM46.33 128.35H71.66C66.84 125.21 62.92 122.65 58.93 120.05C54.89 122.71 50.98 125.28 46.32 128.35H46.33ZM335.73 128.41C331.28 125.49 327.8 123.14 324.23 120.93C323.65 120.57 322.49 120.48 321.95 120.81C318.29 123.07 314.73 125.48 310.29 128.41H335.74H335.73ZM182.94 20.4202H198.64C198.38 15.4102 195.59 12.4102 191.2 12.2502C186.78 12.0802 183.75 14.9502 182.94 20.4202Z" fill="#29913B"/>
<path d="M94.68 129.07C95.66 128.99 96.66 129.06 98.26 129.06ZM353.28 129.06C357.12 129.06 362.73 129.02 368.33 129.06C376.78 129.13 381.81 134.17 381.86 142.58C381.88 146.07 381.93 149.57 381.84 153.06C381.74 156.64 379.6 158.9 376.44 158.99C373.11 159.08 370.8 156.79 370.68 153.02C370.57 149.66 370.59 146.28 370.68 142.92C370.73 141.01 370 140.13 368.06 140.27C367.19 140.33 366.31 140.27 365.44 140.27C249.18 140.27 132.92 140.27 16.66 140.27C13.0867 140.27 11.3 142.1 11.3 145.76C11.3 164.1 11.28 182.43 11.3 200.77C11.31 209.92 17.16 216.44 25.56 216.79C34.06 217.14 40.29 211.33 41.25 202.16C41.63 198.53 43.72 196.35 46.82 196.35C49.94 196.35 52.08 198.53 52.47 202.12C53.44 211.09 59.18 216.76 67.34 216.81C75.51 216.86 81.55 211.05 82.42 202.31C82.8 198.46 84.97 196.23 88.23 196.35C91.42 196.47 93.29 198.66 93.67 202.71C94.33 209.84 99.24 215.46 105.76 216.57C112.74 217.75 119.34 214.48 122.1 208.19C122.93 206.3 123.27 204.14 123.57 202.07C124.08 198.5 126.13 196.31 129.26 196.34C132.37 196.37 134.45 198.56 134.82 202.19C135.73 211.06 141.6 216.79 149.77 216.8C157.94 216.8 163.88 211.04 164.77 202.23C165.14 198.57 167.18 196.4 170.29 196.34C173.53 196.29 175.64 198.52 176.01 202.41C176.82 210.91 182.79 216.72 190.8 216.8C198.98 216.88 205.1 211.06 205.94 202.38C206.32 198.5 208.44 196.27 211.69 196.34C214.8 196.41 216.81 198.59 217.18 202.26C218.06 211.05 224.03 216.83 232.21 216.8C240.37 216.77 246.21 211.04 247.13 202.16C247.51 198.54 249.61 196.36 252.72 196.34C255.83 196.33 257.97 198.52 258.35 202.11C259.29 211.04 265.08 216.75 273.24 216.8C281.42 216.85 287.44 211.06 288.31 202.31C288.68 198.61 290.65 196.44 293.76 196.35C297.01 196.25 299.16 198.47 299.54 202.33C300.4 211.05 306.47 216.86 314.64 216.8C322.68 216.74 328.66 210.95 329.47 202.46C329.84 198.55 331.92 196.32 335.15 196.34C338.36 196.36 340.33 198.56 340.72 202.55C341.56 211.26 348.04 217.13 356.42 216.77C364.56 216.42 370.56 210.02 370.65 201.48C370.72 194.62 370.65 187.76 370.68 180.9C370.7 176.43 372.65 173.94 376.13 173.85C379.8 173.75 381.86 176.26 381.88 180.95C381.9 187.69 381.92 194.42 381.88 201.16C381.82 212.6 375.58 222.11 365.52 226.18C355.41 230.26 344.53 227.77 336.41 219.49C336.06 219.14 335.89 218.62 335.45 217.85C329.64 224.4 322.96 228 314.61 228C306.22 228 299.47 224.51 294.06 218.25C282.51 231.21 264.37 231.31 252.84 218.44C240.82 231.53 223.06 230.94 210.86 217.59C210.1 220.24 208.86 222.33 209.05 224.27C211.77 252.43 214.51 280.59 217.62 308.71C218.88 320.08 221.01 331.35 222.82 343.1C224.44 343.1 225.76 343.1 227.08 343.1C240.3 343.1 253.53 343.08 266.75 343.1C279.28 343.13 286.94 350.82 287.04 363.42C287.06 366.16 287.13 368.92 286.96 371.65C286.55 378.5 281.24 383.74 274.39 384.17C273.27 384.24 272.15 384.21 271.02 384.21C216.76 384.21 162.49 384.21 108.23 384.21C97.27 384.21 92.23 379.17 92.24 368.22C92.24 365.48 92.08 362.71 92.37 359.99C93.42 350.21 101.36 343.19 111.54 343.12C125.88 343.03 140.23 343.09 154.58 343.09C155.94 343.09 157.29 343.09 158.95 343.09C160.41 334 161.9 325.17 163.22 316.31C164.38 308.55 165.34 300.75 166.42 292.97C167.03 288.55 169.28 286.43 172.87 286.82C176.36 287.2 178.16 289.75 177.52 294.34C175.51 308.78 173.31 323.19 171.18 337.61C170.93 339.3 170.69 341 170.42 342.91H210.5C205.95 304.41 201.4 266.01 196.87 227.7H184.06C183.65 233.02 183.27 238.45 182.79 243.88C182.12 251.46 181.43 259.03 180.64 266.59C180.22 270.6 177.61 272.86 174.32 272.35C171.01 271.84 169.24 269.02 169.58 265.07C170.74 251.41 171.94 237.74 172.9 224.06C173.03 222.15 171.93 220.16 171.23 217.59C158.04 231.87 140.05 230.57 129.31 218.42C116.34 232.39 98.28 230.02 88.03 218.24C82.58 224.33 75.92 227.98 67.55 227.98C59.17 227.98 52.41 224.51 46.9 218.13C40.78 225.06 33.39 228.5 24.25 227.9C11.49 227.07 0.439995 216.34 0.229995 203.54C-0.100005 182.71 0.0399945 161.88 0.149995 141.05C0.189995 134.3 5.53999 129.23 12.5 129.05C18.36 128.9 24.22 129.02 30.14 129.02M189.46 372.97C215.52 372.97 241.57 372.99 267.63 372.96C276.45 372.95 275.83 374.23 275.82 364.75C275.82 356.6 273.52 354.32 265.39 354.32C216.02 354.32 166.65 354.32 117.28 354.32C104.48 354.32 103.37 355.43 103.43 368.13C103.45 372.82 103.6 372.98 108.3 372.98C135.35 372.98 162.41 372.98 189.46 372.98V372.97Z" fill="#555555"/>
</svg>
