<svg width="365" height="384" viewBox="0 0 365 384" fill="none" xmlns="http://www.w3.org/2000/svg">
<g clip-path="url(#clip0_357_613)">
<path d="M323.13 0C323.92 0.27 324.7 0.61 325.51 0.79C343.52 4.79 355.72 19.92 355.91 38.84C356.06 53.31 355.94 67.78 355.94 82.25C355.94 131.78 355.94 181.31 355.93 230.83C355.93 232.44 355.96 234.12 355.53 235.64C354.72 238.55 352.56 239.91 349.56 239.55C346.73 239.21 345.1 237.48 344.79 234.64C344.64 233.28 344.71 231.9 344.71 230.53C344.71 167.03 344.71 103.53 344.7 40.03C344.7 26.52 337.66 16.22 325.78 12.6C322.85 11.71 319.66 11.28 316.59 11.28C224.15 11.21 131.7 11.21 39.26 11.24C23.3 11.24 11.89 22.31 11.3 38.26C11.13 42.87 11.26 47.49 11.26 52.11C11.26 99.77 11.26 147.42 11.26 195.08C11.26 196.45 11.31 197.83 11.23 199.2C11.01 202.73 8.79003 205.05 5.71003 205.05C2.63003 205.05 0.400029 202.78 0.0800293 199.24C2.92957e-05 198.37 0.0400293 197.49 0.0400293 196.62C0.0400293 144.6 0.0200293 92.57 0.0400293 40.55C0.0400293 21.79 9.65003 7.72 26.3 2C28.64 1.2 31.06 0.66 33.45 0C130.01 0 226.57 0 323.13 0Z" fill="#555555"/>
<path d="M237.01 267.74C225.59 266.58 215.82 273.75 215.56 284.21C215.16 300.28 215.44 316.38 215.99 332.45C216.32 342.01 219.63 350.98 223.74 359.59C226.21 364.76 228.76 369.9 231.1 375.12C232.54 378.32 231.37 381.3 228.47 382.67C225.74 383.96 222.67 383.08 221.2 380.08C214.57 366.56 207.24 353.27 205.29 338C204.65 332.94 204.23 327.82 204.15 322.73C203.98 311.26 204.09 299.78 204.1 288.3C204.12 269.25 215.55 257.21 234.58 256.19C235.2 256.16 235.81 256.1 236.71 256.03V200.48C232.28 200.48 227.95 200.5 223.62 200.48C212.51 200.41 206.03 193.92 205.93 182.75C205.89 177.64 205.87 172.52 205.93 167.41C206.06 156.62 212.45 150.1 223.17 150.07C246.25 150 269.33 150 292.4 150.07C303.14 150.1 309.6 156.69 309.64 167.38C309.66 172.74 309.67 178.11 309.64 183.47C309.58 193.61 302.97 200.29 292.77 200.46C287.8 200.55 282.83 200.47 277.62 200.47V228.25C294.04 225.52 299.84 228.37 306.22 242.26C319.98 238.42 327.23 241.13 334.17 252.68C337.31 252 340.39 250.91 343.53 250.73C354.37 250.1 363.74 257.57 364.35 268.35C365.08 281.41 364.74 294.53 364.65 307.62C364.63 311.19 362.08 313.26 358.86 313.13C355.67 313 353.61 310.85 353.58 307.11C353.49 295.38 353.6 283.66 353.51 271.93C353.46 265.79 350.04 261.98 344.79 261.87C339.93 261.76 336.09 265.09 335.77 269.96C335.55 273.31 335.75 276.7 335.62 280.06C335.47 283.87 333.25 286.28 330.07 286.34C326.69 286.4 324.49 283.96 324.45 279.87C324.38 273.51 324.55 267.14 324.36 260.79C324.2 255.78 321.06 252.36 316.54 251.7C312.74 251.15 308.7 253.44 307.27 257.18C306.76 258.54 306.6 260.09 306.57 261.55C306.48 265.54 306.59 269.53 306.52 273.52C306.45 277.82 304.21 280.36 300.71 280.27C297.31 280.19 295.33 277.82 295.31 273.6C295.27 264.99 295.4 256.38 295.26 247.78C295.14 240.56 288.95 236.15 282.86 238.8C279.17 240.41 277.39 243.34 277.39 247.38C277.39 253.74 277.42 260.1 277.37 266.47C277.34 270.9 275.29 273.36 271.77 273.39C268.19 273.42 266.17 271.03 266.17 266.56C266.15 241.99 266.14 217.41 266.17 192.84C266.17 188.99 265.29 185.64 261.86 183.48C256.34 180 249.08 183.51 248.32 190.02C248.16 191.38 248.24 192.76 248.24 194.13C248.24 231.05 248.24 267.98 248.24 304.9C248.24 305.9 248.26 306.9 248.24 307.89C248.12 311.98 246.03 314.41 242.62 314.43C239.2 314.45 237.04 312.03 237.03 307.93C236.99 295.95 237.01 283.98 237.01 272C237.01 270.65 237.01 269.29 237.01 267.73V267.74ZM277.79 189.22C282.91 189.22 288.13 189.35 293.34 189.17C296.74 189.05 298.48 187.03 298.45 183.55C298.41 178.81 298.45 174.08 298.45 169.34C298.45 162.17 297.52 161.26 290.18 161.26C268.62 161.26 247.06 161.26 225.5 161.26C224.5 161.26 223.51 161.26 222.51 161.28C219.25 161.39 217.3 163.03 217.25 166.34C217.15 172.32 217.16 178.3 217.27 184.28C217.32 187.21 219.08 189.02 221.95 189.13C226.9 189.32 231.86 189.18 236.73 189.18C240.52 176.88 246.86 171.11 256.7 170.81C266.46 170.51 272.41 175.66 277.81 189.22H277.79Z" fill="#0089CF"/>
<path d="M22.49 149.63C22.49 113.09 22.48 76.5402 22.5 40.0002C22.5 30.8302 27.05 24.6302 35 22.8602C36.56 22.5102 38.21 22.4702 39.82 22.4702C111.53 22.4502 183.25 22.4502 254.96 22.4702C256.08 22.4702 257.26 22.3602 258.31 22.6502C261.14 23.4402 262.77 25.3102 262.63 28.3802C262.5 31.2802 260.8 32.9702 258.09 33.5502C256.77 33.8302 255.36 33.6902 253.99 33.6902C183.15 33.6902 112.31 33.6902 41.4701 33.6902C34.6701 33.6902 33.72 34.6402 33.72 41.4702C33.72 113.56 33.72 185.65 33.72 257.74C33.72 264.56 34.7101 265.55 41.4901 265.55C88.8801 265.55 136.28 265.55 183.67 265.55C184.92 265.55 186.17 265.52 187.41 265.57C191.17 265.74 193.6 267.98 193.57 271.17C193.53 274.37 191.11 276.55 187.32 276.76C186.45 276.81 185.57 276.77 184.7 276.77C136.81 276.77 88.91 276.77 41.0201 276.77C28.5301 276.77 22.49 270.71 22.49 258.14C22.49 221.97 22.49 185.8 22.49 149.63V149.63Z" fill="#555555"/>
<path d="M59.8499 175.36C58.8399 145.83 71.69 125.7 98.37 115.91C98.37 111.69 97.83 107.81 98.48 104.15C99.88 96.2198 106.55 90.8498 114.56 90.5698C117.43 90.4698 120.3 90.4898 123.16 90.5298C136.14 90.6998 143.87 101.42 139.98 113.81C139.83 114.28 139.72 114.76 139.54 115.46C167.43 125.62 180.25 145.91 179.26 175.36C180.63 175.52 181.72 175.63 182.81 175.78C188.05 176.51 191.93 180.51 192.23 185.81C192.43 189.42 192.39 193.04 192.3 196.66C192.12 203.23 187.78 208.18 181.26 207.77C174.92 207.37 170.39 209.6 166.07 213.82C160.84 218.94 154.31 220.92 146.96 220.87C129.62 220.73 112.28 220.53 94.9499 220.94C85.3699 221.17 77.2199 218.65 70.5899 211.79C67.5699 208.67 64.16 207.76 59.91 207.87C50.9799 208.12 46.79 203.81 46.75 195C46.74 192.63 46.73 190.26 46.75 187.89C46.82 180.32 50.43 176.36 57.9 175.64C58.38 175.59 58.86 175.5 59.83 175.35L59.8499 175.36ZM167.77 175.66C169.11 157.09 163.52 142.16 148.1 131.93C134.56 122.94 119.29 123.28 104.4 126.38C83.52 130.72 71.14 148.43 71.04 171.36C71.03 174.75 71.88 175.76 75.37 175.75C104.79 175.61 134.21 175.67 163.63 175.67H167.76L167.77 175.66ZM58.1699 196.22C62.8199 196.74 67.3499 196.33 71.0199 197.91C74.7499 199.52 77.6299 203.1 80.8799 205.81C81.0699 205.97 81.2299 206.21 81.4499 206.29C84.5499 207.4 87.6399 209.39 90.7699 209.44C109.97 209.73 129.18 209.73 148.38 209.44C151.5 209.39 154.74 207.67 157.64 206.17C159.8 205.05 161.65 203.19 163.36 201.4C166.87 197.72 170.94 195.96 176.07 196.7C177.61 196.92 179.22 196.73 180.77 196.73V187.15H58.1699V196.22V196.22ZM119.54 113.64C119.54 113.64 119.54 113.69 119.54 113.72C121.04 113.72 122.54 113.83 124.02 113.7C127.51 113.39 129.97 110.8 129.91 107.63C129.85 104.4 127.37 101.94 123.83 101.81C120.84 101.7 117.84 101.67 114.86 101.83C111.58 102 109.1 104.55 109.18 107.63C109.27 110.92 111.11 113.02 114.32 113.59C116.01 113.89 117.8 113.64 119.54 113.64V113.64Z" fill="#0089CF"/>
<path d="M284 70.8099C286.58 68.5899 289.07 66.3599 291.65 64.2399C294.81 61.6399 298.05 61.7199 300.24 64.3599C302.28 66.7999 301.86 70.0699 299.06 72.6199C296.48 74.9699 292.47 76.7999 291.58 79.6499C290.72 82.3799 293.23 86.0699 293.96 89.4099C298.47 110.19 285.01 130.66 264.34 134.59C243.58 138.54 223.07 124.31 219.91 103.77C216.61 82.2999 231.22 62.5999 252.55 60.0399C263.19 58.7599 272.81 61.6099 281.17 68.4199C282.03 69.1199 282.87 69.8599 283.99 70.8099H284ZM275.15 78.4499C266.48 69.1199 250.55 68.5399 240.37 77.0099C229.38 86.1599 227.43 101.86 235.86 113.26C244.16 124.48 259.9 127.34 271.55 119.75C282.26 112.77 286.95 97.8799 281.42 88.0399C280.64 88.6699 279.86 89.2699 279.12 89.8999C272.6 95.5099 266.09 101.11 259.59 106.74C257.14 108.86 254.31 109.67 251.87 107.33C249.2 104.77 246.84 101.78 244.83 98.6599C243.23 96.1899 243.95 93.5099 246.34 91.6999C248.73 89.8999 251.24 90.0999 253.49 92.0899C254.41 92.8999 255.18 93.8699 256.13 94.8799C262.54 89.3399 268.85 83.8999 275.16 78.4499H275.15Z" fill="#0089CF"/>
<path d="M333.48 131.56C333.48 161.74 333.48 191.93 333.48 222.11C333.48 223.36 333.56 224.62 333.42 225.85C333.04 229.11 330.73 231.27 327.78 231.26C324.68 231.25 322.46 228.92 322.27 225.41C322.2 224.17 322.25 222.92 322.25 221.67C322.25 161.68 322.25 101.68 322.25 41.6902C322.25 34.6402 321.29 33.6802 314.34 33.6802C303.99 33.6802 293.64 33.6802 283.28 33.6802C278.22 33.6802 275.56 31.7902 275.49 28.1702C275.42 24.5302 278.14 22.4602 283.09 22.4602C294.19 22.4502 305.29 22.4302 316.39 22.4602C326.88 22.4902 333.44 28.9902 333.47 39.5102C333.52 62.4602 333.49 85.4102 333.49 108.36C333.49 116.09 333.49 123.83 333.49 131.56H333.48Z" fill="#555555"/>
<path d="M111.33 299.28C87.52 299.28 63.7 299.34 39.89 299.26C20.27 299.19 5.13996 287.41 1.02996 269.04C0.359957 266.03 0.0999574 262.87 0.0699574 259.77C-0.0400426 248.3 0.00995744 236.83 0.0399574 225.36C0.0399574 224.13 0.0999574 222.83 0.469957 221.67C1.32996 218.96 3.51996 217.22 6.12996 218.02C8.02996 218.6 9.66996 220.62 10.98 222.34C11.6 223.15 11.24 224.75 11.25 226C11.26 236.35 11.67 246.72 11.17 257.04C10.25 276.18 23.6 288.42 42.47 288.22C89.72 287.72 136.98 288.05 184.24 288.05C190.27 288.05 193.01 289.86 192.88 293.75C192.75 297.52 190.04 299.27 184.29 299.27C159.98 299.27 135.66 299.27 111.35 299.27L111.33 299.28Z" fill="#555555"/>
<path d="M353.56 354.1C353.56 347 353.52 339.89 353.58 332.79C353.62 328.39 355.75 325.93 359.26 326.01C362.6 326.09 364.75 328.52 364.77 332.66C364.83 346.99 364.83 361.32 364.77 375.65C364.75 379.97 362.46 382.53 359.02 382.46C355.6 382.39 353.61 379.87 353.58 375.4C353.54 368.3 353.57 361.19 353.57 354.09L353.56 354.1Z" fill="#0089CF"/>
</g>
<defs>
<clipPath id="clip0_357_613">
<rect width="364.82" height="383.24" fill="white"/>
</clipPath>
</defs>
</svg>
