<svg width="100" height="100" viewBox="0 0 100 100" fill="none" xmlns="http://www.w3.org/2000/svg">
<path d="M76.45 30.1252C70.9875 16.996 58.1375 8.3335 43.75 8.3335C24.2208 8.3335 8.33333 24.221 8.33333 43.7502C8.33333 46.046 8.55417 48.321 8.9875 50.5543C3.375 54.8543 0 61.5793 0 68.7502C0 81.3835 9.34583 91.6668 20.8333 91.6668H68.75C85.9833 91.6668 100 77.6502 100 60.4168C100 45.971 90.2333 33.6002 76.45 30.1252ZM68.75 83.3335H20.8333C13.9417 83.3335 8.33333 76.7918 8.33333 68.7502C8.33333 63.496 11.1833 58.6252 15.7667 56.0377L18.6333 54.4168L17.7208 51.2502C17.0208 48.8252 16.6667 46.3002 16.6667 43.746C16.6667 28.8127 28.8167 16.6627 43.75 16.6627C55.375 16.6627 65.6917 24.0543 69.4083 35.0585L70.2 37.4085L72.65 37.8293C83.6708 39.721 91.6625 49.2168 91.6625 60.4127C91.6625 73.046 81.3792 83.3293 68.7458 83.3293L68.75 83.3335Z" fill="#455A64"/>
<path d="M55.8919 39.9417L69.6127 53.6625L63.721 59.5542L54.1669 50V75H45.8335V50L36.2794 59.5542L30.3877 53.6625L44.1085 39.9417C47.3544 36.6959 52.646 36.6959 55.8919 39.9417Z" fill="#29913C"/>
</svg>
