<svg width="50" height="50" viewBox="0 0 50 50" fill="none" xmlns="http://www.w3.org/2000/svg">
<g clip-path="url(#clip0_562_606)">
<path d="M25.0122 48.2349C20.5236 48.2349 16.0319 48.1511 11.5464 48.2581C7.09347 48.3651 6.2156 47.6129 6.47772 43.1228C6.57233 41.4896 6.64368 39.8176 7.04849 38.2449C8.7003 31.8253 12.6864 27.3615 18.9338 25.1839C25.8745 22.7643 32.184 24.2176 37.6342 29.0955C41.5551 32.6054 43.4381 37.1204 43.6009 42.3612C43.6319 43.3663 43.604 44.3729 43.5901 45.3795C43.5683 47.0856 42.3958 48.2488 40.6835 48.2504C35.4597 48.2566 30.2359 48.2519 25.0122 48.2519C25.0122 48.2457 25.0122 48.2395 25.0122 48.2349V48.2349ZM25.0292 46.4047H28.8602C32.7113 46.4047 36.5609 46.4047 40.4121 46.4047C41.4931 46.4047 41.7521 46.1426 41.7444 45.0817C41.7382 44.1526 41.7645 43.2236 41.7335 42.2945C41.5582 37.1886 39.4985 32.9668 35.5884 29.7128C32.0568 26.7737 27.9219 25.643 23.3604 26.0509C16.6507 26.6527 10.8702 31.4422 8.97328 37.8959C8.28929 40.2208 8.26447 42.5861 8.28929 44.9685C8.3017 46.1627 8.52814 46.4047 9.70225 46.4047C14.8112 46.4047 19.9187 46.4047 25.0277 46.4047H25.0292Z" fill="#455A64"/>
<path d="M33.3721 10.6827C33.0634 13.8545 31.8257 17.1007 29.0618 19.6056C26.4872 21.9383 23.4596 21.8918 20.8834 19.5079C18.6453 17.4373 17.4355 14.7882 16.8446 11.8397C15.9435 7.34338 18.774 3.00679 23.2347 2.0157C28.4492 0.857103 33.4 4.85403 33.3721 10.6827V10.6827ZM25.023 3.6396C21.4418 3.64115 18.4809 6.55393 18.5259 10.1321C18.5616 12.9316 19.6643 15.3605 21.4573 17.4699C23.6892 20.0957 26.36 20.0926 28.6012 17.4652C30.1522 15.6459 31.1076 13.5427 31.4721 11.1635C32.077 7.22241 29.0199 3.63649 25.023 3.6396V3.6396Z" fill="#455A64"/>
<path d="M28.7222 29.8227C28.6539 29.9453 28.5469 30.1919 28.3934 30.4043C27.7357 31.3132 27.0797 32.2237 26.3895 33.1077C26.1413 33.4257 26.1305 33.6863 26.2701 34.0492C27.0456 36.0702 27.7761 38.1097 28.5671 40.126C28.823 40.7774 28.7486 41.2567 28.2352 41.7344C27.4147 42.499 26.6345 43.3071 25.8311 44.0904C25.2479 44.6596 24.8137 44.6611 24.2351 44.095C23.4054 43.2839 22.5926 42.4541 21.752 41.6538C21.3162 41.2381 21.234 40.8023 21.448 40.2423C22.2452 38.1671 23.0067 36.0779 23.8086 34.0042C23.9467 33.6475 23.9001 33.4071 23.6737 33.1139C22.9773 32.2097 22.3119 31.2822 21.631 30.3671C21.3891 30.0414 21.2184 29.7095 21.4216 29.2985C21.6279 28.8813 21.9784 28.7479 22.422 28.7479C24.1638 28.7479 25.9056 28.7339 27.6458 28.7355C28.3112 28.7355 28.7361 29.1201 28.7237 29.8212L28.7222 29.8227ZM25.099 36.2423C25.051 36.2423 25.0029 36.2454 24.9548 36.247C24.4461 37.5994 23.9311 38.9488 23.4395 40.3075C23.3929 40.4362 23.4441 40.6611 23.5356 40.7681C23.9839 41.2924 24.4616 41.7918 24.9672 42.3424C25.5612 41.7453 26.056 41.2629 26.5291 40.7588C26.6144 40.6673 26.6702 40.4626 26.6283 40.3509C26.1305 38.9767 25.6124 37.6118 25.099 36.2439V36.2423Z" fill="#455A64"/>
</g>
<defs>
<clipPath id="clip0_562_606">
<rect width="50" height="50" fill="white"/>
</clipPath>
</defs>
</svg>
