<svg width="348" height="372" viewBox="0 0 348 372" fill="none" xmlns="http://www.w3.org/2000/svg">
<g clip-path="url(#clip0_606_1100)">
<path d="M29.8298 359.4V305.49C27.0098 305.49 24.1998 305.49 21.3998 305.49C16.9098 305.49 12.4198 305.5 7.9298 305.49C2.8298 305.47 0.0697988 303.41 -0.000201243 299.6C-0.0702012 295.66 2.7698 293.53 8.1098 293.52C11.2098 293.52 14.3198 293.52 17.9398 293.52C17.9398 291.88 17.9398 290.43 17.9398 288.99C17.9398 225.98 17.9398 162.97 17.9398 99.95C17.9398 91.1 18.9898 90.01 27.6698 89.83C28.2698 89.82 28.8798 89.76 29.9198 89.69C29.9198 84.39 29.9198 79.19 29.9198 73.99C29.9298 62.08 35.6798 55.45 47.8898 53.69C47.8898 51.68 47.8898 49.59 47.8898 47.51C47.8898 34.03 47.8698 20.56 47.8998 7.08C47.9098 2.67 50.2498 0 53.8798 0C57.5098 0 59.8398 2.69 59.8498 7.1C59.8898 21.2 59.8598 35.3 59.8598 49.4C59.8598 50.76 59.8598 52.12 59.8598 53.68C65.5398 54.27 70.8398 55.95 73.7498 60.79C75.8398 64.26 77.0498 68.5 77.6798 72.54C78.3398 76.81 77.8298 81.25 77.8298 85.62C77.8298 86.85 77.8298 88.09 77.8298 89.84C79.8498 89.84 81.6598 89.77 83.4698 89.85C87.4298 90.03 89.5898 92.23 89.7898 96.23C89.8498 97.35 89.8098 98.48 89.8098 99.6C89.8098 162.61 89.8098 225.62 89.8098 288.64V293.51C93.6498 293.51 97.2198 293.47 100.8 293.52C105.14 293.58 107.84 296 107.75 299.63C107.67 303.13 105.06 305.44 100.9 305.47C93.4198 305.53 85.9298 305.49 78.1398 305.49V359.41C83.8298 359.41 89.6398 359.4 95.4498 359.41C98.5798 359.42 101.12 360.95 101.41 363.95C101.61 365.95 100.45 368.46 99.1098 370.09C98.2398 371.14 95.9298 371.3 94.2598 371.33C86.6498 371.45 79.0398 371.38 71.4298 371.38C52.5898 371.38 33.7498 371.38 14.9198 371.38C13.9198 371.38 12.9198 371.43 11.9298 371.35C8.3798 371.07 5.9798 368.63 5.9898 365.36C5.9998 362.09 8.3998 359.56 11.9698 359.45C16.4598 359.3 20.9498 359.41 25.4398 359.4C26.7898 359.4 28.1298 359.4 29.8298 359.4V359.4ZM77.7698 243.54C74.7898 244.24 71.9798 245.28 69.1098 245.5C64.7698 245.83 60.3898 245.59 56.0198 245.58C50.6898 245.57 47.8498 243.42 47.9098 239.49C47.9798 235.67 50.7198 233.62 55.8298 233.6C60.1998 233.59 64.5798 233.35 68.9198 233.68C71.8998 233.91 74.8198 234.97 77.6898 235.64V217.63C75.2198 221.82 71.8698 221.67 68.4798 221.64C61.9998 221.57 55.5098 221.65 49.0198 221.61C44.5998 221.58 41.9298 219.29 41.9098 215.65C41.8898 212 44.5498 209.68 48.9598 209.65C55.6898 209.6 62.4398 209.44 69.1598 209.73C72.0098 209.85 74.8198 211.01 77.5898 211.67V102.08H30.1998V293.31H77.5798V267.27C75.3198 268.03 73.1098 269.35 70.8598 269.44C63.5098 269.72 56.1498 269.58 48.7898 269.53C44.6298 269.5 42.0198 267.21 41.9298 263.71C41.8298 260.07 44.5198 257.62 48.8498 257.58C55.0898 257.52 61.3298 257.35 67.5498 257.65C70.9898 257.81 74.3798 258.83 77.7598 259.46V243.54H77.7698ZM42.1698 305.66V359.1H65.6598V305.66H42.1698V305.66ZM65.8098 89.78C65.8098 83.4 66.0298 77.33 65.7198 71.28C65.5498 67.86 63.1298 66 59.6698 65.91C55.8198 65.82 51.9598 65.85 48.0998 65.91C44.9798 65.95 42.3898 67.55 42.1898 70.54C41.7698 76.91 42.0598 83.33 42.0598 89.79H65.7998L65.8098 89.78Z" fill="#555555"/>
<path d="M191.7 29.9202C268.1 29.9802 332.87 85.1802 345.27 160.77C359.14 245.36 301.4 325.64 216.89 339.29C182.36 344.87 149.63 339.36 118.68 323.2C116.82 322.23 114.66 320.52 114.12 318.71C113.6 316.97 114.46 314.24 115.67 312.7C117.47 310.41 120.18 310.76 122.85 311.92C131.4 315.64 139.8 319.91 148.65 322.72C231.46 349.08 318.97 295.4 333.27 209.69C346.51 130.26 292.69 55.4202 213.31 43.6102C171.26 37.3502 133.49 48.1102 100.26 74.6802C99.68 75.1502 99.13 75.6602 98.53 76.1102C95.36 78.4702 92.08 78.3302 89.83 75.7402C87.49 73.0402 87.65 69.2202 91 66.9102C101.13 59.9202 111.05 52.4302 121.85 46.6202C143.09 35.2102 167.57 29.8902 191.71 29.9102L191.7 29.9202Z" fill="#FFC40C"/>
<path d="M159.18 205.63C160.25 204.2 160.95 202.98 161.91 202.02C188.8 175.08 215.71 148.17 242.62 121.26C248.04 115.84 250.11 115.86 255.62 121.36C259.77 125.51 263.91 129.65 268.06 133.8C273.35 139.09 273.37 141.32 268.15 146.55C242.3 172.41 216.45 198.26 190.6 224.11C181.87 232.85 173.14 241.59 164.39 250.31C160.09 254.59 157.3 254.58 153 250.29C140.2 237.51 127.4 224.71 114.62 211.91C110.1 207.38 110.13 204.81 114.68 200.25C119.26 195.66 123.85 191.06 128.45 186.49C132.96 182 135.53 182.02 140.12 186.6C146.22 192.67 152.3 198.75 159.19 205.63H159.18ZM257.15 140.28C254.4 137.49 251.71 134.76 248.54 131.54C247.62 132.71 246.87 133.89 245.91 134.86C218.87 161.95 191.81 189.01 164.75 216.07C159.9 220.92 157.49 220.9 152.57 215.99C146.51 209.94 140.46 203.89 134.41 197.85C131.46 200.76 128.73 203.46 126.64 205.53C137.56 216.52 148.41 227.44 159.17 238.27C191.6 205.85 224.3 173.15 257.16 140.29L257.15 140.28Z" fill="#FFC40C"/>
</g>
<defs>
<clipPath id="clip0_606_1100">
<rect width="347.33" height="371.4" fill="white"/>
</clipPath>
</defs>
</svg>
