<svg width="291" height="384" viewBox="0 0 291 384" fill="none" xmlns="http://www.w3.org/2000/svg">
<g clip-path="url(#clip0_588_566)">
<path d="M240.37 0C243.2 1.93 244.09 4.6 244.05 8C243.91 19.35 244 30.71 244 42.06C244 43.4 244 44.74 244 46.47C249.45 46.47 254.54 46.59 259.61 46.43C263.11 46.32 265.46 47.68 267.36 50.59C274.32 61.23 281.51 71.73 288.41 82.42C289.61 84.28 290.39 86.78 290.4 88.99C290.46 97.71 290.47 106.45 289.84 115.14C289.37 121.72 285.68 126.98 281.09 131.65C279.87 132.89 278.95 134.95 278.88 136.67C278.61 142.77 278.81 148.89 278.76 155.01C278.72 159.27 276.77 161.62 273.38 161.71C269.84 161.81 267.64 159.34 267.57 154.97C267.49 149.63 267.55 144.3 267.55 138.95H255.81V232.33H267.35C267.42 230.94 267.54 229.63 267.54 228.31C267.55 213.34 267.54 198.36 267.56 183.39C267.56 182.15 267.53 180.87 267.79 179.67C268.47 176.55 270.5 174.91 273.7 175.18C276.72 175.43 278.45 177.25 278.69 180.27C278.85 182.26 278.78 184.26 278.78 186.26C278.78 201.47 278.78 216.68 278.78 232.34C280.93 232.44 282.87 232.49 284.8 232.64C288.31 232.91 290.39 234.83 290.45 238.36C290.58 245.97 290.59 253.58 290.45 261.19C290.39 264.81 288.2 266.81 284.48 267.06C282.76 267.17 281.02 267.08 278.77 267.08C278.77 268.87 278.77 270.32 278.77 271.77C278.77 306.08 278.77 340.4 278.77 374.71C278.77 381.89 277.37 383.32 270.35 383.32C186.99 383.32 103.62 383.32 20.26 383.32C13.2 383.32 11.81 381.91 11.8 374.75C11.8 360.78 11.77 346.8 11.82 332.83C11.84 328.23 14.6 325.6 18.46 326.43C22.29 327.25 23.03 330.18 23.03 333.56C23.02 344.91 23.03 356.27 23.03 367.62C23.03 368.97 23.03 370.31 23.03 371.87H267.24V267.42H23.02C23.02 270.6 23.02 273.68 23.02 276.76C23.02 286.74 23.08 296.72 22.97 306.71C22.93 310.54 20.59 312.9 17.37 312.92C14.12 312.94 11.97 310.57 11.8 306.75C11.76 305.75 11.78 304.75 11.78 303.76C11.78 293.03 11.78 282.3 11.78 271.57C11.78 270.23 11.78 268.88 11.78 267.08C9.66999 267.08 7.94999 267.16 6.24999 267.06C2.31999 266.84 0.149991 264.83 0.0999908 260.99C-0.0100092 253.51 -0.0100092 246.02 0.0999908 238.53C0.159991 234.81 2.23999 232.85 5.94999 232.63C7.66999 232.53 9.40999 232.61 11.56 232.61C11.64 230.99 11.77 229.67 11.77 228.36C11.78 197.91 11.76 167.47 11.82 137.02C11.82 134.6 11.18 132.96 9.29999 131.26C3.18999 125.71 0.219991 118.56 0.0899908 110.32C-0.0300092 102.96 -0.0600092 95.59 0.139991 88.24C0.189991 86.37 0.899991 84.29 1.92999 82.72C9.00999 71.86 16.3 61.13 23.42 50.29C25.17 47.62 27.38 46.38 30.57 46.45C35.77 46.56 40.98 46.48 46.55 46.48C46.55 38.62 46.55 31.17 46.55 23.72C46.55 18.48 46.69 13.23 46.5 8C46.37 4.6 47.33 1.93 50.17 0.01H134.78C137.49 1.75 139.47 3.97 138.28 7.41C137.17 10.61 134.49 11.27 131.34 11.27C108.27 11.22 85.19 11.24 62.11 11.24C60.78 11.24 59.45 11.24 58.03 11.24V46.2H232.45V11.23C230.77 11.23 229.4 11.23 228.04 11.23C205.21 11.23 182.39 11.2 159.56 11.26C156.33 11.26 153.43 10.81 152.25 7.4C151.06 3.96 153.04 1.74 155.75 0H240.36H240.37ZM58.31 232.31C58.31 230.52 58.31 229.15 58.31 227.79C58.31 208.83 58.31 189.87 58.31 170.91C58.31 164.31 59.87 162.73 66.45 162.72C84.04 162.7 101.63 162.71 119.23 162.72C126.1 162.72 127.6 164.22 127.6 171.09C127.61 190.05 127.6 209.01 127.6 227.97C127.6 229.41 127.6 230.85 127.6 232.32H139.66C139.66 230.7 139.66 229.35 139.66 228C139.66 216.65 139.64 205.3 139.66 193.94C139.67 187.72 141.22 186.16 147.34 185.99C148.42 185.96 149.5 185.83 150.6 185.74C151.46 181.31 149.28 174.94 156.12 174.64C163.89 174.3 161.38 181.42 162.5 185.81C163.56 185.88 164.41 185.98 165.27 186C172.97 186.16 174.18 187.38 174.19 195C174.19 206.1 174.19 217.21 174.2 228.31C174.2 229.63 174.33 230.95 174.4 232.34H186.24C186.24 230.74 186.24 229.41 186.24 228.07C186.24 216.47 186.22 204.87 186.25 193.27C186.27 187.86 187.98 186.18 193.43 186.02C194.64 185.99 195.85 186.02 197.23 186.02C198 181.31 195.76 174.74 202.93 174.65C210.35 174.57 208.04 181.39 209.02 185.81C210.13 185.88 211.11 185.99 212.08 186.01C219.37 186.15 220.73 187.54 220.73 194.92C220.73 204.65 220.73 214.38 220.73 224.11C220.73 226.81 220.73 229.52 220.73 232.38H244.26V227.76C244.26 198.57 244.07 169.38 244.43 140.19C244.5 134.48 242.48 130.92 237.97 127.83C232.07 135.24 224.26 138.96 214.89 138.95C205.54 138.93 197.87 134.95 191.72 127.5C185.59 135.19 177.8 138.97 168.44 138.95C159.09 138.93 151.37 135.02 145.44 127.75C133.27 142.02 112.19 143.26 98.53 127.77C92.61 135.08 84.88 138.92 75.52 138.96C66.05 138.99 58.29 134.95 52.62 128.08C46.5 131.18 46.14 136.16 46.18 141.83C46.39 170.52 46.27 199.21 46.27 227.91C46.27 229.36 46.27 230.8 46.27 232.61C49.5 232.61 52.22 232.63 54.94 232.6C55.91 232.59 56.88 232.45 58.29 232.34L58.31 232.31ZM11.42 255.56H279.03V244.13H11.42V255.56V255.56ZM116.05 232.37V174.17H69.73V232.37H116.05V232.37ZM23.32 138.95V232.32H34.76V138.95H23.32ZM57.79 92.9C57.79 98.46 57.79 103.68 57.79 108.9C57.79 110.02 57.8 111.15 57.96 112.26C59.23 121.27 66.43 127.81 75.21 127.96C83.54 128.1 91.67 122.07 92.6 113.91C93.38 107.06 92.76 100.05 92.76 92.91H57.79V92.9ZM104.76 92.92C104.76 100.04 104.19 106.93 104.91 113.67C105.77 121.77 113.45 127.79 121.69 127.95C129.86 128.12 138.04 122.28 139.02 114.31C139.87 107.35 139.2 100.2 139.2 92.92H104.77H104.76ZM185.89 93.03H151.06C151.06 99.59 150.72 105.84 151.14 112.04C151.74 120.94 159.21 127.69 168.05 127.95C176.84 128.21 184.87 121.84 185.76 112.99C186.42 106.48 185.89 99.84 185.89 93.03V93.03ZM197.64 92.88C197.57 94.13 197.47 94.99 197.48 95.85C197.5 101.21 197.32 106.59 197.63 111.94C198.11 120.4 205.11 127.17 213.72 127.92C222.06 128.64 230.82 122.86 231.95 114.56C232.91 107.52 232.15 100.24 232.15 92.88H197.65H197.64ZM11.36 92.86C11.36 99.44 11.02 105.66 11.44 111.83C12.04 120.7 19.42 127.52 28.18 127.95C36.59 128.36 44.89 122.53 46.01 114.1C46.92 107.19 46.2 100.05 46.2 92.87H11.37L11.36 92.86ZM279.2 92.95H244.01C244.01 99.02 243.9 104.84 244.03 110.66C244.24 120.21 251.72 127.7 261.12 127.95C270.41 128.2 278.53 121.04 279.12 111.56C279.5 105.5 279.19 99.4 279.19 92.94L279.2 92.95ZM110.98 57.89C109.28 65.66 107.6 73.34 105.87 81.23H139.39V57.89H110.98V57.89ZM151.13 57.89V81.16H184.72C182.95 73.17 181.26 65.57 179.56 57.89H151.13ZM99.51 57.7C91.93 57.7 84.7 58.03 77.52 57.58C72.82 57.29 70.42 58.73 68.83 63.22C66.7 69.25 63.77 74.99 61.01 81.25H94.27C95.99 73.52 97.71 65.79 99.51 57.69V57.7ZM191.06 57.7C192.87 65.81 194.59 73.54 196.3 81.24H229.6C226.14 73.49 222.9 66.14 219.55 58.85C219.29 58.28 218.22 57.76 217.52 57.75C208.82 57.68 200.12 57.7 191.07 57.7H191.06ZM16.18 81.47C24.07 81.47 31.21 80.8 38.16 81.64C46.32 82.63 50.75 79.89 52.92 71.98C54.24 67.18 56.85 62.72 59.05 57.71C50.15 57.71 41.93 57.66 33.72 57.78C32.8 57.79 31.57 58.51 31.04 59.28C26.19 66.36 21.47 73.53 16.17 81.48L16.18 81.47ZM231.45 57.71C234.96 65.62 238.15 72.89 241.45 80.11C241.73 80.73 242.73 81.39 243.4 81.39C253.45 81.47 263.49 81.45 274.39 81.45C269.02 73.42 264.1 66 259.07 58.65C258.68 58.09 257.59 57.75 256.82 57.75C248.6 57.69 240.39 57.71 231.46 57.71H231.45ZM162.65 232.29V197.48H150.89V222.33C150.89 229.83 154.81 233.15 162.65 232.29ZM197.77 197.4V232.33H209.2V197.4H197.77Z" fill="#555555"/>
<path d="M145.25 23.2399C159.97 23.2399 174.68 23.2399 189.4 23.2399C190.64 23.2399 191.94 23.1599 193.11 23.4799C195.83 24.2099 197.4 26.1499 197.33 28.9399C197.26 31.8899 195.57 33.8099 192.6 34.3599C191.63 34.5399 190.61 34.4599 189.61 34.4599C160.05 34.4599 130.5 34.4599 100.94 34.4599C100.44 34.4599 99.94 34.4699 99.44 34.4599C95.64 34.3199 93.21 32.2099 93.14 28.9799C93.07 25.6299 95.59 23.3699 99.59 23.2399C100.59 23.2099 101.59 23.2399 102.58 23.2399C116.8 23.2399 131.01 23.2399 145.23 23.2399H145.25Z" fill="#0089CF"/>
<path d="M157.511 293.013C168.672 293.013 179.825 293.013 190.986 293.013C191.926 293.013 192.912 292.935 193.799 293.248C195.861 293.961 197.051 295.858 196.998 298.586C196.945 301.47 195.664 303.347 193.412 303.885C192.677 304.061 191.903 303.983 191.145 303.983C168.732 303.983 146.328 303.983 123.915 303.983C123.536 303.983 123.157 303.992 122.778 303.983C119.897 303.846 118.054 301.783 118.001 298.625C117.948 295.35 119.859 293.14 122.891 293.013C123.65 292.984 124.408 293.013 125.159 293.013C135.94 293.013 146.714 293.013 157.496 293.013H157.511Z" fill="#0089CF"/>
<path d="M145.111 320.013C159.831 320.013 174.541 320.013 189.261 320.013C190.501 320.013 191.801 319.933 192.971 320.253C195.691 320.983 197.261 322.923 197.191 325.713C197.121 328.663 195.431 330.583 192.461 331.133C191.491 331.313 190.471 331.233 189.471 331.233C159.911 331.233 130.361 331.233 100.801 331.233C100.301 331.233 99.8014 331.243 99.3014 331.233C95.5014 331.093 93.0714 328.983 93.0014 325.753C92.9314 322.403 95.4514 320.143 99.4514 320.013C100.451 319.983 101.451 320.013 102.441 320.013C116.661 320.013 130.871 320.013 145.091 320.013H145.111Z" fill="#0089CF"/>
<path d="M162.01 347.013C171.899 347.013 181.782 347.013 191.671 347.013C192.504 347.013 193.377 346.935 194.163 347.248C195.991 347.961 197.046 349.858 196.998 352.586C196.951 355.47 195.816 357.347 193.821 357.885C193.169 358.061 192.484 357.983 191.812 357.983C171.953 357.983 152.1 357.983 132.241 357.983C131.905 357.983 131.569 357.992 131.233 357.983C128.681 357.846 127.048 355.783 127.001 352.625C126.954 349.35 128.647 347.14 131.334 347.013C132.006 346.984 132.678 347.013 133.343 347.013C142.896 347.013 152.443 347.013 161.996 347.013H162.01Z" fill="#0089CF"/>
</g>
<defs>
<clipPath id="clip0_588_566">
<rect width="290.54" height="383.32" fill="white"/>
</clipPath>
</defs>
</svg>
