<svg width="50" height="50" viewBox="0 0 50 50" fill="none" xmlns="http://www.w3.org/2000/svg">
<g clip-path="url(#clip0_562_609)">
<path d="M24.922 48.02C17.6807 48.02 10.4395 48.02 3.19819 48.02C2.06515 48.02 1.81662 47.77 1.81662 46.6261C1.81507 34.0129 1.81044 21.3998 1.8336 8.78657C1.8336 8.32038 2.00186 7.79708 2.25038 7.39728C3.11483 6.00953 4.06418 4.67427 4.94869 3.29888C5.60165 2.28624 6.49234 1.81543 7.69948 1.81543C19.1781 1.82469 30.6567 1.82469 42.1353 1.81543C43.3409 1.81543 44.2347 2.2847 44.8876 3.29734C45.7845 4.68817 46.7415 6.04041 47.6214 7.44204C47.8514 7.80943 48.0043 8.29414 48.0058 8.72636C48.029 15.4845 48.0228 22.2441 48.0228 29.0022C48.0228 34.933 48.0274 40.8621 48.0197 46.7928C48.0197 47.7453 47.7125 48.0185 46.7616 48.0185C39.4817 48.0185 32.2034 48.0185 24.9236 48.0185L24.922 48.02ZM24.8927 14.7343C23.9294 15.9368 22.7115 16.5712 21.2188 16.5743C19.706 16.5789 18.4896 15.9043 17.5372 14.7435C15.7697 16.9031 12.4848 17.4434 10.0952 14.7574C9.3126 15.7145 8.33083 16.3366 7.09437 16.528C5.85481 16.7209 4.74801 16.3659 3.67672 15.6805V32.2964H10.1184C10.2511 29.7586 11.4042 27.8569 13.5793 26.5941C11.5385 24.0965 11.4768 21.6112 13.3801 19.7511C15.0781 18.0917 17.795 17.9991 19.5825 19.5381C21.6695 21.3349 21.6881 23.7677 19.6242 26.6065C21.8131 27.8661 22.94 29.7864 23.0774 32.2949H29.5561C29.5561 32.0525 29.5561 31.8457 29.5561 31.6373C29.5561 30.0195 29.5422 28.4018 29.5607 26.7856C29.5792 25.2249 30.7524 24.0286 32.3038 24.0162C35.0762 23.9946 37.8501 23.9962 40.6225 24.0162C42.2403 24.0271 43.3702 25.1755 43.3934 26.801C43.4119 28.11 43.398 29.419 43.398 30.7296C43.398 31.2436 43.398 31.7592 43.398 32.301H46.1611V15.6666C45.0759 16.3891 43.963 16.7194 42.7219 16.5249C41.4885 16.3319 40.5129 15.7006 39.7303 14.7482C37.8841 16.9741 34.6053 17.3816 32.3161 14.7898C30.0068 17.4017 26.725 16.954 24.8927 14.7358V14.7343ZM7.36451 40.6306C7.36451 40.2848 7.35833 39.9992 7.36451 39.7121C7.40464 38.1576 8.57164 36.9644 10.1276 36.9582C14.4406 36.9413 18.7536 36.9413 23.0665 36.9582C24.6225 36.9644 25.7834 38.1561 25.8266 39.7152C25.8343 40.0147 25.8266 40.3141 25.8266 40.592H46.1457V34.192H3.67826V40.629H7.36451V40.6306ZM12.9124 38.7751C12.068 38.7751 11.2838 38.7751 10.4997 38.7751C9.4685 38.7751 9.18602 39.0499 9.18602 40.061C9.18602 41.9087 9.18602 43.758 9.18602 45.6058C9.18602 45.791 9.20454 45.9763 9.2138 46.1615H24.002C24.002 43.971 24.0097 41.8192 23.9958 39.6658C23.9927 39.2104 23.7102 38.8399 23.2749 38.8152C22.287 38.7581 21.2929 38.7967 20.2802 38.7967C20.2802 39.1193 20.2833 39.3679 20.2802 39.6179C20.2556 41.2774 19.0932 42.4475 17.4368 42.4722C16.8394 42.4799 16.2421 42.4876 15.6462 42.4691C14.1195 42.4243 12.9618 41.2635 12.9124 39.7414C12.9031 39.4389 12.9124 39.1363 12.9124 38.7751V38.7751ZM25.8513 46.1461H46.1442V42.5123H25.8513V46.1461V46.1461ZM21.2049 32.3026C21.2867 29.6984 19.0006 27.5713 16.3131 27.6886C13.9173 27.7936 11.7485 30.109 12.0217 32.3026H21.2049ZM31.3822 28.5963H41.5734C41.5734 27.968 41.5965 27.3737 41.5672 26.7825C41.5379 26.2175 41.1628 25.8594 40.587 25.8563C37.8362 25.8393 35.087 25.8331 32.3362 25.8393C31.7789 25.8393 31.4131 26.1882 31.3899 26.7223C31.3621 27.3336 31.3837 27.9464 31.3837 28.5963H31.3822ZM9.18756 9.23731H3.63813C3.63813 10.2083 3.62269 11.1314 3.64122 12.0529C3.669 13.4793 4.81594 14.6725 6.21448 14.7574C7.67787 14.8469 9.01467 13.8467 9.16441 12.408C9.27246 11.366 9.18602 10.304 9.18602 9.23577L9.18756 9.23731ZM11.0369 9.21261C11.0369 10.1975 11.023 11.1206 11.0399 12.0421C11.0646 13.4067 12.0896 14.5552 13.4295 14.7451C14.7957 14.9396 16.2143 14.1091 16.4643 12.7538C16.6758 11.6053 16.6033 10.4043 16.6558 9.21416H11.0353L11.0369 9.21261ZM18.4356 9.21261C18.4356 10.2175 18.4171 11.1592 18.4402 12.0992C18.4742 13.4237 19.5131 14.5567 20.8282 14.7435C22.1666 14.9334 23.5929 14.1261 23.8476 12.8062C24.0715 11.6408 23.9989 10.4198 24.0591 9.21261H18.4356ZM25.8312 9.21725C25.8312 10.2098 25.8173 11.1329 25.8343 12.0545C25.8606 13.3913 26.8608 14.5212 28.1807 14.7373C29.4835 14.9504 30.933 14.194 31.2093 12.9019C31.464 11.7087 31.3946 10.4475 31.4686 9.21725H25.8312V9.21725ZM33.23 9.21261C33.23 10.2175 33.2114 11.1592 33.2346 12.0992C33.2685 13.4237 34.3074 14.5567 35.6226 14.7435C36.961 14.9334 38.3873 14.1261 38.642 12.8062C38.8658 11.6408 38.7933 10.4198 38.8535 9.21261H33.23ZM40.6256 9.21261C40.6256 10.165 40.6179 11.065 40.6271 11.9665C40.6441 13.4252 41.717 14.62 43.1155 14.7543C44.5511 14.8917 45.9095 13.9856 46.1117 12.55C46.2646 11.4648 46.1426 10.341 46.1426 9.21261H40.6256V9.21261ZM16.5986 20.2868C15.0612 20.2852 13.817 21.5279 13.8108 23.0684C13.8062 24.6013 15.0596 25.8594 16.5925 25.8563C18.1346 25.8532 19.3788 24.6106 19.3803 23.0731C19.3803 21.5341 18.1377 20.2883 16.5986 20.2868V20.2868ZM23.9788 3.74345C23.9557 3.71875 23.9294 3.66781 23.9032 3.66627C22.4228 3.65546 20.9425 3.64466 19.4621 3.65546C19.3602 3.65546 19.1889 3.81292 19.1704 3.91943C18.9697 5.0463 18.7922 6.17625 18.6038 7.33399H23.9773V3.74345H23.9788ZM25.8497 7.3309H31.2356C31.0256 6.08054 30.8234 4.87495 30.6243 3.68634H25.8482V7.3309H25.8497ZM31.3961 32.2902H41.5348V30.4934H31.3961V32.2902V32.2902ZM17.3658 3.64311H13.9605C13.0673 3.64311 12.4781 4.07482 12.1931 4.93824C11.9322 5.72859 11.6728 6.51894 11.3934 7.36641C13.1393 7.36641 14.791 7.37258 16.4427 7.35406C16.5647 7.35406 16.7715 7.19969 16.7916 7.09009C16.9969 5.96477 17.1729 4.83173 17.3658 3.64157V3.64311ZM32.4689 3.64466C32.665 4.84253 32.8363 5.97557 33.0524 7.10244C33.074 7.21667 33.3565 7.35406 33.5202 7.35714C34.6733 7.37875 35.8264 7.36949 36.981 7.36949C37.4488 7.36949 37.918 7.36949 38.4521 7.36949C38.0446 6.14383 37.6741 5.01542 37.2836 3.89473C37.2465 3.78667 37.0721 3.65855 36.9594 3.65701C35.4837 3.64157 34.008 3.6462 32.4689 3.6462V3.64466ZM4.42385 7.36641C6.1126 7.36641 7.66552 7.36949 9.21998 7.35869C9.32649 7.35869 9.49629 7.26298 9.52716 7.17345C9.92543 6.02188 10.3036 4.8626 10.7081 3.6462C9.54106 3.6462 8.46513 3.6215 7.39075 3.66473C7.14068 3.67399 6.81188 3.84688 6.66678 4.05064C5.91965 5.09569 5.22192 6.17625 4.42385 7.36795V7.36641ZM39.1283 3.6462C39.508 4.79314 39.8692 5.84436 40.198 6.9064C40.3061 7.25681 40.4712 7.38493 40.8479 7.37875C42.1955 7.35406 43.5431 7.37104 44.8892 7.36795C45.0281 7.36795 45.1686 7.33708 45.377 7.31238C44.6159 6.17779 43.9167 5.09878 43.1711 4.05218C43.026 3.84842 42.6987 3.67553 42.4471 3.66473C41.3727 3.62305 40.2953 3.6462 39.1267 3.6462H39.1283ZM3.68135 42.4969V46.1538H7.3182V42.4969H3.68135ZM14.7324 38.806C14.7324 39.0838 14.7308 39.2938 14.7324 39.5053C14.7416 40.3249 15.0642 40.6445 15.8978 40.6506C16.4366 40.6553 16.9768 40.6661 17.514 40.6445C18.0651 40.6229 18.4124 40.2817 18.4495 39.743C18.4695 39.442 18.4526 39.1379 18.4526 38.806H14.7308H14.7324Z" fill="#455A64"/>
</g>
<defs>
<clipPath id="clip0_562_609">
<rect width="50" height="50" fill="white"/>
</clipPath>
</defs>
</svg>
