<svg width="32" height="30" viewBox="0 0 32 30" fill="none" xmlns="http://www.w3.org/2000/svg">
<g clip-path="url(#clip0_429_568)">
<path d="M10.6611 13.1921C10.6759 12.9166 10.6555 12.6338 10.713 12.3676C10.9115 11.4494 11.8084 10.8159 12.7154 10.9254C13.7004 11.045 14.3895 11.8287 14.3756 12.8146C14.3738 12.9408 14.3812 13.0669 14.384 13.193C13.9749 13.3192 13.5669 13.321 13.1578 13.1912C13.0985 13.0669 13.1597 12.9417 13.1597 12.8174C13.1597 12.3954 12.9037 12.1135 12.517 12.119C12.1701 12.1237 11.8918 12.4297 11.8853 12.8072C11.8835 12.9315 11.9447 13.0576 11.8733 13.1791C11.4708 13.3451 11.0664 13.3015 10.6602 13.193L10.6611 13.1921Z" fill="#FFC40C"/>
<path d="M14.9716 13.1949C15.0653 13.0873 15.0384 12.9547 15.0403 12.8304C15.0542 11.8964 15.0644 10.9634 15.0792 10.0294C15.082 9.85694 15.0894 9.68258 15.1145 9.51285C15.1562 9.23461 15.3463 9.08343 15.6097 9.06395C15.8908 9.04355 16.0929 9.18452 16.1811 9.46555C16.2376 9.64733 16.2089 9.8319 16.2052 10.0146C16.1894 11.0061 16.1718 11.9966 16.1579 12.9881C16.1569 13.0558 16.1764 13.1235 16.1866 13.1921C15.7813 13.3183 15.376 13.3155 14.9707 13.194L14.9716 13.1949Z" fill="#FFC40C"/>
<path d="M16.7217 13.1999C16.8293 13.1239 16.8191 12.9959 16.8478 12.8892C17.0769 12.0295 17.8254 11.4526 18.6963 11.4711C19.5644 11.4897 20.2897 12.099 20.4807 12.969C20.4974 13.046 20.5327 13.1193 20.5586 13.1944C20.1533 13.3196 19.7471 13.3187 19.3418 13.1953C19.2407 13.0729 19.1999 12.9115 19.0598 12.8123C18.6703 12.5359 18.2761 12.6741 17.9858 13.1981C17.5648 13.3103 17.1437 13.3261 16.7217 13.2009V13.1999Z" fill="#FFC40C"/>
<path d="M31.0286 13.2749C30.9924 13.3834 30.9683 13.4919 31.0249 13.6014C31.087 14.1059 31.0499 14.6123 31.049 15.1168C31.0472 15.9451 31.0815 16.7742 31.0286 17.6015C30.9887 17.877 30.8004 18.0022 30.55 18.0115C29.3119 18.0541 28.4196 18.6644 27.7658 19.6781C27.4309 19.565 27.0683 19.6846 26.7344 19.5557C26.5907 19.3869 26.7177 19.2487 26.8012 19.1217C27.4068 18.2025 28.2286 17.5663 29.2822 17.2305C29.8767 17.0413 29.8869 17.1768 29.8822 16.4005C29.8785 15.8579 29.8822 15.3162 29.8804 14.7737C29.8804 14.6383 29.9054 14.4917 29.7756 14.3906C29.6448 14.3183 29.5029 14.3433 29.3656 14.3433C20.5018 14.3424 11.6389 14.3424 2.77503 14.3433C2.61829 14.3433 2.44671 14.3007 2.32057 14.4454C2.23803 14.5826 2.25843 14.7357 2.25843 14.8831C2.25565 15.6863 2.25843 16.4895 2.25565 17.2927C2.25565 17.4633 2.27327 17.6396 2.16754 17.7926C1.8151 17.9466 1.46173 17.9391 1.10651 17.8028C1.02768 17.3242 1.08703 16.8419 1.07405 16.3606C1.06106 15.8894 1.08147 15.4173 1.06477 14.9462C0.742942 14.4194 0.396995 13.9065 0.129883 13.3482C0.164199 13.1274 0.347839 13.1784 0.482322 13.1692C0.815284 13.1469 1.15196 13.1858 1.48399 13.1181C1.89857 13.0745 2.31501 13.0894 2.73051 13.0894C5.16884 13.0885 7.60623 13.0894 10.0446 13.0894C10.2412 13.0894 10.4378 13.0792 10.6326 13.1089C11.0481 13.1831 11.4645 13.197 11.8819 13.1237C12.3057 13.0792 12.7296 13.0866 13.1544 13.1135C13.556 13.1914 13.9585 13.1933 14.361 13.1191C14.566 13.094 14.7719 13.094 14.9768 13.1172C15.3729 13.197 15.7689 13.1905 16.1659 13.1191C16.3504 13.095 16.535 13.095 16.7186 13.1293C17.1434 13.1979 17.5682 13.1858 17.9911 13.1144C18.4382 13.0848 18.8852 13.0829 19.3323 13.1135C19.7394 13.1896 20.1475 13.196 20.5556 13.1144C20.9386 13.0866 21.3208 13.0838 21.7038 13.1144C22.162 13.1896 22.6211 13.197 23.0792 13.107C24.5075 13.0671 25.9349 13.0959 27.3632 13.0903C28.0199 13.0875 28.6765 13.0792 29.3323 13.0959C29.7422 13.1821 30.1577 13.1571 30.5723 13.1645C30.7309 13.1673 30.8997 13.1423 31.0286 13.274V13.2749Z" fill="#455A64"/>
<path d="M31.0253 29.5937C30.9743 29.8673 30.7768 29.9628 30.531 29.9943C30.4512 30.0045 30.3696 29.9971 30.288 29.9971C20.8074 29.9971 11.3268 29.9971 1.84615 29.9971C1.33697 29.9971 1.20063 29.9099 1.09768 29.5223C1.04018 28.63 1.08748 27.7378 1.07357 26.8456C1.06986 26.6276 1.07357 26.4106 1.07357 26.1926C1.08841 25.6074 1.04389 25.0222 1.09676 24.4369C1.4529 24.2765 1.80998 24.2867 2.16706 24.4323C2.28206 24.5965 2.25888 24.7866 2.25888 24.9693C2.26166 26.0554 2.25888 27.1414 2.26073 28.2284C2.26073 28.7617 2.27186 28.7738 2.80052 28.7738C7.1921 28.7747 11.5828 28.7738 15.9743 28.7738C20.4002 28.7738 24.8261 28.7738 29.252 28.7738C29.6582 28.7738 29.8617 28.5691 29.8623 28.1598C29.8623 27.6052 29.8604 27.0505 29.8641 26.4959C29.8651 26.3355 29.853 26.1704 29.956 26.0285C30.2361 25.868 30.5384 25.9292 30.8334 25.9524C30.978 25.9635 31.0532 26.0507 31.0504 26.2084C31.0318 27.3371 31.0828 28.4659 31.0226 29.5937H31.0253Z" fill="#455A64"/>
<path d="M1.45151 13.2119C1.14637 13.3455 0.825463 13.236 0.51476 13.2722C0.384914 13.2879 0.238373 13.2221 0.130786 13.3492C-0.107574 12.9374 -0.0296662 12.6981 0.443344 12.443C2.15638 11.5193 3.87128 10.5983 5.58617 9.6773C6.81415 9.01787 8.04212 8.35844 9.27009 7.70086C9.36006 7.65263 9.45651 7.61553 9.55019 7.57287C10.0974 7.50702 10.6455 7.55339 11.1937 7.55432C11.2957 7.55432 11.3996 7.57751 11.4654 7.67211C11.5146 7.85667 11.369 7.91418 11.2521 7.9791C10.3942 8.45489 9.52608 8.91214 8.6626 9.37958C6.90689 10.3312 5.14284 11.267 3.38621 12.2176C2.74811 12.5627 2.12207 12.9318 1.44965 13.2119H1.45151Z" fill="#455A64"/>
<path d="M11.4466 7.77129C11.3946 7.58858 11.2435 7.66092 11.1294 7.6535C10.6035 7.61919 10.0711 7.72399 9.55176 7.57374C10.7974 6.89576 12.0411 6.21592 13.2876 5.54072C14.945 4.64386 16.6052 3.74978 18.2644 2.85662C18.3229 2.82509 18.3906 2.80932 18.4536 2.78613C18.8979 2.84271 19.344 2.82416 19.7892 2.83251C19.9441 2.83529 20.1166 2.80561 20.2195 2.97441C20.2418 3.15527 20.0962 3.20628 19.9793 3.2712C18.6957 3.97608 17.4074 4.67261 16.1192 5.371C14.6797 6.151 13.2431 6.93842 11.7888 7.69246C11.684 7.74718 11.5876 7.86404 11.4466 7.77222V7.77129Z" fill="#455A64"/>
<path d="M31.0287 13.2751C30.463 13.2454 29.8916 13.3382 29.3314 13.1925C29.6421 12.9319 29.5438 12.6769 29.3685 12.3745C29.1376 11.9757 28.8983 11.5778 28.7175 11.1521C28.6015 10.8776 28.4374 10.8201 28.1452 10.8831C26.6019 11.2161 25.2617 10.8173 24.1571 9.68855C23.7249 9.24707 23.4216 8.71192 23.2315 8.1202C23.186 7.97922 23.1276 7.82526 23.314 7.72602C23.6692 7.68058 24.0245 7.61194 24.3658 7.78723C24.7627 8.66833 25.3359 9.3797 26.2569 9.75718C27.0109 10.067 27.7603 10.0707 28.5088 9.73493C29.0217 9.50491 29.2174 9.57447 29.4863 10.0744C29.9621 10.9592 30.4379 11.844 30.9091 12.7307C30.9981 12.8985 31.1345 13.0618 31.0278 13.2751H31.0287Z" fill="#455A64"/>
<path d="M31.0252 29.5939C31.0224 28.5338 31.0075 27.4737 31.0252 26.4145C31.0307 26.0983 30.9278 26.0074 30.631 26.0371C30.414 26.0593 30.1932 26.0417 29.9743 26.0417C29.5765 26.0992 29.2184 25.9443 28.8781 25.7894C27.281 25.0632 26.3414 23.8445 26.1244 22.0795C26.0289 21.2986 26.1634 20.5631 26.4342 19.8416C26.4843 19.708 26.5158 19.5429 26.7022 19.5142C26.9628 19.516 27.2225 19.5169 27.4831 19.5188C27.6074 19.5188 27.7428 19.5012 27.766 19.6793C27.2123 20.8043 27.0955 21.9571 27.6139 23.1211C28.1621 24.3509 29.0988 25.0651 30.4742 25.1411C30.8313 25.1606 31.0678 25.3526 31.0706 25.6893C31.0817 26.9608 31.0725 28.2324 31.0688 29.5049C31.0688 29.5355 31.04 29.5652 31.0242 29.5958L31.0252 29.5939Z" fill="#455A64"/>
<path d="M20.1922 3.06335C20.1616 2.89455 20.028 2.93443 19.9204 2.9335C19.5652 2.92979 19.21 2.93072 18.8548 2.9335C18.7017 2.93443 18.5561 2.92052 18.4541 2.78696C19.7294 2.09414 21.0037 1.40132 22.279 0.709426C22.6639 0.500744 23.0469 0.286498 23.4374 0.088947C23.7713 -0.0807803 24.0532 -0.00565509 24.2313 0.320815C24.7173 1.21026 25.1875 2.10805 25.6643 3.00306C25.4556 3.17001 25.2089 3.08375 24.9789 3.10137C24.8444 3.11158 24.708 3.119 24.5736 3.12456C24.3871 3.12456 24.3269 2.97895 24.2545 2.84725C24.0709 2.51336 23.8844 2.1804 23.711 1.84001C23.5005 1.42729 23.4448 1.42172 23.0516 1.64061C22.2438 2.09043 21.4229 2.51614 20.6095 2.95576C20.4843 3.02347 20.3591 3.13569 20.1931 3.06428L20.1922 3.06335Z" fill="#455A64"/>
<path d="M24.4885 3.07279C24.8725 2.9281 25.2722 3.03383 25.6636 3.00137C26.0318 3.45954 25.9335 3.8732 25.4151 4.18854C24.4125 4.79881 23.9654 6.088 24.2502 7.31875C24.2863 7.4755 24.3271 7.63038 24.3661 7.7862C23.9933 7.78713 23.6213 7.78898 23.2485 7.78991C23.0862 7.7287 23.0871 7.57381 23.0658 7.44396C22.9035 6.4831 23.1001 5.58531 23.575 4.7478C23.7734 4.39722 24.0044 4.06055 24.3123 3.79343C24.4987 3.63205 24.61 3.47809 24.4653 3.2351C24.4357 3.18594 24.4496 3.12287 24.4876 3.07279H24.4885Z" fill="#455A64"/>
<path d="M1.11624 24.4464C1.10882 25.0242 1.1014 25.6021 1.09398 26.1799L1.08471 26.1762C1.07636 26.1075 1.06152 26.0398 1.06152 25.9712C1.06152 22.2966 1.06431 18.6219 1.06616 14.9473C1.16076 15.4221 1.09028 15.9016 1.10511 16.3784C1.11903 16.8467 1.11439 17.3151 1.1181 17.7835C1.23032 17.9198 1.21919 18.0858 1.21919 18.2454C1.22105 20.1578 1.22105 22.0712 1.21919 23.9836C1.21919 24.1441 1.2294 24.3092 1.11717 24.4455L1.11624 24.4464Z" fill="#455A64"/>
<path d="M31.0281 17.6027C31.0272 16.269 31.0253 14.9353 31.0244 13.6025C31.0828 13.6702 31.0782 13.7519 31.0782 13.8326C31.0782 15.0123 31.0782 16.192 31.0782 17.3718C31.0782 17.4515 31.0866 17.535 31.0281 17.6027V17.6027Z" fill="#455A64"/>
<path d="M1.08509 26.1763L1.09437 26.18C1.09529 27.2948 1.09715 28.4087 1.09808 29.5235C1.01275 28.9967 1.07025 28.4671 1.06376 27.9394C1.05634 27.3523 1.07675 26.7643 1.08417 26.1772L1.08509 26.1763Z" fill="#455A64"/>
<path d="M2.15312 17.7832C2.15962 19.486 2.16704 21.1898 2.16982 22.8926C2.17075 23.4102 2.15869 23.9277 2.1522 24.4452C1.80718 24.4452 1.46123 24.4452 1.11621 24.4462C1.11621 22.2249 1.11621 20.0045 1.11621 17.7832C1.46123 17.7832 1.80625 17.7832 2.1522 17.7832H2.15312Z" fill="#455A64"/>
<path d="M29.9757 14.3183C29.8384 14.3081 29.7011 14.2887 29.5639 14.2887C20.5739 14.2868 11.5839 14.2868 2.59485 14.2887C2.44738 14.2887 2.29342 14.2562 2.1543 14.3397C2.25725 14.1672 2.42605 14.246 2.56331 14.246C9.59355 14.2414 16.6247 14.2423 23.6549 14.2423C25.6323 14.2423 27.6097 14.2414 29.5871 14.2451C29.7178 14.2451 29.8681 14.1876 29.9775 14.3183H29.9757Z" fill="#455A64"/>
<path d="M21.6969 13.1933C21.7665 13.0013 21.4233 12.8612 21.606 12.6813C21.7321 12.557 21.9251 12.5023 22.0874 12.4151C22.4834 12.2027 22.4788 12.2046 22.7014 12.6034C22.8126 12.8037 22.8906 13.0245 23.0529 13.1951C22.6012 13.3194 22.1486 13.3213 21.6969 13.1933V13.1933Z" fill="#455A64"/>
<path d="M11.3193 19.7145C11.323 18.6331 12.2301 17.7279 13.3106 17.7251C14.4013 17.7223 15.3269 18.6563 15.3093 19.7442C15.2926 20.8284 14.3762 21.7281 13.2985 21.7169C12.2143 21.7058 11.3147 20.796 11.3184 19.7155L11.3193 19.7145Z" fill="#FFC40C"/>
<path d="M18.9621 25.4276C17.8603 25.4304 16.9782 24.5567 16.9727 23.4567C16.9671 22.341 17.8529 21.4552 18.9714 21.458C20.0584 21.4608 20.9515 22.3586 20.9506 23.4484C20.9497 24.5381 20.0584 25.4248 18.9621 25.4276V25.4276Z" fill="#FFC40C"/>
<path d="M14.2915 25.4321C13.8834 25.434 13.6191 25.037 13.7962 24.6577C13.9428 24.3451 14.1246 24.0483 14.2934 23.746C15.3089 21.9337 16.3245 20.1214 17.341 18.3101C17.3865 18.2294 17.4291 18.1478 17.4783 18.0699C17.6796 17.7434 17.9801 17.6451 18.2676 17.8102C18.5365 17.9641 18.6135 18.2767 18.4466 18.5976C18.2973 18.8842 18.1322 19.1624 17.9745 19.4444C16.9367 21.2975 15.8979 23.1496 14.8628 25.0036C14.7339 25.2355 14.5948 25.4396 14.2906 25.4331L14.2915 25.4321Z" fill="#FFC40C"/>
<path d="M7.21263 17.8538C6.45025 17.8538 5.68787 17.8556 4.92456 17.8538C4.52389 17.8519 4.29666 17.6608 4.28553 17.3297C4.2744 16.981 4.50998 16.751 4.91065 16.7501C6.4586 16.7454 8.00748 16.7454 9.55543 16.7501C9.96259 16.751 10.2028 16.9727 10.1972 17.3158C10.1917 17.6553 9.95239 17.8528 9.5341 17.8538C8.75966 17.8556 7.98615 17.8538 7.21171 17.8538H7.21263Z" fill="#FFC40C"/>
<path d="M7.20701 20.7065C6.44463 20.7065 5.68225 20.7093 4.91986 20.7056C4.51827 20.7037 4.29568 20.5127 4.2864 20.1778C4.27713 19.8291 4.50899 19.6037 4.91708 19.6028C6.46503 19.5972 8.01298 19.5972 9.56093 19.6028C9.96345 19.6037 10.2065 19.8347 10.1981 20.176C10.1898 20.5052 9.95975 20.7037 9.56371 20.7056C8.77815 20.7102 7.99258 20.7065 7.20701 20.7065V20.7065Z" fill="#455A64"/>
<path d="M7.23942 23.5599C6.47704 23.5599 5.71465 23.5617 4.95227 23.5599C4.51543 23.558 4.29469 23.379 4.28542 23.0303C4.27615 22.6704 4.51172 22.458 4.9532 22.4571C6.47796 22.4525 8.0018 22.4525 9.52656 22.4571C9.95784 22.458 10.2083 22.6843 10.1971 23.0321C10.1869 23.3707 9.95227 23.558 9.52564 23.5589C8.76325 23.5617 8.00087 23.5589 7.23849 23.5589L7.23942 23.5599Z" fill="#FFC40C"/>
<path d="M7.25228 25.3221C8.03692 25.3221 8.82157 25.3128 9.60621 25.3258C10.0903 25.3332 10.3547 25.7821 10.1163 26.1577C10.0004 26.3395 9.82787 26.4146 9.61734 26.4146C8.036 26.4146 6.45466 26.4183 4.87425 26.4118C4.5014 26.41 4.28994 26.1994 4.28716 25.873C4.28345 25.5335 4.5014 25.3267 4.89836 25.323C5.683 25.3156 6.46764 25.3211 7.25228 25.3211V25.3221Z" fill="#455A64"/>
<path d="M23.1906 15.1764C23.1906 15.5269 23.0171 15.7022 22.6703 15.7022C22.2782 15.7022 22.0822 15.5022 22.0822 15.1022C22.0822 15.0447 22.0897 14.9862 22.0813 14.9306C22.0396 14.6625 22.1407 14.5457 22.4171 14.5911C22.4838 14.6022 22.5543 14.593 22.623 14.593C23.0007 14.593 23.19 14.7874 23.1906 15.1764Z" fill="#455A64"/>
<path d="M23.1913 17.3773C23.1913 17.7409 22.9777 17.9226 22.5505 17.9226C22.2382 17.9226 22.0824 17.7167 22.083 17.3049C22.083 16.976 22.3149 16.8115 22.7786 16.8115C23.0538 16.8115 23.1913 17.0001 23.1913 17.3773Z" fill="#455A64"/>
<path d="M22.6376 20.142C22.2679 20.142 22.083 19.9308 22.083 19.5085C22.083 19.1913 22.3087 19.0327 22.7601 19.0327C23.0476 19.0327 23.1913 19.2609 23.1913 19.7172C23.1913 20.0004 23.0068 20.142 22.6376 20.142V20.142Z" fill="#455A64"/>
<path d="M22.6386 22.3622C22.2676 22.3622 22.0824 22.1604 22.083 21.7566C22.083 21.4215 22.3143 21.2539 22.7768 21.2539C23.0531 21.2539 23.1913 21.479 23.1913 21.9291C23.1913 22.2179 23.0071 22.3622 22.6386 22.3622V22.3622Z" fill="#455A64"/>
<path d="M22.0833 24.0236C22.0833 23.6563 22.3096 23.4727 22.7622 23.4727C23.0491 23.4727 23.1923 23.7036 23.1916 24.1655C23.1916 24.581 23.1916 24.5847 22.4812 24.5782C22.0138 24.5745 22.0917 24.658 22.0833 24.0236Z" fill="#455A64"/>
<path d="M23.1913 26.2486C23.1913 26.6171 22.9774 26.8014 22.5495 26.8014C22.2385 26.8014 22.083 26.5812 22.083 26.141C22.083 25.8436 22.3211 25.6952 22.7972 25.6958C23.0599 25.6958 23.1916 25.8804 23.1923 26.2495L23.1913 26.2486Z" fill="#455A64"/>
<path d="M22.6605 28.5895C22.5612 28.5895 22.4907 28.5802 22.423 28.5913C22.142 28.6368 22.0771 28.5134 22.0724 28.2454C22.0678 27.9662 22.1541 27.8707 22.424 27.9068C22.5492 27.9235 22.6809 27.9254 22.8051 27.9068C23.1233 27.8577 23.2067 27.9829 23.204 28.2982C23.1984 28.8148 22.8181 28.4911 22.6623 28.5904L22.6605 28.5895Z" fill="#455A64"/>
<path d="M18.7887 5.30896C18.7693 5.34142 18.76 5.3813 18.7359 5.39429C18.4632 5.54361 18.1924 5.69943 17.9104 5.83113C17.7676 5.89791 17.7351 5.73745 17.7064 5.65676C17.6099 5.3878 17.2427 5.13552 17.4105 4.88047C17.5617 4.65138 17.9318 4.56606 18.2072 4.42137C18.2304 4.40931 18.2879 4.41395 18.2972 4.42972C18.4632 4.72002 18.6246 5.01217 18.7887 5.30896V5.30896Z" fill="#455A64"/>
<path d="M19.8391 7.26497C19.7584 7.41986 19.5942 7.46345 19.457 7.52188C19.2566 7.60814 19.0285 7.89473 18.8643 7.74355C18.6408 7.53858 18.5416 7.19819 18.3941 6.91253C18.3839 6.89398 18.4071 6.83834 18.4284 6.82628C18.7113 6.67325 18.996 6.523 19.2826 6.37738C19.3002 6.36811 19.3512 6.38758 19.3633 6.40706C19.5219 6.68716 19.6768 6.96911 19.84 7.26497H19.8391Z" fill="#455A64"/>
<path d="M20.8743 9.22097C20.8687 9.30815 20.7899 9.32299 20.7351 9.3573C19.9616 9.84794 19.8689 9.8164 19.4942 8.97982C19.432 8.8407 19.4469 8.77114 19.5814 8.71642C19.6342 8.69509 19.6815 8.66077 19.7344 8.63759C19.9524 8.54206 20.2065 8.25825 20.3586 8.35007C20.6201 8.50681 20.6878 8.88151 20.8511 9.15697C20.8622 9.17645 20.8668 9.19871 20.8752 9.22004L20.8743 9.22097Z" fill="#455A64"/>
<path d="M21.0536 11.7129C20.9191 11.7213 20.9033 11.61 20.8737 11.5367C20.7642 11.2705 20.4109 10.996 20.5509 10.7678C20.6956 10.5313 21.0749 10.4228 21.3689 10.2995C21.5025 10.2429 21.5377 10.4312 21.5776 10.523C21.6824 10.766 22.0154 11.0238 21.867 11.2334C21.6991 11.469 21.33 11.5608 21.0545 11.7129H21.0536Z" fill="#455A64"/>
</g>
<defs>
<clipPath id="clip0_429_568">
<rect width="31.0786" height="30" fill="white"/>
</clipPath>
</defs>
</svg>
